M48
; DRILL file {KiCad 7.0.11+dfsg-1build4} date Sat 23 Aug 2025 12:11:07 PM CDT
; FORMAT={-:-/ absolute / inch / decimal}
; #@! TF.CreationDate,2025-08-23T12:11:07-05:00
; #@! TF.GenerationSoftware,Kicad,Pcbnew,7.0.11+dfsg-1build4
; #@! TF.FileFunction,Plated,1,2,PTH
FMAT,2
INCH
; #@! TA.AperFunction,Plated,PTH,ViaDrill
T1C0.0118
; #@! TA.AperFunction,Plated,PTH,ComponentDrill
T2C0.0315
; #@! TA.AperFunction,Plated,PTH,ComponentDrill
T3C0.0394
; #@! TA.AperFunction,Plated,PTH,ComponentDrill
T4C0.0433
; #@! TA.AperFunction,Plated,PTH,ComponentDrill
T5C0.0472
; #@! TA.AperFunction,Plated,PTH,ComponentDrill
T6C0.0598
; #@! TA.AperFunction,Plated,PTH,ComponentDrill
T7C0.0984
%
G90
G05
T1
X4.67Y-4.27
X5.2Y-3.82
T2
X4.09Y-2.48
X4.1884Y-2.48
X4.32Y-3.74
X4.32Y-3.84
X4.32Y-3.94
X4.4676Y-2.724
X4.538Y-2.21
X4.538Y-2.51
X4.566Y-2.724
X4.62Y-5.08
X4.62Y-5.38
X4.72Y-2.32
X4.72Y-2.62
X4.76Y-5.08
X4.76Y-5.38
X4.86Y-2.32
X4.86Y-2.62
X4.95Y-5.08
X4.95Y-5.38
X5.017Y-2.9581
X5.017Y-3.155
X5.08Y-5.08
X5.08Y-5.38
X5.145Y-2.9591
X5.145Y-3.156
X5.273Y-2.9591
X5.273Y-3.156
X5.403Y-2.9621
X5.403Y-3.159
X5.537Y-2.9611
X5.537Y-3.158
X5.54Y-5.1
X5.54Y-5.4
X5.56Y-2.32
X5.56Y-2.62
X5.669Y-2.9611
X5.669Y-3.158
X5.68Y-5.1
X5.68Y-5.4
X5.7Y-2.32
X5.7Y-2.62
X5.799Y-2.9611
X5.799Y-3.158
X5.84Y-2.32
X5.84Y-2.62
X5.84Y-5.1
X5.84Y-5.4
X5.98Y-5.1
X5.98Y-5.4
X6.049Y-3.0046
X6.049Y-3.103
X6.12Y-5.1
X6.12Y-5.4
X6.26Y-5.1
X6.26Y-5.4
X6.3Y-2.904
X6.34Y-3.28
X6.34Y-3.58
X6.34Y-3.68
X6.34Y-3.98
X6.3984Y-2.904
X6.4Y-4.688
X6.4Y-4.81
X6.4004Y-5.0827
X6.4016Y-4.9457
X6.484Y-3.525
X6.506Y-3.096
X6.506Y-3.396
X6.55Y-4.08
X6.55Y-4.204
X6.58Y-2.3
X6.58Y-2.6
X6.607Y-3.653
X6.652Y-3.904
X6.677Y-2.808
X6.677Y-3.108
X6.689Y-3.199
X6.689Y-3.299
X6.689Y-3.399
X6.7Y-4.688
X6.7Y-4.81
X6.7004Y-5.0827
X6.7016Y-4.9457
X6.72Y-2.3
X6.72Y-2.6
X6.752Y-3.904
X6.784Y-3.525
X6.85Y-2.3
X6.85Y-2.6
X6.85Y-4.08
X6.85Y-4.204
X6.85Y-4.566
X6.85Y-4.666
X6.85Y-4.766
X6.852Y-3.904
X6.865Y-4.9114
X6.865Y-5.0114
X6.865Y-5.1114
X6.866Y-2.918
X6.866Y-3.018
X6.866Y-3.118
X6.899Y-3.215
X6.899Y-3.515
X6.907Y-3.653
X7.005Y-3.665
X7.005Y-3.897
X7.009Y-3.464
X7.022Y-2.978
X7.025Y-4.365
X7.025Y-4.56
X7.025Y-4.8
X7.025Y-5.0
X7.028Y-3.266
X7.04Y-5.185
X7.105Y-3.665
X7.105Y-3.897
X7.109Y-3.464
X7.125Y-4.365
X7.125Y-4.56
X7.125Y-4.8
X7.125Y-5.0
X7.128Y-3.266
X7.205Y-3.665
X7.205Y-3.897
X7.209Y-3.464
X7.225Y-4.365
X7.225Y-4.56
X7.225Y-4.8
X7.225Y-5.0
X7.228Y-3.266
X7.322Y-2.978
X7.34Y-5.185
X7.377Y-4.634
X7.377Y-4.934
X7.422Y-3.58
X7.422Y-3.88
T3
X4.39Y-2.32
X4.39Y-2.42
X4.6Y-3.3
X4.6Y-3.9
X4.7Y-3.3
X4.7Y-3.9
X4.71Y-2.13
X4.8Y-3.3
X4.8Y-3.9
X4.81Y-2.13
X4.9Y-3.3
X4.9Y-3.9
X5.0Y-3.3
X5.0Y-3.9
X5.1Y-3.3
X5.1Y-3.9
X5.2Y-3.3
X5.2Y-3.9
X5.23Y-2.62
X5.3Y-3.3
X5.3Y-3.9
X5.33Y-2.62
X5.4Y-3.3
X5.4Y-3.9
X5.5Y-3.3
X5.5Y-3.9
X5.6Y-3.3
X5.6Y-3.9
X5.7Y-3.3
X5.7Y-3.9
X5.72Y-2.14
X5.8Y-3.3
X5.8Y-3.9
X5.82Y-2.14
X5.9Y-3.3
X5.9Y-3.9
X6.0Y-3.3
X6.0Y-3.9
X6.24Y-2.58
X6.34Y-2.58
X6.73Y-2.14
X6.83Y-2.14
T4
X4.512Y-5.6228
X4.512Y-5.8
X4.54Y-3.08
X4.64Y-3.08
X4.74Y-3.08
X4.768Y-5.6228
X4.768Y-5.8
X4.9441Y-5.62
X4.9441Y-5.7972
X5.2Y-5.62
X5.2Y-5.7972
X5.3841Y-5.62
X5.3841Y-5.7972
X5.64Y-5.62
X5.64Y-5.7972
X5.8241Y-5.6228
X5.8241Y-5.8
X6.08Y-5.6228
X6.08Y-5.8
X6.252Y-5.6114
X6.252Y-5.7886
X6.508Y-5.6114
X6.508Y-5.7886
X7.52Y-4.675
X7.52Y-4.775
X7.52Y-4.875
X7.531Y-5.201
X7.531Y-5.301
X7.531Y-5.401
X7.555Y-3.604
X7.555Y-3.704
X7.555Y-3.804
X7.624Y-2.44
X7.624Y-2.54
X7.624Y-2.64
T5
X4.3Y-4.16
X4.4Y-4.16
X4.5Y-4.16
X4.6Y-4.16
X4.7Y-4.16
X4.8Y-4.16
X4.9Y-4.16
X5.0Y-4.16
X5.1Y-4.16
X5.2Y-4.16
X5.3Y-4.16
X5.4Y-4.16
X5.5Y-4.16
X5.6Y-4.16
X5.7Y-4.16
X5.8Y-4.16
T6
X4.186Y-2.758
X4.186Y-2.958
X5.08Y-2.22
X5.28Y-2.22
X6.12Y-2.22
X6.32Y-2.22
X7.09Y-5.66
X7.152Y-2.748
X7.17Y-2.24
X7.29Y-5.66
X7.352Y-2.748
X7.37Y-2.24
X7.52Y-4.122
X7.52Y-4.322
X7.606Y-3.054
X7.606Y-3.254
T7
X4.0835Y-4.16
X4.0835Y-5.3805
X7.0362Y-5.3805
X7.0362Y-4.16
T3
G00X4.1038Y-3.2406
M15
G01X4.1038Y-3.3194
M16
G05
G00X4.1825Y-3.465
M15
G01X4.2613Y-3.465
M16
G05
G00X4.34Y-3.2406
M15
G01X4.34Y-3.3194
M16
G05
M30
