%TF.GenerationSoftware,KiCad,Pcbnew,7.0.11+dfsg-1build4*%
%TF.CreationDate,2025-08-25T21:02:58-05:00*%
%TF.ProjectId,SilentTempController,53696c65-6e74-4546-956d-70436f6e7472,rev?*%
%TF.SameCoordinates,Original*%
%TF.FileFunction,Copper,L2,Bot*%
%TF.FilePolarity,Positive*%
%FSLAX46Y46*%
G04 Gerber Fmt 4.6, Leading zero omitted, Abs format (unit mm)*
G04 Created by KiCad (PCBNEW 7.0.11+dfsg-1build4) date 2025-08-25 21:02:58*
%MOMM*%
%LPD*%
G01*
G04 APERTURE LIST*
G04 Aperture macros list*
%AMRoundRect*
0 Rectangle with rounded corners*
0 $1 Rounding radius*
0 $2 $3 $4 $5 $6 $7 $8 $9 X,Y pos of 4 corners*
0 Add a 4 corners polygon primitive as box body*
4,1,4,$2,$3,$4,$5,$6,$7,$8,$9,$2,$3,0*
0 Add four circle primitives for the rounded corners*
1,1,$1+$1,$2,$3*
1,1,$1+$1,$4,$5*
1,1,$1+$1,$6,$7*
1,1,$1+$1,$8,$9*
0 Add four rect primitives between the rounded corners*
20,1,$1+$1,$2,$3,$4,$5,0*
20,1,$1+$1,$4,$5,$6,$7,0*
20,1,$1+$1,$6,$7,$8,$9,0*
20,1,$1+$1,$8,$9,$2,$3,0*%
G04 Aperture macros list end*
%TA.AperFunction,ComponentPad*%
%ADD10C,1.600000*%
%TD*%
%TA.AperFunction,ComponentPad*%
%ADD11O,1.600000X1.600000*%
%TD*%
%TA.AperFunction,ComponentPad*%
%ADD12R,1.500000X1.500000*%
%TD*%
%TA.AperFunction,ComponentPad*%
%ADD13C,1.500000*%
%TD*%
%TA.AperFunction,ComponentPad*%
%ADD14R,2.000000X1.905000*%
%TD*%
%TA.AperFunction,ComponentPad*%
%ADD15O,2.000000X1.905000*%
%TD*%
%TA.AperFunction,ComponentPad*%
%ADD16R,1.700000X1.700000*%
%TD*%
%TA.AperFunction,ComponentPad*%
%ADD17O,1.700000X1.700000*%
%TD*%
%TA.AperFunction,ComponentPad*%
%ADD18C,2.000000*%
%TD*%
%TA.AperFunction,ComponentPad*%
%ADD19R,3.000000X3.000000*%
%TD*%
%TA.AperFunction,ComponentPad*%
%ADD20C,3.000000*%
%TD*%
%TA.AperFunction,ComponentPad*%
%ADD21R,3.500000X3.500000*%
%TD*%
%TA.AperFunction,ComponentPad*%
%ADD22RoundRect,0.750000X-0.750000X-1.000000X0.750000X-1.000000X0.750000X1.000000X-0.750000X1.000000X0*%
%TD*%
%TA.AperFunction,ComponentPad*%
%ADD23RoundRect,0.875000X-0.875000X-0.875000X0.875000X-0.875000X0.875000X0.875000X-0.875000X0.875000X0*%
%TD*%
%TA.AperFunction,ComponentPad*%
%ADD24R,1.600000X1.600000*%
%TD*%
%TA.AperFunction,ComponentPad*%
%ADD25C,1.440000*%
%TD*%
%TA.AperFunction,ComponentPad*%
%ADD26R,1.905000X2.000000*%
%TD*%
%TA.AperFunction,ComponentPad*%
%ADD27O,1.905000X2.000000*%
%TD*%
%TA.AperFunction,ComponentPad*%
%ADD28R,1.800000X2.600000*%
%TD*%
%TA.AperFunction,ComponentPad*%
%ADD29O,1.800000X2.600000*%
%TD*%
%TA.AperFunction,ViaPad*%
%ADD30C,0.600000*%
%TD*%
%TA.AperFunction,Conductor*%
%ADD31C,3.000000*%
%TD*%
%TA.AperFunction,Conductor*%
%ADD32C,2.000000*%
%TD*%
%TA.AperFunction,Conductor*%
%ADD33C,0.350000*%
%TD*%
%TA.AperFunction,Conductor*%
%ADD34C,1.500000*%
%TD*%
G04 APERTURE END LIST*
D10*
%TO.P,R14,1*%
%TO.N,/NTC1REF*%
X167132000Y-66040000D03*
D11*
%TO.P,R14,2*%
%TO.N,GND*%
X167132000Y-58420000D03*
%TD*%
D12*
%TO.P,Q6,1,E*%
%TO.N,Net-(Q6-E)*%
X180500000Y-116640000D03*
D13*
%TO.P,Q6,2,B*%
%TO.N,Net-(Q5-C)*%
X177960000Y-116640000D03*
%TO.P,Q6,3,C*%
%TO.N,+12V*%
X175420000Y-116640000D03*
%TD*%
D10*
%TO.P,C6,1*%
%TO.N,/NTC2*%
X137236200Y-80238600D03*
%TO.P,C6,2*%
%TO.N,GND*%
X137236200Y-75238600D03*
%TD*%
D14*
%TO.P,Q8,1,G*%
%TO.N,Net-(Q8-G)*%
X191008000Y-118745000D03*
D15*
%TO.P,Q8,2,D*%
%TO.N,Net-(J13-Pin_2)*%
X191008000Y-121285000D03*
%TO.P,Q8,3,S*%
%TO.N,GND*%
X191008000Y-123825000D03*
%TD*%
D16*
%TO.P,J5,1,Pin_1*%
%TO.N,/NTC2*%
X147828000Y-54356000D03*
D17*
%TO.P,J5,2,Pin_2*%
%TO.N,GND*%
X145288000Y-54356000D03*
%TD*%
D10*
%TO.P,C15,1*%
%TO.N,Net-(J14-Pin_2)*%
X183400000Y-134710000D03*
%TO.P,C15,2*%
%TO.N,GND*%
X183400000Y-129710000D03*
%TD*%
%TO.P,R13,1*%
%TO.N,/VREF*%
X170688000Y-66040000D03*
D11*
%TO.P,R13,2*%
%TO.N,/NTC1REF*%
X170688000Y-58420000D03*
%TD*%
D10*
%TO.P,R29,1*%
%TO.N,+12V*%
X160610000Y-125950000D03*
D11*
%TO.P,R29,2*%
%TO.N,Net-(Q10-B)*%
X168230000Y-125950000D03*
%TD*%
D12*
%TO.P,Q5,1,E*%
%TO.N,GND*%
X171530000Y-115660000D03*
D13*
%TO.P,Q5,2,B*%
%TO.N,Net-(Q5-B)*%
X171530000Y-118200000D03*
%TO.P,Q5,3,C*%
%TO.N,Net-(Q5-C)*%
X171530000Y-120740000D03*
%TD*%
D18*
%TO.P,SW1,1,1*%
%TO.N,GND*%
X127508000Y-146812000D03*
X121008000Y-146812000D03*
%TO.P,SW1,2,2*%
%TO.N,Net-(R2-Pad2)*%
X127508000Y-142312000D03*
X121008000Y-142312000D03*
%TD*%
D10*
%TO.P,R12,1*%
%TO.N,/VREF*%
X161036000Y-83312000D03*
D11*
%TO.P,R12,2*%
%TO.N,+5V*%
X161036000Y-90932000D03*
%TD*%
D10*
%TO.P,C13,1*%
%TO.N,Net-(J12-Pin_2)*%
X187540000Y-87120000D03*
%TO.P,C13,2*%
%TO.N,GND*%
X187540000Y-82120000D03*
%TD*%
%TO.P,R27,1*%
%TO.N,Net-(Q6-E)*%
X187690000Y-124870000D03*
D11*
%TO.P,R27,2*%
%TO.N,Net-(Q8-G)*%
X187690000Y-117250000D03*
%TD*%
D19*
%TO.P,J2,1,Pin_1*%
%TO.N,+24V*%
X171230000Y-143830000D03*
D20*
%TO.P,J2,2,Pin_2*%
%TO.N,GND*%
X166150000Y-143830000D03*
%TD*%
D10*
%TO.P,C3,1*%
%TO.N,/VREF*%
X147294600Y-80213200D03*
%TO.P,C3,2*%
%TO.N,GND*%
X147294600Y-75213200D03*
%TD*%
%TO.P,R5,1*%
%TO.N,Net-(R4-Pad2)*%
X140716000Y-137160000D03*
D11*
%TO.P,R5,2*%
%TO.N,+5V*%
X140716000Y-129540000D03*
%TD*%
D10*
%TO.P,R36,1*%
%TO.N,Net-(Q17-B)*%
X165252400Y-86258400D03*
D11*
%TO.P,R36,2*%
%TO.N,GND*%
X165252400Y-78638400D03*
%TD*%
D21*
%TO.P,J1,1*%
%TO.N,+24V*%
X110236000Y-83312000D03*
D22*
%TO.P,J1,2*%
%TO.N,GND*%
X104236000Y-83312000D03*
D23*
%TO.P,J1,3*%
%TO.N,unconnected-(J1-Pad3)*%
X107236000Y-88012000D03*
%TD*%
D24*
%TO.P,C2,1*%
%TO.N,+24V*%
X107391200Y-73431400D03*
D10*
%TO.P,C2,2*%
%TO.N,GND*%
X104891200Y-73431400D03*
%TD*%
D19*
%TO.P,J4,1,Pin_1*%
%TO.N,/NTC1*%
X182118000Y-56896000D03*
D20*
%TO.P,J4,2,Pin_2*%
%TO.N,GND*%
X187198000Y-56896000D03*
%TD*%
D12*
%TO.P,Q11,1,E*%
%TO.N,Net-(Q10-E)*%
X180570000Y-121660000D03*
D13*
%TO.P,Q11,2,B*%
%TO.N,Net-(Q10-B)*%
X178030000Y-121660000D03*
%TO.P,Q11,3,C*%
%TO.N,GND*%
X175490000Y-121660000D03*
%TD*%
D10*
%TO.P,C9,1*%
%TO.N,/NTC2REF*%
X133934200Y-80162400D03*
%TO.P,C9,2*%
%TO.N,GND*%
X133934200Y-75162400D03*
%TD*%
%TO.P,R16,1*%
%TO.N,/VREF*%
X144780000Y-66548000D03*
D11*
%TO.P,R16,2*%
%TO.N,/NTC2REF*%
X144780000Y-58928000D03*
%TD*%
D10*
%TO.P,R33,1*%
%TO.N,Net-(Q14-E)*%
X178358800Y-75641200D03*
D11*
%TO.P,R33,2*%
%TO.N,Net-(Q16-G)*%
X185978800Y-75641200D03*
%TD*%
D19*
%TO.P,J14,1,Pin_1*%
%TO.N,+24V*%
X183680000Y-143930000D03*
D20*
%TO.P,J14,2,Pin_2*%
%TO.N,Net-(J14-Pin_2)*%
X178600000Y-143930000D03*
%TD*%
D25*
%TO.P,RV1,1,1*%
%TO.N,+5V*%
X109728000Y-100076000D03*
%TO.P,RV1,2,2*%
%TO.N,Net-(DS1-VO)*%
X109728000Y-97536000D03*
%TO.P,RV1,3,3*%
%TO.N,GND*%
X109728000Y-94996000D03*
%TD*%
D10*
%TO.P,R17,1*%
%TO.N,/NTC2REF*%
X141224000Y-66548000D03*
D11*
%TO.P,R17,2*%
%TO.N,GND*%
X141224000Y-58928000D03*
%TD*%
D12*
%TO.P,Q13,1,E*%
%TO.N,GND*%
X174396400Y-74117200D03*
D13*
%TO.P,Q13,2,B*%
%TO.N,Net-(Q13-B)*%
X174396400Y-76657200D03*
%TO.P,Q13,3,C*%
%TO.N,Net-(Q13-C)*%
X174396400Y-79197200D03*
%TD*%
D10*
%TO.P,R22,1*%
%TO.N,Net-(Q1-B)*%
X172760000Y-103650000D03*
D11*
%TO.P,R22,2*%
%TO.N,/OC1A*%
X165140000Y-103650000D03*
%TD*%
D12*
%TO.P,Q7,1,E*%
%TO.N,Net-(Q6-E)*%
X180430000Y-111650000D03*
D13*
%TO.P,Q7,2,B*%
%TO.N,Net-(Q5-C)*%
X177890000Y-111650000D03*
%TO.P,Q7,3,C*%
%TO.N,GND*%
X175350000Y-111650000D03*
%TD*%
D18*
%TO.P,SW3,1,1*%
%TO.N,GND*%
X148844000Y-146812000D03*
X142344000Y-146812000D03*
%TO.P,SW3,2,2*%
%TO.N,Net-(R6-Pad2)*%
X148844000Y-142312000D03*
X142344000Y-142312000D03*
%TD*%
D24*
%TO.P,C11,1*%
%TO.N,+12V*%
X156750000Y-79250000D03*
D10*
%TO.P,C11,2*%
%TO.N,GND*%
X156750000Y-76750000D03*
%TD*%
%TO.P,R18,1*%
%TO.N,/VREF*%
X148336000Y-66548000D03*
D11*
%TO.P,R18,2*%
%TO.N,/NTC2*%
X148336000Y-58928000D03*
%TD*%
D14*
%TO.P,Q3,1,G*%
%TO.N,Net-(Q3-G)*%
X191897000Y-91541600D03*
D15*
%TO.P,Q3,2,D*%
%TO.N,Net-(J12-Pin_2)*%
X191897000Y-94081600D03*
%TO.P,Q3,3,S*%
%TO.N,GND*%
X191897000Y-96621600D03*
%TD*%
D10*
%TO.P,R24,1*%
%TO.N,Net-(Q5-B)*%
X168220000Y-116080000D03*
D11*
%TO.P,R24,2*%
%TO.N,/OC1B*%
X160600000Y-116080000D03*
%TD*%
D19*
%TO.P,J15,1,Pin_1*%
%TO.N,+24V*%
X181660800Y-69799200D03*
D20*
%TO.P,J15,2,Pin_2*%
%TO.N,Net-(J15-Pin_2)*%
X186740800Y-69799200D03*
%TD*%
D10*
%TO.P,R25,1*%
%TO.N,+12V*%
X165150000Y-106810000D03*
D11*
%TO.P,R25,2*%
%TO.N,Net-(Q1-C)*%
X172770000Y-106810000D03*
%TD*%
D19*
%TO.P,J12,1,Pin_1*%
%TO.N,+24V*%
X193192400Y-77571600D03*
D20*
%TO.P,J12,2,Pin_2*%
%TO.N,Net-(J12-Pin_2)*%
X193192400Y-82651600D03*
%TD*%
D10*
%TO.P,R26,1*%
%TO.N,+12V*%
X160680000Y-119320000D03*
D11*
%TO.P,R26,2*%
%TO.N,Net-(Q5-C)*%
X168300000Y-119320000D03*
%TD*%
D10*
%TO.P,R30,1*%
%TO.N,Net-(Q10-E)*%
X172960000Y-131470000D03*
D11*
%TO.P,R30,2*%
%TO.N,Net-(Q12-G)*%
X180580000Y-131470000D03*
%TD*%
D19*
%TO.P,J13,1,Pin_1*%
%TO.N,+24V*%
X191008000Y-104698800D03*
D20*
%TO.P,J13,2,Pin_2*%
%TO.N,Net-(J13-Pin_2)*%
X191008000Y-109778800D03*
%TD*%
D19*
%TO.P,J8,1,Pin_1*%
%TO.N,/NTC3*%
X129032000Y-56388000D03*
D20*
%TO.P,J8,2,Pin_2*%
%TO.N,GND*%
X134112000Y-56388000D03*
%TD*%
D10*
%TO.P,R3,1*%
%TO.N,Net-(R2-Pad2)*%
X129032000Y-136652000D03*
D11*
%TO.P,R3,2*%
%TO.N,+5V*%
X129032000Y-129032000D03*
%TD*%
D10*
%TO.P,R28,1*%
%TO.N,Net-(Q9-B)*%
X168180000Y-122600000D03*
D11*
%TO.P,R28,2*%
%TO.N,/OC2A*%
X160560000Y-122600000D03*
%TD*%
D10*
%TO.P,R20,1*%
%TO.N,/NTC3REF*%
X115265200Y-63754000D03*
D11*
%TO.P,R20,2*%
%TO.N,GND*%
X115265200Y-56134000D03*
%TD*%
D10*
%TO.P,R7,1*%
%TO.N,Net-(R6-Pad2)*%
X148336000Y-137160000D03*
D11*
%TO.P,R7,2*%
%TO.N,+5V*%
X148336000Y-129540000D03*
%TD*%
D24*
%TO.P,C1,1*%
%TO.N,+5V*%
X115976400Y-69189600D03*
D10*
%TO.P,C1,2*%
%TO.N,GND*%
X113476400Y-69189600D03*
%TD*%
D12*
%TO.P,Q9,1,E*%
%TO.N,GND*%
X171500000Y-123060000D03*
D13*
%TO.P,Q9,2,B*%
%TO.N,Net-(Q9-B)*%
X171500000Y-125600000D03*
%TO.P,Q9,3,C*%
%TO.N,Net-(Q10-B)*%
X171500000Y-128140000D03*
%TD*%
D10*
%TO.P,R19,1*%
%TO.N,/VREF*%
X119888000Y-66548000D03*
D11*
%TO.P,R19,2*%
%TO.N,/NTC3REF*%
X119888000Y-58928000D03*
%TD*%
D10*
%TO.P,C16,1*%
%TO.N,Net-(J15-Pin_2)*%
X190180000Y-62600000D03*
%TO.P,C16,2*%
%TO.N,GND*%
X185180000Y-62600000D03*
%TD*%
D12*
%TO.P,Q1,1,E*%
%TO.N,GND*%
X174040800Y-99161600D03*
D13*
%TO.P,Q1,2,B*%
%TO.N,Net-(Q1-B)*%
X171500800Y-99161600D03*
%TO.P,Q1,3,C*%
%TO.N,Net-(Q1-C)*%
X168960800Y-99161600D03*
%TD*%
D16*
%TO.P,J10,1,Pin_1*%
%TO.N,/NTC2REF*%
X135382000Y-66548000D03*
D17*
%TO.P,J10,2,Pin_2*%
%TO.N,GND*%
X132842000Y-66548000D03*
%TD*%
D18*
%TO.P,SW4,1,1*%
%TO.N,GND*%
X159512000Y-146812000D03*
X153012000Y-146812000D03*
%TO.P,SW4,2,2*%
%TO.N,Net-(R8-Pad2)*%
X159512000Y-142312000D03*
X153012000Y-142312000D03*
%TD*%
D14*
%TO.P,Q12,1,G*%
%TO.N,Net-(Q12-G)*%
X191287400Y-132105400D03*
D15*
%TO.P,Q12,2,D*%
%TO.N,Net-(J14-Pin_2)*%
X191287400Y-134645400D03*
%TO.P,Q12,3,S*%
%TO.N,GND*%
X191287400Y-137185400D03*
%TD*%
D12*
%TO.P,Q14,1,E*%
%TO.N,Net-(Q14-E)*%
X183108600Y-87985600D03*
D13*
%TO.P,Q14,2,B*%
%TO.N,Net-(Q13-C)*%
X180568600Y-87985600D03*
%TO.P,Q14,3,C*%
%TO.N,+12V*%
X178028600Y-87985600D03*
%TD*%
D14*
%TO.P,Q16,1,G*%
%TO.N,Net-(Q16-G)*%
X193649600Y-61976000D03*
D15*
%TO.P,Q16,2,D*%
%TO.N,Net-(J15-Pin_2)*%
X193649600Y-64516000D03*
%TO.P,Q16,3,S*%
%TO.N,GND*%
X193649600Y-67056000D03*
%TD*%
D10*
%TO.P,C5,1*%
%TO.N,/NTC1*%
X143992600Y-80213200D03*
%TO.P,C5,2*%
%TO.N,GND*%
X143992600Y-75213200D03*
%TD*%
%TO.P,R35,1*%
%TO.N,GND*%
X167817800Y-92786200D03*
D11*
%TO.P,R35,2*%
%TO.N,+12V*%
X175437800Y-92786200D03*
%TD*%
D10*
%TO.P,C8,1*%
%TO.N,/NTC1REF*%
X140639800Y-80213200D03*
%TO.P,C8,2*%
%TO.N,GND*%
X140639800Y-75213200D03*
%TD*%
%TO.P,C7,1*%
%TO.N,/NTC3*%
X130683000Y-80162400D03*
%TO.P,C7,2*%
%TO.N,GND*%
X130683000Y-75162400D03*
%TD*%
D18*
%TO.P,SW2,1,1*%
%TO.N,GND*%
X138176000Y-146812000D03*
X131676000Y-146812000D03*
%TO.P,SW2,2,2*%
%TO.N,Net-(R4-Pad2)*%
X138176000Y-142312000D03*
X131676000Y-142312000D03*
%TD*%
D10*
%TO.P,R6,1*%
%TO.N,/D6DISP*%
X151892000Y-129540000D03*
D11*
%TO.P,R6,2*%
%TO.N,Net-(R6-Pad2)*%
X151892000Y-137160000D03*
%TD*%
D12*
%TO.P,Q10,1,E*%
%TO.N,Net-(Q10-E)*%
X180610000Y-126760000D03*
D13*
%TO.P,Q10,2,B*%
%TO.N,Net-(Q10-B)*%
X178070000Y-126760000D03*
%TO.P,Q10,3,C*%
%TO.N,+12V*%
X175530000Y-126760000D03*
%TD*%
D26*
%TO.P,U1,1,VI*%
%TO.N,+24V*%
X115316000Y-78232000D03*
D27*
%TO.P,U1,2,GND*%
%TO.N,GND*%
X117856000Y-78232000D03*
%TO.P,U1,3,VO*%
%TO.N,+5V*%
X120396000Y-78232000D03*
%TD*%
D10*
%TO.P,R2,1*%
%TO.N,/D4DISP*%
X125730000Y-129032000D03*
D11*
%TO.P,R2,2*%
%TO.N,Net-(R2-Pad2)*%
X125730000Y-136652000D03*
%TD*%
D10*
%TO.P,R9,1*%
%TO.N,Net-(R8-Pad2)*%
X159004000Y-137160000D03*
D11*
%TO.P,R9,2*%
%TO.N,+5V*%
X159004000Y-129540000D03*
%TD*%
D16*
%TO.P,J9,1,Pin_1*%
%TO.N,/NTC1REF*%
X161036000Y-65532000D03*
D17*
%TO.P,J9,2,Pin_2*%
%TO.N,GND*%
X158496000Y-65532000D03*
%TD*%
D12*
%TO.P,Q4,1,E*%
%TO.N,Net-(Q2-E)*%
X183007000Y-98983800D03*
D13*
%TO.P,Q4,2,B*%
%TO.N,Net-(Q1-C)*%
X180467000Y-98983800D03*
%TO.P,Q4,3,C*%
%TO.N,+12V*%
X177927000Y-98983800D03*
%TD*%
D24*
%TO.P,A1,1,D1/TX*%
%TO.N,unconnected-(A1-D1{slash}TX-Pad1)*%
X116840000Y-99060000D03*
D11*
%TO.P,A1,2,D0/RX*%
%TO.N,unconnected-(A1-D0{slash}RX-Pad2)*%
X119380000Y-99060000D03*
%TO.P,A1,3,~{RESET}*%
%TO.N,unconnected-(A1-~{RESET}-Pad3)*%
X121920000Y-99060000D03*
%TO.P,A1,4,GND*%
%TO.N,GND*%
X124460000Y-99060000D03*
%TO.P,A1,5,D2*%
%TO.N,/EDISP*%
X127000000Y-99060000D03*
%TO.P,A1,6,D3*%
%TO.N,/OC2B*%
X129540000Y-99060000D03*
%TO.P,A1,7,D4*%
%TO.N,/RSDISP*%
X132080000Y-99060000D03*
%TO.P,A1,8,D5*%
%TO.N,/D4DISP*%
X134620000Y-99060000D03*
%TO.P,A1,9,D6*%
%TO.N,/D5DISP*%
X137160000Y-99060000D03*
%TO.P,A1,10,D7*%
%TO.N,/D6DISP*%
X139700000Y-99060000D03*
%TO.P,A1,11,D8*%
%TO.N,/D7DISP*%
X142240000Y-99060000D03*
%TO.P,A1,12,D9*%
%TO.N,/OC1A*%
X144780000Y-99060000D03*
%TO.P,A1,13,D10*%
%TO.N,/OC1B*%
X147320000Y-99060000D03*
%TO.P,A1,14,D11*%
%TO.N,/OC2A*%
X149860000Y-99060000D03*
%TO.P,A1,15,D12*%
%TO.N,unconnected-(A1-D12-Pad15)*%
X152400000Y-99060000D03*
%TO.P,A1,16,D13*%
%TO.N,unconnected-(A1-D13-Pad16)*%
X152400000Y-83820000D03*
%TO.P,A1,17,3V3*%
%TO.N,unconnected-(A1-3V3-Pad17)*%
X149860000Y-83820000D03*
%TO.P,A1,18,AREF*%
%TO.N,/VREF*%
X147320000Y-83820000D03*
%TO.P,A1,19,A0*%
%TO.N,/NTC1*%
X144780000Y-83820000D03*
%TO.P,A1,20,A1*%
%TO.N,/NTC1REF*%
X142240000Y-83820000D03*
%TO.P,A1,21,A2*%
%TO.N,/NTC2*%
X139700000Y-83820000D03*
%TO.P,A1,22,A3*%
%TO.N,/NTC2REF*%
X137160000Y-83820000D03*
%TO.P,A1,23,A4*%
%TO.N,/NTC3*%
X134620000Y-83820000D03*
%TO.P,A1,24,A5*%
%TO.N,/NTC3REF*%
X132080000Y-83820000D03*
%TO.P,A1,25,A6*%
%TO.N,unconnected-(A1-A6-Pad25)*%
X129540000Y-83820000D03*
%TO.P,A1,26,A7*%
%TO.N,unconnected-(A1-A7-Pad26)*%
X127000000Y-83820000D03*
%TO.P,A1,27,+5V*%
%TO.N,+5V*%
X124460000Y-83820000D03*
%TO.P,A1,28,~{RESET}*%
%TO.N,unconnected-(A1-~{RESET}-Pad28)*%
X121920000Y-83820000D03*
%TO.P,A1,29,GND*%
%TO.N,GND*%
X119380000Y-83820000D03*
%TO.P,A1,30,VIN*%
%TO.N,unconnected-(A1-VIN-Pad30)*%
X116840000Y-83820000D03*
%TD*%
D20*
%TO.P,DS1,*%
%TO.N,*%
X103720900Y-105664000D03*
X103720900Y-136664700D03*
X178719480Y-136664700D03*
X178720000Y-105664000D03*
D28*
%TO.P,DS1,1,VSS*%
%TO.N,GND*%
X109220000Y-105664000D03*
D29*
%TO.P,DS1,2,VDD*%
%TO.N,+5V*%
X111760000Y-105664000D03*
%TO.P,DS1,3,VO*%
%TO.N,Net-(DS1-VO)*%
X114300000Y-105664000D03*
%TO.P,DS1,4,RS*%
%TO.N,/RSDISP*%
X116840000Y-105664000D03*
%TO.P,DS1,5,R/W*%
%TO.N,GND*%
X119380000Y-105664000D03*
%TO.P,DS1,6,E*%
%TO.N,/EDISP*%
X121920000Y-105664000D03*
%TO.P,DS1,7,D0*%
%TO.N,unconnected-(DS1-D0-Pad7)*%
X124460000Y-105664000D03*
%TO.P,DS1,8,D1*%
%TO.N,unconnected-(DS1-D1-Pad8)*%
X127000000Y-105664000D03*
%TO.P,DS1,9,D2*%
%TO.N,unconnected-(DS1-D2-Pad9)*%
X129540000Y-105664000D03*
%TO.P,DS1,10,D3*%
%TO.N,unconnected-(DS1-D3-Pad10)*%
X132080000Y-105664000D03*
%TO.P,DS1,11,D4*%
%TO.N,/D4DISP*%
X134620000Y-105664000D03*
%TO.P,DS1,12,D5*%
%TO.N,/D5DISP*%
X137160000Y-105664000D03*
%TO.P,DS1,13,D6*%
%TO.N,/D6DISP*%
X139700000Y-105664000D03*
%TO.P,DS1,14,D7*%
%TO.N,/D7DISP*%
X142240000Y-105664000D03*
%TO.P,DS1,15,LED(+)*%
%TO.N,Net-(DS1-LED(+))*%
X144780000Y-105664000D03*
%TO.P,DS1,16,LED(-)*%
%TO.N,GND*%
X147320000Y-105664000D03*
%TD*%
D10*
%TO.P,R8,1*%
%TO.N,/D7DISP*%
X155448000Y-129540000D03*
D11*
%TO.P,R8,2*%
%TO.N,Net-(R8-Pad2)*%
X155448000Y-137160000D03*
%TD*%
D10*
%TO.P,C10,1*%
%TO.N,/NTC3REF*%
X127431800Y-80137000D03*
%TO.P,C10,2*%
%TO.N,GND*%
X127431800Y-75137000D03*
%TD*%
D24*
%TO.P,C4,1*%
%TO.N,/VREF*%
X150770000Y-71210000D03*
D10*
%TO.P,C4,2*%
%TO.N,GND*%
X153270000Y-71210000D03*
%TD*%
%TO.P,R10,1*%
%TO.N,/RSDISP*%
X117348000Y-129032000D03*
D11*
%TO.P,R10,2*%
%TO.N,Net-(R10-Pad2)*%
X117348000Y-136652000D03*
%TD*%
D12*
%TO.P,Q15,1,E*%
%TO.N,Net-(Q14-E)*%
X183591200Y-82956400D03*
D13*
%TO.P,Q15,2,B*%
%TO.N,Net-(Q13-C)*%
X181051200Y-82956400D03*
%TO.P,Q15,3,C*%
%TO.N,GND*%
X178511200Y-82956400D03*
%TD*%
D10*
%TO.P,R23,1*%
%TO.N,Net-(Q2-E)*%
X188518800Y-98552000D03*
D11*
%TO.P,R23,2*%
%TO.N,Net-(Q3-G)*%
X188518800Y-90932000D03*
%TD*%
D16*
%TO.P,J7,1,Pin_1*%
%TO.N,/NTC3*%
X122174000Y-54102000D03*
D17*
%TO.P,J7,2,Pin_2*%
%TO.N,GND*%
X119634000Y-54102000D03*
%TD*%
D10*
%TO.P,C12,1*%
%TO.N,Net-(Q17-B)*%
X166280000Y-75950000D03*
%TO.P,C12,2*%
%TO.N,GND*%
X166280000Y-70950000D03*
%TD*%
%TO.P,R15,1*%
%TO.N,/VREF*%
X173990000Y-66040000D03*
D11*
%TO.P,R15,2*%
%TO.N,/NTC1*%
X173990000Y-58420000D03*
%TD*%
D19*
%TO.P,J6,1,Pin_1*%
%TO.N,/NTC2*%
X155448000Y-56388000D03*
D20*
%TO.P,J6,2,Pin_2*%
%TO.N,GND*%
X160528000Y-56388000D03*
%TD*%
D10*
%TO.P,R31,1*%
%TO.N,Net-(Q13-B)*%
X172313600Y-89535000D03*
D11*
%TO.P,R31,2*%
%TO.N,/OC2B*%
X164693600Y-89535000D03*
%TD*%
D18*
%TO.P,SW5,1,1*%
%TO.N,GND*%
X116840000Y-146812000D03*
X110340000Y-146812000D03*
%TO.P,SW5,2,2*%
%TO.N,Net-(R10-Pad2)*%
X116840000Y-142312000D03*
X110340000Y-142312000D03*
%TD*%
D10*
%TO.P,R11,1*%
%TO.N,Net-(R10-Pad2)*%
X120904000Y-136652000D03*
D11*
%TO.P,R11,2*%
%TO.N,+5V*%
X120904000Y-129032000D03*
%TD*%
D16*
%TO.P,J11,1,Pin_1*%
%TO.N,/NTC3REF*%
X111506000Y-61468000D03*
D17*
%TO.P,J11,2,Pin_2*%
%TO.N,GND*%
X111506000Y-58928000D03*
%TD*%
D10*
%TO.P,C14,1*%
%TO.N,Net-(J13-Pin_2)*%
X183350000Y-108610000D03*
%TO.P,C14,2*%
%TO.N,GND*%
X183350000Y-103610000D03*
%TD*%
%TO.P,R32,1*%
%TO.N,+12V*%
X175234600Y-89281000D03*
D11*
%TO.P,R32,2*%
%TO.N,Net-(Q13-C)*%
X175234600Y-81661000D03*
%TD*%
D10*
%TO.P,R1,1*%
%TO.N,Net-(DS1-LED(+))*%
X161036000Y-101092000D03*
D11*
%TO.P,R1,2*%
%TO.N,+5V*%
X161036000Y-93472000D03*
%TD*%
D12*
%TO.P,Q17,1,E*%
%TO.N,+12V*%
X169900600Y-86334600D03*
D13*
%TO.P,Q17,2,B*%
%TO.N,Net-(Q17-B)*%
X169900600Y-83794600D03*
%TO.P,Q17,3,C*%
%TO.N,+24V*%
X169900600Y-81254600D03*
%TD*%
D10*
%TO.P,R21,1*%
%TO.N,/VREF*%
X123444000Y-66548000D03*
D11*
%TO.P,R21,2*%
%TO.N,/NTC3*%
X123444000Y-58928000D03*
%TD*%
D12*
%TO.P,Q2,1,E*%
%TO.N,Net-(Q2-E)*%
X183007000Y-93091000D03*
D13*
%TO.P,Q2,2,B*%
%TO.N,Net-(Q1-C)*%
X180467000Y-93091000D03*
%TO.P,Q2,3,C*%
%TO.N,GND*%
X177927000Y-93091000D03*
%TD*%
D10*
%TO.P,R34,1*%
%TO.N,+24V*%
X169545000Y-71120000D03*
D11*
%TO.P,R34,2*%
%TO.N,Net-(Q17-B)*%
X169545000Y-78740000D03*
%TD*%
D16*
%TO.P,J3,1,Pin_1*%
%TO.N,/NTC1*%
X173482000Y-54356000D03*
D17*
%TO.P,J3,2,Pin_2*%
%TO.N,GND*%
X170942000Y-54356000D03*
%TD*%
D10*
%TO.P,R4,1*%
%TO.N,/D5DISP*%
X144272000Y-129540000D03*
D11*
%TO.P,R4,2*%
%TO.N,Net-(R4-Pad2)*%
X144272000Y-137160000D03*
%TD*%
D30*
%TO.N,+5V*%
X118618000Y-108458000D03*
%TO.N,/OC2B*%
X132080000Y-97028000D03*
%TD*%
D31*
%TO.N,+24V*%
X183680000Y-143930000D02*
X183720000Y-143930000D01*
X183720000Y-143930000D02*
X187086400Y-140563600D01*
X187086400Y-140563600D02*
X196367400Y-140563600D01*
X196367400Y-140563600D02*
X197612000Y-139319000D01*
D32*
%TO.N,Net-(J14-Pin_2)*%
X191287400Y-134645400D02*
X187114600Y-134645400D01*
X187114600Y-134645400D02*
X178600000Y-143160000D01*
X178600000Y-143160000D02*
X178600000Y-143930000D01*
D31*
%TO.N,+24V*%
X171230000Y-143830000D02*
X171440000Y-143620000D01*
X171440000Y-143620000D02*
X171440000Y-137912000D01*
X170180000Y-136652000D02*
X165602000Y-136652000D01*
X171440000Y-137912000D02*
X170180000Y-136652000D01*
X112622000Y-133450000D02*
X103050000Y-123878000D01*
X165602000Y-136652000D02*
X162400000Y-133450000D01*
X162400000Y-133450000D02*
X112622000Y-133450000D01*
X103050000Y-123878000D02*
X103050000Y-111570000D01*
D33*
%TO.N,+5V*%
X159004000Y-129540000D02*
X157480000Y-131064000D01*
X120396000Y-79756000D02*
X120396000Y-78232000D01*
D32*
X115976400Y-70256400D02*
X120396000Y-74676000D01*
D33*
X157480000Y-131064000D02*
X148844000Y-131064000D01*
X160274000Y-87630000D02*
X161036000Y-88392000D01*
X111760000Y-105664000D02*
X111760000Y-102108000D01*
X120904000Y-110744000D02*
X120904000Y-129032000D01*
X140716000Y-129540000D02*
X129540000Y-129540000D01*
D32*
X120396000Y-74676000D02*
X120396000Y-78232000D01*
D33*
X128270000Y-87630000D02*
X160274000Y-87630000D01*
X161036000Y-90932000D02*
X161036000Y-93472000D01*
X148844000Y-131064000D02*
X148844000Y-130048000D01*
X124460000Y-83820000D02*
X128270000Y-87630000D01*
X110236000Y-100076000D02*
X109728000Y-100076000D01*
X118618000Y-108458000D02*
X120904000Y-110744000D01*
X122428000Y-130556000D02*
X127508000Y-130556000D01*
X124460000Y-83820000D02*
X120396000Y-79756000D01*
D32*
X115976400Y-69189600D02*
X115976400Y-70256400D01*
D33*
X120904000Y-129032000D02*
X122428000Y-130556000D01*
X148844000Y-131064000D02*
X142240000Y-131064000D01*
X124460000Y-85852000D02*
X124460000Y-83820000D01*
X110236000Y-100076000D02*
X124460000Y-85852000D01*
X161036000Y-88392000D02*
X161036000Y-90932000D01*
X127508000Y-130556000D02*
X129032000Y-129032000D01*
X148844000Y-130048000D02*
X148336000Y-129540000D01*
X129540000Y-129540000D02*
X129032000Y-129032000D01*
X142240000Y-131064000D02*
X140716000Y-129540000D01*
X111760000Y-102108000D02*
X109728000Y-100076000D01*
%TO.N,Net-(DS1-VO)*%
X107696000Y-107393000D02*
X108507000Y-108204000D01*
X109728000Y-97536000D02*
X107696000Y-99568000D01*
X113284000Y-108204000D02*
X114300000Y-107188000D01*
X108507000Y-108204000D02*
X113284000Y-108204000D01*
X107696000Y-99568000D02*
X107696000Y-107393000D01*
X114300000Y-107188000D02*
X114300000Y-105664000D01*
%TO.N,Net-(DS1-LED(+))*%
X161036000Y-101092000D02*
X147320000Y-101092000D01*
X144780000Y-103632000D02*
X144780000Y-105664000D01*
X147320000Y-101092000D02*
X144780000Y-103632000D01*
%TO.N,/OC2B*%
X133604000Y-97028000D02*
X132080000Y-97028000D01*
X164871400Y-93192600D02*
X162954000Y-95110000D01*
X135522000Y-95110000D02*
X133604000Y-97028000D01*
X162954000Y-95110000D02*
X135522000Y-95110000D01*
X164871400Y-89712800D02*
X164871400Y-93192600D01*
X164693600Y-89535000D02*
X164871400Y-89712800D01*
%TO.N,/OC1A*%
X165140000Y-103650000D02*
X165658800Y-103131200D01*
X147960000Y-95880000D02*
X144780000Y-99060000D01*
X165658800Y-99110800D02*
X162428000Y-95880000D01*
X165658800Y-103131200D02*
X165658800Y-99110800D01*
X162428000Y-95880000D02*
X147960000Y-95880000D01*
%TO.N,/OC1B*%
X163550000Y-104270000D02*
X163550000Y-99010000D01*
X149740000Y-96640000D02*
X147320000Y-99060000D01*
X162640000Y-114040000D02*
X162640000Y-105180000D01*
X162640000Y-105180000D02*
X163550000Y-104270000D01*
X161180000Y-96640000D02*
X149740000Y-96640000D01*
X163550000Y-99010000D02*
X161180000Y-96640000D01*
X160600000Y-116080000D02*
X162640000Y-114040000D01*
%TO.N,/OC2A*%
X162790000Y-100120000D02*
X162790000Y-103440000D01*
X160100000Y-97430000D02*
X162790000Y-100120000D01*
X162790000Y-103440000D02*
X158930000Y-107300000D01*
X149860000Y-99060000D02*
X151490000Y-97430000D01*
X158930000Y-121950000D02*
X159580000Y-122600000D01*
X159580000Y-122600000D02*
X160560000Y-122600000D01*
X151490000Y-97430000D02*
X160100000Y-97430000D01*
X158930000Y-107300000D02*
X158930000Y-121950000D01*
%TO.N,/VREF*%
X184788000Y-59820000D02*
X180210000Y-59820000D01*
X182372000Y-51816000D02*
X184912000Y-54356000D01*
X168198800Y-68783200D02*
X160629600Y-68783200D01*
X139700000Y-51816000D02*
X157988000Y-51816000D01*
X147320000Y-83820000D02*
X147320000Y-80238600D01*
X157852000Y-83312000D02*
X161036000Y-83312000D01*
X134366000Y-62992000D02*
X137668000Y-59690000D01*
X123444000Y-66548000D02*
X123444000Y-64008000D01*
X152908000Y-65532000D02*
X149352000Y-65532000D01*
X173736000Y-65786000D02*
X170942000Y-65786000D01*
X137668000Y-53848000D02*
X139700000Y-51816000D01*
X180210000Y-59820000D02*
X173990000Y-66040000D01*
X147294600Y-80213200D02*
X154753200Y-80213200D01*
X160629600Y-68783200D02*
X159892800Y-69520000D01*
X184912000Y-54356000D02*
X184912000Y-59944000D01*
X157988000Y-51816000D02*
X182372000Y-51816000D01*
X123444000Y-66548000D02*
X119888000Y-66548000D01*
X157988000Y-60452000D02*
X152908000Y-65532000D01*
X170942000Y-65786000D02*
X170688000Y-66040000D01*
X149352000Y-65532000D02*
X148336000Y-66548000D01*
X147320000Y-80238600D02*
X147294600Y-80213200D01*
X123444000Y-64008000D02*
X124460000Y-62992000D01*
X154753200Y-80213200D02*
X157852000Y-83312000D01*
X184912000Y-59944000D02*
X184788000Y-59820000D01*
X150770000Y-76737800D02*
X147294600Y-80213200D01*
X157988000Y-51816000D02*
X157988000Y-60452000D01*
X173990000Y-66040000D02*
X173736000Y-65786000D01*
X170688000Y-66294000D02*
X168198800Y-68783200D01*
X137668000Y-59690000D02*
X137668000Y-53848000D01*
X152460000Y-69520000D02*
X150770000Y-71210000D01*
X170688000Y-66040000D02*
X170688000Y-66294000D01*
X150770000Y-71210000D02*
X150770000Y-76737800D01*
X159892800Y-69520000D02*
X152460000Y-69520000D01*
X124460000Y-62992000D02*
X134366000Y-62992000D01*
X144780000Y-66548000D02*
X148336000Y-66548000D01*
%TO.N,/NTC1*%
X173990000Y-54864000D02*
X173990000Y-58420000D01*
X182118000Y-56896000D02*
X180848000Y-58166000D01*
X168910000Y-66725800D02*
X167640000Y-67995800D01*
X173990000Y-59436000D02*
X168910000Y-64516000D01*
X173990000Y-58420000D02*
X173990000Y-59436000D01*
X143992600Y-81976600D02*
X144780000Y-82764000D01*
X174244000Y-58166000D02*
X173990000Y-58420000D01*
X143981800Y-80224000D02*
X143992600Y-80213200D01*
X144983200Y-68834000D02*
X142138400Y-71678800D01*
X167640000Y-67995800D02*
X159842200Y-67995800D01*
X142138400Y-71678800D02*
X142138400Y-79400400D01*
X173482000Y-54356000D02*
X173990000Y-54864000D01*
X168910000Y-64516000D02*
X168910000Y-66725800D01*
X159004000Y-68834000D02*
X144983200Y-68834000D01*
X143992600Y-80213200D02*
X143992600Y-81976600D01*
X144780000Y-82764000D02*
X144780000Y-83820000D01*
X142962000Y-80224000D02*
X143981800Y-80224000D01*
X180848000Y-58166000D02*
X174244000Y-58166000D01*
X142138400Y-79400400D02*
X142962000Y-80224000D01*
X159842200Y-67995800D02*
X159004000Y-68834000D01*
%TO.N,/NTC1REF*%
X166878000Y-65786000D02*
X161290000Y-65786000D01*
X139065000Y-71146519D02*
X139065000Y-79756000D01*
X140589000Y-80264000D02*
X140639800Y-80213200D01*
X142088719Y-68122800D02*
X139065000Y-71146519D01*
X142240000Y-83820000D02*
X142240000Y-81813400D01*
X167132000Y-62484000D02*
X170688000Y-58928000D01*
X142240000Y-81813400D02*
X140639800Y-80213200D01*
X139573000Y-80264000D02*
X140589000Y-80264000D01*
X161036000Y-65532000D02*
X158445200Y-68122800D01*
X158445200Y-68122800D02*
X142088719Y-68122800D01*
X170688000Y-58928000D02*
X170688000Y-58420000D01*
X161290000Y-65786000D02*
X161036000Y-65532000D01*
X167132000Y-66040000D02*
X167132000Y-62484000D01*
X167132000Y-66040000D02*
X166878000Y-65786000D01*
X139065000Y-79756000D02*
X139573000Y-80264000D01*
%TO.N,/NTC2*%
X140658600Y-67723000D02*
X135356600Y-73025000D01*
X148082000Y-58928000D02*
X142748000Y-64262000D01*
X142748000Y-66685701D02*
X141710701Y-67723000D01*
X147828000Y-58420000D02*
X148336000Y-58928000D01*
X135356600Y-79273400D02*
X136347200Y-80264000D01*
X155448000Y-56388000D02*
X153924000Y-57912000D01*
X141710701Y-67723000D02*
X140658600Y-67723000D01*
X136347200Y-80264000D02*
X137210800Y-80264000D01*
X147828000Y-54356000D02*
X147828000Y-58420000D01*
X137210800Y-80264000D02*
X137236200Y-80238600D01*
X137236200Y-80975200D02*
X137236200Y-80238600D01*
X139700000Y-83820000D02*
X139700000Y-83439000D01*
X135356600Y-73025000D02*
X135356600Y-79273400D01*
X148336000Y-58928000D02*
X148082000Y-58928000D01*
X149352000Y-57912000D02*
X148336000Y-58928000D01*
X153924000Y-57912000D02*
X149352000Y-57912000D01*
X139700000Y-83439000D02*
X137236200Y-80975200D01*
X142748000Y-64262000D02*
X142748000Y-66685701D01*
%TO.N,/NTC2REF*%
X132943600Y-80162400D02*
X133934200Y-80162400D01*
X132156200Y-79375000D02*
X132943600Y-80162400D01*
X140970000Y-66294000D02*
X141224000Y-66548000D01*
X132156200Y-74193400D02*
X132156200Y-79375000D01*
X135382000Y-66548000D02*
X135636000Y-66294000D01*
X139801600Y-66548000D02*
X132156200Y-74193400D01*
X133934200Y-80162400D02*
X133934200Y-80594200D01*
X135636000Y-66294000D02*
X140970000Y-66294000D01*
X141224000Y-63246000D02*
X144780000Y-59690000D01*
X141224000Y-66548000D02*
X139801600Y-66548000D01*
X144780000Y-59690000D02*
X144780000Y-58928000D01*
X133934200Y-80594200D02*
X137160000Y-83820000D01*
X141224000Y-66548000D02*
X141224000Y-63246000D01*
%TO.N,/NTC3*%
X123444000Y-58928000D02*
X122936000Y-58420000D01*
X128371600Y-77724000D02*
X130683000Y-80035400D01*
X134620000Y-83820000D02*
X130962400Y-80162400D01*
X125857000Y-74676000D02*
X125857000Y-77393800D01*
X122936000Y-58420000D02*
X122936000Y-54864000D01*
X122174000Y-54102000D02*
X124460000Y-54102000D01*
X118110000Y-66929000D02*
X125857000Y-74676000D01*
X118110000Y-63500000D02*
X118110000Y-66929000D01*
X130962400Y-80162400D02*
X130683000Y-80162400D01*
X125857000Y-77393800D02*
X126187200Y-77724000D01*
X126187200Y-77724000D02*
X128371600Y-77724000D01*
X122682000Y-58928000D02*
X118110000Y-63500000D01*
X130683000Y-80035400D02*
X130683000Y-80162400D01*
X123444000Y-58928000D02*
X122682000Y-58928000D01*
X126746000Y-56388000D02*
X129032000Y-56388000D01*
X122936000Y-54864000D02*
X122174000Y-54102000D01*
X124460000Y-54102000D02*
X126746000Y-56388000D01*
%TO.N,/NTC3REF*%
X112268000Y-61468000D02*
X114554000Y-63754000D01*
X125730000Y-80264000D02*
X127304800Y-80264000D01*
X117094000Y-67564000D02*
X124714000Y-75184000D01*
X114554000Y-63754000D02*
X115265200Y-63754000D01*
X116332000Y-62687200D02*
X115265200Y-63754000D01*
X124714000Y-75184000D02*
X124714000Y-79248000D01*
X132080000Y-83515200D02*
X132080000Y-83820000D01*
X119126000Y-58928000D02*
X116332000Y-61722000D01*
X127431800Y-80137000D02*
X128701800Y-80137000D01*
X128701800Y-80137000D02*
X132080000Y-83515200D01*
X119888000Y-58928000D02*
X119126000Y-58928000D01*
X117094000Y-64871600D02*
X117094000Y-67564000D01*
X127304800Y-80264000D02*
X127431800Y-80137000D01*
X124714000Y-79248000D02*
X125730000Y-80264000D01*
X115976400Y-63754000D02*
X117094000Y-64871600D01*
X115265200Y-63754000D02*
X115976400Y-63754000D01*
X116332000Y-61722000D02*
X116332000Y-62687200D01*
X111506000Y-61468000D02*
X112268000Y-61468000D01*
%TO.N,/RSDISP*%
X129794000Y-96774000D02*
X132080000Y-99060000D01*
X115570000Y-96774000D02*
X129794000Y-96774000D01*
X114808000Y-101600000D02*
X114808000Y-97536000D01*
X116840000Y-128524000D02*
X117348000Y-129032000D01*
X116840000Y-105664000D02*
X116840000Y-103632000D01*
X116840000Y-105664000D02*
X116840000Y-128524000D01*
X116840000Y-103632000D02*
X114808000Y-101600000D01*
X114808000Y-97536000D02*
X115570000Y-96774000D01*
%TO.N,/EDISP*%
X125730000Y-101854000D02*
X127000000Y-100584000D01*
X121920000Y-103886000D02*
X123952000Y-101854000D01*
X127000000Y-100584000D02*
X127000000Y-99060000D01*
X121920000Y-105664000D02*
X121920000Y-103886000D01*
X123952000Y-101854000D02*
X125730000Y-101854000D01*
%TO.N,/D4DISP*%
X136144000Y-109220000D02*
X135128000Y-108204000D01*
X127762000Y-127000000D02*
X135128000Y-127000000D01*
X135128000Y-108204000D02*
X135128000Y-106172000D01*
X135128000Y-127000000D02*
X136144000Y-125984000D01*
X135128000Y-106172000D02*
X134620000Y-105664000D01*
X136144000Y-125984000D02*
X136144000Y-109220000D01*
X134620000Y-99060000D02*
X134620000Y-105664000D01*
X125730000Y-129032000D02*
X127762000Y-127000000D01*
%TO.N,/D5DISP*%
X137160000Y-124968000D02*
X139700000Y-127508000D01*
X142240000Y-127508000D02*
X144272000Y-129540000D01*
X139700000Y-127508000D02*
X142240000Y-127508000D01*
X137160000Y-105664000D02*
X137160000Y-124968000D01*
X137160000Y-99060000D02*
X137160000Y-105664000D01*
%TO.N,/D6DISP*%
X151892000Y-128016000D02*
X151892000Y-129540000D01*
X151384000Y-127508000D02*
X151892000Y-128016000D01*
X138176000Y-123952000D02*
X140716000Y-126492000D01*
X139700000Y-105664000D02*
X138176000Y-107188000D01*
X139700000Y-99060000D02*
X139700000Y-105664000D01*
X140716000Y-126492000D02*
X144780000Y-126492000D01*
X145796000Y-127508000D02*
X151384000Y-127508000D01*
X144780000Y-126492000D02*
X145796000Y-127508000D01*
X138176000Y-107188000D02*
X138176000Y-123952000D01*
%TO.N,/D7DISP*%
X139192000Y-108712000D02*
X139192000Y-122936000D01*
X139192000Y-122936000D02*
X140716000Y-124460000D01*
X151892000Y-125984000D02*
X155448000Y-129540000D01*
X146812000Y-125984000D02*
X151892000Y-125984000D01*
X140716000Y-124460000D02*
X145288000Y-124460000D01*
X142240000Y-105664000D02*
X139192000Y-108712000D01*
X145288000Y-124460000D02*
X146812000Y-125984000D01*
X142240000Y-99060000D02*
X142240000Y-105664000D01*
%TO.N,Net-(R2-Pad2)*%
X125730000Y-136652000D02*
X125730000Y-140534000D01*
X125730000Y-140534000D02*
X127508000Y-142312000D01*
X129032000Y-136652000D02*
X125730000Y-136652000D01*
X127508000Y-142312000D02*
X121008000Y-142312000D01*
%TO.N,Net-(R4-Pad2)*%
X144272000Y-137160000D02*
X140716000Y-137160000D01*
X138176000Y-142312000D02*
X131676000Y-142312000D01*
X138176000Y-142312000D02*
X140716000Y-139772000D01*
X140716000Y-139772000D02*
X140716000Y-137160000D01*
%TO.N,Net-(R6-Pad2)*%
X148844000Y-142312000D02*
X142344000Y-142312000D01*
X148336000Y-137160000D02*
X148336000Y-141804000D01*
X151892000Y-137160000D02*
X148336000Y-137160000D01*
X148336000Y-141804000D02*
X148844000Y-142312000D01*
%TO.N,Net-(R8-Pad2)*%
X159004000Y-137160000D02*
X159004000Y-141804000D01*
X159004000Y-137160000D02*
X155448000Y-137160000D01*
X159512000Y-142312000D02*
X153012000Y-142312000D01*
X159004000Y-141804000D02*
X159512000Y-142312000D01*
%TO.N,Net-(R10-Pad2)*%
X120904000Y-136652000D02*
X117348000Y-136652000D01*
X116840000Y-137160000D02*
X117348000Y-136652000D01*
X116840000Y-142312000D02*
X110340000Y-142312000D01*
X116840000Y-142312000D02*
X116840000Y-137160000D01*
%TO.N,+12V*%
X168402000Y-87833200D02*
X169900600Y-86334600D01*
X177927000Y-99153000D02*
X175010000Y-102070000D01*
X160750000Y-79250000D02*
X163042600Y-81542600D01*
X162620000Y-119320000D02*
X160680000Y-119320000D01*
X169011600Y-96215200D02*
X174498000Y-96215200D01*
X165150000Y-106810000D02*
X164592000Y-107368000D01*
X169900600Y-86334600D02*
X169875200Y-86360000D01*
X160610000Y-127140000D02*
X160610000Y-125950000D01*
X164592000Y-117348000D02*
X162620000Y-119320000D01*
X173070000Y-109118400D02*
X168706800Y-109118400D01*
X164236400Y-87833200D02*
X168402000Y-87833200D01*
X167132000Y-101549200D02*
X167132000Y-98094800D01*
X178028600Y-88366600D02*
X178028600Y-87985600D01*
X167132000Y-98094800D02*
X169011600Y-96215200D01*
X166398400Y-106810000D02*
X165150000Y-106810000D01*
X177927000Y-98983800D02*
X177927000Y-99153000D01*
X161380000Y-125950000D02*
X160610000Y-125950000D01*
X175437800Y-95275400D02*
X175437800Y-92786200D01*
X156750000Y-79250000D02*
X160750000Y-79250000D01*
X175420000Y-116640000D02*
X175420000Y-115020000D01*
X167995600Y-103964400D02*
X167995600Y-102412800D01*
X175530000Y-126760000D02*
X172640000Y-129650000D01*
X164592000Y-107368000D02*
X164592000Y-117348000D01*
X175234600Y-89281000D02*
X175361600Y-89281000D01*
X175010000Y-107100000D02*
X173070000Y-109040000D01*
X175234600Y-89281000D02*
X177114200Y-89281000D01*
X175420000Y-115020000D02*
X172960000Y-112560000D01*
X165150000Y-106810000D02*
X167995600Y-103964400D01*
X169875200Y-86360000D02*
X169875200Y-91821000D01*
X174498000Y-96215200D02*
X175437800Y-95275400D01*
X161130000Y-119320000D02*
X162180000Y-120370000D01*
X172960000Y-112560000D02*
X172960000Y-109228400D01*
X175437800Y-89484200D02*
X175437800Y-92786200D01*
X162180000Y-125150000D02*
X161380000Y-125950000D01*
X175010000Y-102070000D02*
X175010000Y-107100000D01*
X172640000Y-129650000D02*
X163120000Y-129650000D01*
X167995600Y-102412800D02*
X167132000Y-101549200D01*
X175361600Y-89281000D02*
X175412400Y-89331800D01*
X162180000Y-120370000D02*
X162180000Y-125150000D01*
X168706800Y-109118400D02*
X166398400Y-106810000D01*
X172960000Y-109228400D02*
X173070000Y-109118400D01*
X160680000Y-119320000D02*
X161130000Y-119320000D01*
X163042600Y-86639400D02*
X164236400Y-87833200D01*
X163120000Y-129650000D02*
X160610000Y-127140000D01*
X173070000Y-109040000D02*
X173070000Y-109118400D01*
X175234600Y-89281000D02*
X175437800Y-89484200D01*
X163042600Y-81542600D02*
X163042600Y-86639400D01*
X177114200Y-89281000D02*
X178028600Y-88366600D01*
X170840400Y-92786200D02*
X175437800Y-92786200D01*
X169875200Y-91821000D02*
X170840400Y-92786200D01*
D32*
%TO.N,Net-(J12-Pin_2)*%
X187540000Y-87570000D02*
X187380000Y-87730000D01*
X191897000Y-94081600D02*
X191871600Y-94107000D01*
X186309000Y-94107000D02*
X185851800Y-93649800D01*
X185851800Y-89258200D02*
X187380000Y-87730000D01*
X187380000Y-87730000D02*
X192680000Y-87730000D01*
X187540000Y-87120000D02*
X187540000Y-87570000D01*
X185851800Y-93649800D02*
X185851800Y-89258200D01*
X192680000Y-87730000D02*
X193192400Y-87217600D01*
X193192400Y-87217600D02*
X193192400Y-82651600D01*
X191871600Y-94107000D02*
X186309000Y-94107000D01*
%TO.N,Net-(J13-Pin_2)*%
X186895000Y-121285000D02*
X184580000Y-118970000D01*
X184518800Y-109778800D02*
X183350000Y-108610000D01*
X188961200Y-109778800D02*
X191008000Y-109778800D01*
X191008000Y-109778800D02*
X184518800Y-109778800D01*
X184580000Y-118970000D02*
X184580000Y-114160000D01*
X191008000Y-121285000D02*
X186895000Y-121285000D01*
X184580000Y-114160000D02*
X188961200Y-109778800D01*
%TO.N,Net-(J14-Pin_2)*%
X183464600Y-134645400D02*
X183400000Y-134710000D01*
X191287400Y-134645400D02*
X183464600Y-134645400D01*
%TO.N,Net-(J15-Pin_2)*%
X190677800Y-64516000D02*
X186740800Y-68453000D01*
X186740800Y-68453000D02*
X186740800Y-69799200D01*
X190677800Y-64516000D02*
X190180000Y-64018200D01*
X190180000Y-64018200D02*
X190180000Y-62600000D01*
X193649600Y-64516000D02*
X190677800Y-64516000D01*
D33*
%TO.N,Net-(Q1-B)*%
X171907200Y-103267200D02*
X172290000Y-103650000D01*
X171907200Y-99568000D02*
X171907200Y-103267200D01*
X172290000Y-103650000D02*
X172760000Y-103650000D01*
X171500800Y-99161600D02*
X171907200Y-99568000D01*
%TO.N,Net-(Q2-E)*%
X183007000Y-93091000D02*
X182854600Y-93243400D01*
X188468000Y-98602800D02*
X188518800Y-98552000D01*
X183007000Y-98983800D02*
X183388000Y-98602800D01*
X182854600Y-98831400D02*
X183007000Y-98983800D01*
X182854600Y-93243400D02*
X182854600Y-98831400D01*
X183388000Y-98602800D02*
X188468000Y-98602800D01*
%TO.N,Net-(Q3-G)*%
X191287400Y-90932000D02*
X191897000Y-91541600D01*
X188518800Y-90932000D02*
X191287400Y-90932000D01*
%TO.N,Net-(Q5-B)*%
X168780000Y-116080000D02*
X170900000Y-118200000D01*
X170900000Y-118200000D02*
X171530000Y-118200000D01*
X168220000Y-116080000D02*
X168780000Y-116080000D01*
%TO.N,Net-(Q6-E)*%
X187320000Y-124870000D02*
X187690000Y-124870000D01*
X180500000Y-116640000D02*
X180500000Y-118050000D01*
X180500000Y-116640000D02*
X180500000Y-111720000D01*
X180500000Y-118050000D02*
X187320000Y-124870000D01*
X180500000Y-111720000D02*
X180430000Y-111650000D01*
%TO.N,Net-(Q8-G)*%
X187690000Y-117250000D02*
X189513000Y-117250000D01*
X189513000Y-117250000D02*
X191008000Y-118745000D01*
%TO.N,Net-(Q9-B)*%
X171180000Y-125600000D02*
X168180000Y-122600000D01*
X171500000Y-125600000D02*
X171180000Y-125600000D01*
%TO.N,Net-(Q10-E)*%
X180610000Y-126760000D02*
X175900000Y-131470000D01*
X175900000Y-131470000D02*
X172960000Y-131470000D01*
X180570000Y-121660000D02*
X180570000Y-126720000D01*
X180570000Y-126720000D02*
X180610000Y-126760000D01*
%TO.N,Net-(Q12-G)*%
X190500000Y-131318000D02*
X180732000Y-131318000D01*
X180732000Y-131318000D02*
X180580000Y-131470000D01*
X191287400Y-132105400D02*
X190500000Y-131318000D01*
%TO.N,Net-(Q13-B)*%
X172745400Y-77622400D02*
X172745400Y-81635600D01*
X174396400Y-76657200D02*
X173710600Y-76657200D01*
X173558200Y-82448400D02*
X173558200Y-87579200D01*
X172313600Y-88823800D02*
X172313600Y-89535000D01*
X173710600Y-76657200D02*
X172745400Y-77622400D01*
X173558200Y-87579200D02*
X172313600Y-88823800D01*
X172745400Y-81635600D02*
X173558200Y-82448400D01*
%TO.N,Net-(Q14-E)*%
X178358800Y-75641200D02*
X178638200Y-75920600D01*
X183591200Y-82702400D02*
X183591200Y-82956400D01*
X183591200Y-82956400D02*
X183565800Y-82981800D01*
X178638200Y-77749400D02*
X183591200Y-82702400D01*
X178638200Y-75920600D02*
X178638200Y-77749400D01*
X183565800Y-82981800D02*
X183565800Y-87528400D01*
X183565800Y-87528400D02*
X183108600Y-87985600D01*
%TO.N,Net-(Q16-G)*%
X194818000Y-61976000D02*
X193649600Y-61976000D01*
X196545200Y-63703200D02*
X194818000Y-61976000D01*
X195478400Y-71678800D02*
X196545200Y-70612000D01*
X188264800Y-75641200D02*
X192227200Y-71678800D01*
X192227200Y-71678800D02*
X195478400Y-71678800D01*
X185978800Y-75641200D02*
X188264800Y-75641200D01*
X196545200Y-70612000D02*
X196545200Y-63703200D01*
D31*
%TO.N,+24V*%
X197612000Y-107188000D02*
X197612000Y-139319000D01*
X181660800Y-77368400D02*
X181660800Y-69799200D01*
X110515400Y-91998800D02*
X106629200Y-91998800D01*
X112191800Y-81356200D02*
X112191800Y-78232000D01*
D33*
X171196000Y-69799200D02*
X181660800Y-69799200D01*
D31*
X110236000Y-83312000D02*
X112776000Y-85852000D01*
D33*
X171551600Y-73075800D02*
X171551600Y-79603600D01*
D31*
X197612000Y-78435200D02*
X196748400Y-77571600D01*
X197612000Y-139319000D02*
X197612000Y-139446000D01*
D33*
X169545000Y-71120000D02*
X169875200Y-71120000D01*
D31*
X193192400Y-77571600D02*
X190754000Y-77571600D01*
X106629200Y-91998800D02*
X103124000Y-95504000D01*
X183337200Y-79044800D02*
X181660800Y-77368400D01*
D33*
X169595800Y-71120000D02*
X171551600Y-73075800D01*
X169545000Y-71120000D02*
X169595800Y-71120000D01*
D32*
X115316000Y-78232000D02*
X112191800Y-78232000D01*
D31*
X195122800Y-104698800D02*
X191008000Y-104698800D01*
X197612000Y-107188000D02*
X195122800Y-104698800D01*
D33*
X171551600Y-79603600D02*
X169900600Y-81254600D01*
D31*
X189280800Y-79044800D02*
X183337200Y-79044800D01*
D34*
X103362000Y-101092000D02*
X103124000Y-101092000D01*
D31*
X110236000Y-83312000D02*
X112191800Y-81356200D01*
X196748400Y-77571600D02*
X193192400Y-77571600D01*
D32*
X112191800Y-78232000D02*
X107391200Y-73431400D01*
D31*
X112776000Y-85852000D02*
X112776000Y-89738200D01*
X197612000Y-107188000D02*
X197612000Y-78435200D01*
D33*
X169875200Y-71120000D02*
X171196000Y-69799200D01*
D31*
X103124000Y-95504000D02*
X103124000Y-101092000D01*
X190754000Y-77571600D02*
X189280800Y-79044800D01*
X112776000Y-89738200D02*
X110515400Y-91998800D01*
D33*
%TO.N,Net-(Q1-C)*%
X180390800Y-98907600D02*
X180390800Y-96062800D01*
X174340000Y-101630000D02*
X174340000Y-105240000D01*
X175768000Y-97028000D02*
X175768000Y-100202000D01*
X175768000Y-97028000D02*
X171094400Y-97028000D01*
X180467000Y-98983800D02*
X180390800Y-98907600D01*
X179832000Y-95504000D02*
X180238400Y-95097600D01*
X180390800Y-96062800D02*
X179832000Y-95504000D01*
X175768000Y-100202000D02*
X174340000Y-101630000D01*
X180238400Y-93319600D02*
X180467000Y-93091000D01*
X177292000Y-95504000D02*
X175768000Y-97028000D01*
X174340000Y-105240000D02*
X172770000Y-106810000D01*
X179832000Y-95504000D02*
X177292000Y-95504000D01*
X171094400Y-97028000D02*
X168960800Y-99161600D01*
X180238400Y-95097600D02*
X180238400Y-93319600D01*
%TO.N,Net-(Q5-C)*%
X177960000Y-116640000D02*
X177960000Y-111720000D01*
X173290000Y-120740000D02*
X174460000Y-119570000D01*
X171213600Y-121056400D02*
X171530000Y-120740000D01*
X177960000Y-118760000D02*
X177960000Y-116640000D01*
X168460000Y-119320000D02*
X170196400Y-121056400D01*
X168300000Y-119320000D02*
X168460000Y-119320000D01*
X170196400Y-121056400D02*
X171213600Y-121056400D01*
X174460000Y-119570000D02*
X177150000Y-119570000D01*
X171530000Y-120740000D02*
X173290000Y-120740000D01*
X177960000Y-111720000D02*
X177890000Y-111650000D01*
X177150000Y-119570000D02*
X177960000Y-118760000D01*
%TO.N,Net-(Q10-B)*%
X174660000Y-124980000D02*
X177860000Y-124980000D01*
X177860000Y-124980000D02*
X178030000Y-125150000D01*
X178030000Y-125150000D02*
X178030000Y-126720000D01*
X178030000Y-121660000D02*
X178030000Y-125150000D01*
X171220000Y-128140000D02*
X171500000Y-128140000D01*
X168230000Y-125950000D02*
X169030000Y-125950000D01*
X171500000Y-128140000D02*
X174660000Y-124980000D01*
X169030000Y-125950000D02*
X171220000Y-128140000D01*
X178030000Y-126720000D02*
X178070000Y-126760000D01*
%TO.N,Net-(Q13-C)*%
X181051200Y-82956400D02*
X181051200Y-82473800D01*
X175234600Y-81661000D02*
X174396400Y-80822800D01*
X174396400Y-80822800D02*
X174396400Y-79197200D01*
X180162200Y-83845400D02*
X180162200Y-87579200D01*
X180162200Y-87579200D02*
X180568600Y-87985600D01*
X177774600Y-79197200D02*
X174396400Y-79197200D01*
X181051200Y-82473800D02*
X177774600Y-79197200D01*
X181051200Y-82956400D02*
X180162200Y-83845400D01*
%TO.N,Net-(Q17-B)*%
X166280000Y-75950000D02*
X166755000Y-75950000D01*
X166928800Y-84582000D02*
X165252400Y-86258400D01*
X167513000Y-84582000D02*
X167513000Y-80772000D01*
X167513000Y-84582000D02*
X166928800Y-84582000D01*
X166755000Y-75950000D02*
X169545000Y-78740000D01*
X167513000Y-80772000D02*
X169545000Y-78740000D01*
X169113200Y-84582000D02*
X167513000Y-84582000D01*
X169900600Y-83794600D02*
X169113200Y-84582000D01*
%TD*%
%TA.AperFunction,Conductor*%
%TO.N,+24V*%
G36*
X189603094Y-136415585D02*
G01*
X189648849Y-136468389D01*
X189658793Y-136537547D01*
X189649205Y-136570625D01*
X189632421Y-136608063D01*
X189563130Y-136860207D01*
X189533141Y-137119978D01*
X189534675Y-137160000D01*
X187075581Y-137160000D01*
X187803362Y-136432219D01*
X187864685Y-136398734D01*
X187891043Y-136395900D01*
X189536055Y-136395900D01*
X189603094Y-136415585D01*
G37*
%TD.AperFunction*%
%TA.AperFunction,Conductor*%
G36*
X186445895Y-66059685D02*
G01*
X186491650Y-66112489D01*
X186501594Y-66181647D01*
X186472569Y-66245203D01*
X186466537Y-66251681D01*
X185527795Y-67190422D01*
X185524457Y-67193638D01*
X185453998Y-67259015D01*
X185394074Y-67334156D01*
X185391118Y-67337723D01*
X185328400Y-67410604D01*
X185314611Y-67432549D01*
X185306569Y-67443883D01*
X185290415Y-67464140D01*
X185242340Y-67547406D01*
X185239949Y-67551375D01*
X185188817Y-67632752D01*
X185188816Y-67632754D01*
X185178454Y-67656503D01*
X185172193Y-67668906D01*
X185159231Y-67691358D01*
X185124111Y-67780841D01*
X185122337Y-67785122D01*
X185083902Y-67873217D01*
X185083899Y-67873227D01*
X185077194Y-67898252D01*
X185072848Y-67911459D01*
X185063380Y-67935581D01*
X185063380Y-67935584D01*
X185041984Y-68029316D01*
X185040869Y-68033812D01*
X185015995Y-68126645D01*
X185015994Y-68126650D01*
X185013093Y-68152394D01*
X185010766Y-68166092D01*
X185004997Y-68191372D01*
X185004996Y-68191376D01*
X184997814Y-68287226D01*
X184997381Y-68291846D01*
X184991118Y-68347423D01*
X184964050Y-68411836D01*
X184961131Y-68415290D01*
X184951532Y-68426236D01*
X184951528Y-68426241D01*
X184787628Y-68671535D01*
X184657149Y-68936119D01*
X184562321Y-69215469D01*
X184562318Y-69215483D01*
X184504768Y-69504809D01*
X184504764Y-69504836D01*
X184485471Y-69799192D01*
X184485471Y-69799207D01*
X184504764Y-70093563D01*
X184504765Y-70093573D01*
X184504766Y-70093580D01*
X184504768Y-70093590D01*
X184562318Y-70382916D01*
X184562321Y-70382930D01*
X184657149Y-70662280D01*
X184787625Y-70926860D01*
X184787629Y-70926867D01*
X184951525Y-71172155D01*
X185146041Y-71393958D01*
X185367843Y-71588473D01*
X185613135Y-71752372D01*
X185877723Y-71882852D01*
X186157078Y-71977681D01*
X186446420Y-72035234D01*
X186474688Y-72037086D01*
X186740793Y-72054529D01*
X186740800Y-72054529D01*
X186740807Y-72054529D01*
X186976475Y-72039081D01*
X187035180Y-72035234D01*
X187324522Y-71977681D01*
X187603877Y-71882852D01*
X187868465Y-71752372D01*
X188113757Y-71588473D01*
X188335558Y-71393958D01*
X188530073Y-71172157D01*
X188693972Y-70926865D01*
X188824452Y-70662277D01*
X188919281Y-70382922D01*
X188976834Y-70093580D01*
X188996129Y-69799200D01*
X188996129Y-69799192D01*
X188976835Y-69504836D01*
X188976834Y-69504820D01*
X188919281Y-69215478D01*
X188826125Y-68941054D01*
X188823216Y-68871246D01*
X188855862Y-68813517D01*
X191366562Y-66302819D01*
X191427885Y-66269334D01*
X191454243Y-66266500D01*
X191898255Y-66266500D01*
X191965294Y-66286185D01*
X192011049Y-66338989D01*
X192020993Y-66408147D01*
X192011405Y-66441225D01*
X191994621Y-66478663D01*
X191925330Y-66730807D01*
X191895341Y-66990578D01*
X191905356Y-67251881D01*
X191955143Y-67508593D01*
X191955143Y-67508595D01*
X192043529Y-67754687D01*
X192043530Y-67754688D01*
X192043532Y-67754692D01*
X192043533Y-67754694D01*
X192145393Y-67942012D01*
X192168456Y-67984423D01*
X192326976Y-68192382D01*
X192326978Y-68192384D01*
X192515382Y-68373706D01*
X192515387Y-68373710D01*
X192515390Y-68373713D01*
X192515393Y-68373715D01*
X192515399Y-68373720D01*
X192729270Y-68524153D01*
X192729273Y-68524154D01*
X192729274Y-68524155D01*
X192963616Y-68640185D01*
X193212923Y-68719083D01*
X193471353Y-68759000D01*
X193471357Y-68759000D01*
X193762382Y-68759000D01*
X193762383Y-68759000D01*
X193957827Y-68743995D01*
X194212442Y-68684412D01*
X194454979Y-68586662D01*
X194679751Y-68453033D01*
X194881491Y-68286660D01*
X195055470Y-68091440D01*
X195055472Y-68091435D01*
X195055476Y-68091432D01*
X195176220Y-67904979D01*
X195197609Y-67871951D01*
X195304578Y-67633337D01*
X195373870Y-67381190D01*
X195373870Y-67381184D01*
X195373968Y-67380686D01*
X195374055Y-67380516D01*
X195375130Y-67376607D01*
X195375959Y-67376834D01*
X195406056Y-67318620D01*
X195466605Y-67283755D01*
X195536391Y-67287160D01*
X195593259Y-67327754D01*
X195619152Y-67392648D01*
X195619700Y-67404293D01*
X195619700Y-70177283D01*
X195600015Y-70244322D01*
X195583381Y-70264964D01*
X195131364Y-70716981D01*
X195070041Y-70750466D01*
X195043683Y-70753300D01*
X192309799Y-70753300D01*
X192290401Y-70751773D01*
X192284479Y-70750835D01*
X192275905Y-70749477D01*
X192275904Y-70749477D01*
X192206202Y-70753130D01*
X192199712Y-70753300D01*
X192178695Y-70753300D01*
X192157789Y-70755497D01*
X192151320Y-70756006D01*
X192081625Y-70759658D01*
X192081612Y-70759660D01*
X192067440Y-70763458D01*
X192048316Y-70767003D01*
X192033723Y-70768537D01*
X192033717Y-70768538D01*
X191967330Y-70790107D01*
X191961110Y-70791949D01*
X191893704Y-70810011D01*
X191893703Y-70810011D01*
X191880618Y-70816678D01*
X191862661Y-70824116D01*
X191848692Y-70828656D01*
X191788235Y-70863560D01*
X191782544Y-70866649D01*
X191723630Y-70896668D01*
X191720358Y-70898336D01*
X191720353Y-70898339D01*
X191708950Y-70907573D01*
X191692930Y-70918583D01*
X191680211Y-70925927D01*
X191680207Y-70925930D01*
X191628324Y-70972644D01*
X191623394Y-70976855D01*
X191607062Y-70990081D01*
X191592195Y-71004947D01*
X191587492Y-71009410D01*
X191535632Y-71056105D01*
X191535628Y-71056109D01*
X191526996Y-71067990D01*
X191514364Y-71082779D01*
X187917764Y-74679381D01*
X187856441Y-74712866D01*
X187830083Y-74715700D01*
X187284554Y-74715700D01*
X187217515Y-74696015D01*
X187190267Y-74672234D01*
X187078559Y-74541441D01*
X187078558Y-74541440D01*
X186892976Y-74382938D01*
X186892973Y-74382937D01*
X186684889Y-74255422D01*
X186459418Y-74162030D01*
X186459421Y-74162030D01*
X186353792Y-74136670D01*
X186222102Y-74105054D01*
X186222100Y-74105053D01*
X186222097Y-74105053D01*
X185978800Y-74085906D01*
X185735502Y-74105053D01*
X185735498Y-74105054D01*
X185587487Y-74140589D01*
X185498180Y-74162030D01*
X185272710Y-74255422D01*
X185064626Y-74382937D01*
X185064623Y-74382938D01*
X184879041Y-74541441D01*
X184720538Y-74727023D01*
X184720537Y-74727026D01*
X184593022Y-74935110D01*
X184499630Y-75160580D01*
X184442653Y-75397902D01*
X184423506Y-75641200D01*
X184442653Y-75884497D01*
X184442653Y-75884500D01*
X184442654Y-75884502D01*
X184476090Y-76023772D01*
X184499630Y-76121819D01*
X184593022Y-76347289D01*
X184720537Y-76555373D01*
X184720538Y-76555376D01*
X184755714Y-76596561D01*
X184879041Y-76740959D01*
X184979842Y-76827051D01*
X185064623Y-76899461D01*
X185064626Y-76899462D01*
X185272710Y-77026977D01*
X185498181Y-77120369D01*
X185498178Y-77120369D01*
X185498184Y-77120370D01*
X185498188Y-77120372D01*
X185735498Y-77177346D01*
X185978800Y-77196494D01*
X186222102Y-77177346D01*
X186459412Y-77120372D01*
X186684889Y-77026977D01*
X186892979Y-76899459D01*
X187078559Y-76740959D01*
X187190265Y-76610167D01*
X187248770Y-76571975D01*
X187284554Y-76566700D01*
X188182202Y-76566700D01*
X188201599Y-76568226D01*
X188216097Y-76570523D01*
X188285799Y-76566869D01*
X188292289Y-76566700D01*
X188313299Y-76566700D01*
X188313304Y-76566700D01*
X188334252Y-76564497D01*
X188340648Y-76563994D01*
X188410378Y-76560341D01*
X188424563Y-76556539D01*
X188443682Y-76552995D01*
X188458282Y-76551462D01*
X188524683Y-76529886D01*
X188530852Y-76528059D01*
X188598297Y-76509988D01*
X188611374Y-76503325D01*
X188629349Y-76495879D01*
X188643308Y-76491344D01*
X188703773Y-76456433D01*
X188709444Y-76453355D01*
X188771640Y-76421665D01*
X188783043Y-76412430D01*
X188799083Y-76401407D01*
X188811792Y-76394070D01*
X188863684Y-76347344D01*
X188868587Y-76343157D01*
X188884930Y-76329925D01*
X188899816Y-76315037D01*
X188904486Y-76310606D01*
X188956369Y-76263892D01*
X188965000Y-76252011D01*
X188977629Y-76237224D01*
X192574236Y-72640619D01*
X192635559Y-72607134D01*
X192661917Y-72604300D01*
X195395802Y-72604300D01*
X195415199Y-72605826D01*
X195429697Y-72608123D01*
X195499399Y-72604469D01*
X195505889Y-72604300D01*
X195526899Y-72604300D01*
X195526904Y-72604300D01*
X195547852Y-72602097D01*
X195554248Y-72601594D01*
X195623978Y-72597941D01*
X195638163Y-72594139D01*
X195657282Y-72590595D01*
X195671882Y-72589062D01*
X195738283Y-72567486D01*
X195744452Y-72565659D01*
X195811897Y-72547588D01*
X195824974Y-72540925D01*
X195842949Y-72533479D01*
X195856908Y-72528944D01*
X195917373Y-72494033D01*
X195923044Y-72490955D01*
X195985240Y-72459265D01*
X195996643Y-72450030D01*
X196012683Y-72439007D01*
X196025392Y-72431670D01*
X196077284Y-72384944D01*
X196082187Y-72380757D01*
X196098530Y-72367525D01*
X196113416Y-72352637D01*
X196118086Y-72348206D01*
X196169969Y-72301492D01*
X196178600Y-72289611D01*
X196191229Y-72274824D01*
X197141224Y-71324829D01*
X197156011Y-71312200D01*
X197167892Y-71303569D01*
X197214606Y-71251686D01*
X197219037Y-71247016D01*
X197233925Y-71232130D01*
X197247157Y-71215787D01*
X197251344Y-71210884D01*
X197298070Y-71158992D01*
X197305408Y-71146281D01*
X197316430Y-71130243D01*
X197325665Y-71118840D01*
X197357355Y-71056644D01*
X197360439Y-71050964D01*
X197395344Y-70990508D01*
X197399879Y-70976549D01*
X197407325Y-70958574D01*
X197408738Y-70955798D01*
X197413988Y-70945497D01*
X197432059Y-70878052D01*
X197433886Y-70871883D01*
X197455462Y-70805482D01*
X197456995Y-70790882D01*
X197460539Y-70771763D01*
X197464341Y-70757578D01*
X197467994Y-70687848D01*
X197468497Y-70681452D01*
X197470700Y-70660504D01*
X197470700Y-70639489D01*
X197470870Y-70632999D01*
X197474523Y-70563297D01*
X197472226Y-70548799D01*
X197470700Y-70529402D01*
X197470700Y-66164000D01*
X197490385Y-66096961D01*
X197543189Y-66051206D01*
X197594700Y-66040000D01*
X197996000Y-66040000D01*
X198063039Y-66059685D01*
X198108794Y-66112489D01*
X198120000Y-66164000D01*
X198120000Y-137160000D01*
X193038178Y-137160000D01*
X193031643Y-136989518D01*
X193006564Y-136860207D01*
X192981857Y-136732808D01*
X192981856Y-136732804D01*
X192893470Y-136486712D01*
X192893469Y-136486711D01*
X192893468Y-136486709D01*
X192893467Y-136486706D01*
X192768546Y-136256980D01*
X192610022Y-136049016D01*
X192572535Y-136012939D01*
X192537884Y-135952270D01*
X192541533Y-135882496D01*
X192567622Y-135839258D01*
X192659833Y-135739879D01*
X192807628Y-135523104D01*
X192921463Y-135286723D01*
X192936365Y-135238407D01*
X192941709Y-135224229D01*
X192942378Y-135222737D01*
X192951499Y-135189539D01*
X192952542Y-135185960D01*
X192998796Y-135036015D01*
X193003901Y-135002139D01*
X193006946Y-134987776D01*
X193011670Y-134970590D01*
X193021280Y-134887336D01*
X193021845Y-134883089D01*
X193023000Y-134875427D01*
X193037900Y-134776582D01*
X193037900Y-134750517D01*
X193038718Y-134736296D01*
X193041659Y-134710822D01*
X193037991Y-134615128D01*
X193037900Y-134610379D01*
X193037900Y-134514221D01*
X193037900Y-134514218D01*
X193033862Y-134487436D01*
X193032569Y-134473702D01*
X193031643Y-134449521D01*
X193031643Y-134449519D01*
X193016439Y-134371127D01*
X193015573Y-134366097D01*
X192998796Y-134254785D01*
X192987513Y-134218211D01*
X192984273Y-134205267D01*
X192981858Y-134192812D01*
X192981857Y-134192809D01*
X192967383Y-134152508D01*
X192965593Y-134147144D01*
X192960374Y-134130225D01*
X192921463Y-134004077D01*
X192866408Y-133889753D01*
X192807632Y-133767703D01*
X192807628Y-133767697D01*
X192807628Y-133767696D01*
X192797130Y-133752298D01*
X192775629Y-133685822D01*
X192793482Y-133618271D01*
X192811902Y-133594766D01*
X192880112Y-133526556D01*
X192972214Y-133377234D01*
X193027399Y-133210697D01*
X193037900Y-133107909D01*
X193037899Y-131102892D01*
X193027399Y-131000103D01*
X192972214Y-130833566D01*
X192880112Y-130684244D01*
X192756056Y-130560188D01*
X192606734Y-130468086D01*
X192440197Y-130412901D01*
X192440195Y-130412900D01*
X192337416Y-130402400D01*
X192337409Y-130402400D01*
X190675119Y-130402400D01*
X190652079Y-130399367D01*
X190651999Y-130399875D01*
X190645583Y-130398859D01*
X190575880Y-130395206D01*
X190569411Y-130394697D01*
X190548504Y-130392500D01*
X190527489Y-130392500D01*
X190520999Y-130392330D01*
X190451297Y-130388677D01*
X190451296Y-130388677D01*
X190451295Y-130388677D01*
X190440521Y-130390383D01*
X190436799Y-130390973D01*
X190417402Y-130392500D01*
X185544000Y-130392500D01*
X185476961Y-130372815D01*
X185431206Y-130320011D01*
X185420000Y-130268500D01*
X185420000Y-124578216D01*
X185439685Y-124511177D01*
X185492489Y-124465422D01*
X185561647Y-124455478D01*
X185625203Y-124484503D01*
X185631668Y-124490523D01*
X185894565Y-124753420D01*
X186112912Y-124971767D01*
X186146397Y-125033090D01*
X186148849Y-125049716D01*
X186153854Y-125113303D01*
X186210830Y-125350619D01*
X186304222Y-125576089D01*
X186431737Y-125784173D01*
X186431738Y-125784176D01*
X186431741Y-125784179D01*
X186590241Y-125969759D01*
X186733897Y-126092453D01*
X186775823Y-126128261D01*
X186775826Y-126128262D01*
X186983910Y-126255777D01*
X187209381Y-126349169D01*
X187209378Y-126349169D01*
X187209384Y-126349170D01*
X187209388Y-126349172D01*
X187446698Y-126406146D01*
X187690000Y-126425294D01*
X187933302Y-126406146D01*
X188170612Y-126349172D01*
X188396089Y-126255777D01*
X188604179Y-126128259D01*
X188789759Y-125969759D01*
X188948259Y-125784179D01*
X189075777Y-125576089D01*
X189169172Y-125350612D01*
X189226146Y-125113302D01*
X189245294Y-124870000D01*
X189232619Y-124708954D01*
X189246983Y-124640580D01*
X189296034Y-124590823D01*
X189364199Y-124575484D01*
X189429837Y-124599433D01*
X189465172Y-124639990D01*
X189526854Y-124753421D01*
X189685376Y-124961382D01*
X189685378Y-124961384D01*
X189873782Y-125142706D01*
X189873787Y-125142710D01*
X189873790Y-125142713D01*
X189873793Y-125142715D01*
X189873799Y-125142720D01*
X190087670Y-125293153D01*
X190087673Y-125293154D01*
X190087674Y-125293155D01*
X190322016Y-125409185D01*
X190571323Y-125488083D01*
X190829753Y-125528000D01*
X190829757Y-125528000D01*
X191120782Y-125528000D01*
X191120783Y-125528000D01*
X191316227Y-125512995D01*
X191570842Y-125453412D01*
X191813379Y-125355662D01*
X192038151Y-125222033D01*
X192239891Y-125055660D01*
X192413870Y-124860440D01*
X192413872Y-124860435D01*
X192413876Y-124860432D01*
X192556006Y-124640955D01*
X192556009Y-124640951D01*
X192662978Y-124402337D01*
X192732270Y-124150190D01*
X192762259Y-123890422D01*
X192752243Y-123629119D01*
X192702457Y-123372408D01*
X192657654Y-123247663D01*
X192614070Y-123126312D01*
X192614069Y-123126311D01*
X192614068Y-123126309D01*
X192614067Y-123126306D01*
X192489146Y-122896580D01*
X192330622Y-122688616D01*
X192293135Y-122652539D01*
X192258484Y-122591870D01*
X192262133Y-122522096D01*
X192288222Y-122478858D01*
X192380433Y-122379479D01*
X192528228Y-122162704D01*
X192642063Y-121926323D01*
X192656965Y-121878007D01*
X192662309Y-121863829D01*
X192662978Y-121862337D01*
X192672099Y-121829139D01*
X192673142Y-121825560D01*
X192719396Y-121675615D01*
X192724501Y-121641739D01*
X192727546Y-121627376D01*
X192732270Y-121610190D01*
X192741880Y-121526936D01*
X192742445Y-121522689D01*
X192758500Y-121416182D01*
X192758500Y-121390117D01*
X192759318Y-121375896D01*
X192762259Y-121350422D01*
X192758591Y-121254728D01*
X192758500Y-121249979D01*
X192758500Y-121153821D01*
X192758500Y-121153818D01*
X192754462Y-121127036D01*
X192753169Y-121113302D01*
X192752243Y-121089121D01*
X192752243Y-121089119D01*
X192737039Y-121010727D01*
X192736173Y-121005697D01*
X192719396Y-120894385D01*
X192708113Y-120857811D01*
X192704873Y-120844867D01*
X192702458Y-120832412D01*
X192702457Y-120832409D01*
X192687983Y-120792108D01*
X192686193Y-120786744D01*
X192642063Y-120643677D01*
X192598040Y-120552262D01*
X192528232Y-120407303D01*
X192528228Y-120407297D01*
X192528228Y-120407296D01*
X192517730Y-120391898D01*
X192496229Y-120325422D01*
X192514082Y-120257871D01*
X192532502Y-120234366D01*
X192566439Y-120200429D01*
X192600712Y-120166156D01*
X192692814Y-120016834D01*
X192747999Y-119850297D01*
X192758500Y-119747509D01*
X192758499Y-117742492D01*
X192747999Y-117639703D01*
X192692814Y-117473166D01*
X192600712Y-117323844D01*
X192476656Y-117199788D01*
X192327334Y-117107686D01*
X192160797Y-117052501D01*
X192160795Y-117052500D01*
X192058016Y-117042000D01*
X192058009Y-117042000D01*
X190665217Y-117042000D01*
X190598178Y-117022315D01*
X190577536Y-117005681D01*
X190225833Y-116653978D01*
X190213196Y-116639182D01*
X190204569Y-116627308D01*
X190152697Y-116580602D01*
X190147988Y-116576133D01*
X190133133Y-116561278D01*
X190133125Y-116561271D01*
X190116801Y-116548052D01*
X190111865Y-116543837D01*
X190064323Y-116501030D01*
X190059992Y-116497130D01*
X190047278Y-116489789D01*
X190031248Y-116478772D01*
X190019849Y-116469542D01*
X190019846Y-116469540D01*
X190019840Y-116469535D01*
X189957654Y-116437849D01*
X189951974Y-116434765D01*
X189891508Y-116399856D01*
X189891504Y-116399854D01*
X189891503Y-116399854D01*
X189877542Y-116395317D01*
X189859577Y-116387876D01*
X189846496Y-116381211D01*
X189811390Y-116371804D01*
X189779054Y-116363139D01*
X189772855Y-116361303D01*
X189706488Y-116339740D01*
X189706482Y-116339738D01*
X189706477Y-116339737D01*
X189706475Y-116339737D01*
X189691884Y-116338203D01*
X189672758Y-116334658D01*
X189658581Y-116330859D01*
X189658576Y-116330858D01*
X189588880Y-116327206D01*
X189582411Y-116326697D01*
X189561504Y-116324500D01*
X189540489Y-116324500D01*
X189533999Y-116324330D01*
X189464297Y-116320677D01*
X189464296Y-116320677D01*
X189464295Y-116320677D01*
X189453521Y-116322383D01*
X189449799Y-116322973D01*
X189430402Y-116324500D01*
X188995754Y-116324500D01*
X188928715Y-116304815D01*
X188901467Y-116281034D01*
X188789759Y-116150241D01*
X188789758Y-116150240D01*
X188604176Y-115991738D01*
X188604173Y-115991737D01*
X188396089Y-115864222D01*
X188170618Y-115770830D01*
X188170621Y-115770830D01*
X188030556Y-115737203D01*
X187933302Y-115713854D01*
X187933300Y-115713853D01*
X187933297Y-115713853D01*
X187690000Y-115694706D01*
X187446702Y-115713853D01*
X187209380Y-115770830D01*
X186983910Y-115864222D01*
X186775826Y-115991737D01*
X186775823Y-115991738D01*
X186590241Y-116150241D01*
X186548790Y-116198774D01*
X186490283Y-116236967D01*
X186420415Y-116237465D01*
X186361369Y-116200111D01*
X186331891Y-116136764D01*
X186330500Y-116118242D01*
X186330500Y-114936441D01*
X186350185Y-114869402D01*
X186366814Y-114848765D01*
X189570557Y-111645021D01*
X189631878Y-111611538D01*
X189701570Y-111616522D01*
X189727126Y-111629601D01*
X189880335Y-111731972D01*
X190144923Y-111862452D01*
X190424278Y-111957281D01*
X190713620Y-112014834D01*
X190741888Y-112016686D01*
X191007993Y-112034129D01*
X191008000Y-112034129D01*
X191008007Y-112034129D01*
X191243675Y-112018681D01*
X191302380Y-112014834D01*
X191591722Y-111957281D01*
X191871077Y-111862452D01*
X192135665Y-111731972D01*
X192380957Y-111568073D01*
X192602758Y-111373558D01*
X192797273Y-111151757D01*
X192961172Y-110906465D01*
X193091652Y-110641877D01*
X193186481Y-110362522D01*
X193244034Y-110073180D01*
X193263329Y-109778800D01*
X193263329Y-109778792D01*
X193244035Y-109484436D01*
X193244034Y-109484420D01*
X193186481Y-109195078D01*
X193091652Y-108915723D01*
X192961172Y-108651136D01*
X192797273Y-108405843D01*
X192754655Y-108357247D01*
X192602758Y-108184041D01*
X192380955Y-107989525D01*
X192135667Y-107825629D01*
X192135660Y-107825625D01*
X191871080Y-107695149D01*
X191591730Y-107600321D01*
X191591724Y-107600319D01*
X191591722Y-107600319D01*
X191302380Y-107542766D01*
X191302373Y-107542765D01*
X191302363Y-107542764D01*
X191008007Y-107523471D01*
X191007993Y-107523471D01*
X190713636Y-107542764D01*
X190713624Y-107542765D01*
X190713620Y-107542766D01*
X190713612Y-107542767D01*
X190713609Y-107542768D01*
X190424283Y-107600318D01*
X190424269Y-107600321D01*
X190144919Y-107695149D01*
X189880334Y-107825628D01*
X189635041Y-107989528D01*
X189625919Y-107997528D01*
X189562537Y-108026931D01*
X189544160Y-108028300D01*
X188996225Y-108028300D01*
X188991589Y-108028213D01*
X188988718Y-108028105D01*
X188895564Y-108024619D01*
X188869825Y-108027520D01*
X188855940Y-108028300D01*
X185544000Y-108028300D01*
X185476961Y-108008615D01*
X185431206Y-107955811D01*
X185420000Y-107904300D01*
X185420000Y-106246644D01*
X189008000Y-106246644D01*
X189014401Y-106306172D01*
X189014403Y-106306179D01*
X189064645Y-106440886D01*
X189064649Y-106440893D01*
X189150809Y-106555987D01*
X189150812Y-106555990D01*
X189265906Y-106642150D01*
X189265913Y-106642154D01*
X189400620Y-106692396D01*
X189400627Y-106692398D01*
X189460155Y-106698799D01*
X189460172Y-106698800D01*
X190758000Y-106698800D01*
X190758000Y-105420602D01*
X190919169Y-105458800D01*
X191052267Y-105458800D01*
X191184461Y-105443349D01*
X191258000Y-105416582D01*
X191258000Y-106698800D01*
X192555828Y-106698800D01*
X192555844Y-106698799D01*
X192615372Y-106692398D01*
X192615379Y-106692396D01*
X192750086Y-106642154D01*
X192750093Y-106642150D01*
X192865187Y-106555990D01*
X192865190Y-106555987D01*
X192951350Y-106440893D01*
X192951354Y-106440886D01*
X193001596Y-106306179D01*
X193001598Y-106306172D01*
X193007999Y-106246644D01*
X193008000Y-106246627D01*
X193008000Y-104948800D01*
X191726483Y-104948800D01*
X191761549Y-104831671D01*
X191771879Y-104654309D01*
X191741029Y-104479346D01*
X191727853Y-104448800D01*
X193008000Y-104448800D01*
X193008000Y-103150972D01*
X193007999Y-103150955D01*
X193001598Y-103091427D01*
X193001596Y-103091420D01*
X192951354Y-102956713D01*
X192951350Y-102956706D01*
X192865190Y-102841612D01*
X192865187Y-102841609D01*
X192750093Y-102755449D01*
X192750086Y-102755445D01*
X192615379Y-102705203D01*
X192615372Y-102705201D01*
X192555844Y-102698800D01*
X191258000Y-102698800D01*
X191258000Y-103976997D01*
X191096831Y-103938800D01*
X190963733Y-103938800D01*
X190831539Y-103954251D01*
X190758000Y-103981017D01*
X190758000Y-102698800D01*
X189460155Y-102698800D01*
X189400627Y-102705201D01*
X189400620Y-102705203D01*
X189265913Y-102755445D01*
X189265906Y-102755449D01*
X189150812Y-102841609D01*
X189150809Y-102841612D01*
X189064649Y-102956706D01*
X189064645Y-102956713D01*
X189014403Y-103091420D01*
X189014401Y-103091427D01*
X189008000Y-103150955D01*
X189008000Y-104448800D01*
X190289517Y-104448800D01*
X190254451Y-104565929D01*
X190244121Y-104743291D01*
X190274971Y-104918254D01*
X190288147Y-104948800D01*
X189008000Y-104948800D01*
X189008000Y-106246644D01*
X185420000Y-106246644D01*
X185420000Y-99652300D01*
X185439685Y-99585261D01*
X185492489Y-99539506D01*
X185544000Y-99528300D01*
X187256432Y-99528300D01*
X187323471Y-99547985D01*
X187350722Y-99571768D01*
X187419041Y-99651759D01*
X187562697Y-99774453D01*
X187604623Y-99810261D01*
X187604626Y-99810262D01*
X187812710Y-99937777D01*
X188038181Y-100031169D01*
X188038178Y-100031169D01*
X188038184Y-100031170D01*
X188038188Y-100031172D01*
X188275498Y-100088146D01*
X188518800Y-100107294D01*
X188762102Y-100088146D01*
X188999412Y-100031172D01*
X189224889Y-99937777D01*
X189432979Y-99810259D01*
X189618559Y-99651759D01*
X189777059Y-99466179D01*
X189904577Y-99258089D01*
X189997972Y-99032612D01*
X190054946Y-98795302D01*
X190074094Y-98552000D01*
X190054946Y-98308698D01*
X189997972Y-98071388D01*
X189992847Y-98059015D01*
X189904577Y-97845910D01*
X189777062Y-97637826D01*
X189777061Y-97637823D01*
X189704871Y-97553300D01*
X189618559Y-97452241D01*
X189464062Y-97320288D01*
X189432976Y-97293738D01*
X189432973Y-97293737D01*
X189224889Y-97166222D01*
X188999418Y-97072830D01*
X188999421Y-97072830D01*
X188893792Y-97047470D01*
X188762102Y-97015854D01*
X188762100Y-97015853D01*
X188762097Y-97015853D01*
X188518800Y-96996706D01*
X188275502Y-97015853D01*
X188038180Y-97072830D01*
X187812710Y-97166222D01*
X187604626Y-97293737D01*
X187604623Y-97293738D01*
X187419041Y-97452241D01*
X187263948Y-97633832D01*
X187205441Y-97672025D01*
X187169658Y-97677300D01*
X185544000Y-97677300D01*
X185476961Y-97657615D01*
X185431206Y-97604811D01*
X185420000Y-97553300D01*
X185420000Y-95820458D01*
X185439685Y-95753419D01*
X185492489Y-95707664D01*
X185561647Y-95697720D01*
X185589295Y-95705027D01*
X185636866Y-95723697D01*
X185641086Y-95725445D01*
X185729225Y-95763900D01*
X185729235Y-95763902D01*
X185729236Y-95763903D01*
X185754246Y-95770604D01*
X185767459Y-95774951D01*
X185791584Y-95784420D01*
X185791590Y-95784421D01*
X185791592Y-95784422D01*
X185847738Y-95797236D01*
X185885301Y-95805810D01*
X185889781Y-95806920D01*
X185982649Y-95831805D01*
X185991937Y-95832851D01*
X186008394Y-95834706D01*
X186022103Y-95837034D01*
X186047370Y-95842802D01*
X186047378Y-95842802D01*
X186047380Y-95842803D01*
X186047375Y-95842803D01*
X186102677Y-95846946D01*
X186143261Y-95849987D01*
X186147819Y-95850414D01*
X186243363Y-95861180D01*
X186339389Y-95857586D01*
X186344025Y-95857500D01*
X190134268Y-95857500D01*
X190201307Y-95877185D01*
X190247062Y-95929989D01*
X190257006Y-95999147D01*
X190247418Y-96032226D01*
X190242022Y-96044261D01*
X190242020Y-96044266D01*
X190172730Y-96296407D01*
X190142741Y-96556178D01*
X190152756Y-96817481D01*
X190202543Y-97074193D01*
X190202543Y-97074195D01*
X190290929Y-97320287D01*
X190290930Y-97320288D01*
X190290932Y-97320292D01*
X190290933Y-97320294D01*
X190401829Y-97524229D01*
X190415856Y-97550023D01*
X190574376Y-97757982D01*
X190574378Y-97757984D01*
X190762782Y-97939306D01*
X190762787Y-97939310D01*
X190762790Y-97939313D01*
X190762793Y-97939315D01*
X190762799Y-97939320D01*
X190976670Y-98089753D01*
X190976673Y-98089754D01*
X190976674Y-98089755D01*
X191211016Y-98205785D01*
X191460323Y-98284683D01*
X191718753Y-98324600D01*
X191718757Y-98324600D01*
X192009782Y-98324600D01*
X192009783Y-98324600D01*
X192205227Y-98309595D01*
X192459842Y-98250012D01*
X192702379Y-98152262D01*
X192927151Y-98018633D01*
X193128891Y-97852260D01*
X193302870Y-97657040D01*
X193302872Y-97657035D01*
X193302876Y-97657032D01*
X193445006Y-97437555D01*
X193445009Y-97437551D01*
X193551978Y-97198937D01*
X193621270Y-96946790D01*
X193651259Y-96687022D01*
X193641243Y-96425719D01*
X193637781Y-96407870D01*
X193616164Y-96296407D01*
X193591457Y-96169008D01*
X193546654Y-96044263D01*
X193503070Y-95922912D01*
X193503069Y-95922911D01*
X193503068Y-95922909D01*
X193503067Y-95922906D01*
X193378146Y-95693180D01*
X193219622Y-95485216D01*
X193182964Y-95449936D01*
X193148312Y-95389266D01*
X193151960Y-95319492D01*
X193179884Y-95275130D01*
X193179516Y-95274789D01*
X193181093Y-95273088D01*
X193181093Y-95273087D01*
X193181102Y-95273079D01*
X193224438Y-95222720D01*
X193227464Y-95219335D01*
X193244033Y-95201479D01*
X193245114Y-95199892D01*
X193253579Y-95188857D01*
X193309398Y-95123997D01*
X193448983Y-94901847D01*
X193553900Y-94661375D01*
X193621805Y-94407950D01*
X193649013Y-94166475D01*
X193651259Y-94147022D01*
X193647636Y-94052505D01*
X193641370Y-93885057D01*
X193592594Y-93627267D01*
X193505941Y-93379627D01*
X193398949Y-93177190D01*
X193385028Y-93108723D01*
X193410333Y-93043597D01*
X193420899Y-93031569D01*
X193489712Y-92962756D01*
X193581814Y-92813434D01*
X193636999Y-92646897D01*
X193647500Y-92544109D01*
X193647499Y-90539092D01*
X193636999Y-90436303D01*
X193581814Y-90269766D01*
X193489712Y-90120444D01*
X193365656Y-89996388D01*
X193216334Y-89904286D01*
X193049797Y-89849101D01*
X193049795Y-89849100D01*
X192947010Y-89838600D01*
X190846998Y-89838600D01*
X190846981Y-89838601D01*
X190744203Y-89849100D01*
X190744200Y-89849101D01*
X190577668Y-89904285D01*
X190577663Y-89904287D01*
X190500128Y-89952111D01*
X190441879Y-89988039D01*
X190376784Y-90006500D01*
X189824554Y-90006500D01*
X189757515Y-89986815D01*
X189730267Y-89963034D01*
X189618559Y-89832241D01*
X189618556Y-89832239D01*
X189618555Y-89832237D01*
X189462308Y-89698790D01*
X189424114Y-89640284D01*
X189423615Y-89570416D01*
X189460969Y-89511369D01*
X189524316Y-89481891D01*
X189542839Y-89480500D01*
X192644957Y-89480500D01*
X192649592Y-89480586D01*
X192684441Y-89481891D01*
X192745635Y-89484181D01*
X192745635Y-89484180D01*
X192745636Y-89484181D01*
X192841168Y-89473416D01*
X192845776Y-89472984D01*
X192941630Y-89465802D01*
X192966896Y-89460034D01*
X192980605Y-89457706D01*
X193002273Y-89455264D01*
X193006350Y-89454805D01*
X193099214Y-89429921D01*
X193103629Y-89428825D01*
X193197416Y-89407420D01*
X193221540Y-89397951D01*
X193234741Y-89393607D01*
X193259775Y-89386900D01*
X193347889Y-89348455D01*
X193352111Y-89346706D01*
X193441643Y-89311568D01*
X193464102Y-89298600D01*
X193476494Y-89292345D01*
X193500247Y-89281983D01*
X193581680Y-89230814D01*
X193585573Y-89228468D01*
X193668857Y-89180386D01*
X193689126Y-89164221D01*
X193700448Y-89156188D01*
X193722397Y-89142398D01*
X193795263Y-89079689D01*
X193798825Y-89076739D01*
X193873969Y-89016815D01*
X193873971Y-89016812D01*
X193873981Y-89016805D01*
X193939387Y-88946312D01*
X193942550Y-88943029D01*
X194405429Y-88480150D01*
X194408712Y-88476987D01*
X194479205Y-88411581D01*
X194511776Y-88370738D01*
X194539139Y-88336425D01*
X194542100Y-88332851D01*
X194604798Y-88259997D01*
X194618588Y-88238048D01*
X194626621Y-88226726D01*
X194642786Y-88206457D01*
X194690868Y-88123173D01*
X194693214Y-88119280D01*
X194744383Y-88037847D01*
X194754745Y-88014094D01*
X194761000Y-88001702D01*
X194773968Y-87979243D01*
X194809106Y-87889711D01*
X194810855Y-87885489D01*
X194849300Y-87797375D01*
X194856007Y-87772341D01*
X194860351Y-87759140D01*
X194869820Y-87735016D01*
X194891225Y-87641229D01*
X194892325Y-87636801D01*
X194917204Y-87543954D01*
X194917205Y-87543949D01*
X194920106Y-87518205D01*
X194922435Y-87504494D01*
X194924210Y-87496719D01*
X194928202Y-87479230D01*
X194935385Y-87383368D01*
X194935814Y-87378785D01*
X194946581Y-87283237D01*
X194942987Y-87187193D01*
X194942900Y-87182556D01*
X194942900Y-84115439D01*
X194962585Y-84048400D01*
X194973669Y-84033683D01*
X194981673Y-84024557D01*
X195145572Y-83779265D01*
X195276052Y-83514677D01*
X195370881Y-83235322D01*
X195428434Y-82945980D01*
X195436292Y-82826089D01*
X195447729Y-82651607D01*
X195447729Y-82651592D01*
X195428435Y-82357236D01*
X195428434Y-82357220D01*
X195370881Y-82067878D01*
X195276052Y-81788523D01*
X195145572Y-81523936D01*
X195107128Y-81466401D01*
X195072055Y-81413910D01*
X194981673Y-81278643D01*
X194874118Y-81156000D01*
X194787158Y-81056841D01*
X194565355Y-80862325D01*
X194320067Y-80698429D01*
X194320060Y-80698425D01*
X194055480Y-80567949D01*
X193776130Y-80473121D01*
X193776124Y-80473119D01*
X193776122Y-80473119D01*
X193486780Y-80415566D01*
X193486773Y-80415565D01*
X193486763Y-80415564D01*
X193192407Y-80396271D01*
X193192393Y-80396271D01*
X192898036Y-80415564D01*
X192898024Y-80415565D01*
X192898020Y-80415566D01*
X192898012Y-80415567D01*
X192898009Y-80415568D01*
X192608683Y-80473118D01*
X192608669Y-80473121D01*
X192329319Y-80567949D01*
X192064734Y-80698428D01*
X191819441Y-80862328D01*
X191597641Y-81056841D01*
X191403128Y-81278641D01*
X191239228Y-81523934D01*
X191108749Y-81788519D01*
X191013921Y-82067869D01*
X191013918Y-82067883D01*
X190956368Y-82357209D01*
X190956364Y-82357236D01*
X190937071Y-82651592D01*
X190937071Y-82651607D01*
X190956364Y-82945963D01*
X190956365Y-82945973D01*
X190956366Y-82945980D01*
X191010823Y-83219759D01*
X191013918Y-83235316D01*
X191013921Y-83235330D01*
X191108749Y-83514680D01*
X191239225Y-83779260D01*
X191239229Y-83779267D01*
X191403121Y-84024549D01*
X191403123Y-84024552D01*
X191403125Y-84024555D01*
X191403127Y-84024557D01*
X191411126Y-84033678D01*
X191440530Y-84097058D01*
X191441900Y-84115439D01*
X191441900Y-85855500D01*
X191422215Y-85922539D01*
X191369411Y-85968294D01*
X191317900Y-85979500D01*
X188929170Y-85979500D01*
X188862131Y-85959815D01*
X188832222Y-85932811D01*
X188826808Y-85926022D01*
X188826799Y-85926014D01*
X188634479Y-85747567D01*
X188417704Y-85599772D01*
X188417700Y-85599770D01*
X188417697Y-85599768D01*
X188417696Y-85599767D01*
X188181325Y-85485938D01*
X188181327Y-85485938D01*
X187930623Y-85408606D01*
X187930619Y-85408605D01*
X187930615Y-85408604D01*
X187805823Y-85389794D01*
X187671187Y-85369500D01*
X187671182Y-85369500D01*
X187408818Y-85369500D01*
X187408812Y-85369500D01*
X187247247Y-85393853D01*
X187149385Y-85408604D01*
X187149382Y-85408605D01*
X187149376Y-85408606D01*
X186898673Y-85485938D01*
X186662303Y-85599767D01*
X186662302Y-85599768D01*
X186445520Y-85747567D01*
X186253198Y-85926014D01*
X186089614Y-86131143D01*
X185958432Y-86358356D01*
X185862582Y-86602578D01*
X185862577Y-86602595D01*
X185820472Y-86787067D01*
X185787263Y-86847155D01*
X185631679Y-87002738D01*
X185570358Y-87036222D01*
X185500667Y-87031238D01*
X185444733Y-86989367D01*
X185420316Y-86923902D01*
X185420000Y-86915056D01*
X185420000Y-82120000D01*
X185984706Y-82120000D01*
X186003853Y-82363297D01*
X186060830Y-82600619D01*
X186154222Y-82826089D01*
X186281737Y-83034173D01*
X186281738Y-83034176D01*
X186281741Y-83034179D01*
X186440241Y-83219759D01*
X186583897Y-83342453D01*
X186625823Y-83378261D01*
X186625826Y-83378262D01*
X186833910Y-83505777D01*
X187059381Y-83599169D01*
X187059378Y-83599169D01*
X187059384Y-83599170D01*
X187059388Y-83599172D01*
X187296698Y-83656146D01*
X187540000Y-83675294D01*
X187783302Y-83656146D01*
X188020612Y-83599172D01*
X188246089Y-83505777D01*
X188454179Y-83378259D01*
X188639759Y-83219759D01*
X188798259Y-83034179D01*
X188925777Y-82826089D01*
X189019172Y-82600612D01*
X189076146Y-82363302D01*
X189095294Y-82120000D01*
X189076146Y-81876698D01*
X189019172Y-81639388D01*
X188971350Y-81523934D01*
X188925777Y-81413910D01*
X188798262Y-81205826D01*
X188798261Y-81205823D01*
X188680821Y-81068319D01*
X188639759Y-81020241D01*
X188517063Y-80915449D01*
X188454176Y-80861738D01*
X188454173Y-80861737D01*
X188246089Y-80734222D01*
X188020618Y-80640830D01*
X188020621Y-80640830D01*
X187914992Y-80615470D01*
X187783302Y-80583854D01*
X187783300Y-80583853D01*
X187783297Y-80583853D01*
X187540000Y-80564706D01*
X187296702Y-80583853D01*
X187059380Y-80640830D01*
X186833910Y-80734222D01*
X186625826Y-80861737D01*
X186625823Y-80861738D01*
X186440241Y-81020241D01*
X186281738Y-81205823D01*
X186281737Y-81205826D01*
X186154222Y-81413910D01*
X186060830Y-81639380D01*
X186003853Y-81876702D01*
X185984706Y-82120000D01*
X185420000Y-82120000D01*
X185420000Y-81280000D01*
X183529017Y-81280000D01*
X183461978Y-81260315D01*
X183441336Y-81243681D01*
X181317099Y-79119444D01*
X191192400Y-79119444D01*
X191198801Y-79178972D01*
X191198803Y-79178979D01*
X191249045Y-79313686D01*
X191249049Y-79313693D01*
X191335209Y-79428787D01*
X191335212Y-79428790D01*
X191450306Y-79514950D01*
X191450313Y-79514954D01*
X191585020Y-79565196D01*
X191585027Y-79565198D01*
X191644555Y-79571599D01*
X191644572Y-79571600D01*
X192942400Y-79571600D01*
X192942400Y-78293402D01*
X193103569Y-78331600D01*
X193236667Y-78331600D01*
X193368861Y-78316149D01*
X193442400Y-78289382D01*
X193442400Y-79571600D01*
X194740228Y-79571600D01*
X194740244Y-79571599D01*
X194799772Y-79565198D01*
X194799779Y-79565196D01*
X194934486Y-79514954D01*
X194934493Y-79514950D01*
X195049587Y-79428790D01*
X195049590Y-79428787D01*
X195135750Y-79313693D01*
X195135754Y-79313686D01*
X195185996Y-79178979D01*
X195185998Y-79178972D01*
X195192399Y-79119444D01*
X195192400Y-79119427D01*
X195192400Y-77821600D01*
X193910883Y-77821600D01*
X193945949Y-77704471D01*
X193956279Y-77527109D01*
X193925429Y-77352146D01*
X193912253Y-77321600D01*
X195192400Y-77321600D01*
X195192400Y-76023772D01*
X195192399Y-76023755D01*
X195185998Y-75964227D01*
X195185996Y-75964220D01*
X195135754Y-75829513D01*
X195135750Y-75829506D01*
X195049590Y-75714412D01*
X195049587Y-75714409D01*
X194934493Y-75628249D01*
X194934486Y-75628245D01*
X194799779Y-75578003D01*
X194799772Y-75578001D01*
X194740244Y-75571600D01*
X193442400Y-75571600D01*
X193442400Y-76849797D01*
X193281231Y-76811600D01*
X193148133Y-76811600D01*
X193015939Y-76827051D01*
X192942400Y-76853817D01*
X192942400Y-75571600D01*
X191644555Y-75571600D01*
X191585027Y-75578001D01*
X191585020Y-75578003D01*
X191450313Y-75628245D01*
X191450306Y-75628249D01*
X191335212Y-75714409D01*
X191335209Y-75714412D01*
X191249049Y-75829506D01*
X191249045Y-75829513D01*
X191198803Y-75964220D01*
X191198801Y-75964227D01*
X191192400Y-76023755D01*
X191192400Y-77321600D01*
X192473917Y-77321600D01*
X192438851Y-77438729D01*
X192428521Y-77616091D01*
X192459371Y-77791054D01*
X192472547Y-77821600D01*
X191192400Y-77821600D01*
X191192400Y-79119444D01*
X181317099Y-79119444D01*
X179600019Y-77402364D01*
X179566534Y-77341041D01*
X179563700Y-77314683D01*
X179563700Y-76663600D01*
X179583385Y-76596561D01*
X179593410Y-76583068D01*
X179617059Y-76555379D01*
X179744577Y-76347289D01*
X179837972Y-76121812D01*
X179894946Y-75884502D01*
X179914094Y-75641200D01*
X179894946Y-75397898D01*
X179837972Y-75160588D01*
X179744577Y-74935111D01*
X179744577Y-74935110D01*
X179617062Y-74727026D01*
X179617061Y-74727023D01*
X179570264Y-74672231D01*
X179458559Y-74541441D01*
X179335863Y-74436649D01*
X179272976Y-74382938D01*
X179272973Y-74382937D01*
X179064889Y-74255422D01*
X178839418Y-74162030D01*
X178839421Y-74162030D01*
X178733792Y-74136670D01*
X178602102Y-74105054D01*
X178602100Y-74105053D01*
X178602097Y-74105053D01*
X178358800Y-74085906D01*
X178115502Y-74105053D01*
X178115498Y-74105054D01*
X177952946Y-74144079D01*
X177883165Y-74140589D01*
X177826348Y-74099926D01*
X177800534Y-74035000D01*
X177800000Y-74023506D01*
X177800000Y-71347044D01*
X179660800Y-71347044D01*
X179667201Y-71406572D01*
X179667203Y-71406579D01*
X179717445Y-71541286D01*
X179717449Y-71541293D01*
X179803609Y-71656387D01*
X179803612Y-71656390D01*
X179918706Y-71742550D01*
X179918713Y-71742554D01*
X180053420Y-71792796D01*
X180053427Y-71792798D01*
X180112955Y-71799199D01*
X180112972Y-71799200D01*
X181410800Y-71799200D01*
X181410800Y-70521002D01*
X181571969Y-70559200D01*
X181705067Y-70559200D01*
X181837261Y-70543749D01*
X181910800Y-70516982D01*
X181910800Y-71799200D01*
X183208628Y-71799200D01*
X183208644Y-71799199D01*
X183268172Y-71792798D01*
X183268179Y-71792796D01*
X183402886Y-71742554D01*
X183402893Y-71742550D01*
X183517987Y-71656390D01*
X183517990Y-71656387D01*
X183604150Y-71541293D01*
X183604154Y-71541286D01*
X183654396Y-71406579D01*
X183654398Y-71406572D01*
X183660799Y-71347044D01*
X183660800Y-71347027D01*
X183660800Y-70049200D01*
X182379283Y-70049200D01*
X182414349Y-69932071D01*
X182424679Y-69754709D01*
X182393829Y-69579746D01*
X182380653Y-69549200D01*
X183660800Y-69549200D01*
X183660800Y-68251372D01*
X183660799Y-68251355D01*
X183654398Y-68191827D01*
X183654396Y-68191820D01*
X183604154Y-68057113D01*
X183604150Y-68057106D01*
X183517990Y-67942012D01*
X183517987Y-67942009D01*
X183402893Y-67855849D01*
X183402886Y-67855845D01*
X183268179Y-67805603D01*
X183268172Y-67805601D01*
X183208644Y-67799200D01*
X181910800Y-67799200D01*
X181910800Y-69077397D01*
X181749631Y-69039200D01*
X181616533Y-69039200D01*
X181484339Y-69054651D01*
X181410800Y-69081417D01*
X181410800Y-67799200D01*
X180112955Y-67799200D01*
X180053427Y-67805601D01*
X180053420Y-67805603D01*
X179918713Y-67855845D01*
X179918706Y-67855849D01*
X179803612Y-67942009D01*
X179803609Y-67942012D01*
X179717449Y-68057106D01*
X179717445Y-68057113D01*
X179667203Y-68191820D01*
X179667201Y-68191827D01*
X179660800Y-68251355D01*
X179660800Y-69549200D01*
X180942317Y-69549200D01*
X180907251Y-69666329D01*
X180896921Y-69843691D01*
X180927771Y-70018654D01*
X180940947Y-70049200D01*
X179660800Y-70049200D01*
X179660800Y-71347044D01*
X177800000Y-71347044D01*
X177800000Y-66164000D01*
X177819685Y-66096961D01*
X177872489Y-66051206D01*
X177924000Y-66040000D01*
X186378856Y-66040000D01*
X186445895Y-66059685D01*
G37*
%TD.AperFunction*%
%TD*%
%TA.AperFunction,Conductor*%
%TO.N,+24V*%
G36*
X106651034Y-101151353D02*
G01*
X106717306Y-101173473D01*
X106761101Y-101227913D01*
X106770500Y-101275269D01*
X106770500Y-107310402D01*
X106768973Y-107329801D01*
X106766677Y-107344295D01*
X106770330Y-107413999D01*
X106770500Y-107420489D01*
X106770500Y-107441504D01*
X106772697Y-107462411D01*
X106773206Y-107468880D01*
X106776858Y-107538576D01*
X106776859Y-107538581D01*
X106780658Y-107552758D01*
X106784203Y-107571884D01*
X106785463Y-107583870D01*
X106785738Y-107586482D01*
X106785740Y-107586488D01*
X106807303Y-107652855D01*
X106809139Y-107659054D01*
X106817804Y-107691390D01*
X106827211Y-107726496D01*
X106833876Y-107739577D01*
X106841317Y-107757542D01*
X106845854Y-107771503D01*
X106845856Y-107771508D01*
X106880759Y-107831962D01*
X106883849Y-107837654D01*
X106915535Y-107899840D01*
X106915540Y-107899846D01*
X106915542Y-107899849D01*
X106924772Y-107911248D01*
X106935789Y-107927278D01*
X106943130Y-107939992D01*
X106989837Y-107991865D01*
X106994052Y-107996801D01*
X107007271Y-108013125D01*
X107007278Y-108013133D01*
X107022133Y-108027988D01*
X107026602Y-108032697D01*
X107047375Y-108055768D01*
X107077605Y-108118760D01*
X107079224Y-108139319D01*
X107061582Y-111914706D01*
X107041584Y-111981653D01*
X106988567Y-112027161D01*
X106936310Y-112038120D01*
X100623227Y-111973317D01*
X100556393Y-111952946D01*
X100511183Y-111899675D01*
X100500500Y-111849324D01*
X100500500Y-105664007D01*
X101465571Y-105664007D01*
X101484864Y-105958363D01*
X101484865Y-105958373D01*
X101484866Y-105958380D01*
X101484868Y-105958390D01*
X101542418Y-106247716D01*
X101542421Y-106247730D01*
X101637249Y-106527080D01*
X101767725Y-106791660D01*
X101767729Y-106791667D01*
X101931625Y-107036955D01*
X102126141Y-107258758D01*
X102347944Y-107453274D01*
X102475608Y-107538576D01*
X102593235Y-107617172D01*
X102857823Y-107747652D01*
X103137178Y-107842481D01*
X103426520Y-107900034D01*
X103454788Y-107901886D01*
X103720893Y-107919329D01*
X103720900Y-107919329D01*
X103720907Y-107919329D01*
X103956575Y-107903881D01*
X104015280Y-107900034D01*
X104304622Y-107842481D01*
X104583977Y-107747652D01*
X104848565Y-107617172D01*
X105093857Y-107453273D01*
X105315658Y-107258758D01*
X105510173Y-107036957D01*
X105674072Y-106791665D01*
X105804552Y-106527077D01*
X105899381Y-106247722D01*
X105956934Y-105958380D01*
X105976229Y-105664000D01*
X105976229Y-105663992D01*
X105956935Y-105369636D01*
X105956934Y-105369620D01*
X105899381Y-105080278D01*
X105804552Y-104800923D01*
X105674072Y-104536336D01*
X105510173Y-104291043D01*
X105467555Y-104242447D01*
X105315658Y-104069241D01*
X105093855Y-103874725D01*
X104848567Y-103710829D01*
X104848560Y-103710825D01*
X104583980Y-103580349D01*
X104304630Y-103485521D01*
X104304624Y-103485519D01*
X104304622Y-103485519D01*
X104015280Y-103427966D01*
X104015273Y-103427965D01*
X104015263Y-103427964D01*
X103720907Y-103408671D01*
X103720893Y-103408671D01*
X103426536Y-103427964D01*
X103426524Y-103427965D01*
X103426520Y-103427966D01*
X103426512Y-103427967D01*
X103426509Y-103427968D01*
X103137183Y-103485518D01*
X103137169Y-103485521D01*
X102857819Y-103580349D01*
X102593234Y-103710828D01*
X102347941Y-103874728D01*
X102126141Y-104069241D01*
X101931628Y-104291041D01*
X101767728Y-104536334D01*
X101637249Y-104800919D01*
X101542421Y-105080269D01*
X101542418Y-105080283D01*
X101484868Y-105369609D01*
X101484864Y-105369636D01*
X101465571Y-105663992D01*
X101465571Y-105664007D01*
X100500500Y-105664007D01*
X100500500Y-101055087D01*
X100520185Y-100988048D01*
X100572989Y-100942293D01*
X100629028Y-100931170D01*
X106651034Y-101151353D01*
G37*
%TD.AperFunction*%
%TD*%
%TA.AperFunction,Conductor*%
%TO.N,+24V*%
G36*
X176489197Y-137179685D02*
G01*
X176534952Y-137232489D01*
X176539339Y-137244698D01*
X176539694Y-137244578D01*
X176635829Y-137527780D01*
X176766305Y-137792360D01*
X176766309Y-137792367D01*
X176930205Y-138037655D01*
X177124721Y-138259458D01*
X177346524Y-138453974D01*
X177538777Y-138582433D01*
X177591815Y-138617872D01*
X177856403Y-138748352D01*
X178135758Y-138843181D01*
X178425100Y-138900734D01*
X178453368Y-138902586D01*
X178719473Y-138920029D01*
X178719480Y-138920029D01*
X178719487Y-138920029D01*
X178955155Y-138904581D01*
X179013860Y-138900734D01*
X179303202Y-138843181D01*
X179582557Y-138748352D01*
X179847145Y-138617872D01*
X180092437Y-138453973D01*
X180314238Y-138259458D01*
X180508753Y-138037657D01*
X180672652Y-137792365D01*
X180803132Y-137527777D01*
X180897961Y-137248422D01*
X180897960Y-137248422D01*
X180899266Y-137244578D01*
X180901117Y-137245206D01*
X180933374Y-137192263D01*
X180996215Y-137161721D01*
X181016802Y-137160000D01*
X181825057Y-137160000D01*
X181892096Y-137179685D01*
X181937851Y-137232489D01*
X181947795Y-137301647D01*
X181918770Y-137365203D01*
X181912744Y-137371674D01*
X180781298Y-138503120D01*
X177386995Y-141897422D01*
X177383657Y-141900638D01*
X177313198Y-141966015D01*
X177253274Y-142041156D01*
X177250318Y-142044723D01*
X177187600Y-142117604D01*
X177173811Y-142139549D01*
X177165769Y-142150883D01*
X177149618Y-142171137D01*
X177149615Y-142171140D01*
X177149614Y-142171143D01*
X177142746Y-142183039D01*
X177116006Y-142229352D01*
X177090380Y-142260576D01*
X177005243Y-142335240D01*
X177005234Y-142335250D01*
X176810728Y-142557041D01*
X176646828Y-142802334D01*
X176516349Y-143066919D01*
X176421521Y-143346269D01*
X176421518Y-143346283D01*
X176363968Y-143635609D01*
X176363964Y-143635636D01*
X176344671Y-143929992D01*
X176344671Y-143930007D01*
X176363964Y-144224363D01*
X176363965Y-144224373D01*
X176363966Y-144224380D01*
X176363968Y-144224390D01*
X176421518Y-144513716D01*
X176421521Y-144513730D01*
X176516349Y-144793080D01*
X176646825Y-145057660D01*
X176646829Y-145057667D01*
X176810725Y-145302955D01*
X177005241Y-145524758D01*
X177227044Y-145719274D01*
X177420280Y-145848390D01*
X177472335Y-145883172D01*
X177736923Y-146013652D01*
X178016278Y-146108481D01*
X178305620Y-146166034D01*
X178333888Y-146167886D01*
X178599993Y-146185329D01*
X178600000Y-146185329D01*
X178600007Y-146185329D01*
X178835675Y-146169881D01*
X178894380Y-146166034D01*
X179183722Y-146108481D01*
X179463077Y-146013652D01*
X179727665Y-145883172D01*
X179972957Y-145719273D01*
X180194758Y-145524758D01*
X180389273Y-145302957D01*
X180553172Y-145057665D01*
X180683652Y-144793077D01*
X180778481Y-144513722D01*
X180836034Y-144224380D01*
X180842588Y-144124390D01*
X180855329Y-143930007D01*
X180855329Y-143929992D01*
X180836035Y-143635636D01*
X180836034Y-143635620D01*
X180834305Y-143626930D01*
X180809797Y-143503718D01*
X180816024Y-143434127D01*
X180843731Y-143391848D01*
X181468319Y-142767260D01*
X181529642Y-142733776D01*
X181599334Y-142738760D01*
X181655267Y-142780632D01*
X181679684Y-142846096D01*
X181680000Y-142854942D01*
X181680000Y-143680000D01*
X182961517Y-143680000D01*
X182926451Y-143797129D01*
X182916121Y-143974491D01*
X182946971Y-144149454D01*
X182960147Y-144180000D01*
X181680000Y-144180000D01*
X181680000Y-145477844D01*
X181686401Y-145537372D01*
X181686403Y-145537379D01*
X181736645Y-145672086D01*
X181736649Y-145672093D01*
X181822809Y-145787187D01*
X181822812Y-145787190D01*
X181937906Y-145873350D01*
X181937913Y-145873354D01*
X182072620Y-145923596D01*
X182072627Y-145923598D01*
X182132155Y-145929999D01*
X182132172Y-145930000D01*
X183430000Y-145930000D01*
X183430000Y-144651802D01*
X183591169Y-144690000D01*
X183724267Y-144690000D01*
X183856461Y-144674549D01*
X183930000Y-144647782D01*
X183930000Y-145930000D01*
X185227828Y-145930000D01*
X185227844Y-145929999D01*
X185287372Y-145923598D01*
X185287379Y-145923596D01*
X185422086Y-145873354D01*
X185422093Y-145873350D01*
X185537187Y-145787190D01*
X185537190Y-145787187D01*
X185623350Y-145672093D01*
X185623354Y-145672086D01*
X185673596Y-145537379D01*
X185673598Y-145537372D01*
X185679999Y-145477844D01*
X185680000Y-145477827D01*
X185680000Y-144180000D01*
X184398483Y-144180000D01*
X184433549Y-144062871D01*
X184443879Y-143885509D01*
X184413029Y-143710546D01*
X184399853Y-143680000D01*
X185680000Y-143680000D01*
X185680000Y-142382172D01*
X185679999Y-142382155D01*
X185673598Y-142322627D01*
X185673596Y-142322620D01*
X185623354Y-142187913D01*
X185623350Y-142187906D01*
X185537190Y-142072812D01*
X185537187Y-142072809D01*
X185422093Y-141986649D01*
X185422086Y-141986645D01*
X185287379Y-141936403D01*
X185287372Y-141936401D01*
X185227844Y-141930000D01*
X183930000Y-141930000D01*
X183930000Y-143208197D01*
X183768831Y-143170000D01*
X183635733Y-143170000D01*
X183503539Y-143185451D01*
X183430000Y-143212217D01*
X183430000Y-141930000D01*
X182604942Y-141930000D01*
X182537903Y-141910315D01*
X182492148Y-141857511D01*
X182482204Y-141788353D01*
X182511229Y-141724797D01*
X182517261Y-141718319D01*
X187075581Y-137160000D01*
X189534675Y-137160000D01*
X189543156Y-137381281D01*
X189592943Y-137637993D01*
X189592943Y-137637995D01*
X189681329Y-137884087D01*
X189681330Y-137884088D01*
X189681332Y-137884092D01*
X189681333Y-137884094D01*
X189745097Y-138001355D01*
X189806256Y-138113823D01*
X189964776Y-138321782D01*
X189964778Y-138321784D01*
X190153182Y-138503106D01*
X190153187Y-138503110D01*
X190153190Y-138503113D01*
X190153193Y-138503115D01*
X190153199Y-138503120D01*
X190367070Y-138653553D01*
X190367073Y-138653554D01*
X190367074Y-138653555D01*
X190601416Y-138769585D01*
X190850723Y-138848483D01*
X191109153Y-138888400D01*
X191109157Y-138888400D01*
X191400182Y-138888400D01*
X191400183Y-138888400D01*
X191595627Y-138873395D01*
X191850242Y-138813812D01*
X192092779Y-138716062D01*
X192317551Y-138582433D01*
X192519291Y-138416060D01*
X192693270Y-138220840D01*
X192693272Y-138220835D01*
X192693276Y-138220832D01*
X192788029Y-138074514D01*
X192835409Y-138001351D01*
X192942378Y-137762737D01*
X193011670Y-137510590D01*
X193041659Y-137250822D01*
X193038178Y-137160000D01*
X198120000Y-137160000D01*
X198120000Y-142116000D01*
X198100315Y-142183039D01*
X198047511Y-142228794D01*
X197996000Y-142240000D01*
X190500000Y-142240000D01*
X190500000Y-149375500D01*
X190480315Y-149442539D01*
X190427511Y-149488294D01*
X190376000Y-149499500D01*
X162684000Y-149499500D01*
X162616961Y-149479815D01*
X162571206Y-149427011D01*
X162560000Y-149375500D01*
X162560000Y-143830007D01*
X163894671Y-143830007D01*
X163913964Y-144124363D01*
X163913965Y-144124373D01*
X163913966Y-144124380D01*
X163913968Y-144124390D01*
X163971518Y-144413716D01*
X163971521Y-144413730D01*
X164066349Y-144693080D01*
X164196825Y-144957660D01*
X164196829Y-144957667D01*
X164360725Y-145202955D01*
X164555241Y-145424758D01*
X164777044Y-145619274D01*
X164878683Y-145687187D01*
X165022335Y-145783172D01*
X165286923Y-145913652D01*
X165566278Y-146008481D01*
X165855620Y-146066034D01*
X165883888Y-146067886D01*
X166149993Y-146085329D01*
X166150000Y-146085329D01*
X166150007Y-146085329D01*
X166385675Y-146069881D01*
X166444380Y-146066034D01*
X166733722Y-146008481D01*
X167013077Y-145913652D01*
X167277665Y-145783172D01*
X167522957Y-145619273D01*
X167744758Y-145424758D01*
X167785901Y-145377844D01*
X169230000Y-145377844D01*
X169236401Y-145437372D01*
X169236403Y-145437379D01*
X169286645Y-145572086D01*
X169286649Y-145572093D01*
X169372809Y-145687187D01*
X169372812Y-145687190D01*
X169487906Y-145773350D01*
X169487913Y-145773354D01*
X169622620Y-145823596D01*
X169622627Y-145823598D01*
X169682155Y-145829999D01*
X169682172Y-145830000D01*
X170980000Y-145830000D01*
X170980000Y-144551802D01*
X171141169Y-144590000D01*
X171274267Y-144590000D01*
X171406461Y-144574549D01*
X171480000Y-144547782D01*
X171480000Y-145830000D01*
X172777828Y-145830000D01*
X172777844Y-145829999D01*
X172837372Y-145823598D01*
X172837379Y-145823596D01*
X172972086Y-145773354D01*
X172972093Y-145773350D01*
X173087187Y-145687190D01*
X173087190Y-145687187D01*
X173173350Y-145572093D01*
X173173354Y-145572086D01*
X173223596Y-145437379D01*
X173223598Y-145437372D01*
X173229999Y-145377844D01*
X173230000Y-145377827D01*
X173230000Y-144080000D01*
X171948483Y-144080000D01*
X171983549Y-143962871D01*
X171993879Y-143785509D01*
X171963029Y-143610546D01*
X171949853Y-143580000D01*
X173230000Y-143580000D01*
X173230000Y-142282172D01*
X173229999Y-142282155D01*
X173223598Y-142222627D01*
X173223596Y-142222620D01*
X173173354Y-142087913D01*
X173173350Y-142087906D01*
X173087190Y-141972812D01*
X173087187Y-141972809D01*
X172972093Y-141886649D01*
X172972086Y-141886645D01*
X172837379Y-141836403D01*
X172837372Y-141836401D01*
X172777844Y-141830000D01*
X171480000Y-141830000D01*
X171480000Y-143108197D01*
X171318831Y-143070000D01*
X171185733Y-143070000D01*
X171053539Y-143085451D01*
X170980000Y-143112217D01*
X170980000Y-141830000D01*
X169682155Y-141830000D01*
X169622627Y-141836401D01*
X169622620Y-141836403D01*
X169487913Y-141886645D01*
X169487906Y-141886649D01*
X169372812Y-141972809D01*
X169372809Y-141972812D01*
X169286649Y-142087906D01*
X169286645Y-142087913D01*
X169236403Y-142222620D01*
X169236401Y-142222627D01*
X169230000Y-142282155D01*
X169230000Y-143580000D01*
X170511517Y-143580000D01*
X170476451Y-143697129D01*
X170466121Y-143874491D01*
X170496971Y-144049454D01*
X170510147Y-144080000D01*
X169230000Y-144080000D01*
X169230000Y-145377844D01*
X167785901Y-145377844D01*
X167939273Y-145202957D01*
X168103172Y-144957665D01*
X168233652Y-144693077D01*
X168328481Y-144413722D01*
X168386034Y-144124380D01*
X168391996Y-144033421D01*
X168405329Y-143830007D01*
X168405329Y-143829992D01*
X168386035Y-143535636D01*
X168386034Y-143535620D01*
X168328481Y-143246278D01*
X168233652Y-142966923D01*
X168103172Y-142702336D01*
X167939273Y-142457043D01*
X167832456Y-142335242D01*
X167744758Y-142235241D01*
X167522955Y-142040725D01*
X167277667Y-141876829D01*
X167277660Y-141876825D01*
X167013080Y-141746349D01*
X166733730Y-141651521D01*
X166733724Y-141651519D01*
X166733722Y-141651519D01*
X166444380Y-141593966D01*
X166444373Y-141593965D01*
X166444363Y-141593964D01*
X166150007Y-141574671D01*
X166149993Y-141574671D01*
X165855636Y-141593964D01*
X165855624Y-141593965D01*
X165855620Y-141593966D01*
X165855612Y-141593967D01*
X165855609Y-141593968D01*
X165566283Y-141651518D01*
X165566269Y-141651521D01*
X165286919Y-141746349D01*
X165022334Y-141876828D01*
X164777041Y-142040728D01*
X164555241Y-142235241D01*
X164360728Y-142457041D01*
X164196828Y-142702334D01*
X164066349Y-142966919D01*
X163971521Y-143246269D01*
X163971518Y-143246283D01*
X163913968Y-143535609D01*
X163913964Y-143535636D01*
X163894671Y-143829992D01*
X163894671Y-143830007D01*
X162560000Y-143830007D01*
X162560000Y-137284000D01*
X162579685Y-137216961D01*
X162632489Y-137171206D01*
X162684000Y-137160000D01*
X176422158Y-137160000D01*
X176489197Y-137179685D01*
G37*
%TD.AperFunction*%
%TD*%
M02*
