%TF.GenerationSoftware,KiCad,Pcbnew,7.0.11+dfsg-1build4*%
%TF.CreationDate,2025-08-31T19:45:24-05:00*%
%TF.ProjectId,SilentTempController,53696c65-6e74-4546-956d-70436f6e7472,rev?*%
%TF.SameCoordinates,Original*%
%TF.FileFunction,Soldermask,Bot*%
%TF.FilePolarity,Negative*%
%FSLAX46Y46*%
G04 Gerber Fmt 4.6, Leading zero omitted, Abs format (unit mm)*
G04 Created by KiCad (PCBNEW 7.0.11+dfsg-1build4) date 2025-08-31 19:45:24*
%MOMM*%
%LPD*%
G01*
G04 APERTURE LIST*
G04 Aperture macros list*
%AMRoundRect*
0 Rectangle with rounded corners*
0 $1 Rounding radius*
0 $2 $3 $4 $5 $6 $7 $8 $9 X,Y pos of 4 corners*
0 Add a 4 corners polygon primitive as box body*
4,1,4,$2,$3,$4,$5,$6,$7,$8,$9,$2,$3,0*
0 Add four circle primitives for the rounded corners*
1,1,$1+$1,$2,$3*
1,1,$1+$1,$4,$5*
1,1,$1+$1,$6,$7*
1,1,$1+$1,$8,$9*
0 Add four rect primitives between the rounded corners*
20,1,$1+$1,$2,$3,$4,$5,0*
20,1,$1+$1,$4,$5,$6,$7,0*
20,1,$1+$1,$6,$7,$8,$9,0*
20,1,$1+$1,$8,$9,$2,$3,0*%
G04 Aperture macros list end*
%ADD10O,1.800000X2.600000*%
%ADD11R,1.800000X2.600000*%
%ADD12C,3.000000*%
%ADD13C,1.600000*%
%ADD14O,1.600000X1.600000*%
%ADD15C,1.500000*%
%ADD16R,1.500000X1.500000*%
%ADD17R,2.000000X1.905000*%
%ADD18O,2.000000X1.905000*%
%ADD19R,1.700000X1.700000*%
%ADD20O,1.700000X1.700000*%
%ADD21C,2.000000*%
%ADD22R,3.000000X3.000000*%
%ADD23R,3.500000X3.500000*%
%ADD24RoundRect,0.750000X-0.750000X-1.000000X0.750000X-1.000000X0.750000X1.000000X-0.750000X1.000000X0*%
%ADD25RoundRect,0.875000X-0.875000X-0.875000X0.875000X-0.875000X0.875000X0.875000X-0.875000X0.875000X0*%
%ADD26R,1.600000X1.600000*%
%ADD27C,1.440000*%
%ADD28R,1.905000X2.000000*%
%ADD29O,1.905000X2.000000*%
%ADD30C,3.200000*%
G04 APERTURE END LIST*
D10*
%TO.C,DS1*%
X147320000Y-105664000D03*
X144780000Y-105664000D03*
X142240000Y-105664000D03*
X139700000Y-105664000D03*
X137160000Y-105664000D03*
X134620000Y-105664000D03*
X132080000Y-105664000D03*
X129540000Y-105664000D03*
X127000000Y-105664000D03*
X124460000Y-105664000D03*
X121920000Y-105664000D03*
X119380000Y-105664000D03*
X116840000Y-105664000D03*
X114300000Y-105664000D03*
X111760000Y-105664000D03*
D11*
X109220000Y-105664000D03*
D12*
X178720000Y-105664000D03*
X178719480Y-136664700D03*
X103720900Y-136664700D03*
X103720900Y-105664000D03*
%TD*%
D13*
%TO.C,R14*%
X151010000Y-66180000D03*
D14*
X158630000Y-66180000D03*
%TD*%
D15*
%TO.C,Q6*%
X175520000Y-116200000D03*
X178060000Y-116200000D03*
D16*
X180600000Y-116200000D03*
%TD*%
D13*
%TO.C,C6*%
X137236200Y-80238600D03*
X137236200Y-75238600D03*
%TD*%
D17*
%TO.C,Q8*%
X191008000Y-118745000D03*
D18*
X191008000Y-121285000D03*
X191008000Y-123825000D03*
%TD*%
D19*
%TO.C,J5*%
X137230000Y-55200000D03*
D20*
X134690000Y-55200000D03*
%TD*%
D13*
%TO.C,C15*%
X174400000Y-135500000D03*
X169400000Y-135500000D03*
%TD*%
%TO.C,R13*%
X158630000Y-62940000D03*
D14*
X151010000Y-62940000D03*
%TD*%
D13*
%TO.C,R29*%
X160610000Y-125950000D03*
D14*
X168230000Y-125950000D03*
%TD*%
D16*
%TO.C,Q5*%
X171600000Y-113400000D03*
D15*
X171600000Y-115940000D03*
X171600000Y-118480000D03*
%TD*%
D21*
%TO.C,SW1*%
X127508000Y-146812000D03*
X121008000Y-146812000D03*
X127508000Y-142312000D03*
X121008000Y-142312000D03*
%TD*%
D13*
%TO.C,R12*%
X161036000Y-83312000D03*
D14*
X161036000Y-90932000D03*
%TD*%
D13*
%TO.C,C13*%
X183388000Y-76962000D03*
X178388000Y-76962000D03*
%TD*%
%TO.C,R27*%
X187690000Y-124870000D03*
D14*
X187690000Y-117250000D03*
%TD*%
D22*
%TO.C,J2*%
X171230000Y-143830000D03*
D12*
X166150000Y-143830000D03*
%TD*%
D13*
%TO.C,C3*%
X147294600Y-80213200D03*
X147294600Y-75213200D03*
%TD*%
%TO.C,R5*%
X140716000Y-137160000D03*
D14*
X140716000Y-129540000D03*
%TD*%
D13*
%TO.C,R36*%
X165252400Y-86258400D03*
D14*
X165252400Y-78638400D03*
%TD*%
D23*
%TO.C,J1*%
X110236000Y-83312000D03*
D24*
X104236000Y-83312000D03*
D25*
X107236000Y-88012000D03*
%TD*%
D26*
%TO.C,C2*%
X107391200Y-73431400D03*
D13*
X104891200Y-73431400D03*
%TD*%
%TO.C,R42*%
X143250000Y-88050000D03*
D14*
X143250000Y-95670000D03*
%TD*%
D22*
%TO.C,J4*%
X167790000Y-56270000D03*
D12*
X172870000Y-56270000D03*
%TD*%
D16*
%TO.C,Q11*%
X180600000Y-122400000D03*
D15*
X178060000Y-122400000D03*
X175520000Y-122400000D03*
%TD*%
D13*
%TO.C,C9*%
X133934200Y-80162400D03*
X133934200Y-75162400D03*
%TD*%
%TO.C,R16*%
X134610000Y-66900000D03*
D14*
X134610000Y-59280000D03*
%TD*%
D13*
%TO.C,R33*%
X184150000Y-73152000D03*
D14*
X194310000Y-73152000D03*
%TD*%
D22*
%TO.C,J14*%
X182372000Y-143930000D03*
D12*
X177292000Y-143930000D03*
%TD*%
D27*
%TO.C,RV1*%
X109728000Y-100076000D03*
X109728000Y-97536000D03*
X109728000Y-94996000D03*
%TD*%
D13*
%TO.C,R17*%
X131300000Y-66960000D03*
D14*
X131300000Y-59340000D03*
%TD*%
D16*
%TO.C,Q13*%
X174396400Y-74117200D03*
D15*
X174396400Y-76657200D03*
X174396400Y-79197200D03*
%TD*%
D13*
%TO.C,R22*%
X171050000Y-106250000D03*
D14*
X163430000Y-106250000D03*
%TD*%
D16*
%TO.C,Q7*%
X180600000Y-111150000D03*
D15*
X178060000Y-111150000D03*
X175520000Y-111150000D03*
%TD*%
D21*
%TO.C,SW3*%
X148844000Y-146812000D03*
X142344000Y-146812000D03*
X148844000Y-142312000D03*
X142344000Y-142312000D03*
%TD*%
D26*
%TO.C,C11*%
X159550000Y-79190000D03*
D13*
X159550000Y-76690000D03*
%TD*%
%TO.C,R18*%
X137920000Y-66870000D03*
D14*
X137920000Y-59250000D03*
%TD*%
D17*
%TO.C,Q3*%
X191897000Y-91541600D03*
D18*
X191897000Y-94081600D03*
X191897000Y-96621600D03*
%TD*%
D13*
%TO.C,R24*%
X168220000Y-116080000D03*
D14*
X160600000Y-116080000D03*
%TD*%
D22*
%TO.C,J15*%
X183388000Y-56388000D03*
D12*
X188468000Y-56388000D03*
%TD*%
D13*
%TO.C,R25*%
X163450000Y-109400000D03*
D14*
X171070000Y-109400000D03*
%TD*%
D22*
%TO.C,J12*%
X190246000Y-77470000D03*
D12*
X190246000Y-82550000D03*
%TD*%
D13*
%TO.C,R26*%
X160680000Y-119320000D03*
D14*
X168300000Y-119320000D03*
%TD*%
D13*
%TO.C,R30*%
X175500000Y-131800000D03*
D14*
X183120000Y-131800000D03*
%TD*%
D22*
%TO.C,J13*%
X191008000Y-104698800D03*
D12*
X191008000Y-109778800D03*
%TD*%
D22*
%TO.C,J8*%
X121480000Y-56170000D03*
D12*
X126560000Y-56170000D03*
%TD*%
D13*
%TO.C,R3*%
X129032000Y-136652000D03*
D14*
X129032000Y-129032000D03*
%TD*%
D13*
%TO.C,R28*%
X168180000Y-122600000D03*
D14*
X160560000Y-122600000D03*
%TD*%
D13*
%TO.C,R20*%
X106960000Y-67400000D03*
D14*
X106960000Y-59780000D03*
%TD*%
D13*
%TO.C,R7*%
X148336000Y-137160000D03*
D14*
X148336000Y-129540000D03*
%TD*%
D13*
%TO.C,R41*%
X140000000Y-88050000D03*
D14*
X140000000Y-95670000D03*
%TD*%
D26*
%TO.C,C1*%
X115976400Y-69189600D03*
D13*
X113476400Y-69189600D03*
%TD*%
D16*
%TO.C,Q9*%
X171600000Y-120650000D03*
D15*
X171600000Y-123190000D03*
X171600000Y-125730000D03*
%TD*%
D13*
%TO.C,R19*%
X110200000Y-63900000D03*
D14*
X110200000Y-56280000D03*
%TD*%
D13*
%TO.C,C16*%
X190460000Y-64008000D03*
X185460000Y-64008000D03*
%TD*%
D16*
%TO.C,Q1*%
X174040800Y-99161600D03*
D15*
X171500800Y-99161600D03*
X168960800Y-99161600D03*
%TD*%
D19*
%TO.C,J10*%
X124780000Y-65740000D03*
D20*
X122240000Y-65740000D03*
%TD*%
D21*
%TO.C,SW4*%
X159512000Y-146812000D03*
X153012000Y-146812000D03*
X159512000Y-142312000D03*
X153012000Y-142312000D03*
%TD*%
D17*
%TO.C,Q12*%
X187960000Y-131572000D03*
D18*
X187960000Y-134112000D03*
X187960000Y-136652000D03*
%TD*%
D16*
%TO.C,Q14*%
X183108600Y-87985600D03*
D15*
X180568600Y-87985600D03*
X178028600Y-87985600D03*
%TD*%
D17*
%TO.C,Q16*%
X193649600Y-61976000D03*
D18*
X193649600Y-64516000D03*
X193649600Y-67056000D03*
%TD*%
D13*
%TO.C,C5*%
X143992600Y-80213200D03*
X143992600Y-75213200D03*
%TD*%
%TO.C,R35*%
X167817800Y-92786200D03*
D14*
X175437800Y-92786200D03*
%TD*%
D13*
%TO.C,R40*%
X183600000Y-103080000D03*
D14*
X183600000Y-110700000D03*
%TD*%
D13*
%TO.C,R44*%
X132250000Y-88140000D03*
D14*
X132250000Y-95760000D03*
%TD*%
D13*
%TO.C,C8*%
X140639800Y-80213200D03*
X140639800Y-75213200D03*
%TD*%
%TO.C,C7*%
X130683000Y-80162400D03*
X130683000Y-75162400D03*
%TD*%
D21*
%TO.C,SW2*%
X138176000Y-146812000D03*
X131676000Y-146812000D03*
X138176000Y-142312000D03*
X131676000Y-142312000D03*
%TD*%
D13*
%TO.C,R6*%
X151892000Y-129540000D03*
D14*
X151892000Y-137160000D03*
%TD*%
D16*
%TO.C,Q10*%
X180610000Y-127400000D03*
D15*
X178070000Y-127400000D03*
X175530000Y-127400000D03*
%TD*%
D28*
%TO.C,U1*%
X115316000Y-78232000D03*
D29*
X117856000Y-78232000D03*
X120396000Y-78232000D03*
%TD*%
D13*
%TO.C,R2*%
X125730000Y-129032000D03*
D14*
X125730000Y-136652000D03*
%TD*%
D13*
%TO.C,R9*%
X159004000Y-137160000D03*
D14*
X159004000Y-129540000D03*
%TD*%
D19*
%TO.C,J9*%
X145990000Y-65180000D03*
D20*
X143450000Y-65180000D03*
%TD*%
D16*
%TO.C,Q4*%
X183007000Y-98983800D03*
D15*
X180467000Y-98983800D03*
X177927000Y-98983800D03*
%TD*%
D26*
%TO.C,A1*%
X116840000Y-99060000D03*
D14*
X119380000Y-99060000D03*
X121920000Y-99060000D03*
X124460000Y-99060000D03*
X127000000Y-99060000D03*
X129540000Y-99060000D03*
X132080000Y-99060000D03*
X134620000Y-99060000D03*
X137160000Y-99060000D03*
X139700000Y-99060000D03*
X142240000Y-99060000D03*
X144780000Y-99060000D03*
X147320000Y-99060000D03*
X149860000Y-99060000D03*
X152400000Y-99060000D03*
X152400000Y-83820000D03*
X149860000Y-83820000D03*
X147320000Y-83820000D03*
X144780000Y-83820000D03*
X142240000Y-83820000D03*
X139700000Y-83820000D03*
X137160000Y-83820000D03*
X134620000Y-83820000D03*
X132080000Y-83820000D03*
X129540000Y-83820000D03*
X127000000Y-83820000D03*
X124460000Y-83820000D03*
X121920000Y-83820000D03*
X119380000Y-83820000D03*
X116840000Y-83820000D03*
%TD*%
D30*
%TO.C,H1*%
X195000000Y-55000000D03*
%TD*%
D13*
%TO.C,R8*%
X155448000Y-129540000D03*
D14*
X155448000Y-137160000D03*
%TD*%
D13*
%TO.C,C10*%
X127431800Y-80137000D03*
X127431800Y-75137000D03*
%TD*%
D26*
%TO.C,C4*%
X151670000Y-72770000D03*
D13*
X154170000Y-72770000D03*
%TD*%
%TO.C,R10*%
X117348000Y-129032000D03*
D14*
X117348000Y-136652000D03*
%TD*%
D13*
%TO.C,R43*%
X146450000Y-88050000D03*
D14*
X146450000Y-95670000D03*
%TD*%
D16*
%TO.C,Q15*%
X183591200Y-82956400D03*
D15*
X181051200Y-82956400D03*
X178511200Y-82956400D03*
%TD*%
D30*
%TO.C,H3*%
X195000000Y-145000000D03*
%TD*%
D13*
%TO.C,R23*%
X188518800Y-98552000D03*
D14*
X188518800Y-90932000D03*
%TD*%
D19*
%TO.C,J7*%
X113090000Y-52800000D03*
D20*
X110550000Y-52800000D03*
%TD*%
D13*
%TO.C,C12*%
X166280000Y-75950000D03*
X166280000Y-70950000D03*
%TD*%
%TO.C,R39*%
X165180000Y-131700000D03*
D14*
X172800000Y-131700000D03*
%TD*%
D30*
%TO.C,H2*%
X105000000Y-55000000D03*
%TD*%
D13*
%TO.C,R15*%
X161440000Y-70190000D03*
D14*
X161440000Y-62570000D03*
%TD*%
D22*
%TO.C,J6*%
X145180000Y-56140000D03*
D12*
X150260000Y-56140000D03*
%TD*%
D13*
%TO.C,R31*%
X172313600Y-89535000D03*
D14*
X164693600Y-89535000D03*
%TD*%
D21*
%TO.C,SW5*%
X116840000Y-146812000D03*
X110340000Y-146812000D03*
X116840000Y-142312000D03*
X110340000Y-142312000D03*
%TD*%
D13*
%TO.C,R11*%
X120904000Y-136652000D03*
D14*
X120904000Y-129032000D03*
%TD*%
D13*
%TO.C,R38*%
X191008000Y-67056000D03*
D14*
X183388000Y-67056000D03*
%TD*%
D19*
%TO.C,J11*%
X102616000Y-64516000D03*
D20*
X102616000Y-61976000D03*
%TD*%
D13*
%TO.C,C14*%
X183500000Y-118300000D03*
X183500000Y-113300000D03*
%TD*%
%TO.C,R32*%
X175234600Y-89281000D03*
D14*
X175234600Y-81661000D03*
%TD*%
D13*
%TO.C,R1*%
X161036000Y-101092000D03*
D14*
X161036000Y-93472000D03*
%TD*%
D16*
%TO.C,Q17*%
X169900600Y-86334600D03*
D15*
X169900600Y-83794600D03*
X169900600Y-81254600D03*
%TD*%
D13*
%TO.C,R21*%
X113340000Y-63900000D03*
D14*
X113340000Y-56280000D03*
%TD*%
D13*
%TO.C,R37*%
X178816000Y-66548000D03*
D14*
X178816000Y-74168000D03*
%TD*%
D16*
%TO.C,Q2*%
X183007000Y-93091000D03*
D15*
X180467000Y-93091000D03*
X177927000Y-93091000D03*
%TD*%
D30*
%TO.C,H4*%
X105000000Y-145000000D03*
%TD*%
D13*
%TO.C,R34*%
X169545000Y-71120000D03*
D14*
X169545000Y-78740000D03*
%TD*%
D19*
%TO.C,J3*%
X160515000Y-56210000D03*
D20*
X157975000Y-56210000D03*
%TD*%
D13*
%TO.C,R4*%
X144272000Y-129540000D03*
D14*
X144272000Y-137160000D03*
%TD*%
M02*
