%TF.GenerationSoftware,KiCad,Pcbnew,7.0.11+dfsg-1build4*%
%TF.CreationDate,2025-08-23T12:11:09-05:00*%
%TF.ProjectId,SilentTempController,53696c65-6e74-4546-956d-70436f6e7472,rev?*%
%TF.SameCoordinates,Original*%
%TF.FileFunction,Copper,L2,Bot*%
%TF.FilePolarity,Positive*%
%FSLAX46Y46*%
G04 Gerber Fmt 4.6, Leading zero omitted, Abs format (unit mm)*
G04 Created by KiCad (PCBNEW 7.0.11+dfsg-1build4) date 2025-08-23 12:11:09*
%MOMM*%
%LPD*%
G01*
G04 APERTURE LIST*
G04 Aperture macros list*
%AMRoundRect*
0 Rectangle with rounded corners*
0 $1 Rounding radius*
0 $2 $3 $4 $5 $6 $7 $8 $9 X,Y pos of 4 corners*
0 Add a 4 corners polygon primitive as box body*
4,1,4,$2,$3,$4,$5,$6,$7,$8,$9,$2,$3,0*
0 Add four circle primitives for the rounded corners*
1,1,$1+$1,$2,$3*
1,1,$1+$1,$4,$5*
1,1,$1+$1,$6,$7*
1,1,$1+$1,$8,$9*
0 Add four rect primitives between the rounded corners*
20,1,$1+$1,$2,$3,$4,$5,0*
20,1,$1+$1,$4,$5,$6,$7,0*
20,1,$1+$1,$6,$7,$8,$9,0*
20,1,$1+$1,$8,$9,$2,$3,0*%
G04 Aperture macros list end*
%TA.AperFunction,ComponentPad*%
%ADD10C,1.600000*%
%TD*%
%TA.AperFunction,ComponentPad*%
%ADD11O,1.600000X1.600000*%
%TD*%
%TA.AperFunction,ComponentPad*%
%ADD12C,1.500000*%
%TD*%
%TA.AperFunction,ComponentPad*%
%ADD13R,1.500000X1.500000*%
%TD*%
%TA.AperFunction,ComponentPad*%
%ADD14R,1.600000X1.600000*%
%TD*%
%TA.AperFunction,ComponentPad*%
%ADD15C,3.000000*%
%TD*%
%TA.AperFunction,ComponentPad*%
%ADD16R,3.000000X3.000000*%
%TD*%
%TA.AperFunction,ComponentPad*%
%ADD17R,2.000000X1.905000*%
%TD*%
%TA.AperFunction,ComponentPad*%
%ADD18O,2.000000X1.905000*%
%TD*%
%TA.AperFunction,ComponentPad*%
%ADD19C,2.000000*%
%TD*%
%TA.AperFunction,ComponentPad*%
%ADD20O,1.700000X1.700000*%
%TD*%
%TA.AperFunction,ComponentPad*%
%ADD21R,1.700000X1.700000*%
%TD*%
%TA.AperFunction,ComponentPad*%
%ADD22R,1.905000X2.000000*%
%TD*%
%TA.AperFunction,ComponentPad*%
%ADD23O,1.905000X2.000000*%
%TD*%
%TA.AperFunction,ComponentPad*%
%ADD24C,1.440000*%
%TD*%
%TA.AperFunction,ComponentPad*%
%ADD25R,3.500000X3.500000*%
%TD*%
%TA.AperFunction,ComponentPad*%
%ADD26RoundRect,0.750000X-0.750000X-1.000000X0.750000X-1.000000X0.750000X1.000000X-0.750000X1.000000X0*%
%TD*%
%TA.AperFunction,ComponentPad*%
%ADD27RoundRect,0.875000X-0.875000X-0.875000X0.875000X-0.875000X0.875000X0.875000X-0.875000X0.875000X0*%
%TD*%
%TA.AperFunction,ComponentPad*%
%ADD28O,1.800000X2.600000*%
%TD*%
%TA.AperFunction,ComponentPad*%
%ADD29R,1.800000X2.600000*%
%TD*%
%TA.AperFunction,ViaPad*%
%ADD30C,0.600000*%
%TD*%
%TA.AperFunction,Conductor*%
%ADD31C,2.000000*%
%TD*%
%TA.AperFunction,Conductor*%
%ADD32C,0.350000*%
%TD*%
%TA.AperFunction,Conductor*%
%ADD33C,3.000000*%
%TD*%
%TA.AperFunction,Conductor*%
%ADD34C,1.500000*%
%TD*%
G04 APERTURE END LIST*
D10*
%TO.P,R31,1*%
%TO.N,Net-(Q13-B)*%
X172313600Y-89535000D03*
D11*
%TO.P,R31,2*%
%TO.N,/OC2B*%
X164693600Y-89535000D03*
%TD*%
D10*
%TO.P,R36,1*%
%TO.N,Net-(Q17-B)*%
X165252400Y-86258400D03*
D11*
%TO.P,R36,2*%
%TO.N,GND*%
X165252400Y-78638400D03*
%TD*%
D10*
%TO.P,R35,1*%
%TO.N,GND*%
X167817800Y-92786200D03*
D11*
%TO.P,R35,2*%
%TO.N,+12V*%
X175437800Y-92786200D03*
%TD*%
D10*
%TO.P,R34,1*%
%TO.N,+24V*%
X169595800Y-71323200D03*
D11*
%TO.P,R34,2*%
%TO.N,Net-(Q17-B)*%
X169595800Y-78943200D03*
%TD*%
D12*
%TO.P,Q17,3,C*%
%TO.N,+24V*%
X169900600Y-81254600D03*
%TO.P,Q17,2,B*%
%TO.N,Net-(Q17-B)*%
X169900600Y-83794600D03*
D13*
%TO.P,Q17,1,E*%
%TO.N,+12V*%
X169900600Y-86334600D03*
%TD*%
D14*
%TO.P,C11,1*%
%TO.N,+12V*%
X160020000Y-73761600D03*
D10*
%TO.P,C11,2*%
%TO.N,GND*%
X162520000Y-73761600D03*
%TD*%
D15*
%TO.P,J14,2,Pin_2*%
%TO.N,Net-(J14-Pin_2)*%
X180086000Y-143764000D03*
D16*
%TO.P,J14,1,Pin_1*%
%TO.N,+24V*%
X185166000Y-143764000D03*
%TD*%
D10*
%TO.P,C10,2*%
%TO.N,GND*%
X127431800Y-75137000D03*
%TO.P,C10,1*%
%TO.N,/NTC3REF*%
X127431800Y-80137000D03*
%TD*%
%TO.P,C9,2*%
%TO.N,GND*%
X133934200Y-75162400D03*
%TO.P,C9,1*%
%TO.N,/NTC2REF*%
X133934200Y-80162400D03*
%TD*%
%TO.P,C8,2*%
%TO.N,GND*%
X140639800Y-75213200D03*
%TO.P,C8,1*%
%TO.N,/NTC1REF*%
X140639800Y-80213200D03*
%TD*%
D11*
%TO.P,R33,2*%
%TO.N,Net-(Q16-G)*%
X185978800Y-75641200D03*
D10*
%TO.P,R33,1*%
%TO.N,Net-(Q14-E)*%
X178358800Y-75641200D03*
%TD*%
%TO.P,R32,1*%
%TO.N,+12V*%
X175234600Y-89281000D03*
D11*
%TO.P,R32,2*%
%TO.N,Net-(Q13-C)*%
X175234600Y-81661000D03*
%TD*%
D10*
%TO.P,R30,1*%
%TO.N,Net-(Q10-E)*%
X178816000Y-131699000D03*
D11*
%TO.P,R30,2*%
%TO.N,Net-(Q12-G)*%
X186436000Y-131699000D03*
%TD*%
D10*
%TO.P,R29,1*%
%TO.N,+12V*%
X162570000Y-129100000D03*
D11*
%TO.P,R29,2*%
%TO.N,Net-(Q10-B)*%
X170190000Y-129100000D03*
%TD*%
D10*
%TO.P,R28,1*%
%TO.N,Net-(Q9-B)*%
X170220000Y-125620000D03*
D11*
%TO.P,R28,2*%
%TO.N,/OC2A*%
X162600000Y-125620000D03*
%TD*%
D10*
%TO.P,R27,1*%
%TO.N,Net-(Q6-E)*%
X187375800Y-125323600D03*
D11*
%TO.P,R27,2*%
%TO.N,Net-(Q8-G)*%
X187375800Y-117703600D03*
%TD*%
D10*
%TO.P,R26,1*%
%TO.N,+12V*%
X162560000Y-122174000D03*
D11*
%TO.P,R26,2*%
%TO.N,Net-(Q5-C)*%
X170180000Y-122174000D03*
%TD*%
D10*
%TO.P,R25,1*%
%TO.N,+12V*%
X166370000Y-106781600D03*
D11*
%TO.P,R25,2*%
%TO.N,Net-(Q1-C)*%
X173990000Y-106781600D03*
%TD*%
%TO.P,R24,2*%
%TO.N,/OC1B*%
X162560000Y-119075200D03*
D10*
%TO.P,R24,1*%
%TO.N,Net-(Q5-B)*%
X170180000Y-119075200D03*
%TD*%
%TO.P,R23,1*%
%TO.N,Net-(Q2-E)*%
X188518800Y-98552000D03*
D11*
%TO.P,R23,2*%
%TO.N,Net-(Q3-G)*%
X188518800Y-90932000D03*
%TD*%
D10*
%TO.P,R22,1*%
%TO.N,Net-(Q1-B)*%
X173990000Y-103632000D03*
D11*
%TO.P,R22,2*%
%TO.N,/OC1A*%
X166370000Y-103632000D03*
%TD*%
D17*
%TO.P,Q16,1,G*%
%TO.N,Net-(Q16-G)*%
X193649600Y-61976000D03*
D18*
%TO.P,Q16,2,D*%
%TO.N,Net-(J15-Pin_2)*%
X193649600Y-64516000D03*
%TO.P,Q16,3,S*%
%TO.N,GND*%
X193649600Y-67056000D03*
%TD*%
D13*
%TO.P,Q15,1,E*%
%TO.N,Net-(Q14-E)*%
X183591200Y-82956400D03*
D12*
%TO.P,Q15,2,B*%
%TO.N,Net-(Q13-C)*%
X181051200Y-82956400D03*
%TO.P,Q15,3,C*%
%TO.N,GND*%
X178511200Y-82956400D03*
%TD*%
D13*
%TO.P,Q14,1,E*%
%TO.N,Net-(Q14-E)*%
X183108600Y-87985600D03*
D12*
%TO.P,Q14,2,B*%
%TO.N,Net-(Q13-C)*%
X180568600Y-87985600D03*
%TO.P,Q14,3,C*%
%TO.N,+12V*%
X178028600Y-87985600D03*
%TD*%
%TO.P,Q13,3,C*%
%TO.N,Net-(Q13-C)*%
X174396400Y-79197200D03*
%TO.P,Q13,2,B*%
%TO.N,Net-(Q13-B)*%
X174396400Y-76657200D03*
D13*
%TO.P,Q13,1,E*%
%TO.N,GND*%
X174396400Y-74117200D03*
%TD*%
D18*
%TO.P,Q12,3,S*%
%TO.N,GND*%
X191287400Y-137185400D03*
%TO.P,Q12,2,D*%
%TO.N,Net-(J14-Pin_2)*%
X191287400Y-134645400D03*
D17*
%TO.P,Q12,1,G*%
%TO.N,Net-(Q12-G)*%
X191287400Y-132105400D03*
%TD*%
D13*
%TO.P,Q11,1,E*%
%TO.N,Net-(Q10-E)*%
X183515000Y-121920000D03*
D12*
%TO.P,Q11,2,B*%
%TO.N,Net-(Q10-B)*%
X180975000Y-121920000D03*
%TO.P,Q11,3,C*%
%TO.N,GND*%
X178435000Y-121920000D03*
%TD*%
D13*
%TO.P,Q10,1,E*%
%TO.N,Net-(Q10-E)*%
X183515000Y-127000000D03*
D12*
%TO.P,Q10,2,B*%
%TO.N,Net-(Q10-B)*%
X180975000Y-127000000D03*
%TO.P,Q10,3,C*%
%TO.N,+12V*%
X178435000Y-127000000D03*
%TD*%
D13*
%TO.P,Q9,1,E*%
%TO.N,GND*%
X174370000Y-124750000D03*
D12*
%TO.P,Q9,2,B*%
%TO.N,Net-(Q9-B)*%
X174370000Y-127290000D03*
%TO.P,Q9,3,C*%
%TO.N,Net-(Q10-B)*%
X174370000Y-129830000D03*
%TD*%
D18*
%TO.P,Q8,3,S*%
%TO.N,GND*%
X191008000Y-123825000D03*
%TO.P,Q8,2,D*%
%TO.N,Net-(J13-Pin_2)*%
X191008000Y-121285000D03*
D17*
%TO.P,Q8,1,G*%
%TO.N,Net-(Q8-G)*%
X191008000Y-118745000D03*
%TD*%
D13*
%TO.P,Q7,1,E*%
%TO.N,Net-(Q6-E)*%
X183515000Y-110871000D03*
D12*
%TO.P,Q7,2,B*%
%TO.N,Net-(Q5-C)*%
X180975000Y-110871000D03*
%TO.P,Q7,3,C*%
%TO.N,GND*%
X178435000Y-110871000D03*
%TD*%
D13*
%TO.P,Q6,1,E*%
%TO.N,Net-(Q6-E)*%
X183515000Y-115824000D03*
D12*
%TO.P,Q6,2,B*%
%TO.N,Net-(Q5-C)*%
X180975000Y-115824000D03*
%TO.P,Q6,3,C*%
%TO.N,+12V*%
X178435000Y-115824000D03*
%TD*%
D13*
%TO.P,Q5,1,E*%
%TO.N,GND*%
X173990000Y-115976400D03*
D12*
%TO.P,Q5,2,B*%
%TO.N,Net-(Q5-B)*%
X173990000Y-118516400D03*
%TO.P,Q5,3,C*%
%TO.N,Net-(Q5-C)*%
X173990000Y-121056400D03*
%TD*%
D13*
%TO.P,Q4,1,E*%
%TO.N,Net-(Q2-E)*%
X183007000Y-98983800D03*
D12*
%TO.P,Q4,2,B*%
%TO.N,Net-(Q1-C)*%
X180467000Y-98983800D03*
%TO.P,Q4,3,C*%
%TO.N,+12V*%
X177927000Y-98983800D03*
%TD*%
D17*
%TO.P,Q3,1,G*%
%TO.N,Net-(Q3-G)*%
X191897000Y-91541600D03*
D18*
%TO.P,Q3,2,D*%
%TO.N,Net-(J12-Pin_2)*%
X191897000Y-94081600D03*
%TO.P,Q3,3,S*%
%TO.N,GND*%
X191897000Y-96621600D03*
%TD*%
D13*
%TO.P,Q2,1,E*%
%TO.N,Net-(Q2-E)*%
X183007000Y-93091000D03*
D12*
%TO.P,Q2,2,B*%
%TO.N,Net-(Q1-C)*%
X180467000Y-93091000D03*
%TO.P,Q2,3,C*%
%TO.N,GND*%
X177927000Y-93091000D03*
%TD*%
D13*
%TO.P,Q1,1,E*%
%TO.N,GND*%
X174040800Y-99161600D03*
D12*
%TO.P,Q1,2,B*%
%TO.N,Net-(Q1-B)*%
X171500800Y-99161600D03*
%TO.P,Q1,3,C*%
%TO.N,Net-(Q1-C)*%
X168960800Y-99161600D03*
%TD*%
D16*
%TO.P,J15,1,Pin_1*%
%TO.N,+24V*%
X181660800Y-69799200D03*
D15*
%TO.P,J15,2,Pin_2*%
%TO.N,Net-(J15-Pin_2)*%
X186740800Y-69799200D03*
%TD*%
D16*
%TO.P,J13,1,Pin_1*%
%TO.N,+24V*%
X191008000Y-104698800D03*
D15*
%TO.P,J13,2,Pin_2*%
%TO.N,Net-(J13-Pin_2)*%
X191008000Y-109778800D03*
%TD*%
D16*
%TO.P,J12,1,Pin_1*%
%TO.N,+24V*%
X193192400Y-77571600D03*
D15*
%TO.P,J12,2,Pin_2*%
%TO.N,Net-(J12-Pin_2)*%
X193192400Y-82651600D03*
%TD*%
D19*
%TO.P,SW5,1,1*%
%TO.N,GND*%
X114606000Y-147320000D03*
X121106000Y-147320000D03*
%TO.P,SW5,2,2*%
%TO.N,Net-(R10-Pad2)*%
X114606000Y-142820000D03*
X121106000Y-142820000D03*
%TD*%
%TO.P,SW4,1,1*%
%TO.N,GND*%
X158802000Y-147030000D03*
X165302000Y-147030000D03*
%TO.P,SW4,2,2*%
%TO.N,Net-(R8-Pad2)*%
X158802000Y-142530000D03*
X165302000Y-142530000D03*
%TD*%
%TO.P,SW3,1,1*%
%TO.N,GND*%
X147932000Y-147320000D03*
X154432000Y-147320000D03*
%TO.P,SW3,2,2*%
%TO.N,Net-(R6-Pad2)*%
X147932000Y-142820000D03*
X154432000Y-142820000D03*
%TD*%
%TO.P,SW2,2,2*%
%TO.N,Net-(R4-Pad2)*%
X143256000Y-142748000D03*
X136756000Y-142748000D03*
%TO.P,SW2,1,1*%
%TO.N,GND*%
X143256000Y-147248000D03*
X136756000Y-147248000D03*
%TD*%
%TO.P,SW1,1,1*%
%TO.N,GND*%
X125580000Y-147248000D03*
X132080000Y-147248000D03*
%TO.P,SW1,2,2*%
%TO.N,Net-(R2-Pad2)*%
X125580000Y-142748000D03*
X132080000Y-142748000D03*
%TD*%
D10*
%TO.P,R21,1*%
%TO.N,/VREF*%
X123444000Y-66548000D03*
D11*
%TO.P,R21,2*%
%TO.N,/NTC3*%
X123444000Y-58928000D03*
%TD*%
%TO.P,R20,2*%
%TO.N,GND*%
X115265200Y-56134000D03*
D10*
%TO.P,R20,1*%
%TO.N,/NTC3REF*%
X115265200Y-63754000D03*
%TD*%
%TO.P,R19,1*%
%TO.N,/VREF*%
X119888000Y-66548000D03*
D11*
%TO.P,R19,2*%
%TO.N,/NTC3REF*%
X119888000Y-58928000D03*
%TD*%
D10*
%TO.P,R18,1*%
%TO.N,/VREF*%
X148336000Y-66548000D03*
D11*
%TO.P,R18,2*%
%TO.N,/NTC2*%
X148336000Y-58928000D03*
%TD*%
%TO.P,R17,2*%
%TO.N,GND*%
X141224000Y-58928000D03*
D10*
%TO.P,R17,1*%
%TO.N,/NTC2REF*%
X141224000Y-66548000D03*
%TD*%
%TO.P,R16,1*%
%TO.N,/VREF*%
X144780000Y-66548000D03*
D11*
%TO.P,R16,2*%
%TO.N,/NTC2REF*%
X144780000Y-58928000D03*
%TD*%
D10*
%TO.P,R15,1*%
%TO.N,/VREF*%
X173990000Y-66040000D03*
D11*
%TO.P,R15,2*%
%TO.N,/NTC1*%
X173990000Y-58420000D03*
%TD*%
%TO.P,R14,2*%
%TO.N,GND*%
X167132000Y-58420000D03*
D10*
%TO.P,R14,1*%
%TO.N,/NTC1REF*%
X167132000Y-66040000D03*
%TD*%
D11*
%TO.P,R13,2*%
%TO.N,/NTC1REF*%
X170688000Y-58420000D03*
D10*
%TO.P,R13,1*%
%TO.N,/VREF*%
X170688000Y-66040000D03*
%TD*%
%TO.P,R12,1*%
%TO.N,/VREF*%
X161036000Y-83312000D03*
D11*
%TO.P,R12,2*%
%TO.N,+5V*%
X161036000Y-90932000D03*
%TD*%
D10*
%TO.P,R11,1*%
%TO.N,Net-(R10-Pad2)*%
X120904000Y-136652000D03*
D11*
%TO.P,R11,2*%
%TO.N,+5V*%
X120904000Y-129032000D03*
%TD*%
%TO.P,R10,2*%
%TO.N,Net-(R10-Pad2)*%
X117348000Y-136652000D03*
D10*
%TO.P,R10,1*%
%TO.N,/RSDISP*%
X117348000Y-129032000D03*
%TD*%
D11*
%TO.P,R9,2*%
%TO.N,+5V*%
X159004000Y-129540000D03*
D10*
%TO.P,R9,1*%
%TO.N,Net-(R8-Pad2)*%
X159004000Y-137160000D03*
%TD*%
D11*
%TO.P,R8,2*%
%TO.N,Net-(R8-Pad2)*%
X155448000Y-137160000D03*
D10*
%TO.P,R8,1*%
%TO.N,/D7DISP*%
X155448000Y-129540000D03*
%TD*%
%TO.P,R7,1*%
%TO.N,Net-(R6-Pad2)*%
X148336000Y-137160000D03*
D11*
%TO.P,R7,2*%
%TO.N,+5V*%
X148336000Y-129540000D03*
%TD*%
D10*
%TO.P,R6,1*%
%TO.N,/D6DISP*%
X151892000Y-129540000D03*
D11*
%TO.P,R6,2*%
%TO.N,Net-(R6-Pad2)*%
X151892000Y-137160000D03*
%TD*%
D10*
%TO.P,R5,1*%
%TO.N,Net-(R4-Pad2)*%
X140716000Y-137160000D03*
D11*
%TO.P,R5,2*%
%TO.N,+5V*%
X140716000Y-129540000D03*
%TD*%
D10*
%TO.P,R4,1*%
%TO.N,/D5DISP*%
X144272000Y-129540000D03*
D11*
%TO.P,R4,2*%
%TO.N,Net-(R4-Pad2)*%
X144272000Y-137160000D03*
%TD*%
D10*
%TO.P,R3,1*%
%TO.N,Net-(R2-Pad2)*%
X129032000Y-136652000D03*
D11*
%TO.P,R3,2*%
%TO.N,+5V*%
X129032000Y-129032000D03*
%TD*%
D10*
%TO.P,R2,1*%
%TO.N,/D4DISP*%
X125730000Y-129032000D03*
D11*
%TO.P,R2,2*%
%TO.N,Net-(R2-Pad2)*%
X125730000Y-136652000D03*
%TD*%
D20*
%TO.P,J11,2,Pin_2*%
%TO.N,GND*%
X111506000Y-58928000D03*
D21*
%TO.P,J11,1,Pin_1*%
%TO.N,/NTC3REF*%
X111506000Y-61468000D03*
%TD*%
%TO.P,J10,1,Pin_1*%
%TO.N,/NTC2REF*%
X135382000Y-66548000D03*
D20*
%TO.P,J10,2,Pin_2*%
%TO.N,GND*%
X132842000Y-66548000D03*
%TD*%
D21*
%TO.P,J9,1,Pin_1*%
%TO.N,/NTC1REF*%
X161036000Y-65532000D03*
D20*
%TO.P,J9,2,Pin_2*%
%TO.N,GND*%
X158496000Y-65532000D03*
%TD*%
D16*
%TO.P,J8,1,Pin_1*%
%TO.N,/NTC3*%
X129032000Y-56388000D03*
D15*
%TO.P,J8,2,Pin_2*%
%TO.N,GND*%
X134112000Y-56388000D03*
%TD*%
D20*
%TO.P,J7,2,Pin_2*%
%TO.N,GND*%
X119634000Y-54102000D03*
D21*
%TO.P,J7,1,Pin_1*%
%TO.N,/NTC3*%
X122174000Y-54102000D03*
%TD*%
D16*
%TO.P,J6,1,Pin_1*%
%TO.N,/NTC2*%
X155448000Y-56388000D03*
D15*
%TO.P,J6,2,Pin_2*%
%TO.N,GND*%
X160528000Y-56388000D03*
%TD*%
D21*
%TO.P,J5,1,Pin_1*%
%TO.N,/NTC2*%
X147828000Y-54356000D03*
D20*
%TO.P,J5,2,Pin_2*%
%TO.N,GND*%
X145288000Y-54356000D03*
%TD*%
D16*
%TO.P,J4,1,Pin_1*%
%TO.N,/NTC1*%
X182118000Y-56896000D03*
D15*
%TO.P,J4,2,Pin_2*%
%TO.N,GND*%
X187198000Y-56896000D03*
%TD*%
D21*
%TO.P,J3,1,Pin_1*%
%TO.N,/NTC1*%
X173482000Y-54356000D03*
D20*
%TO.P,J3,2,Pin_2*%
%TO.N,GND*%
X170942000Y-54356000D03*
%TD*%
D10*
%TO.P,C7,1*%
%TO.N,/NTC3*%
X130683000Y-80162400D03*
%TO.P,C7,2*%
%TO.N,GND*%
X130683000Y-75162400D03*
%TD*%
%TO.P,C6,1*%
%TO.N,/NTC2*%
X137236200Y-80238600D03*
%TO.P,C6,2*%
%TO.N,GND*%
X137236200Y-75238600D03*
%TD*%
%TO.P,C5,1*%
%TO.N,/NTC1*%
X143992600Y-80213200D03*
%TO.P,C5,2*%
%TO.N,GND*%
X143992600Y-75213200D03*
%TD*%
D14*
%TO.P,C4,1*%
%TO.N,/VREF*%
X153644600Y-78816200D03*
D10*
%TO.P,C4,2*%
%TO.N,GND*%
X153644600Y-76316200D03*
%TD*%
%TO.P,C3,1*%
%TO.N,/VREF*%
X147294600Y-80213200D03*
%TO.P,C3,2*%
%TO.N,GND*%
X147294600Y-75213200D03*
%TD*%
D22*
%TO.P,U1,1,VI*%
%TO.N,+24V*%
X115316000Y-78232000D03*
D23*
%TO.P,U1,2,GND*%
%TO.N,GND*%
X117856000Y-78232000D03*
%TO.P,U1,3,VO*%
%TO.N,+5V*%
X120396000Y-78232000D03*
%TD*%
D24*
%TO.P,RV1,1,1*%
%TO.N,+5V*%
X109728000Y-100076000D03*
%TO.P,RV1,2,2*%
%TO.N,Net-(DS1-VO)*%
X109728000Y-97536000D03*
%TO.P,RV1,3,3*%
%TO.N,GND*%
X109728000Y-94996000D03*
%TD*%
D10*
%TO.P,R1,1*%
%TO.N,Net-(DS1-LED(+))*%
X161036000Y-101092000D03*
D11*
%TO.P,R1,2*%
%TO.N,+5V*%
X161036000Y-93472000D03*
%TD*%
D16*
%TO.P,J2,1,Pin_1*%
%TO.N,+24V*%
X106324400Y-75133200D03*
D15*
%TO.P,J2,2,Pin_2*%
%TO.N,GND*%
X106324400Y-70053200D03*
%TD*%
D25*
%TO.P,J1,1*%
%TO.N,+24V*%
X110236000Y-83312000D03*
D26*
%TO.P,J1,2*%
%TO.N,GND*%
X104236000Y-83312000D03*
D27*
%TO.P,J1,3*%
%TO.N,unconnected-(J1-Pad3)*%
X107236000Y-88012000D03*
%TD*%
D28*
%TO.P,DS1,16,LED(-)*%
%TO.N,GND*%
X147320000Y-105664000D03*
%TO.P,DS1,15,LED(+)*%
%TO.N,Net-(DS1-LED(+))*%
X144780000Y-105664000D03*
%TO.P,DS1,14,D7*%
%TO.N,/D7DISP*%
X142240000Y-105664000D03*
%TO.P,DS1,13,D6*%
%TO.N,/D6DISP*%
X139700000Y-105664000D03*
%TO.P,DS1,12,D5*%
%TO.N,/D5DISP*%
X137160000Y-105664000D03*
%TO.P,DS1,11,D4*%
%TO.N,/D4DISP*%
X134620000Y-105664000D03*
%TO.P,DS1,10,D3*%
%TO.N,unconnected-(DS1-D3-Pad10)*%
X132080000Y-105664000D03*
%TO.P,DS1,9,D2*%
%TO.N,unconnected-(DS1-D2-Pad9)*%
X129540000Y-105664000D03*
%TO.P,DS1,8,D1*%
%TO.N,unconnected-(DS1-D1-Pad8)*%
X127000000Y-105664000D03*
%TO.P,DS1,7,D0*%
%TO.N,unconnected-(DS1-D0-Pad7)*%
X124460000Y-105664000D03*
%TO.P,DS1,6,E*%
%TO.N,/EDISP*%
X121920000Y-105664000D03*
%TO.P,DS1,5,R/W*%
%TO.N,GND*%
X119380000Y-105664000D03*
%TO.P,DS1,4,RS*%
%TO.N,/RSDISP*%
X116840000Y-105664000D03*
%TO.P,DS1,3,VO*%
%TO.N,Net-(DS1-VO)*%
X114300000Y-105664000D03*
%TO.P,DS1,2,VDD*%
%TO.N,+5V*%
X111760000Y-105664000D03*
D29*
%TO.P,DS1,1,VSS*%
%TO.N,GND*%
X109220000Y-105664000D03*
D15*
%TO.P,DS1,*%
%TO.N,*%
X178720000Y-105664000D03*
X103720900Y-136664700D03*
X103720900Y-105664000D03*
X178719480Y-136664700D03*
%TD*%
D14*
%TO.P,C2,1*%
%TO.N,+24V*%
X103886000Y-62992000D03*
D10*
%TO.P,C2,2*%
%TO.N,GND*%
X106386000Y-62992000D03*
%TD*%
D14*
%TO.P,C1,1*%
%TO.N,+5V*%
X115976400Y-69189600D03*
D10*
%TO.P,C1,2*%
%TO.N,GND*%
X113476400Y-69189600D03*
%TD*%
D14*
%TO.P,A1,1,D1/TX*%
%TO.N,unconnected-(A1-D1{slash}TX-Pad1)*%
X116840000Y-99060000D03*
D11*
%TO.P,A1,2,D0/RX*%
%TO.N,unconnected-(A1-D0{slash}RX-Pad2)*%
X119380000Y-99060000D03*
%TO.P,A1,3,~{RESET}*%
%TO.N,unconnected-(A1-~{RESET}-Pad3)*%
X121920000Y-99060000D03*
%TO.P,A1,4,GND*%
%TO.N,GND*%
X124460000Y-99060000D03*
%TO.P,A1,5,D2*%
%TO.N,/EDISP*%
X127000000Y-99060000D03*
%TO.P,A1,6,D3*%
%TO.N,/OC2B*%
X129540000Y-99060000D03*
%TO.P,A1,7,D4*%
%TO.N,/RSDISP*%
X132080000Y-99060000D03*
%TO.P,A1,8,D5*%
%TO.N,/D4DISP*%
X134620000Y-99060000D03*
%TO.P,A1,9,D6*%
%TO.N,/D5DISP*%
X137160000Y-99060000D03*
%TO.P,A1,10,D7*%
%TO.N,/D6DISP*%
X139700000Y-99060000D03*
%TO.P,A1,11,D8*%
%TO.N,/D7DISP*%
X142240000Y-99060000D03*
%TO.P,A1,12,D9*%
%TO.N,/OC1A*%
X144780000Y-99060000D03*
%TO.P,A1,13,D10*%
%TO.N,/OC1B*%
X147320000Y-99060000D03*
%TO.P,A1,14,D11*%
%TO.N,/OC2A*%
X149860000Y-99060000D03*
%TO.P,A1,15,D12*%
%TO.N,unconnected-(A1-D12-Pad15)*%
X152400000Y-99060000D03*
%TO.P,A1,16,D13*%
%TO.N,unconnected-(A1-D13-Pad16)*%
X152400000Y-83820000D03*
%TO.P,A1,17,3V3*%
%TO.N,unconnected-(A1-3V3-Pad17)*%
X149860000Y-83820000D03*
%TO.P,A1,18,AREF*%
%TO.N,/VREF*%
X147320000Y-83820000D03*
%TO.P,A1,19,A0*%
%TO.N,/NTC1*%
X144780000Y-83820000D03*
%TO.P,A1,20,A1*%
%TO.N,/NTC1REF*%
X142240000Y-83820000D03*
%TO.P,A1,21,A2*%
%TO.N,/NTC2*%
X139700000Y-83820000D03*
%TO.P,A1,22,A3*%
%TO.N,/NTC2REF*%
X137160000Y-83820000D03*
%TO.P,A1,23,A4*%
%TO.N,/NTC3*%
X134620000Y-83820000D03*
%TO.P,A1,24,A5*%
%TO.N,/NTC3REF*%
X132080000Y-83820000D03*
%TO.P,A1,25,A6*%
%TO.N,unconnected-(A1-A6-Pad25)*%
X129540000Y-83820000D03*
%TO.P,A1,26,A7*%
%TO.N,unconnected-(A1-A7-Pad26)*%
X127000000Y-83820000D03*
%TO.P,A1,27,+5V*%
%TO.N,+5V*%
X124460000Y-83820000D03*
%TO.P,A1,28,~{RESET}*%
%TO.N,unconnected-(A1-~{RESET}-Pad28)*%
X121920000Y-83820000D03*
%TO.P,A1,29,GND*%
%TO.N,GND*%
X119380000Y-83820000D03*
%TO.P,A1,30,VIN*%
%TO.N,unconnected-(A1-VIN-Pad30)*%
X116840000Y-83820000D03*
%TD*%
D30*
%TO.N,/OC2B*%
X132080000Y-97028000D03*
%TO.N,+5V*%
X118618000Y-108458000D03*
%TD*%
D31*
%TO.N,Net-(J12-Pin_2)*%
X185851800Y-93649800D02*
X185851800Y-87452200D01*
X191871600Y-94107000D02*
X186309000Y-94107000D01*
X185851800Y-87452200D02*
X190652400Y-82651600D01*
X191897000Y-94081600D02*
X191871600Y-94107000D01*
D32*
%TO.N,Net-(Q3-G)*%
X191287400Y-90932000D02*
X191897000Y-91541600D01*
X188518800Y-90932000D02*
X191287400Y-90932000D01*
D31*
%TO.N,Net-(J12-Pin_2)*%
X186309000Y-94107000D02*
X185851800Y-93649800D01*
X190652400Y-82651600D02*
X193192400Y-82651600D01*
%TO.N,Net-(J15-Pin_2)*%
X193649600Y-64516000D02*
X190677800Y-64516000D01*
X186740800Y-68453000D02*
X186740800Y-69799200D01*
X190677800Y-64516000D02*
X186740800Y-68453000D01*
D32*
%TO.N,Net-(Q16-G)*%
X185978800Y-75641200D02*
X188264800Y-75641200D01*
X196545200Y-63703200D02*
X194818000Y-61976000D01*
X188264800Y-75641200D02*
X192227200Y-71678800D01*
X192227200Y-71678800D02*
X195478400Y-71678800D01*
X195478400Y-71678800D02*
X196545200Y-70612000D01*
X196545200Y-70612000D02*
X196545200Y-63703200D01*
X194818000Y-61976000D02*
X193649600Y-61976000D01*
%TO.N,Net-(Q8-G)*%
X187375800Y-117703600D02*
X188722000Y-119049800D01*
X188722000Y-119049800D02*
X190703200Y-119049800D01*
X190703200Y-119049800D02*
X191008000Y-118745000D01*
D31*
%TO.N,Net-(J13-Pin_2)*%
X194259200Y-111353600D02*
X192684400Y-109778800D01*
X194259200Y-120065800D02*
X194259200Y-111353600D01*
X191008000Y-121285000D02*
X193040000Y-121285000D01*
X192684400Y-109778800D02*
X191008000Y-109778800D01*
X193040000Y-121285000D02*
X194259200Y-120065800D01*
D32*
%TO.N,Net-(Q6-E)*%
X183515000Y-117602000D02*
X187375800Y-121462800D01*
X183515000Y-115824000D02*
X183515000Y-117602000D01*
X187375800Y-121462800D02*
X187375800Y-125323600D01*
D31*
%TO.N,Net-(J14-Pin_2)*%
X180086000Y-142748000D02*
X180086000Y-143764000D01*
D32*
%TO.N,Net-(Q12-G)*%
X191287400Y-132105400D02*
X190500000Y-131318000D01*
D31*
%TO.N,Net-(J14-Pin_2)*%
X188188600Y-134645400D02*
X180086000Y-142748000D01*
X191287400Y-134645400D02*
X188188600Y-134645400D01*
D32*
%TO.N,Net-(Q12-G)*%
X190500000Y-131318000D02*
X186817000Y-131318000D01*
X186817000Y-131318000D02*
X186436000Y-131699000D01*
D33*
%TO.N,+24V*%
X197612000Y-107188000D02*
X197612000Y-139319000D01*
X197612000Y-139319000D02*
X197612000Y-139446000D01*
X188366400Y-140563600D02*
X196367400Y-140563600D01*
X185166000Y-143764000D02*
X188366400Y-140563600D01*
X196367400Y-140563600D02*
X197612000Y-139319000D01*
D32*
%TO.N,Net-(Q17-B)*%
X167513000Y-84582000D02*
X166928800Y-84582000D01*
X169113200Y-84582000D02*
X167513000Y-84582000D01*
X167513000Y-84582000D02*
X167513000Y-81026000D01*
X167513000Y-81026000D02*
X169595800Y-78943200D01*
X166928800Y-84582000D02*
X165252400Y-86258400D01*
%TO.N,+12V*%
X168402000Y-87833200D02*
X169900600Y-86334600D01*
%TO.N,+24V*%
X171551600Y-79603600D02*
X169900600Y-81254600D01*
X169799000Y-71323200D02*
X171551600Y-73075800D01*
%TO.N,+12V*%
X160020000Y-77165200D02*
X163042600Y-80187800D01*
%TO.N,+24V*%
X169595800Y-71323200D02*
X169799000Y-71323200D01*
%TO.N,+12V*%
X160020000Y-73761600D02*
X160020000Y-77165200D01*
%TO.N,+24V*%
X171551600Y-73075800D02*
X171551600Y-79603600D01*
%TO.N,Net-(Q17-B)*%
X169900600Y-83794600D02*
X169113200Y-84582000D01*
%TO.N,+12V*%
X163042600Y-80187800D02*
X163042600Y-86639400D01*
X163042600Y-86639400D02*
X164236400Y-87833200D01*
X164236400Y-87833200D02*
X168402000Y-87833200D01*
X169900600Y-86334600D02*
X169875200Y-86360000D01*
X169875200Y-86360000D02*
X169875200Y-91821000D01*
X169875200Y-91821000D02*
X170840400Y-92786200D01*
X170840400Y-92786200D02*
X175437800Y-92786200D01*
%TO.N,/VREF*%
X153644600Y-78816200D02*
X157556200Y-78816200D01*
X147294600Y-80213200D02*
X148513800Y-78994000D01*
X157556200Y-78816200D02*
X161036000Y-82296000D01*
X148513800Y-78994000D02*
X153466800Y-78994000D01*
X153466800Y-78994000D02*
X153644600Y-78816200D01*
X161036000Y-82296000D02*
X161036000Y-83312000D01*
X170688000Y-66040000D02*
X170688000Y-66294000D01*
X160629600Y-68783200D02*
X159689800Y-69723000D01*
X170688000Y-66294000D02*
X168198800Y-68783200D01*
X152222200Y-69723000D02*
X149047200Y-72898000D01*
X149047200Y-78460600D02*
X147294600Y-80213200D01*
X168198800Y-68783200D02*
X160629600Y-68783200D01*
X159689800Y-69723000D02*
X152222200Y-69723000D01*
X149047200Y-72898000D02*
X149047200Y-78460600D01*
X147320000Y-83820000D02*
X147320000Y-80238600D01*
X147320000Y-80238600D02*
X147294600Y-80213200D01*
%TO.N,/NTC1*%
X142138400Y-71678800D02*
X142138400Y-79400400D01*
X159004000Y-68834000D02*
X144983200Y-68834000D01*
X144983200Y-68834000D02*
X142138400Y-71678800D01*
X159842200Y-67995800D02*
X159004000Y-68834000D01*
X167640000Y-67995800D02*
X159842200Y-67995800D01*
X168910000Y-66725800D02*
X167640000Y-67995800D01*
X173990000Y-59436000D02*
X168910000Y-64516000D01*
X173990000Y-58420000D02*
X173990000Y-59436000D01*
X168910000Y-64516000D02*
X168910000Y-66725800D01*
X142962000Y-80224000D02*
X143981800Y-80224000D01*
X143992600Y-81976600D02*
X144780000Y-82764000D01*
X142138400Y-79400400D02*
X142962000Y-80224000D01*
X143981800Y-80224000D02*
X143992600Y-80213200D01*
X143992600Y-80213200D02*
X143992600Y-81976600D01*
X144780000Y-82764000D02*
X144780000Y-83820000D01*
%TO.N,/NTC1REF*%
X161036000Y-65532000D02*
X158445200Y-68122800D01*
X158445200Y-68122800D02*
X142088719Y-68122800D01*
X142088719Y-68122800D02*
X139065000Y-71146519D01*
X139065000Y-71146519D02*
X139065000Y-79756000D01*
X139065000Y-79756000D02*
X139573000Y-80264000D01*
X139573000Y-80264000D02*
X140589000Y-80264000D01*
X140589000Y-80264000D02*
X140639800Y-80213200D01*
X142240000Y-83820000D02*
X142240000Y-81813400D01*
X142240000Y-81813400D02*
X140639800Y-80213200D01*
%TO.N,/NTC2*%
X139700000Y-83820000D02*
X139700000Y-83439000D01*
X139700000Y-83439000D02*
X137236200Y-80975200D01*
X137236200Y-80975200D02*
X137236200Y-80238600D01*
X135356600Y-79273400D02*
X136347200Y-80264000D01*
X136347200Y-80264000D02*
X137210800Y-80264000D01*
X135356600Y-73025000D02*
X135356600Y-79273400D01*
X140658600Y-67723000D02*
X135356600Y-73025000D01*
X141710701Y-67723000D02*
X140658600Y-67723000D01*
X148336000Y-58928000D02*
X148082000Y-58928000D01*
X142748000Y-66685701D02*
X141710701Y-67723000D01*
X148082000Y-58928000D02*
X142748000Y-64262000D01*
X142748000Y-64262000D02*
X142748000Y-66685701D01*
X137210800Y-80264000D02*
X137236200Y-80238600D01*
%TO.N,/NTC2REF*%
X133934200Y-80162400D02*
X133934200Y-80594200D01*
X133934200Y-80594200D02*
X137160000Y-83820000D01*
X141224000Y-66548000D02*
X139801600Y-66548000D01*
X139801600Y-66548000D02*
X132156200Y-74193400D01*
X132156200Y-74193400D02*
X132156200Y-79375000D01*
X132156200Y-79375000D02*
X132943600Y-80162400D01*
X132943600Y-80162400D02*
X133934200Y-80162400D01*
%TO.N,/NTC3*%
X123444000Y-58928000D02*
X122682000Y-58928000D01*
X118110000Y-63500000D02*
X118110000Y-66929000D01*
X122682000Y-58928000D02*
X118110000Y-63500000D01*
X118110000Y-66929000D02*
X125857000Y-74676000D01*
X125857000Y-74676000D02*
X125857000Y-77393800D01*
X125857000Y-77393800D02*
X126187200Y-77724000D01*
X126187200Y-77724000D02*
X128371600Y-77724000D01*
X128371600Y-77724000D02*
X130683000Y-80035400D01*
X130683000Y-80035400D02*
X130683000Y-80162400D01*
X130962400Y-80162400D02*
X130683000Y-80162400D01*
X134620000Y-83820000D02*
X130962400Y-80162400D01*
%TO.N,/NTC3REF*%
X127431800Y-80137000D02*
X128701800Y-80137000D01*
X128701800Y-80137000D02*
X132080000Y-83515200D01*
X132080000Y-83515200D02*
X132080000Y-83820000D01*
X117094000Y-67564000D02*
X124714000Y-75184000D01*
X115265200Y-63754000D02*
X115976400Y-63754000D01*
X124714000Y-75184000D02*
X124714000Y-79248000D01*
X115976400Y-63754000D02*
X117094000Y-64871600D01*
X117094000Y-64871600D02*
X117094000Y-67564000D01*
X124714000Y-79248000D02*
X125730000Y-80264000D01*
X125730000Y-80264000D02*
X127304800Y-80264000D01*
X127304800Y-80264000D02*
X127431800Y-80137000D01*
%TO.N,+12V*%
X178435000Y-127000000D02*
X178435000Y-128727200D01*
X178435000Y-128727200D02*
X174650400Y-132511800D01*
X174650400Y-132511800D02*
X165981800Y-132511800D01*
X165981800Y-132511800D02*
X162570000Y-129100000D01*
%TO.N,Net-(Q10-B)*%
X174370000Y-129830000D02*
X175732000Y-129830000D01*
X175732000Y-129830000D02*
X176149000Y-129413000D01*
X176149000Y-129413000D02*
X176149000Y-126339600D01*
X176149000Y-126339600D02*
X177266600Y-125222000D01*
X177266600Y-125222000D02*
X180467000Y-125222000D01*
X180975000Y-124714000D02*
X180975000Y-124053600D01*
X180467000Y-125222000D02*
X180975000Y-124714000D01*
%TO.N,+12V*%
X177927000Y-98983800D02*
X177927000Y-100203000D01*
X177927000Y-100203000D02*
X182067200Y-104343200D01*
X182067200Y-104343200D02*
X182067200Y-107569000D01*
X182067200Y-107569000D02*
X180517800Y-109118400D01*
X180517800Y-109118400D02*
X168706800Y-109118400D01*
X168706800Y-109118400D02*
X166370000Y-106781600D01*
%TO.N,Net-(Q13-B)*%
X174396400Y-76657200D02*
X173710600Y-76657200D01*
X173710600Y-76657200D02*
X172745400Y-77622400D01*
X172745400Y-77622400D02*
X172745400Y-81635600D01*
X172745400Y-81635600D02*
X173558200Y-82448400D01*
X173558200Y-82448400D02*
X173558200Y-87579200D01*
X173558200Y-87579200D02*
X172313600Y-88823800D01*
X172313600Y-88823800D02*
X172313600Y-89535000D01*
%TO.N,/OC2B*%
X164693600Y-89535000D02*
X164871400Y-89712800D01*
X164871400Y-93192600D02*
X162954000Y-95110000D01*
X164871400Y-89712800D02*
X164871400Y-93192600D01*
X135522000Y-95110000D02*
X133604000Y-97028000D01*
X162954000Y-95110000D02*
X135522000Y-95110000D01*
X133604000Y-97028000D02*
X132080000Y-97028000D01*
%TO.N,Net-(Q13-C)*%
X174396400Y-80822800D02*
X174396400Y-79197200D01*
%TO.N,+12V*%
X177114200Y-89281000D02*
X178028600Y-88366600D01*
X175234600Y-89281000D02*
X177114200Y-89281000D01*
X175234600Y-89281000D02*
X175437800Y-89484200D01*
X175437800Y-89484200D02*
X175437800Y-92786200D01*
X175234600Y-89281000D02*
X175361600Y-89281000D01*
%TO.N,Net-(Q13-C)*%
X175234600Y-81661000D02*
X174396400Y-80822800D01*
%TO.N,+12V*%
X175361600Y-89281000D02*
X175412400Y-89331800D01*
X178028600Y-88366600D02*
X178028600Y-87985600D01*
X166370000Y-106781600D02*
X167995600Y-105156000D01*
X167132000Y-98094800D02*
X169011600Y-96215200D01*
X167995600Y-105156000D02*
X167995600Y-102412800D01*
X167132000Y-101549200D02*
X167132000Y-98094800D01*
X167995600Y-102412800D02*
X167132000Y-101549200D01*
X169011600Y-96215200D02*
X174498000Y-96215200D01*
X174498000Y-96215200D02*
X175437800Y-95275400D01*
X175437800Y-95275400D02*
X175437800Y-92786200D01*
%TO.N,+24V*%
X171196000Y-69799200D02*
X181660800Y-69799200D01*
X169595800Y-71323200D02*
X169672000Y-71323200D01*
X169672000Y-71323200D02*
X171196000Y-69799200D01*
%TO.N,Net-(Q2-E)*%
X183007000Y-98983800D02*
X183388000Y-98602800D01*
X183388000Y-98602800D02*
X188468000Y-98602800D01*
X188468000Y-98602800D02*
X188518800Y-98552000D01*
X183007000Y-93091000D02*
X182854600Y-93243400D01*
X182854600Y-93243400D02*
X182854600Y-98831400D01*
X182854600Y-98831400D02*
X183007000Y-98983800D01*
%TO.N,Net-(Q1-C)*%
X179832000Y-95504000D02*
X180238400Y-95097600D01*
X180238400Y-95097600D02*
X180238400Y-93319600D01*
X180238400Y-93319600D02*
X180467000Y-93091000D01*
X180467000Y-98983800D02*
X180390800Y-98907600D01*
X180390800Y-98907600D02*
X180390800Y-96062800D01*
X180390800Y-96062800D02*
X179832000Y-95504000D01*
%TO.N,Net-(Q13-C)*%
X181051200Y-82956400D02*
X180162200Y-83845400D01*
X180162200Y-87579200D02*
X180568600Y-87985600D01*
X180162200Y-83845400D02*
X180162200Y-87579200D01*
%TO.N,Net-(Q14-E)*%
X183591200Y-82956400D02*
X183565800Y-82981800D01*
X183565800Y-82981800D02*
X183565800Y-87528400D01*
X183565800Y-87528400D02*
X183108600Y-87985600D01*
X183591200Y-82702400D02*
X183591200Y-82956400D01*
X178358800Y-75641200D02*
X178638200Y-75920600D01*
X178638200Y-75920600D02*
X178638200Y-77749400D01*
X178638200Y-77749400D02*
X183591200Y-82702400D01*
%TO.N,Net-(Q13-C)*%
X181051200Y-82956400D02*
X181051200Y-82473800D01*
X181051200Y-82473800D02*
X177774600Y-79197200D01*
X177774600Y-79197200D02*
X174396400Y-79197200D01*
%TO.N,/OC1A*%
X166370000Y-103632000D02*
X165658800Y-102920800D01*
X165658800Y-99110800D02*
X162428000Y-95880000D01*
X165658800Y-102920800D02*
X165658800Y-99110800D01*
X162428000Y-95880000D02*
X147960000Y-95880000D01*
X147960000Y-95880000D02*
X144780000Y-99060000D01*
D33*
%TO.N,+24V*%
X193192400Y-77571600D02*
X190754000Y-77571600D01*
X190754000Y-77571600D02*
X189280800Y-79044800D01*
X189280800Y-79044800D02*
X183337200Y-79044800D01*
X183337200Y-79044800D02*
X181660800Y-77368400D01*
X181660800Y-77368400D02*
X181660800Y-69799200D01*
D32*
%TO.N,Net-(Q10-B)*%
X180975000Y-124053600D02*
X180975000Y-121920000D01*
X180975000Y-124053600D02*
X180975000Y-127000000D01*
%TO.N,+12V*%
X164592000Y-114350800D02*
X175514000Y-114350800D01*
X175514000Y-114350800D02*
X176987200Y-115824000D01*
X176987200Y-115824000D02*
X178435000Y-115824000D01*
X164592000Y-114350800D02*
X164592000Y-120142000D01*
X164592000Y-109220000D02*
X164592000Y-114350800D01*
%TO.N,Net-(Q5-C)*%
X173990000Y-121056400D02*
X175742600Y-121056400D01*
X175742600Y-121056400D02*
X180975000Y-115824000D01*
X170180000Y-122174000D02*
X172872400Y-122174000D01*
X172872400Y-122174000D02*
X173990000Y-121056400D01*
%TO.N,Net-(Q5-B)*%
X170180000Y-119075200D02*
X173431200Y-119075200D01*
X173431200Y-119075200D02*
X173990000Y-118516400D01*
%TO.N,/OC1B*%
X162560000Y-119075200D02*
X162640000Y-118995200D01*
X162640000Y-118995200D02*
X162640000Y-106092000D01*
X162640000Y-106092000D02*
X164592000Y-104140000D01*
X164592000Y-100052000D02*
X161180000Y-96640000D01*
X164592000Y-104140000D02*
X164592000Y-100052000D01*
X161180000Y-96640000D02*
X149740000Y-96640000D01*
X149740000Y-96640000D02*
X147320000Y-99060000D01*
%TO.N,+12V*%
X166370000Y-106781600D02*
X166370000Y-107442000D01*
X162560000Y-122174000D02*
X164287200Y-123901200D01*
X164287200Y-123901200D02*
X164287200Y-127382800D01*
X164592000Y-120142000D02*
X162560000Y-122174000D01*
X164287200Y-127382800D02*
X162570000Y-129100000D01*
X166370000Y-107442000D02*
X164592000Y-109220000D01*
%TO.N,Net-(Q1-C)*%
X175768000Y-97028000D02*
X171094400Y-97028000D01*
X171094400Y-97028000D02*
X168960800Y-99161600D01*
%TO.N,Net-(Q1-B)*%
X171500800Y-99161600D02*
X171907200Y-99568000D01*
X171907200Y-99568000D02*
X171907200Y-101803200D01*
X173736000Y-103632000D02*
X173990000Y-103632000D01*
X171907200Y-101803200D02*
X173736000Y-103632000D01*
%TO.N,Net-(Q1-C)*%
X175768000Y-97028000D02*
X175768000Y-105003600D01*
X175768000Y-105003600D02*
X173990000Y-106781600D01*
X177292000Y-95504000D02*
X175768000Y-97028000D01*
X179832000Y-95504000D02*
X177292000Y-95504000D01*
%TO.N,Net-(R2-Pad2)*%
X132080000Y-142748000D02*
X125580000Y-142748000D01*
D31*
%TO.N,+24V*%
X103886000Y-62992000D02*
X103886000Y-65532000D01*
X103886000Y-65532000D02*
X103073200Y-66344800D01*
X103073200Y-66344800D02*
X103073200Y-71018400D01*
X103124000Y-71069200D02*
X103124000Y-73152000D01*
X103073200Y-71018400D02*
X103124000Y-71069200D01*
X103124000Y-73152000D02*
X105105200Y-75133200D01*
X105105200Y-75133200D02*
X106324400Y-75133200D01*
D33*
X106324400Y-75133200D02*
X106324400Y-76352400D01*
D31*
X108204000Y-78232000D02*
X106324400Y-76352400D01*
X115316000Y-78232000D02*
X108204000Y-78232000D01*
D33*
X109728000Y-82804000D02*
X110236000Y-83312000D01*
X106324400Y-76352400D02*
X109728000Y-79756000D01*
X109728000Y-79756000D02*
X109728000Y-82804000D01*
D31*
%TO.N,+5V*%
X115976400Y-69189600D02*
X115976400Y-70256400D01*
X115976400Y-70256400D02*
X120396000Y-74676000D01*
X120396000Y-74676000D02*
X120396000Y-78232000D01*
D32*
%TO.N,/NTC3REF*%
X119888000Y-58928000D02*
X119126000Y-58928000D01*
X116332000Y-61722000D02*
X116332000Y-62687200D01*
X114554000Y-63754000D02*
X115265200Y-63754000D01*
X112268000Y-61468000D02*
X114554000Y-63754000D01*
X119126000Y-58928000D02*
X116332000Y-61722000D01*
X111506000Y-61468000D02*
X112268000Y-61468000D01*
X116332000Y-62687200D02*
X115265200Y-63754000D01*
D33*
%TO.N,+24V*%
X195122800Y-104698800D02*
X191008000Y-104698800D01*
X197612000Y-107188000D02*
X195122800Y-104698800D01*
X196748400Y-77571600D02*
X193192400Y-77571600D01*
X197612000Y-78435200D02*
X196748400Y-77571600D01*
X197612000Y-107188000D02*
X197612000Y-78435200D01*
X185166000Y-143764000D02*
X185166000Y-146050000D01*
X185166000Y-146050000D02*
X183388000Y-147828000D01*
X183388000Y-147828000D02*
X176403000Y-147828000D01*
X176403000Y-147828000D02*
X172212000Y-143637000D01*
X172212000Y-143637000D02*
X172212000Y-139700000D01*
D32*
%TO.N,Net-(Q10-E)*%
X183515000Y-127000000D02*
X183515000Y-129032000D01*
X183515000Y-129032000D02*
X180848000Y-131699000D01*
X180848000Y-131699000D02*
X178816000Y-131699000D01*
%TO.N,+24V*%
X172339000Y-138176000D02*
X170688000Y-138176000D01*
%TO.N,Net-(Q10-E)*%
X183640000Y-122045000D02*
X183515000Y-121920000D01*
X183640000Y-126875000D02*
X183640000Y-122045000D01*
X183515000Y-127000000D02*
X183640000Y-126875000D01*
%TO.N,+24V*%
X172212000Y-138176000D02*
X172212000Y-139700000D01*
%TO.N,Net-(Q10-E)*%
X183620000Y-126216000D02*
X183620000Y-122025000D01*
X183620000Y-122025000D02*
X183515000Y-121920000D01*
%TO.N,Net-(Q6-E)*%
X183388000Y-115697000D02*
X183515000Y-115824000D01*
X183388000Y-110998000D02*
X183388000Y-115697000D01*
X183515000Y-110871000D02*
X183388000Y-110998000D01*
%TO.N,Net-(Q5-C)*%
X180848000Y-115697000D02*
X180975000Y-115824000D01*
X180975000Y-110871000D02*
X180848000Y-110998000D01*
X180848000Y-110998000D02*
X180848000Y-115697000D01*
%TO.N,/VREF*%
X157988000Y-51816000D02*
X182372000Y-51816000D01*
X182372000Y-51816000D02*
X184912000Y-54356000D01*
X184912000Y-54356000D02*
X184912000Y-59944000D01*
X183134000Y-61722000D02*
X178308000Y-61722000D01*
X184912000Y-59944000D02*
X183134000Y-61722000D01*
X178308000Y-61722000D02*
X173990000Y-66040000D01*
%TO.N,/NTC1*%
X182118000Y-56896000D02*
X180848000Y-58166000D01*
X180848000Y-58166000D02*
X174244000Y-58166000D01*
X174244000Y-58166000D02*
X173990000Y-58420000D01*
X173482000Y-54356000D02*
X173990000Y-54864000D01*
X173990000Y-54864000D02*
X173990000Y-58420000D01*
%TO.N,/VREF*%
X173736000Y-65786000D02*
X170942000Y-65786000D01*
X170942000Y-65786000D02*
X170688000Y-66040000D01*
X173990000Y-66040000D02*
X173736000Y-65786000D01*
%TO.N,/NTC1REF*%
X170688000Y-58928000D02*
X170688000Y-58420000D01*
X167132000Y-62484000D02*
X170688000Y-58928000D01*
X167132000Y-66040000D02*
X167132000Y-62484000D01*
X166878000Y-65786000D02*
X161290000Y-65786000D01*
X161290000Y-65786000D02*
X161036000Y-65532000D01*
X167132000Y-66040000D02*
X166878000Y-65786000D01*
%TO.N,/OC2A*%
X149860000Y-99060000D02*
X151490000Y-97430000D01*
X151490000Y-97430000D02*
X160100000Y-97430000D01*
X163340000Y-102890000D02*
X158930000Y-107300000D01*
X160100000Y-97430000D02*
X163340000Y-100670000D01*
X163340000Y-100670000D02*
X163340000Y-102890000D01*
X158930000Y-107300000D02*
X158930000Y-121950000D01*
X158930000Y-121950000D02*
X162600000Y-125620000D01*
D33*
%TO.N,+24V*%
X103050000Y-111570000D02*
X103050000Y-123878000D01*
X103050000Y-123878000D02*
X112622000Y-133450000D01*
X112622000Y-133450000D02*
X162400000Y-133450000D01*
D32*
%TO.N,+5V*%
X120904000Y-129032000D02*
X122428000Y-130556000D01*
X122428000Y-130556000D02*
X127508000Y-130556000D01*
X127508000Y-130556000D02*
X129032000Y-129032000D01*
X148844000Y-131064000D02*
X142240000Y-131064000D01*
X157480000Y-131064000D02*
X148844000Y-131064000D01*
X148844000Y-131064000D02*
X148844000Y-130048000D01*
X148844000Y-130048000D02*
X148336000Y-129540000D01*
X159004000Y-129540000D02*
X157480000Y-131064000D01*
X142240000Y-131064000D02*
X140716000Y-129540000D01*
%TO.N,Net-(DS1-LED(+))*%
X161036000Y-101092000D02*
X147320000Y-101092000D01*
X147320000Y-101092000D02*
X144780000Y-103632000D01*
X144780000Y-103632000D02*
X144780000Y-105664000D01*
%TO.N,+5V*%
X161036000Y-90932000D02*
X161036000Y-93472000D01*
X161036000Y-88392000D02*
X161036000Y-90932000D01*
X124460000Y-83820000D02*
X128270000Y-87630000D01*
X128270000Y-87630000D02*
X160274000Y-87630000D01*
X160274000Y-87630000D02*
X161036000Y-88392000D01*
D33*
%TO.N,+24V*%
X170688000Y-138176000D02*
X172212000Y-139700000D01*
X166104000Y-138176000D02*
X170688000Y-138176000D01*
X162400000Y-134472000D02*
X166104000Y-138176000D01*
X162400000Y-133450000D02*
X162400000Y-134472000D01*
D32*
%TO.N,Net-(Q10-B)*%
X170190000Y-129100000D02*
X173640000Y-129100000D01*
X173640000Y-129100000D02*
X174370000Y-129830000D01*
%TO.N,Net-(Q9-B)*%
X174370000Y-127290000D02*
X171890000Y-127290000D01*
X171890000Y-127290000D02*
X170220000Y-125620000D01*
D34*
%TO.N,+24V*%
X103362000Y-101092000D02*
X103124000Y-101092000D01*
D33*
X106172000Y-92456000D02*
X103124000Y-95504000D01*
X103124000Y-95504000D02*
X103124000Y-101092000D01*
X108712000Y-92456000D02*
X106172000Y-92456000D01*
X112776000Y-88392000D02*
X108712000Y-92456000D01*
X110236000Y-83312000D02*
X112776000Y-85852000D01*
X112776000Y-85852000D02*
X112776000Y-88392000D01*
D32*
%TO.N,+5V*%
X110236000Y-100076000D02*
X124460000Y-85852000D01*
X124460000Y-85852000D02*
X124460000Y-83820000D01*
X110236000Y-100076000D02*
X109728000Y-100076000D01*
X124460000Y-83820000D02*
X120396000Y-79756000D01*
X120396000Y-79756000D02*
X120396000Y-78232000D01*
%TO.N,Net-(DS1-VO)*%
X109728000Y-97536000D02*
X107696000Y-99568000D01*
%TO.N,+5V*%
X111760000Y-105664000D02*
X111760000Y-102108000D01*
%TO.N,Net-(DS1-VO)*%
X107696000Y-99568000D02*
X107696000Y-107393000D01*
%TO.N,+5V*%
X111760000Y-102108000D02*
X109728000Y-100076000D01*
%TO.N,Net-(DS1-VO)*%
X107696000Y-107393000D02*
X108507000Y-108204000D01*
X108507000Y-108204000D02*
X113284000Y-108204000D01*
X113284000Y-108204000D02*
X114300000Y-107188000D01*
X114300000Y-107188000D02*
X114300000Y-105664000D01*
%TO.N,/VREF*%
X123444000Y-66548000D02*
X119888000Y-66548000D01*
%TO.N,/NTC2*%
X155448000Y-56388000D02*
X153924000Y-57912000D01*
X153924000Y-57912000D02*
X149352000Y-57912000D01*
X149352000Y-57912000D02*
X148336000Y-58928000D01*
%TO.N,/VREF*%
X139700000Y-51816000D02*
X157988000Y-51816000D01*
X157988000Y-51816000D02*
X157988000Y-60452000D01*
X157988000Y-60452000D02*
X152908000Y-65532000D01*
X152908000Y-65532000D02*
X149352000Y-65532000D01*
X149352000Y-65532000D02*
X148336000Y-66548000D01*
%TO.N,/NTC2REF*%
X140970000Y-66294000D02*
X141224000Y-66548000D01*
X135382000Y-66548000D02*
X135636000Y-66294000D01*
X135636000Y-66294000D02*
X140970000Y-66294000D01*
X141224000Y-63246000D02*
X144780000Y-59690000D01*
X144780000Y-59690000D02*
X144780000Y-58928000D01*
X141224000Y-66548000D02*
X141224000Y-63246000D01*
%TO.N,/VREF*%
X144780000Y-66548000D02*
X148336000Y-66548000D01*
%TO.N,/NTC3*%
X126746000Y-56388000D02*
X129032000Y-56388000D01*
X124460000Y-54102000D02*
X126746000Y-56388000D01*
X122174000Y-54102000D02*
X124460000Y-54102000D01*
X122936000Y-58420000D02*
X122936000Y-54864000D01*
X123444000Y-58928000D02*
X122936000Y-58420000D01*
X122936000Y-54864000D02*
X122174000Y-54102000D01*
%TO.N,/VREF*%
X137668000Y-59690000D02*
X137668000Y-53848000D01*
X123444000Y-64008000D02*
X124460000Y-62992000D01*
X123444000Y-66548000D02*
X123444000Y-64008000D01*
X137668000Y-53848000D02*
X139700000Y-51816000D01*
X134366000Y-62992000D02*
X137668000Y-59690000D01*
X124460000Y-62992000D02*
X134366000Y-62992000D01*
%TO.N,+5V*%
X118618000Y-108458000D02*
X120904000Y-110744000D01*
X120904000Y-110744000D02*
X120904000Y-129032000D01*
%TO.N,/RSDISP*%
X116840000Y-105664000D02*
X116840000Y-103632000D01*
X116840000Y-103632000D02*
X114808000Y-101600000D01*
X114808000Y-101600000D02*
X114808000Y-97536000D01*
X115570000Y-96774000D02*
X129794000Y-96774000D01*
X129794000Y-96774000D02*
X132080000Y-99060000D01*
X114808000Y-97536000D02*
X115570000Y-96774000D01*
%TO.N,/NTC2*%
X147828000Y-58420000D02*
X148336000Y-58928000D01*
X147828000Y-54356000D02*
X147828000Y-58420000D01*
%TO.N,/D7DISP*%
X142240000Y-99060000D02*
X142240000Y-105664000D01*
%TO.N,/D6DISP*%
X139700000Y-99060000D02*
X139700000Y-105664000D01*
%TO.N,/D5DISP*%
X137160000Y-99060000D02*
X137160000Y-105664000D01*
%TO.N,/D4DISP*%
X134620000Y-99060000D02*
X134620000Y-105664000D01*
%TO.N,/EDISP*%
X121920000Y-105664000D02*
X121920000Y-103886000D01*
X121920000Y-103886000D02*
X123952000Y-101854000D01*
X123952000Y-101854000D02*
X125730000Y-101854000D01*
X125730000Y-101854000D02*
X127000000Y-100584000D01*
X127000000Y-100584000D02*
X127000000Y-99060000D01*
%TO.N,/D6DISP*%
X139700000Y-105664000D02*
X138176000Y-107188000D01*
X138176000Y-107188000D02*
X138176000Y-123952000D01*
X144780000Y-126492000D02*
X145796000Y-127508000D01*
X138176000Y-123952000D02*
X140716000Y-126492000D01*
X140716000Y-126492000D02*
X144780000Y-126492000D01*
X145796000Y-127508000D02*
X151384000Y-127508000D01*
X151384000Y-127508000D02*
X151892000Y-128016000D01*
X151892000Y-128016000D02*
X151892000Y-129540000D01*
%TO.N,/D7DISP*%
X142240000Y-105664000D02*
X139192000Y-108712000D01*
X139192000Y-108712000D02*
X139192000Y-122936000D01*
X139192000Y-122936000D02*
X140716000Y-124460000D01*
X140716000Y-124460000D02*
X145288000Y-124460000D01*
X145288000Y-124460000D02*
X146812000Y-125984000D01*
X146812000Y-125984000D02*
X151892000Y-125984000D01*
X151892000Y-125984000D02*
X155448000Y-129540000D01*
%TO.N,/D4DISP*%
X125730000Y-129032000D02*
X127762000Y-127000000D01*
X127762000Y-127000000D02*
X135128000Y-127000000D01*
X135128000Y-127000000D02*
X136144000Y-125984000D01*
X136144000Y-125984000D02*
X136144000Y-109220000D01*
X136144000Y-109220000D02*
X135128000Y-108204000D01*
X135128000Y-108204000D02*
X135128000Y-106172000D01*
X135128000Y-106172000D02*
X134620000Y-105664000D01*
%TO.N,/D5DISP*%
X137160000Y-124968000D02*
X139700000Y-127508000D01*
X137160000Y-105664000D02*
X137160000Y-124968000D01*
X139700000Y-127508000D02*
X142240000Y-127508000D01*
X142240000Y-127508000D02*
X144272000Y-129540000D01*
%TO.N,/RSDISP*%
X116840000Y-105664000D02*
X116840000Y-128524000D01*
X116840000Y-128524000D02*
X117348000Y-129032000D01*
%TO.N,Net-(R8-Pad2)*%
X159004000Y-137160000D02*
X155448000Y-137160000D01*
X155448000Y-137160000D02*
X155448000Y-139176000D01*
X155448000Y-139176000D02*
X158802000Y-142530000D01*
X165302000Y-142530000D02*
X158802000Y-142530000D01*
%TO.N,Net-(R6-Pad2)*%
X148336000Y-142416000D02*
X147932000Y-142820000D01*
X154432000Y-142820000D02*
X147932000Y-142820000D01*
X148336000Y-137160000D02*
X148336000Y-142416000D01*
X151892000Y-137160000D02*
X148336000Y-137160000D01*
%TO.N,Net-(R4-Pad2)*%
X144272000Y-137160000D02*
X144272000Y-141732000D01*
X144272000Y-141732000D02*
X143256000Y-142748000D01*
X143256000Y-142748000D02*
X136756000Y-142748000D01*
%TO.N,+5V*%
X140716000Y-129540000D02*
X129540000Y-129540000D01*
X129540000Y-129540000D02*
X129032000Y-129032000D01*
%TO.N,Net-(R4-Pad2)*%
X144272000Y-137160000D02*
X140716000Y-137160000D01*
%TO.N,Net-(R2-Pad2)*%
X125730000Y-136652000D02*
X125730000Y-142598000D01*
X125730000Y-142598000D02*
X125580000Y-142748000D01*
X129032000Y-136652000D02*
X125730000Y-136652000D01*
%TO.N,Net-(R10-Pad2)*%
X120904000Y-136652000D02*
X117348000Y-136652000D01*
X121106000Y-142820000D02*
X114606000Y-142820000D01*
X120904000Y-136652000D02*
X120904000Y-142618000D01*
X120904000Y-142618000D02*
X121106000Y-142820000D01*
%TD*%
%TA.AperFunction,Conductor*%
%TO.N,+24V*%
G36*
X106648068Y-100993308D02*
G01*
X106714851Y-101013837D01*
X106759936Y-101067215D01*
X106770500Y-101117298D01*
X106770500Y-107310402D01*
X106768973Y-107329801D01*
X106766677Y-107344295D01*
X106770330Y-107413999D01*
X106770500Y-107420489D01*
X106770500Y-107441504D01*
X106772697Y-107462411D01*
X106773206Y-107468880D01*
X106776858Y-107538576D01*
X106776859Y-107538581D01*
X106780658Y-107552758D01*
X106784203Y-107571884D01*
X106785194Y-107581308D01*
X106785738Y-107586482D01*
X106785740Y-107586488D01*
X106807303Y-107652855D01*
X106809139Y-107659054D01*
X106817804Y-107691390D01*
X106827211Y-107726496D01*
X106833876Y-107739577D01*
X106841317Y-107757542D01*
X106845854Y-107771503D01*
X106845856Y-107771508D01*
X106880759Y-107831962D01*
X106883849Y-107837654D01*
X106915535Y-107899840D01*
X106915540Y-107899846D01*
X106915542Y-107899849D01*
X106924772Y-107911248D01*
X106935789Y-107927278D01*
X106943130Y-107939992D01*
X106989837Y-107991865D01*
X106994052Y-107996801D01*
X107007271Y-108013125D01*
X107007278Y-108013133D01*
X107022133Y-108027988D01*
X107026602Y-108032697D01*
X107073308Y-108084569D01*
X107085182Y-108093196D01*
X107099978Y-108105833D01*
X107794166Y-108800021D01*
X107806799Y-108814811D01*
X107815431Y-108826692D01*
X107815432Y-108826693D01*
X107867301Y-108873396D01*
X107872010Y-108877865D01*
X107886866Y-108892721D01*
X107886877Y-108892731D01*
X107903208Y-108905956D01*
X107908143Y-108910171D01*
X107931036Y-108930784D01*
X107960008Y-108956870D01*
X107960012Y-108956872D01*
X107965268Y-108960692D01*
X107964493Y-108961758D01*
X108007835Y-109007204D01*
X108021623Y-109063241D01*
X108039204Y-111805848D01*
X108019950Y-111873012D01*
X107967440Y-111919105D01*
X107915848Y-111930641D01*
X100625141Y-111968318D01*
X100558001Y-111948980D01*
X100511973Y-111896414D01*
X100500500Y-111844320D01*
X100500500Y-105664007D01*
X101465571Y-105664007D01*
X101484864Y-105958363D01*
X101484865Y-105958373D01*
X101484866Y-105958380D01*
X101484868Y-105958390D01*
X101542418Y-106247716D01*
X101542421Y-106247730D01*
X101637249Y-106527080D01*
X101767725Y-106791660D01*
X101767729Y-106791667D01*
X101931625Y-107036955D01*
X102126141Y-107258758D01*
X102347944Y-107453274D01*
X102475608Y-107538576D01*
X102593235Y-107617172D01*
X102857823Y-107747652D01*
X103137178Y-107842481D01*
X103426520Y-107900034D01*
X103454788Y-107901886D01*
X103720893Y-107919329D01*
X103720900Y-107919329D01*
X103720907Y-107919329D01*
X103956575Y-107903881D01*
X104015280Y-107900034D01*
X104304622Y-107842481D01*
X104583977Y-107747652D01*
X104848565Y-107617172D01*
X105093857Y-107453273D01*
X105315658Y-107258758D01*
X105510173Y-107036957D01*
X105674072Y-106791665D01*
X105804552Y-106527077D01*
X105899381Y-106247722D01*
X105956934Y-105958380D01*
X105976229Y-105664000D01*
X105976229Y-105663992D01*
X105956935Y-105369636D01*
X105956934Y-105369620D01*
X105899381Y-105080278D01*
X105804552Y-104800923D01*
X105674072Y-104536336D01*
X105510173Y-104291043D01*
X105440155Y-104211203D01*
X105315658Y-104069241D01*
X105093855Y-103874725D01*
X104848567Y-103710829D01*
X104848560Y-103710825D01*
X104583980Y-103580349D01*
X104304630Y-103485521D01*
X104304624Y-103485519D01*
X104304622Y-103485519D01*
X104015280Y-103427966D01*
X104015273Y-103427965D01*
X104015263Y-103427964D01*
X103720907Y-103408671D01*
X103720893Y-103408671D01*
X103426536Y-103427964D01*
X103426524Y-103427965D01*
X103426520Y-103427966D01*
X103426512Y-103427967D01*
X103426509Y-103427968D01*
X103137183Y-103485518D01*
X103137169Y-103485521D01*
X102857819Y-103580349D01*
X102593234Y-103710828D01*
X102347941Y-103874728D01*
X102126141Y-104069241D01*
X101931628Y-104291041D01*
X101767728Y-104536334D01*
X101637249Y-104800919D01*
X101542421Y-105080269D01*
X101542418Y-105080283D01*
X101484868Y-105369609D01*
X101484864Y-105369636D01*
X101465571Y-105663992D01*
X101465571Y-105664007D01*
X100500500Y-105664007D01*
X100500500Y-101041262D01*
X100520185Y-100974223D01*
X100572989Y-100928468D01*
X100626059Y-100917273D01*
X106648068Y-100993308D01*
G37*
%TD.AperFunction*%
%TD*%
M02*
