%TF.GenerationSoftware,KiCad,Pcbnew,7.0.11+dfsg-1build4*%
%TF.CreationDate,2025-08-23T12:11:09-05:00*%
%TF.ProjectId,SilentTempController,53696c65-6e74-4546-956d-70436f6e7472,rev?*%
%TF.SameCoordinates,Original*%
%TF.FileFunction,Soldermask,Top*%
%TF.FilePolarity,Negative*%
%FSLAX46Y46*%
G04 Gerber Fmt 4.6, Leading zero omitted, Abs format (unit mm)*
G04 Created by KiCad (PCBNEW 7.0.11+dfsg-1build4) date 2025-08-23 12:11:09*
%MOMM*%
%LPD*%
G01*
G04 APERTURE LIST*
G04 Aperture macros list*
%AMRoundRect*
0 Rectangle with rounded corners*
0 $1 Rounding radius*
0 $2 $3 $4 $5 $6 $7 $8 $9 X,Y pos of 4 corners*
0 Add a 4 corners polygon primitive as box body*
4,1,4,$2,$3,$4,$5,$6,$7,$8,$9,$2,$3,0*
0 Add four circle primitives for the rounded corners*
1,1,$1+$1,$2,$3*
1,1,$1+$1,$4,$5*
1,1,$1+$1,$6,$7*
1,1,$1+$1,$8,$9*
0 Add four rect primitives between the rounded corners*
20,1,$1+$1,$2,$3,$4,$5,0*
20,1,$1+$1,$4,$5,$6,$7,0*
20,1,$1+$1,$6,$7,$8,$9,0*
20,1,$1+$1,$8,$9,$2,$3,0*%
G04 Aperture macros list end*
%ADD10C,1.600000*%
%ADD11O,1.600000X1.600000*%
%ADD12C,1.500000*%
%ADD13R,1.500000X1.500000*%
%ADD14R,1.600000X1.600000*%
%ADD15C,3.000000*%
%ADD16R,3.000000X3.000000*%
%ADD17C,3.200000*%
%ADD18R,2.000000X1.905000*%
%ADD19O,2.000000X1.905000*%
%ADD20C,2.000000*%
%ADD21O,1.700000X1.700000*%
%ADD22R,1.700000X1.700000*%
%ADD23R,1.905000X2.000000*%
%ADD24O,1.905000X2.000000*%
%ADD25C,1.440000*%
%ADD26R,3.500000X3.500000*%
%ADD27RoundRect,0.750000X-0.750000X-1.000000X0.750000X-1.000000X0.750000X1.000000X-0.750000X1.000000X0*%
%ADD28RoundRect,0.875000X-0.875000X-0.875000X0.875000X-0.875000X0.875000X0.875000X-0.875000X0.875000X0*%
%ADD29O,1.800000X2.600000*%
%ADD30R,1.800000X2.600000*%
G04 APERTURE END LIST*
D10*
%TO.C,R31*%
X172313600Y-89535000D03*
D11*
X164693600Y-89535000D03*
%TD*%
D10*
%TO.C,R36*%
X165252400Y-86258400D03*
D11*
X165252400Y-78638400D03*
%TD*%
D10*
%TO.C,R35*%
X167817800Y-92786200D03*
D11*
X175437800Y-92786200D03*
%TD*%
D10*
%TO.C,R34*%
X169595800Y-71323200D03*
D11*
X169595800Y-78943200D03*
%TD*%
D12*
%TO.C,Q17*%
X169900600Y-81254600D03*
X169900600Y-83794600D03*
D13*
X169900600Y-86334600D03*
%TD*%
D14*
%TO.C,C11*%
X160020000Y-73761600D03*
D10*
X162520000Y-73761600D03*
%TD*%
D15*
%TO.C,J14*%
X180086000Y-143764000D03*
D16*
X185166000Y-143764000D03*
%TD*%
D10*
%TO.C,C10*%
X127431800Y-75137000D03*
X127431800Y-80137000D03*
%TD*%
%TO.C,C9*%
X133934200Y-75162400D03*
X133934200Y-80162400D03*
%TD*%
%TO.C,C8*%
X140639800Y-75213200D03*
X140639800Y-80213200D03*
%TD*%
D17*
%TO.C,H4*%
X105000000Y-145000000D03*
%TD*%
%TO.C,H3*%
X195000000Y-145000000D03*
%TD*%
%TO.C,H2*%
X105000000Y-55000000D03*
%TD*%
%TO.C,H1*%
X195000000Y-55000000D03*
%TD*%
D11*
%TO.C,R33*%
X185978800Y-75641200D03*
D10*
X178358800Y-75641200D03*
%TD*%
%TO.C,R32*%
X175234600Y-89281000D03*
D11*
X175234600Y-81661000D03*
%TD*%
D10*
%TO.C,R30*%
X178816000Y-131699000D03*
D11*
X186436000Y-131699000D03*
%TD*%
D10*
%TO.C,R29*%
X162570000Y-129100000D03*
D11*
X170190000Y-129100000D03*
%TD*%
D10*
%TO.C,R28*%
X170220000Y-125620000D03*
D11*
X162600000Y-125620000D03*
%TD*%
D10*
%TO.C,R27*%
X187375800Y-125323600D03*
D11*
X187375800Y-117703600D03*
%TD*%
D10*
%TO.C,R26*%
X162560000Y-122174000D03*
D11*
X170180000Y-122174000D03*
%TD*%
D10*
%TO.C,R25*%
X166370000Y-106781600D03*
D11*
X173990000Y-106781600D03*
%TD*%
%TO.C,R24*%
X162560000Y-119075200D03*
D10*
X170180000Y-119075200D03*
%TD*%
%TO.C,R23*%
X188518800Y-98552000D03*
D11*
X188518800Y-90932000D03*
%TD*%
D10*
%TO.C,R22*%
X173990000Y-103632000D03*
D11*
X166370000Y-103632000D03*
%TD*%
D18*
%TO.C,Q16*%
X193649600Y-61976000D03*
D19*
X193649600Y-64516000D03*
X193649600Y-67056000D03*
%TD*%
D13*
%TO.C,Q15*%
X183591200Y-82956400D03*
D12*
X181051200Y-82956400D03*
X178511200Y-82956400D03*
%TD*%
D13*
%TO.C,Q14*%
X183108600Y-87985600D03*
D12*
X180568600Y-87985600D03*
X178028600Y-87985600D03*
%TD*%
%TO.C,Q13*%
X174396400Y-79197200D03*
X174396400Y-76657200D03*
D13*
X174396400Y-74117200D03*
%TD*%
D19*
%TO.C,Q12*%
X191287400Y-137185400D03*
X191287400Y-134645400D03*
D18*
X191287400Y-132105400D03*
%TD*%
D13*
%TO.C,Q11*%
X183515000Y-121920000D03*
D12*
X180975000Y-121920000D03*
X178435000Y-121920000D03*
%TD*%
D13*
%TO.C,Q10*%
X183515000Y-127000000D03*
D12*
X180975000Y-127000000D03*
X178435000Y-127000000D03*
%TD*%
D13*
%TO.C,Q9*%
X174370000Y-124750000D03*
D12*
X174370000Y-127290000D03*
X174370000Y-129830000D03*
%TD*%
D19*
%TO.C,Q8*%
X191008000Y-123825000D03*
X191008000Y-121285000D03*
D18*
X191008000Y-118745000D03*
%TD*%
D13*
%TO.C,Q7*%
X183515000Y-110871000D03*
D12*
X180975000Y-110871000D03*
X178435000Y-110871000D03*
%TD*%
D13*
%TO.C,Q6*%
X183515000Y-115824000D03*
D12*
X180975000Y-115824000D03*
X178435000Y-115824000D03*
%TD*%
D13*
%TO.C,Q5*%
X173990000Y-115976400D03*
D12*
X173990000Y-118516400D03*
X173990000Y-121056400D03*
%TD*%
D13*
%TO.C,Q4*%
X183007000Y-98983800D03*
D12*
X180467000Y-98983800D03*
X177927000Y-98983800D03*
%TD*%
D18*
%TO.C,Q3*%
X191897000Y-91541600D03*
D19*
X191897000Y-94081600D03*
X191897000Y-96621600D03*
%TD*%
D13*
%TO.C,Q2*%
X183007000Y-93091000D03*
D12*
X180467000Y-93091000D03*
X177927000Y-93091000D03*
%TD*%
D13*
%TO.C,Q1*%
X174040800Y-99161600D03*
D12*
X171500800Y-99161600D03*
X168960800Y-99161600D03*
%TD*%
D16*
%TO.C,J15*%
X181660800Y-69799200D03*
D15*
X186740800Y-69799200D03*
%TD*%
D16*
%TO.C,J13*%
X191008000Y-104698800D03*
D15*
X191008000Y-109778800D03*
%TD*%
D16*
%TO.C,J12*%
X193192400Y-77571600D03*
D15*
X193192400Y-82651600D03*
%TD*%
D20*
%TO.C,SW5*%
X114606000Y-147320000D03*
X121106000Y-147320000D03*
X114606000Y-142820000D03*
X121106000Y-142820000D03*
%TD*%
%TO.C,SW4*%
X158802000Y-147030000D03*
X165302000Y-147030000D03*
X158802000Y-142530000D03*
X165302000Y-142530000D03*
%TD*%
%TO.C,SW3*%
X147932000Y-147320000D03*
X154432000Y-147320000D03*
X147932000Y-142820000D03*
X154432000Y-142820000D03*
%TD*%
%TO.C,SW2*%
X143256000Y-142748000D03*
X136756000Y-142748000D03*
X143256000Y-147248000D03*
X136756000Y-147248000D03*
%TD*%
%TO.C,SW1*%
X125580000Y-147248000D03*
X132080000Y-147248000D03*
X125580000Y-142748000D03*
X132080000Y-142748000D03*
%TD*%
D10*
%TO.C,R21*%
X123444000Y-66548000D03*
D11*
X123444000Y-58928000D03*
%TD*%
%TO.C,R20*%
X115265200Y-56134000D03*
D10*
X115265200Y-63754000D03*
%TD*%
%TO.C,R19*%
X119888000Y-66548000D03*
D11*
X119888000Y-58928000D03*
%TD*%
D10*
%TO.C,R18*%
X148336000Y-66548000D03*
D11*
X148336000Y-58928000D03*
%TD*%
%TO.C,R17*%
X141224000Y-58928000D03*
D10*
X141224000Y-66548000D03*
%TD*%
%TO.C,R16*%
X144780000Y-66548000D03*
D11*
X144780000Y-58928000D03*
%TD*%
D10*
%TO.C,R15*%
X173990000Y-66040000D03*
D11*
X173990000Y-58420000D03*
%TD*%
%TO.C,R14*%
X167132000Y-58420000D03*
D10*
X167132000Y-66040000D03*
%TD*%
D11*
%TO.C,R13*%
X170688000Y-58420000D03*
D10*
X170688000Y-66040000D03*
%TD*%
%TO.C,R12*%
X161036000Y-83312000D03*
D11*
X161036000Y-90932000D03*
%TD*%
D10*
%TO.C,R11*%
X120904000Y-136652000D03*
D11*
X120904000Y-129032000D03*
%TD*%
%TO.C,R10*%
X117348000Y-136652000D03*
D10*
X117348000Y-129032000D03*
%TD*%
D11*
%TO.C,R9*%
X159004000Y-129540000D03*
D10*
X159004000Y-137160000D03*
%TD*%
D11*
%TO.C,R8*%
X155448000Y-137160000D03*
D10*
X155448000Y-129540000D03*
%TD*%
%TO.C,R7*%
X148336000Y-137160000D03*
D11*
X148336000Y-129540000D03*
%TD*%
D10*
%TO.C,R6*%
X151892000Y-129540000D03*
D11*
X151892000Y-137160000D03*
%TD*%
D10*
%TO.C,R5*%
X140716000Y-137160000D03*
D11*
X140716000Y-129540000D03*
%TD*%
D10*
%TO.C,R4*%
X144272000Y-129540000D03*
D11*
X144272000Y-137160000D03*
%TD*%
D10*
%TO.C,R3*%
X129032000Y-136652000D03*
D11*
X129032000Y-129032000D03*
%TD*%
D10*
%TO.C,R2*%
X125730000Y-129032000D03*
D11*
X125730000Y-136652000D03*
%TD*%
D21*
%TO.C,J11*%
X111506000Y-58928000D03*
D22*
X111506000Y-61468000D03*
%TD*%
%TO.C,J10*%
X135382000Y-66548000D03*
D21*
X132842000Y-66548000D03*
%TD*%
D22*
%TO.C,J9*%
X161036000Y-65532000D03*
D21*
X158496000Y-65532000D03*
%TD*%
D16*
%TO.C,J8*%
X129032000Y-56388000D03*
D15*
X134112000Y-56388000D03*
%TD*%
D21*
%TO.C,J7*%
X119634000Y-54102000D03*
D22*
X122174000Y-54102000D03*
%TD*%
D16*
%TO.C,J6*%
X155448000Y-56388000D03*
D15*
X160528000Y-56388000D03*
%TD*%
D22*
%TO.C,J5*%
X147828000Y-54356000D03*
D21*
X145288000Y-54356000D03*
%TD*%
D16*
%TO.C,J4*%
X182118000Y-56896000D03*
D15*
X187198000Y-56896000D03*
%TD*%
D22*
%TO.C,J3*%
X173482000Y-54356000D03*
D21*
X170942000Y-54356000D03*
%TD*%
D10*
%TO.C,C7*%
X130683000Y-80162400D03*
X130683000Y-75162400D03*
%TD*%
%TO.C,C6*%
X137236200Y-80238600D03*
X137236200Y-75238600D03*
%TD*%
%TO.C,C5*%
X143992600Y-80213200D03*
X143992600Y-75213200D03*
%TD*%
D14*
%TO.C,C4*%
X153644600Y-78816200D03*
D10*
X153644600Y-76316200D03*
%TD*%
%TO.C,C3*%
X147294600Y-80213200D03*
X147294600Y-75213200D03*
%TD*%
D23*
%TO.C,U1*%
X115316000Y-78232000D03*
D24*
X117856000Y-78232000D03*
X120396000Y-78232000D03*
%TD*%
D25*
%TO.C,RV1*%
X109728000Y-100076000D03*
X109728000Y-97536000D03*
X109728000Y-94996000D03*
%TD*%
D10*
%TO.C,R1*%
X161036000Y-101092000D03*
D11*
X161036000Y-93472000D03*
%TD*%
D16*
%TO.C,J2*%
X106324400Y-75133200D03*
D15*
X106324400Y-70053200D03*
%TD*%
D26*
%TO.C,J1*%
X110236000Y-83312000D03*
D27*
X104236000Y-83312000D03*
D28*
X107236000Y-88012000D03*
%TD*%
D29*
%TO.C,DS1*%
X147320000Y-105664000D03*
X144780000Y-105664000D03*
X142240000Y-105664000D03*
X139700000Y-105664000D03*
X137160000Y-105664000D03*
X134620000Y-105664000D03*
X132080000Y-105664000D03*
X129540000Y-105664000D03*
X127000000Y-105664000D03*
X124460000Y-105664000D03*
X121920000Y-105664000D03*
X119380000Y-105664000D03*
X116840000Y-105664000D03*
X114300000Y-105664000D03*
X111760000Y-105664000D03*
D30*
X109220000Y-105664000D03*
D15*
X178720000Y-105664000D03*
X103720900Y-136664700D03*
X103720900Y-105664000D03*
X178719480Y-136664700D03*
%TD*%
D14*
%TO.C,C2*%
X103886000Y-62992000D03*
D10*
X106386000Y-62992000D03*
%TD*%
D14*
%TO.C,C1*%
X115976400Y-69189600D03*
D10*
X113476400Y-69189600D03*
%TD*%
D14*
%TO.C,A1*%
X116840000Y-99060000D03*
D11*
X119380000Y-99060000D03*
X121920000Y-99060000D03*
X124460000Y-99060000D03*
X127000000Y-99060000D03*
X129540000Y-99060000D03*
X132080000Y-99060000D03*
X134620000Y-99060000D03*
X137160000Y-99060000D03*
X139700000Y-99060000D03*
X142240000Y-99060000D03*
X144780000Y-99060000D03*
X147320000Y-99060000D03*
X149860000Y-99060000D03*
X152400000Y-99060000D03*
X152400000Y-83820000D03*
X149860000Y-83820000D03*
X147320000Y-83820000D03*
X144780000Y-83820000D03*
X142240000Y-83820000D03*
X139700000Y-83820000D03*
X137160000Y-83820000D03*
X134620000Y-83820000D03*
X132080000Y-83820000D03*
X129540000Y-83820000D03*
X127000000Y-83820000D03*
X124460000Y-83820000D03*
X121920000Y-83820000D03*
X119380000Y-83820000D03*
X116840000Y-83820000D03*
%TD*%
M02*
