%TF.GenerationSoftware,KiCad,Pcbnew,7.0.11+dfsg-1build4*%
%TF.CreationDate,2025-08-31T19:45:24-05:00*%
%TF.ProjectId,SilentTempController,53696c65-6e74-4546-956d-70436f6e7472,rev?*%
%TF.SameCoordinates,Original*%
%TF.FileFunction,Copper,L2,Bot*%
%TF.FilePolarity,Positive*%
%FSLAX46Y46*%
G04 Gerber Fmt 4.6, Leading zero omitted, Abs format (unit mm)*
G04 Created by KiCad (PCBNEW 7.0.11+dfsg-1build4) date 2025-08-31 19:45:24*
%MOMM*%
%LPD*%
G01*
G04 APERTURE LIST*
G04 Aperture macros list*
%AMRoundRect*
0 Rectangle with rounded corners*
0 $1 Rounding radius*
0 $2 $3 $4 $5 $6 $7 $8 $9 X,Y pos of 4 corners*
0 Add a 4 corners polygon primitive as box body*
4,1,4,$2,$3,$4,$5,$6,$7,$8,$9,$2,$3,0*
0 Add four circle primitives for the rounded corners*
1,1,$1+$1,$2,$3*
1,1,$1+$1,$4,$5*
1,1,$1+$1,$6,$7*
1,1,$1+$1,$8,$9*
0 Add four rect primitives between the rounded corners*
20,1,$1+$1,$2,$3,$4,$5,0*
20,1,$1+$1,$4,$5,$6,$7,0*
20,1,$1+$1,$6,$7,$8,$9,0*
20,1,$1+$1,$8,$9,$2,$3,0*%
G04 Aperture macros list end*
%TA.AperFunction,ComponentPad*%
%ADD10O,1.800000X2.600000*%
%TD*%
%TA.AperFunction,ComponentPad*%
%ADD11R,1.800000X2.600000*%
%TD*%
%TA.AperFunction,ComponentPad*%
%ADD12C,3.000000*%
%TD*%
%TA.AperFunction,ComponentPad*%
%ADD13C,1.600000*%
%TD*%
%TA.AperFunction,ComponentPad*%
%ADD14O,1.600000X1.600000*%
%TD*%
%TA.AperFunction,ComponentPad*%
%ADD15C,1.500000*%
%TD*%
%TA.AperFunction,ComponentPad*%
%ADD16R,1.500000X1.500000*%
%TD*%
%TA.AperFunction,ComponentPad*%
%ADD17R,2.000000X1.905000*%
%TD*%
%TA.AperFunction,ComponentPad*%
%ADD18O,2.000000X1.905000*%
%TD*%
%TA.AperFunction,ComponentPad*%
%ADD19R,1.700000X1.700000*%
%TD*%
%TA.AperFunction,ComponentPad*%
%ADD20O,1.700000X1.700000*%
%TD*%
%TA.AperFunction,ComponentPad*%
%ADD21C,2.000000*%
%TD*%
%TA.AperFunction,ComponentPad*%
%ADD22R,3.000000X3.000000*%
%TD*%
%TA.AperFunction,ComponentPad*%
%ADD23R,3.500000X3.500000*%
%TD*%
%TA.AperFunction,ComponentPad*%
%ADD24RoundRect,0.750000X-0.750000X-1.000000X0.750000X-1.000000X0.750000X1.000000X-0.750000X1.000000X0*%
%TD*%
%TA.AperFunction,ComponentPad*%
%ADD25RoundRect,0.875000X-0.875000X-0.875000X0.875000X-0.875000X0.875000X0.875000X-0.875000X0.875000X0*%
%TD*%
%TA.AperFunction,ComponentPad*%
%ADD26R,1.600000X1.600000*%
%TD*%
%TA.AperFunction,ComponentPad*%
%ADD27C,1.440000*%
%TD*%
%TA.AperFunction,ComponentPad*%
%ADD28R,1.905000X2.000000*%
%TD*%
%TA.AperFunction,ComponentPad*%
%ADD29O,1.905000X2.000000*%
%TD*%
%TA.AperFunction,ViaPad*%
%ADD30C,0.600000*%
%TD*%
%TA.AperFunction,Conductor*%
%ADD31C,0.350000*%
%TD*%
%TA.AperFunction,Conductor*%
%ADD32C,2.000000*%
%TD*%
%TA.AperFunction,Conductor*%
%ADD33C,3.000000*%
%TD*%
%TA.AperFunction,Conductor*%
%ADD34C,1.500000*%
%TD*%
G04 APERTURE END LIST*
D10*
%TO.P,DS1,16,LED(-)*%
%TO.N,GND*%
X147320000Y-105664000D03*
%TO.P,DS1,15,LED(+)*%
%TO.N,Net-(DS1-LED(+))*%
X144780000Y-105664000D03*
%TO.P,DS1,14,D7*%
%TO.N,/D7DISP*%
X142240000Y-105664000D03*
%TO.P,DS1,13,D6*%
%TO.N,/D6DISP*%
X139700000Y-105664000D03*
%TO.P,DS1,12,D5*%
%TO.N,/D5DISP*%
X137160000Y-105664000D03*
%TO.P,DS1,11,D4*%
%TO.N,/D4DISP*%
X134620000Y-105664000D03*
%TO.P,DS1,10,D3*%
%TO.N,unconnected-(DS1-D3-Pad10)*%
X132080000Y-105664000D03*
%TO.P,DS1,9,D2*%
%TO.N,unconnected-(DS1-D2-Pad9)*%
X129540000Y-105664000D03*
%TO.P,DS1,8,D1*%
%TO.N,unconnected-(DS1-D1-Pad8)*%
X127000000Y-105664000D03*
%TO.P,DS1,7,D0*%
%TO.N,unconnected-(DS1-D0-Pad7)*%
X124460000Y-105664000D03*
%TO.P,DS1,6,E*%
%TO.N,/EDISP*%
X121920000Y-105664000D03*
%TO.P,DS1,5,R/W*%
%TO.N,GND*%
X119380000Y-105664000D03*
%TO.P,DS1,4,RS*%
%TO.N,/RSDISP*%
X116840000Y-105664000D03*
%TO.P,DS1,3,VO*%
%TO.N,Net-(DS1-VO)*%
X114300000Y-105664000D03*
%TO.P,DS1,2,VDD*%
%TO.N,+5V*%
X111760000Y-105664000D03*
D11*
%TO.P,DS1,1,VSS*%
%TO.N,GND*%
X109220000Y-105664000D03*
D12*
%TO.P,DS1,*%
%TO.N,*%
X178720000Y-105664000D03*
X178719480Y-136664700D03*
X103720900Y-136664700D03*
X103720900Y-105664000D03*
%TD*%
D13*
%TO.P,R14,1*%
%TO.N,/NTC1REF*%
X151010000Y-66180000D03*
D14*
%TO.P,R14,2*%
%TO.N,GND*%
X158630000Y-66180000D03*
%TD*%
D15*
%TO.P,Q6,3,C*%
%TO.N,+12V*%
X175520000Y-116200000D03*
%TO.P,Q6,2,B*%
%TO.N,Net-(Q5-C)*%
X178060000Y-116200000D03*
D16*
%TO.P,Q6,1,E*%
%TO.N,Net-(Q6-E)*%
X180600000Y-116200000D03*
%TD*%
D13*
%TO.P,C6,1*%
%TO.N,/NTC2*%
X137236200Y-80238600D03*
%TO.P,C6,2*%
%TO.N,GND*%
X137236200Y-75238600D03*
%TD*%
D17*
%TO.P,Q8,1,G*%
%TO.N,Net-(Q8-G)*%
X191008000Y-118745000D03*
D18*
%TO.P,Q8,2,D*%
%TO.N,Net-(J13-Pin_2)*%
X191008000Y-121285000D03*
%TO.P,Q8,3,S*%
%TO.N,GND*%
X191008000Y-123825000D03*
%TD*%
D19*
%TO.P,J5,1,Pin_1*%
%TO.N,/NTC2*%
X137230000Y-55200000D03*
D20*
%TO.P,J5,2,Pin_2*%
%TO.N,GND*%
X134690000Y-55200000D03*
%TD*%
D13*
%TO.P,C15,1*%
%TO.N,Net-(J14-Pin_2)*%
X174400000Y-135500000D03*
%TO.P,C15,2*%
%TO.N,Net-(C15-Pad2)*%
X169400000Y-135500000D03*
%TD*%
%TO.P,R13,1*%
%TO.N,/VREF*%
X158630000Y-62940000D03*
D14*
%TO.P,R13,2*%
%TO.N,/NTC1REF*%
X151010000Y-62940000D03*
%TD*%
D13*
%TO.P,R29,1*%
%TO.N,+12V*%
X160610000Y-125950000D03*
D14*
%TO.P,R29,2*%
%TO.N,Net-(Q10-B)*%
X168230000Y-125950000D03*
%TD*%
D16*
%TO.P,Q5,1,E*%
%TO.N,GND*%
X171600000Y-113400000D03*
D15*
%TO.P,Q5,2,B*%
%TO.N,Net-(Q5-B)*%
X171600000Y-115940000D03*
%TO.P,Q5,3,C*%
%TO.N,Net-(Q5-C)*%
X171600000Y-118480000D03*
%TD*%
D21*
%TO.P,SW1,1,1*%
%TO.N,GND*%
X127508000Y-146812000D03*
X121008000Y-146812000D03*
%TO.P,SW1,2,2*%
%TO.N,Net-(R2-Pad2)*%
X127508000Y-142312000D03*
X121008000Y-142312000D03*
%TD*%
D13*
%TO.P,R12,1*%
%TO.N,/VREF*%
X161036000Y-83312000D03*
D14*
%TO.P,R12,2*%
%TO.N,+5V*%
X161036000Y-90932000D03*
%TD*%
D13*
%TO.P,C13,1*%
%TO.N,Net-(J12-Pin_2)*%
X183388000Y-76962000D03*
%TO.P,C13,2*%
%TO.N,Net-(C13-Pad2)*%
X178388000Y-76962000D03*
%TD*%
%TO.P,R27,1*%
%TO.N,Net-(Q6-E)*%
X187690000Y-124870000D03*
D14*
%TO.P,R27,2*%
%TO.N,Net-(Q8-G)*%
X187690000Y-117250000D03*
%TD*%
D22*
%TO.P,J2,1,Pin_1*%
%TO.N,+24V*%
X171230000Y-143830000D03*
D12*
%TO.P,J2,2,Pin_2*%
%TO.N,GND*%
X166150000Y-143830000D03*
%TD*%
D13*
%TO.P,C3,1*%
%TO.N,/VREF*%
X147294600Y-80213200D03*
%TO.P,C3,2*%
%TO.N,GND*%
X147294600Y-75213200D03*
%TD*%
%TO.P,R5,1*%
%TO.N,Net-(R4-Pad2)*%
X140716000Y-137160000D03*
D14*
%TO.P,R5,2*%
%TO.N,+5V*%
X140716000Y-129540000D03*
%TD*%
D13*
%TO.P,R36,1*%
%TO.N,Net-(Q17-B)*%
X165252400Y-86258400D03*
D14*
%TO.P,R36,2*%
%TO.N,GND*%
X165252400Y-78638400D03*
%TD*%
D23*
%TO.P,J1,1*%
%TO.N,+24V*%
X110236000Y-83312000D03*
D24*
%TO.P,J1,2*%
%TO.N,GND*%
X104236000Y-83312000D03*
D25*
%TO.P,J1,3*%
%TO.N,unconnected-(J1-Pad3)*%
X107236000Y-88012000D03*
%TD*%
D26*
%TO.P,C2,1*%
%TO.N,+24V*%
X107391200Y-73431400D03*
D13*
%TO.P,C2,2*%
%TO.N,GND*%
X104891200Y-73431400D03*
%TD*%
%TO.P,R42,1*%
%TO.N,+5V*%
X143250000Y-88050000D03*
D14*
%TO.P,R42,2*%
%TO.N,/OC1B*%
X143250000Y-95670000D03*
%TD*%
D22*
%TO.P,J4,1,Pin_1*%
%TO.N,/NTC1*%
X167790000Y-56270000D03*
D12*
%TO.P,J4,2,Pin_2*%
%TO.N,GND*%
X172870000Y-56270000D03*
%TD*%
D16*
%TO.P,Q11,1,E*%
%TO.N,Net-(Q10-E)*%
X180600000Y-122400000D03*
D15*
%TO.P,Q11,2,B*%
%TO.N,Net-(Q10-B)*%
X178060000Y-122400000D03*
%TO.P,Q11,3,C*%
%TO.N,GND*%
X175520000Y-122400000D03*
%TD*%
D13*
%TO.P,C9,1*%
%TO.N,/NTC2REF*%
X133934200Y-80162400D03*
%TO.P,C9,2*%
%TO.N,GND*%
X133934200Y-75162400D03*
%TD*%
%TO.P,R16,1*%
%TO.N,/VREF*%
X134610000Y-66900000D03*
D14*
%TO.P,R16,2*%
%TO.N,/NTC2REF*%
X134610000Y-59280000D03*
%TD*%
D13*
%TO.P,R33,1*%
%TO.N,Net-(Q14-E)*%
X184150000Y-73152000D03*
D14*
%TO.P,R33,2*%
%TO.N,Net-(Q16-G)*%
X194310000Y-73152000D03*
%TD*%
D22*
%TO.P,J14,1,Pin_1*%
%TO.N,+24V*%
X182372000Y-143930000D03*
D12*
%TO.P,J14,2,Pin_2*%
%TO.N,Net-(J14-Pin_2)*%
X177292000Y-143930000D03*
%TD*%
D27*
%TO.P,RV1,1,1*%
%TO.N,+5V*%
X109728000Y-100076000D03*
%TO.P,RV1,2,2*%
%TO.N,Net-(DS1-VO)*%
X109728000Y-97536000D03*
%TO.P,RV1,3,3*%
%TO.N,GND*%
X109728000Y-94996000D03*
%TD*%
D13*
%TO.P,R17,1*%
%TO.N,/NTC2REF*%
X131300000Y-66960000D03*
D14*
%TO.P,R17,2*%
%TO.N,GND*%
X131300000Y-59340000D03*
%TD*%
D16*
%TO.P,Q13,1,E*%
%TO.N,GND*%
X174396400Y-74117200D03*
D15*
%TO.P,Q13,2,B*%
%TO.N,Net-(Q13-B)*%
X174396400Y-76657200D03*
%TO.P,Q13,3,C*%
%TO.N,Net-(Q13-C)*%
X174396400Y-79197200D03*
%TD*%
D13*
%TO.P,R22,1*%
%TO.N,Net-(Q1-B)*%
X171050000Y-106250000D03*
D14*
%TO.P,R22,2*%
%TO.N,/OC1A*%
X163430000Y-106250000D03*
%TD*%
D16*
%TO.P,Q7,1,E*%
%TO.N,Net-(Q6-E)*%
X180600000Y-111150000D03*
D15*
%TO.P,Q7,2,B*%
%TO.N,Net-(Q5-C)*%
X178060000Y-111150000D03*
%TO.P,Q7,3,C*%
%TO.N,GND*%
X175520000Y-111150000D03*
%TD*%
D21*
%TO.P,SW3,1,1*%
%TO.N,GND*%
X148844000Y-146812000D03*
X142344000Y-146812000D03*
%TO.P,SW3,2,2*%
%TO.N,Net-(R6-Pad2)*%
X148844000Y-142312000D03*
X142344000Y-142312000D03*
%TD*%
D26*
%TO.P,C11,1*%
%TO.N,+12V*%
X159550000Y-79190000D03*
D13*
%TO.P,C11,2*%
%TO.N,GND*%
X159550000Y-76690000D03*
%TD*%
%TO.P,R18,1*%
%TO.N,/VREF*%
X137920000Y-66870000D03*
D14*
%TO.P,R18,2*%
%TO.N,/NTC2*%
X137920000Y-59250000D03*
%TD*%
D17*
%TO.P,Q3,1,G*%
%TO.N,Net-(Q3-G)*%
X191897000Y-91541600D03*
D18*
%TO.P,Q3,2,D*%
%TO.N,Net-(J12-Pin_2)*%
X191897000Y-94081600D03*
%TO.P,Q3,3,S*%
%TO.N,GND*%
X191897000Y-96621600D03*
%TD*%
D13*
%TO.P,R24,1*%
%TO.N,Net-(Q5-B)*%
X168220000Y-116080000D03*
D14*
%TO.P,R24,2*%
%TO.N,/OC1B*%
X160600000Y-116080000D03*
%TD*%
D22*
%TO.P,J15,1,Pin_1*%
%TO.N,+24V*%
X183388000Y-56388000D03*
D12*
%TO.P,J15,2,Pin_2*%
%TO.N,Net-(J15-Pin_2)*%
X188468000Y-56388000D03*
%TD*%
D13*
%TO.P,R25,1*%
%TO.N,+12V*%
X163450000Y-109400000D03*
D14*
%TO.P,R25,2*%
%TO.N,Net-(Q1-C)*%
X171070000Y-109400000D03*
%TD*%
D22*
%TO.P,J12,1,Pin_1*%
%TO.N,+24V*%
X190246000Y-77470000D03*
D12*
%TO.P,J12,2,Pin_2*%
%TO.N,Net-(J12-Pin_2)*%
X190246000Y-82550000D03*
%TD*%
D13*
%TO.P,R26,1*%
%TO.N,+12V*%
X160680000Y-119320000D03*
D14*
%TO.P,R26,2*%
%TO.N,Net-(Q5-C)*%
X168300000Y-119320000D03*
%TD*%
D13*
%TO.P,R30,1*%
%TO.N,Net-(Q10-E)*%
X175500000Y-131800000D03*
D14*
%TO.P,R30,2*%
%TO.N,Net-(Q12-G)*%
X183120000Y-131800000D03*
%TD*%
D22*
%TO.P,J13,1,Pin_1*%
%TO.N,+24V*%
X191008000Y-104698800D03*
D12*
%TO.P,J13,2,Pin_2*%
%TO.N,Net-(J13-Pin_2)*%
X191008000Y-109778800D03*
%TD*%
D22*
%TO.P,J8,1,Pin_1*%
%TO.N,/NTC3*%
X121480000Y-56170000D03*
D12*
%TO.P,J8,2,Pin_2*%
%TO.N,GND*%
X126560000Y-56170000D03*
%TD*%
D13*
%TO.P,R3,1*%
%TO.N,Net-(R2-Pad2)*%
X129032000Y-136652000D03*
D14*
%TO.P,R3,2*%
%TO.N,+5V*%
X129032000Y-129032000D03*
%TD*%
D13*
%TO.P,R28,1*%
%TO.N,Net-(Q9-B)*%
X168180000Y-122600000D03*
D14*
%TO.P,R28,2*%
%TO.N,/OC2A*%
X160560000Y-122600000D03*
%TD*%
D13*
%TO.P,R20,1*%
%TO.N,/NTC3REF*%
X106960000Y-67400000D03*
D14*
%TO.P,R20,2*%
%TO.N,GND*%
X106960000Y-59780000D03*
%TD*%
D13*
%TO.P,R7,1*%
%TO.N,Net-(R6-Pad2)*%
X148336000Y-137160000D03*
D14*
%TO.P,R7,2*%
%TO.N,+5V*%
X148336000Y-129540000D03*
%TD*%
D13*
%TO.P,R41,1*%
%TO.N,+5V*%
X140000000Y-88050000D03*
D14*
%TO.P,R41,2*%
%TO.N,/OC1A*%
X140000000Y-95670000D03*
%TD*%
D26*
%TO.P,C1,1*%
%TO.N,+5V*%
X115976400Y-69189600D03*
D13*
%TO.P,C1,2*%
%TO.N,GND*%
X113476400Y-69189600D03*
%TD*%
D16*
%TO.P,Q9,1,E*%
%TO.N,GND*%
X171600000Y-120650000D03*
D15*
%TO.P,Q9,2,B*%
%TO.N,Net-(Q9-B)*%
X171600000Y-123190000D03*
%TO.P,Q9,3,C*%
%TO.N,Net-(Q10-B)*%
X171600000Y-125730000D03*
%TD*%
D13*
%TO.P,R19,1*%
%TO.N,/VREF*%
X110200000Y-63900000D03*
D14*
%TO.P,R19,2*%
%TO.N,/NTC3REF*%
X110200000Y-56280000D03*
%TD*%
D13*
%TO.P,C16,1*%
%TO.N,Net-(J15-Pin_2)*%
X190460000Y-64008000D03*
%TO.P,C16,2*%
%TO.N,Net-(C16-Pad2)*%
X185460000Y-64008000D03*
%TD*%
D16*
%TO.P,Q1,1,E*%
%TO.N,GND*%
X174040800Y-99161600D03*
D15*
%TO.P,Q1,2,B*%
%TO.N,Net-(Q1-B)*%
X171500800Y-99161600D03*
%TO.P,Q1,3,C*%
%TO.N,Net-(Q1-C)*%
X168960800Y-99161600D03*
%TD*%
D19*
%TO.P,J10,1,Pin_1*%
%TO.N,/NTC2REF*%
X124780000Y-65740000D03*
D20*
%TO.P,J10,2,Pin_2*%
%TO.N,GND*%
X122240000Y-65740000D03*
%TD*%
D21*
%TO.P,SW4,1,1*%
%TO.N,GND*%
X159512000Y-146812000D03*
X153012000Y-146812000D03*
%TO.P,SW4,2,2*%
%TO.N,Net-(R8-Pad2)*%
X159512000Y-142312000D03*
X153012000Y-142312000D03*
%TD*%
D17*
%TO.P,Q12,1,G*%
%TO.N,Net-(Q12-G)*%
X187960000Y-131572000D03*
D18*
%TO.P,Q12,2,D*%
%TO.N,Net-(J14-Pin_2)*%
X187960000Y-134112000D03*
%TO.P,Q12,3,S*%
%TO.N,GND*%
X187960000Y-136652000D03*
%TD*%
D16*
%TO.P,Q14,1,E*%
%TO.N,Net-(Q14-E)*%
X183108600Y-87985600D03*
D15*
%TO.P,Q14,2,B*%
%TO.N,Net-(Q13-C)*%
X180568600Y-87985600D03*
%TO.P,Q14,3,C*%
%TO.N,+12V*%
X178028600Y-87985600D03*
%TD*%
D17*
%TO.P,Q16,1,G*%
%TO.N,Net-(Q16-G)*%
X193649600Y-61976000D03*
D18*
%TO.P,Q16,2,D*%
%TO.N,Net-(J15-Pin_2)*%
X193649600Y-64516000D03*
%TO.P,Q16,3,S*%
%TO.N,GND*%
X193649600Y-67056000D03*
%TD*%
D13*
%TO.P,C5,1*%
%TO.N,/NTC1*%
X143992600Y-80213200D03*
%TO.P,C5,2*%
%TO.N,GND*%
X143992600Y-75213200D03*
%TD*%
%TO.P,R35,1*%
%TO.N,GND*%
X167817800Y-92786200D03*
D14*
%TO.P,R35,2*%
%TO.N,+12V*%
X175437800Y-92786200D03*
%TD*%
D13*
%TO.P,R40,1*%
%TO.N,GND*%
X183600000Y-103080000D03*
D14*
%TO.P,R40,2*%
%TO.N,Net-(C14-Pad2)*%
X183600000Y-110700000D03*
%TD*%
D13*
%TO.P,R44,1*%
%TO.N,+5V*%
X132250000Y-88140000D03*
D14*
%TO.P,R44,2*%
%TO.N,/OC2B*%
X132250000Y-95760000D03*
%TD*%
D13*
%TO.P,C8,1*%
%TO.N,/NTC1REF*%
X140639800Y-80213200D03*
%TO.P,C8,2*%
%TO.N,GND*%
X140639800Y-75213200D03*
%TD*%
%TO.P,C7,1*%
%TO.N,/NTC3*%
X130683000Y-80162400D03*
%TO.P,C7,2*%
%TO.N,GND*%
X130683000Y-75162400D03*
%TD*%
D21*
%TO.P,SW2,1,1*%
%TO.N,GND*%
X138176000Y-146812000D03*
X131676000Y-146812000D03*
%TO.P,SW2,2,2*%
%TO.N,Net-(R4-Pad2)*%
X138176000Y-142312000D03*
X131676000Y-142312000D03*
%TD*%
D13*
%TO.P,R6,1*%
%TO.N,/D6DISP*%
X151892000Y-129540000D03*
D14*
%TO.P,R6,2*%
%TO.N,Net-(R6-Pad2)*%
X151892000Y-137160000D03*
%TD*%
D16*
%TO.P,Q10,1,E*%
%TO.N,Net-(Q10-E)*%
X180610000Y-127400000D03*
D15*
%TO.P,Q10,2,B*%
%TO.N,Net-(Q10-B)*%
X178070000Y-127400000D03*
%TO.P,Q10,3,C*%
%TO.N,+12V*%
X175530000Y-127400000D03*
%TD*%
D28*
%TO.P,U1,1,VI*%
%TO.N,+24V*%
X115316000Y-78232000D03*
D29*
%TO.P,U1,2,GND*%
%TO.N,GND*%
X117856000Y-78232000D03*
%TO.P,U1,3,VO*%
%TO.N,+5V*%
X120396000Y-78232000D03*
%TD*%
D13*
%TO.P,R2,1*%
%TO.N,/D4DISP*%
X125730000Y-129032000D03*
D14*
%TO.P,R2,2*%
%TO.N,Net-(R2-Pad2)*%
X125730000Y-136652000D03*
%TD*%
D13*
%TO.P,R9,1*%
%TO.N,Net-(R8-Pad2)*%
X159004000Y-137160000D03*
D14*
%TO.P,R9,2*%
%TO.N,+5V*%
X159004000Y-129540000D03*
%TD*%
D19*
%TO.P,J9,1,Pin_1*%
%TO.N,/NTC1REF*%
X145990000Y-65180000D03*
D20*
%TO.P,J9,2,Pin_2*%
%TO.N,GND*%
X143450000Y-65180000D03*
%TD*%
D16*
%TO.P,Q4,1,E*%
%TO.N,Net-(Q2-E)*%
X183007000Y-98983800D03*
D15*
%TO.P,Q4,2,B*%
%TO.N,Net-(Q1-C)*%
X180467000Y-98983800D03*
%TO.P,Q4,3,C*%
%TO.N,+12V*%
X177927000Y-98983800D03*
%TD*%
D26*
%TO.P,A1,1,D1/TX*%
%TO.N,unconnected-(A1-D1{slash}TX-Pad1)*%
X116840000Y-99060000D03*
D14*
%TO.P,A1,2,D0/RX*%
%TO.N,unconnected-(A1-D0{slash}RX-Pad2)*%
X119380000Y-99060000D03*
%TO.P,A1,3,~{RESET}*%
%TO.N,unconnected-(A1-~{RESET}-Pad3)*%
X121920000Y-99060000D03*
%TO.P,A1,4,GND*%
%TO.N,GND*%
X124460000Y-99060000D03*
%TO.P,A1,5,D2*%
%TO.N,/EDISP*%
X127000000Y-99060000D03*
%TO.P,A1,6,D3*%
%TO.N,/OC2B*%
X129540000Y-99060000D03*
%TO.P,A1,7,D4*%
%TO.N,/RSDISP*%
X132080000Y-99060000D03*
%TO.P,A1,8,D5*%
%TO.N,/D4DISP*%
X134620000Y-99060000D03*
%TO.P,A1,9,D6*%
%TO.N,/D5DISP*%
X137160000Y-99060000D03*
%TO.P,A1,10,D7*%
%TO.N,/D6DISP*%
X139700000Y-99060000D03*
%TO.P,A1,11,D8*%
%TO.N,/D7DISP*%
X142240000Y-99060000D03*
%TO.P,A1,12,D9*%
%TO.N,/OC1A*%
X144780000Y-99060000D03*
%TO.P,A1,13,D10*%
%TO.N,/OC1B*%
X147320000Y-99060000D03*
%TO.P,A1,14,D11*%
%TO.N,/OC2A*%
X149860000Y-99060000D03*
%TO.P,A1,15,D12*%
%TO.N,unconnected-(A1-D12-Pad15)*%
X152400000Y-99060000D03*
%TO.P,A1,16,D13*%
%TO.N,unconnected-(A1-D13-Pad16)*%
X152400000Y-83820000D03*
%TO.P,A1,17,3V3*%
%TO.N,unconnected-(A1-3V3-Pad17)*%
X149860000Y-83820000D03*
%TO.P,A1,18,AREF*%
%TO.N,/VREF*%
X147320000Y-83820000D03*
%TO.P,A1,19,A0*%
%TO.N,/NTC1*%
X144780000Y-83820000D03*
%TO.P,A1,20,A1*%
%TO.N,/NTC1REF*%
X142240000Y-83820000D03*
%TO.P,A1,21,A2*%
%TO.N,/NTC2*%
X139700000Y-83820000D03*
%TO.P,A1,22,A3*%
%TO.N,/NTC2REF*%
X137160000Y-83820000D03*
%TO.P,A1,23,A4*%
%TO.N,/NTC3*%
X134620000Y-83820000D03*
%TO.P,A1,24,A5*%
%TO.N,/NTC3REF*%
X132080000Y-83820000D03*
%TO.P,A1,25,A6*%
%TO.N,unconnected-(A1-A6-Pad25)*%
X129540000Y-83820000D03*
%TO.P,A1,26,A7*%
%TO.N,unconnected-(A1-A7-Pad26)*%
X127000000Y-83820000D03*
%TO.P,A1,27,+5V*%
%TO.N,+5V*%
X124460000Y-83820000D03*
%TO.P,A1,28,~{RESET}*%
%TO.N,unconnected-(A1-~{RESET}-Pad28)*%
X121920000Y-83820000D03*
%TO.P,A1,29,GND*%
%TO.N,GND*%
X119380000Y-83820000D03*
%TO.P,A1,30,VIN*%
%TO.N,unconnected-(A1-VIN-Pad30)*%
X116840000Y-83820000D03*
%TD*%
D13*
%TO.P,R8,1*%
%TO.N,/D7DISP*%
X155448000Y-129540000D03*
D14*
%TO.P,R8,2*%
%TO.N,Net-(R8-Pad2)*%
X155448000Y-137160000D03*
%TD*%
D13*
%TO.P,C10,1*%
%TO.N,/NTC3REF*%
X127431800Y-80137000D03*
%TO.P,C10,2*%
%TO.N,GND*%
X127431800Y-75137000D03*
%TD*%
D26*
%TO.P,C4,1*%
%TO.N,/VREF*%
X151670000Y-72770000D03*
D13*
%TO.P,C4,2*%
%TO.N,GND*%
X154170000Y-72770000D03*
%TD*%
%TO.P,R10,1*%
%TO.N,/RSDISP*%
X117348000Y-129032000D03*
D14*
%TO.P,R10,2*%
%TO.N,Net-(R10-Pad2)*%
X117348000Y-136652000D03*
%TD*%
D13*
%TO.P,R43,1*%
%TO.N,+5V*%
X146450000Y-88050000D03*
D14*
%TO.P,R43,2*%
%TO.N,/OC2A*%
X146450000Y-95670000D03*
%TD*%
D16*
%TO.P,Q15,1,E*%
%TO.N,Net-(Q14-E)*%
X183591200Y-82956400D03*
D15*
%TO.P,Q15,2,B*%
%TO.N,Net-(Q13-C)*%
X181051200Y-82956400D03*
%TO.P,Q15,3,C*%
%TO.N,GND*%
X178511200Y-82956400D03*
%TD*%
D13*
%TO.P,R23,1*%
%TO.N,Net-(Q2-E)*%
X188518800Y-98552000D03*
D14*
%TO.P,R23,2*%
%TO.N,Net-(Q3-G)*%
X188518800Y-90932000D03*
%TD*%
D19*
%TO.P,J7,1,Pin_1*%
%TO.N,/NTC3*%
X113090000Y-52800000D03*
D20*
%TO.P,J7,2,Pin_2*%
%TO.N,GND*%
X110550000Y-52800000D03*
%TD*%
D13*
%TO.P,C12,1*%
%TO.N,Net-(Q17-B)*%
X166280000Y-75950000D03*
%TO.P,C12,2*%
%TO.N,GND*%
X166280000Y-70950000D03*
%TD*%
%TO.P,R39,1*%
%TO.N,GND*%
X165180000Y-131700000D03*
D14*
%TO.P,R39,2*%
%TO.N,Net-(C15-Pad2)*%
X172800000Y-131700000D03*
%TD*%
D13*
%TO.P,R15,1*%
%TO.N,/VREF*%
X161440000Y-70190000D03*
D14*
%TO.P,R15,2*%
%TO.N,/NTC1*%
X161440000Y-62570000D03*
%TD*%
D22*
%TO.P,J6,1,Pin_1*%
%TO.N,/NTC2*%
X145180000Y-56140000D03*
D12*
%TO.P,J6,2,Pin_2*%
%TO.N,GND*%
X150260000Y-56140000D03*
%TD*%
D13*
%TO.P,R31,1*%
%TO.N,Net-(Q13-B)*%
X172313600Y-89535000D03*
D14*
%TO.P,R31,2*%
%TO.N,/OC2B*%
X164693600Y-89535000D03*
%TD*%
D21*
%TO.P,SW5,1,1*%
%TO.N,GND*%
X116840000Y-146812000D03*
X110340000Y-146812000D03*
%TO.P,SW5,2,2*%
%TO.N,Net-(R10-Pad2)*%
X116840000Y-142312000D03*
X110340000Y-142312000D03*
%TD*%
D13*
%TO.P,R11,1*%
%TO.N,Net-(R10-Pad2)*%
X120904000Y-136652000D03*
D14*
%TO.P,R11,2*%
%TO.N,+5V*%
X120904000Y-129032000D03*
%TD*%
D13*
%TO.P,R38,1*%
%TO.N,GND*%
X191008000Y-67056000D03*
D14*
%TO.P,R38,2*%
%TO.N,Net-(C16-Pad2)*%
X183388000Y-67056000D03*
%TD*%
D19*
%TO.P,J11,1,Pin_1*%
%TO.N,/NTC3REF*%
X102616000Y-64516000D03*
D20*
%TO.P,J11,2,Pin_2*%
%TO.N,GND*%
X102616000Y-61976000D03*
%TD*%
D13*
%TO.P,C14,1*%
%TO.N,Net-(J13-Pin_2)*%
X183500000Y-118300000D03*
%TO.P,C14,2*%
%TO.N,Net-(C14-Pad2)*%
X183500000Y-113300000D03*
%TD*%
%TO.P,R32,1*%
%TO.N,+12V*%
X175234600Y-89281000D03*
D14*
%TO.P,R32,2*%
%TO.N,Net-(Q13-C)*%
X175234600Y-81661000D03*
%TD*%
D13*
%TO.P,R1,1*%
%TO.N,Net-(DS1-LED(+))*%
X161036000Y-101092000D03*
D14*
%TO.P,R1,2*%
%TO.N,+5V*%
X161036000Y-93472000D03*
%TD*%
D16*
%TO.P,Q17,1,E*%
%TO.N,+12V*%
X169900600Y-86334600D03*
D15*
%TO.P,Q17,2,B*%
%TO.N,Net-(Q17-B)*%
X169900600Y-83794600D03*
%TO.P,Q17,3,C*%
%TO.N,+24V*%
X169900600Y-81254600D03*
%TD*%
D13*
%TO.P,R21,1*%
%TO.N,/VREF*%
X113340000Y-63900000D03*
D14*
%TO.P,R21,2*%
%TO.N,/NTC3*%
X113340000Y-56280000D03*
%TD*%
D13*
%TO.P,R37,1*%
%TO.N,GND*%
X178816000Y-66548000D03*
D14*
%TO.P,R37,2*%
%TO.N,Net-(C13-Pad2)*%
X178816000Y-74168000D03*
%TD*%
D16*
%TO.P,Q2,1,E*%
%TO.N,Net-(Q2-E)*%
X183007000Y-93091000D03*
D15*
%TO.P,Q2,2,B*%
%TO.N,Net-(Q1-C)*%
X180467000Y-93091000D03*
%TO.P,Q2,3,C*%
%TO.N,GND*%
X177927000Y-93091000D03*
%TD*%
D13*
%TO.P,R34,1*%
%TO.N,+24V*%
X169545000Y-71120000D03*
D14*
%TO.P,R34,2*%
%TO.N,Net-(Q17-B)*%
X169545000Y-78740000D03*
%TD*%
D19*
%TO.P,J3,1,Pin_1*%
%TO.N,/NTC1*%
X160515000Y-56210000D03*
D20*
%TO.P,J3,2,Pin_2*%
%TO.N,GND*%
X157975000Y-56210000D03*
%TD*%
D13*
%TO.P,R4,1*%
%TO.N,/D5DISP*%
X144272000Y-129540000D03*
D14*
%TO.P,R4,2*%
%TO.N,Net-(R4-Pad2)*%
X144272000Y-137160000D03*
%TD*%
D30*
%TO.N,+5V*%
X118618000Y-108458000D03*
%TD*%
D31*
%TO.N,/VREF*%
X147870000Y-51816000D02*
X167816000Y-51816000D01*
X167816000Y-51816000D02*
X170400000Y-54400000D01*
X170400000Y-54400000D02*
X170400000Y-61230000D01*
X170400000Y-61230000D02*
X161440000Y-70190000D01*
%TO.N,Net-(Q5-C)*%
X178060000Y-116200000D02*
X177960000Y-116100000D01*
X177960000Y-116100000D02*
X177960000Y-111250000D01*
%TO.N,Net-(Q6-E)*%
X180600000Y-116200000D02*
X180500000Y-116100000D01*
X180500000Y-116100000D02*
X180500000Y-111250000D01*
%TO.N,Net-(Q5-C)*%
X177960000Y-111250000D02*
X178060000Y-111150000D01*
%TO.N,Net-(Q6-E)*%
X180500000Y-111250000D02*
X180600000Y-111150000D01*
%TO.N,+12V*%
X175520000Y-116200000D02*
X175520000Y-113420000D01*
X175520000Y-113420000D02*
X173950000Y-111850000D01*
X173950000Y-111850000D02*
X173950000Y-111250000D01*
%TO.N,Net-(Q5-C)*%
X171600000Y-118480000D02*
X172370000Y-119250000D01*
X176300000Y-119250000D02*
X178060000Y-117490000D01*
%TO.N,Net-(Q6-E)*%
X180400000Y-119300000D02*
X185970000Y-124870000D01*
%TO.N,Net-(Q5-C)*%
X172370000Y-119250000D02*
X176300000Y-119250000D01*
X178060000Y-117490000D02*
X178060000Y-116200000D01*
%TO.N,Net-(Q6-E)*%
X180600000Y-116200000D02*
X180400000Y-116400000D01*
X185970000Y-124870000D02*
X187690000Y-124870000D01*
X180400000Y-116400000D02*
X180400000Y-119300000D01*
%TO.N,+12V*%
X163450000Y-109400000D02*
X164250000Y-109400000D01*
X164250000Y-109400000D02*
X167132000Y-106518000D01*
X167132000Y-106518000D02*
X167132000Y-98094800D01*
X167132000Y-98094800D02*
X169011600Y-96215200D01*
X175437800Y-95275400D02*
X175437800Y-92786200D01*
X169011600Y-96215200D02*
X174498000Y-96215200D01*
X174498000Y-96215200D02*
X175437800Y-95275400D01*
%TO.N,/OC1A*%
X142450000Y-92950000D02*
X151450000Y-92950000D01*
X154380000Y-95880000D02*
X162428000Y-95880000D01*
X140000000Y-95670000D02*
X140000000Y-95400000D01*
X140000000Y-95400000D02*
X142450000Y-92950000D01*
%TO.N,Net-(Q1-B)*%
X171907200Y-99568000D02*
X171907200Y-103267200D01*
%TO.N,/OC1A*%
X162428000Y-95880000D02*
X165658800Y-99110800D01*
%TO.N,Net-(Q1-B)*%
X171907200Y-103267200D02*
X171050000Y-104124400D01*
X171500800Y-99161600D02*
X171907200Y-99568000D01*
%TO.N,/OC1A*%
X151450000Y-92950000D02*
X154380000Y-95880000D01*
X165658800Y-99110800D02*
X165658800Y-104471200D01*
%TO.N,Net-(Q1-B)*%
X171050000Y-104124400D02*
X171050000Y-106250000D01*
%TO.N,/OC1A*%
X165658800Y-104471200D02*
X163880000Y-106250000D01*
X163880000Y-106250000D02*
X163430000Y-106250000D01*
%TO.N,+12V*%
X163450000Y-109400000D02*
X163450000Y-111500000D01*
%TO.N,Net-(Q1-C)*%
X175768000Y-100202000D02*
X173700000Y-102270000D01*
%TO.N,+12V*%
X163450000Y-111500000D02*
X165600000Y-113650000D01*
%TO.N,Net-(Q1-C)*%
X173700000Y-102270000D02*
X173700000Y-106850000D01*
X175768000Y-97028000D02*
X175768000Y-100202000D01*
X173700000Y-106850000D02*
X171150000Y-109400000D01*
X171150000Y-109400000D02*
X171070000Y-109400000D01*
%TO.N,/OC2A*%
X160560000Y-122600000D02*
X159580000Y-122600000D01*
X159920000Y-97250000D02*
X148030000Y-97250000D01*
X159580000Y-122600000D02*
X158930000Y-121950000D01*
X158930000Y-121950000D02*
X158930000Y-106120000D01*
X162790000Y-102260000D02*
X162790000Y-100120000D01*
X158930000Y-106120000D02*
X162790000Y-102260000D01*
X162790000Y-100120000D02*
X159920000Y-97250000D01*
X148030000Y-97250000D02*
X146450000Y-95670000D01*
%TO.N,/OC1B*%
X160600000Y-116080000D02*
X160600000Y-105450000D01*
X143950000Y-93700000D02*
X143250000Y-94400000D01*
X160600000Y-105450000D02*
X163550000Y-102500000D01*
X163550000Y-102500000D02*
X163550000Y-99010000D01*
X143250000Y-94400000D02*
X143250000Y-95670000D01*
X163550000Y-99010000D02*
X161040000Y-96500000D01*
X161040000Y-96500000D02*
X153550000Y-96500000D01*
X153550000Y-96500000D02*
X150750000Y-93700000D01*
X150750000Y-93700000D02*
X143950000Y-93700000D01*
%TO.N,+12V*%
X173950000Y-111250000D02*
X173300000Y-111900000D01*
X165600000Y-113650000D02*
X165600000Y-116340000D01*
X173300000Y-111900000D02*
X167350000Y-111900000D01*
X167350000Y-111900000D02*
X165600000Y-113650000D01*
X165600000Y-116340000D02*
X162620000Y-119320000D01*
X162620000Y-119320000D02*
X160680000Y-119320000D01*
X173950000Y-111250000D02*
X173950000Y-108160000D01*
X173950000Y-108160000D02*
X175010000Y-107100000D01*
X177927000Y-99153000D02*
X177927000Y-98983800D01*
X175010000Y-107100000D02*
X175010000Y-102070000D01*
X175010000Y-102070000D02*
X177927000Y-99153000D01*
%TO.N,+5V*%
X143350000Y-85700000D02*
X146500000Y-85700000D01*
X146500000Y-85700000D02*
X158344000Y-85700000D01*
X146450000Y-88050000D02*
X146450000Y-85750000D01*
X146450000Y-85750000D02*
X146500000Y-85700000D01*
%TO.N,/OC2A*%
X149530000Y-98750000D02*
X149550000Y-98750000D01*
X146450000Y-95670000D02*
X149530000Y-98750000D01*
X149550000Y-98750000D02*
X149860000Y-99060000D01*
%TO.N,/OC1B*%
X147320000Y-99060000D02*
X146750000Y-98490000D01*
X146750000Y-98490000D02*
X146750000Y-98400000D01*
X146750000Y-98400000D02*
X146700000Y-98400000D01*
X146700000Y-98400000D02*
X145700000Y-97400000D01*
X145700000Y-97400000D02*
X144500000Y-97400000D01*
X144500000Y-97400000D02*
X143250000Y-96150000D01*
X143250000Y-96150000D02*
X143250000Y-95670000D01*
%TO.N,/OC1A*%
X144780000Y-99060000D02*
X144780000Y-98980000D01*
X143200000Y-97400000D02*
X140500000Y-97400000D01*
X144780000Y-98980000D02*
X143200000Y-97400000D01*
X140500000Y-97400000D02*
X140000000Y-96900000D01*
X140000000Y-96900000D02*
X140000000Y-95670000D01*
%TO.N,/OC2B*%
X132250000Y-95760000D02*
X135640000Y-95760000D01*
X135640000Y-95760000D02*
X139250000Y-92150000D01*
X139250000Y-92150000D02*
X151900000Y-92150000D01*
X162954000Y-95110000D02*
X164871400Y-93192600D01*
X151900000Y-92150000D02*
X154860000Y-95110000D01*
X164871400Y-93192600D02*
X164871400Y-89712800D01*
X154860000Y-95110000D02*
X162954000Y-95110000D01*
X164871400Y-89712800D02*
X164693600Y-89535000D01*
%TO.N,+5V*%
X139750000Y-85700000D02*
X143350000Y-85700000D01*
X143250000Y-88050000D02*
X143250000Y-85800000D01*
X143250000Y-85800000D02*
X143350000Y-85700000D01*
X132650000Y-85700000D02*
X139750000Y-85700000D01*
X140000000Y-88050000D02*
X140000000Y-85950000D01*
X140000000Y-85950000D02*
X139750000Y-85700000D01*
%TO.N,Net-(Q10-B)*%
X173910000Y-125730000D02*
X174660000Y-124980000D01*
X174660000Y-124980000D02*
X177860000Y-124980000D01*
X169250000Y-125730000D02*
X171600000Y-125730000D01*
X177860000Y-124980000D02*
X178030000Y-125150000D01*
%TO.N,Net-(Q9-B)*%
X168770000Y-123190000D02*
X168180000Y-122600000D01*
X171600000Y-123190000D02*
X168770000Y-123190000D01*
%TO.N,Net-(Q10-B)*%
X169030000Y-125950000D02*
X169250000Y-125730000D01*
X168230000Y-125950000D02*
X169030000Y-125950000D01*
X171600000Y-125730000D02*
X173910000Y-125730000D01*
%TO.N,Net-(Q5-C)*%
X168300000Y-119320000D02*
X168680000Y-119700000D01*
X168680000Y-119700000D02*
X168800000Y-119700000D01*
X168800000Y-119700000D02*
X170020000Y-118480000D01*
X170020000Y-118480000D02*
X171600000Y-118480000D01*
%TO.N,Net-(Q5-B)*%
X168920000Y-115940000D02*
X171600000Y-115940000D01*
X168780000Y-116080000D02*
X168920000Y-115940000D01*
X168220000Y-116080000D02*
X168780000Y-116080000D01*
%TO.N,+12V*%
X175530000Y-127400000D02*
X174890000Y-127400000D01*
X174890000Y-127400000D02*
X173740000Y-128550000D01*
X173740000Y-128550000D02*
X168174000Y-128550000D01*
X168174000Y-128550000D02*
X165574000Y-125950000D01*
X165574000Y-125950000D02*
X160610000Y-125950000D01*
%TO.N,+5V*%
X132650000Y-85700000D02*
X132250000Y-86100000D01*
X159004000Y-129540000D02*
X157480000Y-131064000D01*
X120396000Y-79756000D02*
X120396000Y-78232000D01*
X161036000Y-88392000D02*
X161036000Y-90932000D01*
X158344000Y-85700000D02*
X161036000Y-88392000D01*
D32*
X115976400Y-70256400D02*
X120396000Y-74676000D01*
D31*
X157480000Y-131064000D02*
X148844000Y-131064000D01*
X111760000Y-105664000D02*
X111760000Y-102108000D01*
X120904000Y-110744000D02*
X120904000Y-129032000D01*
X140716000Y-129540000D02*
X129540000Y-129540000D01*
D32*
X120396000Y-74676000D02*
X120396000Y-78232000D01*
D31*
X161036000Y-90932000D02*
X161036000Y-93472000D01*
X148844000Y-131064000D02*
X148844000Y-130048000D01*
X110236000Y-100076000D02*
X109728000Y-100076000D01*
X118618000Y-108458000D02*
X120904000Y-110744000D01*
X122428000Y-130556000D02*
X127508000Y-130556000D01*
X124460000Y-83820000D02*
X120396000Y-79756000D01*
X126240000Y-85600000D02*
X126340000Y-85700000D01*
D32*
X115976400Y-69189600D02*
X115976400Y-70256400D01*
D31*
X120904000Y-129032000D02*
X122428000Y-130556000D01*
X148844000Y-131064000D02*
X142240000Y-131064000D01*
X124460000Y-85852000D02*
X124460000Y-83820000D01*
X124460000Y-83820000D02*
X126240000Y-85600000D01*
X110236000Y-100076000D02*
X124460000Y-85852000D01*
X132250000Y-86100000D02*
X132250000Y-88140000D01*
X127508000Y-130556000D02*
X129032000Y-129032000D01*
X148844000Y-130048000D02*
X148336000Y-129540000D01*
X126340000Y-85700000D02*
X132650000Y-85700000D01*
X129540000Y-129540000D02*
X129032000Y-129032000D01*
X142240000Y-131064000D02*
X140716000Y-129540000D01*
X111760000Y-102108000D02*
X109728000Y-100076000D01*
%TO.N,Net-(DS1-VO)*%
X107696000Y-107393000D02*
X108507000Y-108204000D01*
X109728000Y-97536000D02*
X107696000Y-99568000D01*
X113284000Y-108204000D02*
X114300000Y-107188000D01*
X108507000Y-108204000D02*
X113284000Y-108204000D01*
X107696000Y-99568000D02*
X107696000Y-107393000D01*
X114300000Y-107188000D02*
X114300000Y-105664000D01*
%TO.N,Net-(DS1-LED(+))*%
X161036000Y-101092000D02*
X147320000Y-101092000D01*
X144780000Y-103632000D02*
X144780000Y-105664000D01*
X147320000Y-101092000D02*
X144780000Y-103632000D01*
%TO.N,/VREF*%
X144430000Y-60640000D02*
X139660000Y-60640000D01*
X151670000Y-72770000D02*
X150770000Y-73670000D01*
X158630000Y-62940000D02*
X158670000Y-62940000D01*
X147320000Y-83820000D02*
X147320000Y-80238600D01*
X157852000Y-83312000D02*
X161036000Y-83312000D01*
X147870000Y-57200000D02*
X144430000Y-60640000D01*
X116470000Y-60820000D02*
X113390000Y-63900000D01*
X124150000Y-57860000D02*
X121190000Y-60820000D01*
X147294600Y-80213200D02*
X154753200Y-80213200D01*
X147870000Y-51816000D02*
X147870000Y-57200000D01*
X125924000Y-51816000D02*
X124150000Y-53590000D01*
X137920000Y-66870000D02*
X134640000Y-66870000D01*
X161440000Y-70190000D02*
X154250000Y-70190000D01*
X121190000Y-60820000D02*
X116470000Y-60820000D01*
X124150000Y-53590000D02*
X124150000Y-57860000D01*
X137920000Y-62380000D02*
X137920000Y-66870000D01*
X139660000Y-60640000D02*
X137920000Y-62380000D01*
X147320000Y-80238600D02*
X147294600Y-80213200D01*
X154753200Y-80213200D02*
X157852000Y-83312000D01*
X161440000Y-65710000D02*
X161440000Y-70190000D01*
X150770000Y-76737800D02*
X147294600Y-80213200D01*
X113390000Y-63900000D02*
X113340000Y-63900000D01*
X110200000Y-63900000D02*
X113340000Y-63900000D01*
X154250000Y-70190000D02*
X151670000Y-72770000D01*
X147870000Y-51816000D02*
X125924000Y-51816000D01*
X134640000Y-66870000D02*
X134610000Y-66900000D01*
X150770000Y-73670000D02*
X150770000Y-76737800D01*
X158670000Y-62940000D02*
X161440000Y-65710000D01*
%TO.N,/NTC1*%
X143992600Y-80213200D02*
X143981800Y-80224000D01*
X154360000Y-62510000D02*
X157120000Y-59750000D01*
X159240000Y-59750000D02*
X160050000Y-58940000D01*
X160050000Y-58910000D02*
X160515000Y-58445000D01*
X161440000Y-62570000D02*
X159240000Y-60370000D01*
X142138400Y-79400400D02*
X142138400Y-71678800D01*
X143992600Y-81976600D02*
X144780000Y-82764000D01*
X154360000Y-65500000D02*
X154360000Y-62510000D01*
X144983200Y-68834000D02*
X151026000Y-68834000D01*
X159240000Y-60370000D02*
X159240000Y-59750000D01*
X142138400Y-71678800D02*
X144983200Y-68834000D01*
X160515000Y-58445000D02*
X160515000Y-56210000D01*
X167730000Y-56210000D02*
X167790000Y-56270000D01*
X143981800Y-80224000D02*
X142962000Y-80224000D01*
X160515000Y-56210000D02*
X167730000Y-56210000D01*
X160050000Y-58940000D02*
X160050000Y-58910000D01*
X143992600Y-80213200D02*
X143992600Y-81976600D01*
X144780000Y-82764000D02*
X144780000Y-83820000D01*
X157120000Y-59750000D02*
X159240000Y-59750000D01*
X151026000Y-68834000D02*
X154360000Y-65500000D01*
X142962000Y-80224000D02*
X142138400Y-79400400D01*
%TO.N,/NTC1REF*%
X150090000Y-65260000D02*
X151010000Y-66180000D01*
X145990000Y-65180000D02*
X145990000Y-67250000D01*
X145900000Y-67340000D02*
X142871519Y-67340000D01*
X145990000Y-65180000D02*
X146070000Y-65260000D01*
X139573000Y-80264000D02*
X140589000Y-80264000D01*
X142240000Y-83820000D02*
X142240000Y-81813400D01*
X145990000Y-67250000D02*
X145900000Y-67340000D01*
X139065000Y-79756000D02*
X139573000Y-80264000D01*
X142240000Y-81813400D02*
X140639800Y-80213200D01*
X142871519Y-67340000D02*
X139065000Y-71146519D01*
X139065000Y-71146519D02*
X139065000Y-79756000D01*
X146070000Y-65260000D02*
X150090000Y-65260000D01*
X140589000Y-80264000D02*
X140639800Y-80213200D01*
X151010000Y-66180000D02*
X151010000Y-62940000D01*
%TO.N,/NTC2*%
X132900000Y-70580000D02*
X132900000Y-64790000D01*
X132900000Y-64790000D02*
X137920000Y-59770000D01*
X137230000Y-55200000D02*
X144240000Y-55200000D01*
X135356600Y-79273400D02*
X136347200Y-80264000D01*
X137920000Y-59250000D02*
X137920000Y-55890000D01*
X144240000Y-55200000D02*
X145180000Y-56140000D01*
X137920000Y-59770000D02*
X137920000Y-59250000D01*
X136347200Y-80264000D02*
X137210800Y-80264000D01*
X137210800Y-80264000D02*
X137236200Y-80238600D01*
X135356600Y-73036600D02*
X132900000Y-70580000D01*
X137236200Y-80975200D02*
X137236200Y-80238600D01*
X137920000Y-55890000D02*
X137230000Y-55200000D01*
X139700000Y-83820000D02*
X139700000Y-83439000D01*
X135356600Y-79273400D02*
X135356600Y-73036600D01*
X139700000Y-83439000D02*
X137236200Y-80975200D01*
%TO.N,/NTC2REF*%
X134610000Y-59795000D02*
X134610000Y-59280000D01*
X131300000Y-66960000D02*
X131300000Y-63105000D01*
X132943600Y-80162400D02*
X133934200Y-80162400D01*
X131300000Y-72260000D02*
X132380000Y-73340000D01*
X130740000Y-66400000D02*
X131300000Y-66960000D01*
X133934200Y-80162400D02*
X133934200Y-80594200D01*
X125440000Y-66400000D02*
X130740000Y-66400000D01*
X131300000Y-66960000D02*
X131300000Y-72260000D01*
X131300000Y-63105000D02*
X134610000Y-59795000D01*
X132380000Y-79598800D02*
X132943600Y-80162400D01*
X124780000Y-65740000D02*
X125440000Y-66400000D01*
X133934200Y-80594200D02*
X137160000Y-83820000D01*
X132380000Y-73340000D02*
X132380000Y-79598800D01*
%TO.N,/NTC3*%
X113090000Y-52800000D02*
X113090000Y-56030000D01*
X125857000Y-77393800D02*
X125857000Y-74676000D01*
X134620000Y-83820000D02*
X130962400Y-80162400D01*
X130683000Y-80035400D02*
X128371600Y-77724000D01*
X118110000Y-66929000D02*
X110229000Y-66929000D01*
X130683000Y-80162400D02*
X130683000Y-80035400D01*
X108270000Y-64970000D02*
X108270000Y-62740000D01*
X111210000Y-61140000D02*
X113340000Y-59010000D01*
X126187200Y-77724000D02*
X125857000Y-77393800D01*
X125857000Y-74676000D02*
X118110000Y-66929000D01*
X108270000Y-62740000D02*
X109870000Y-61140000D01*
X128371600Y-77724000D02*
X126187200Y-77724000D01*
X113090000Y-56030000D02*
X113340000Y-56280000D01*
X130962400Y-80162400D02*
X130683000Y-80162400D01*
X113340000Y-59010000D02*
X113340000Y-56280000D01*
X121480000Y-56170000D02*
X113450000Y-56170000D01*
X110229000Y-66929000D02*
X108270000Y-64970000D01*
X109870000Y-61140000D02*
X111210000Y-61140000D01*
X113450000Y-56170000D02*
X113340000Y-56280000D01*
%TO.N,/NTC3REF*%
X104894000Y-64516000D02*
X102616000Y-64516000D01*
X106960000Y-67400000D02*
X107124000Y-67564000D01*
X107124000Y-67564000D02*
X117094000Y-67564000D01*
X124714000Y-75184000D02*
X124714000Y-79248000D01*
X125730000Y-80264000D02*
X127304800Y-80264000D01*
X110200000Y-59210000D02*
X104894000Y-64516000D01*
X132080000Y-83515200D02*
X132080000Y-83820000D01*
X110200000Y-56280000D02*
X110200000Y-59210000D01*
X117094000Y-67564000D02*
X124714000Y-75184000D01*
X127431800Y-80137000D02*
X128701800Y-80137000D01*
X128701800Y-80137000D02*
X132080000Y-83515200D01*
X124714000Y-79248000D02*
X125730000Y-80264000D01*
X127304800Y-80264000D02*
X127431800Y-80137000D01*
X102616000Y-64516000D02*
X102680000Y-64580000D01*
X102680000Y-64580000D02*
X104140000Y-64580000D01*
X104140000Y-64580000D02*
X106960000Y-67400000D01*
%TO.N,/RSDISP*%
X129794000Y-96774000D02*
X132080000Y-99060000D01*
X115570000Y-96774000D02*
X129794000Y-96774000D01*
X114808000Y-101600000D02*
X114808000Y-97536000D01*
X116840000Y-128524000D02*
X117348000Y-129032000D01*
X116840000Y-105664000D02*
X116840000Y-103632000D01*
X116840000Y-105664000D02*
X116840000Y-128524000D01*
X116840000Y-103632000D02*
X114808000Y-101600000D01*
X114808000Y-97536000D02*
X115570000Y-96774000D01*
%TO.N,/EDISP*%
X125730000Y-101854000D02*
X127000000Y-100584000D01*
X121920000Y-103886000D02*
X123952000Y-101854000D01*
X127000000Y-100584000D02*
X127000000Y-99060000D01*
X121920000Y-105664000D02*
X121920000Y-103886000D01*
X123952000Y-101854000D02*
X125730000Y-101854000D01*
%TO.N,/D4DISP*%
X136144000Y-109220000D02*
X135128000Y-108204000D01*
X127762000Y-127000000D02*
X135128000Y-127000000D01*
X135128000Y-108204000D02*
X135128000Y-106172000D01*
X135128000Y-127000000D02*
X136144000Y-125984000D01*
X135128000Y-106172000D02*
X134620000Y-105664000D01*
X136144000Y-125984000D02*
X136144000Y-109220000D01*
X134620000Y-99060000D02*
X134620000Y-105664000D01*
X125730000Y-129032000D02*
X127762000Y-127000000D01*
%TO.N,/D5DISP*%
X137160000Y-124968000D02*
X139700000Y-127508000D01*
X142240000Y-127508000D02*
X144272000Y-129540000D01*
X139700000Y-127508000D02*
X142240000Y-127508000D01*
X137160000Y-105664000D02*
X137160000Y-124968000D01*
X137160000Y-99060000D02*
X137160000Y-105664000D01*
%TO.N,/D6DISP*%
X151892000Y-128016000D02*
X151892000Y-129540000D01*
X151384000Y-127508000D02*
X151892000Y-128016000D01*
X138176000Y-123952000D02*
X140716000Y-126492000D01*
X139700000Y-105664000D02*
X138176000Y-107188000D01*
X139700000Y-99060000D02*
X139700000Y-105664000D01*
X140716000Y-126492000D02*
X144780000Y-126492000D01*
X145796000Y-127508000D02*
X151384000Y-127508000D01*
X144780000Y-126492000D02*
X145796000Y-127508000D01*
X138176000Y-107188000D02*
X138176000Y-123952000D01*
%TO.N,/D7DISP*%
X139192000Y-108712000D02*
X139192000Y-122936000D01*
X139192000Y-122936000D02*
X140716000Y-124460000D01*
X151892000Y-125984000D02*
X155448000Y-129540000D01*
X146812000Y-125984000D02*
X151892000Y-125984000D01*
X140716000Y-124460000D02*
X145288000Y-124460000D01*
X142240000Y-105664000D02*
X139192000Y-108712000D01*
X145288000Y-124460000D02*
X146812000Y-125984000D01*
X142240000Y-99060000D02*
X142240000Y-105664000D01*
%TO.N,Net-(R2-Pad2)*%
X125730000Y-136652000D02*
X125730000Y-140534000D01*
X125730000Y-140534000D02*
X127508000Y-142312000D01*
X129032000Y-136652000D02*
X125730000Y-136652000D01*
X127508000Y-142312000D02*
X121008000Y-142312000D01*
%TO.N,Net-(R4-Pad2)*%
X144272000Y-137160000D02*
X140716000Y-137160000D01*
X138176000Y-142312000D02*
X131676000Y-142312000D01*
X138176000Y-142312000D02*
X140716000Y-139772000D01*
X140716000Y-139772000D02*
X140716000Y-137160000D01*
%TO.N,Net-(R6-Pad2)*%
X148844000Y-142312000D02*
X142344000Y-142312000D01*
X148336000Y-137160000D02*
X148336000Y-141804000D01*
X151892000Y-137160000D02*
X148336000Y-137160000D01*
X148336000Y-141804000D02*
X148844000Y-142312000D01*
%TO.N,Net-(R8-Pad2)*%
X159004000Y-137160000D02*
X159004000Y-141804000D01*
X159004000Y-137160000D02*
X155448000Y-137160000D01*
X159512000Y-142312000D02*
X153012000Y-142312000D01*
X159004000Y-141804000D02*
X159512000Y-142312000D01*
%TO.N,Net-(R10-Pad2)*%
X120904000Y-136652000D02*
X117348000Y-136652000D01*
X116840000Y-137160000D02*
X117348000Y-136652000D01*
X116840000Y-142312000D02*
X110340000Y-142312000D01*
X116840000Y-142312000D02*
X116840000Y-137160000D01*
%TO.N,+12V*%
X169900600Y-86334600D02*
X169875200Y-86360000D01*
X163042600Y-86639400D02*
X164236400Y-87833200D01*
X159550000Y-79190000D02*
X159610000Y-79250000D01*
X178028600Y-88366600D02*
X178028600Y-87985600D01*
X160750000Y-79250000D02*
X163042600Y-81542600D01*
X161380000Y-125950000D02*
X160610000Y-125950000D01*
X175234600Y-89281000D02*
X175361600Y-89281000D01*
X175234600Y-89281000D02*
X177114200Y-89281000D01*
X164236400Y-87833200D02*
X168402000Y-87833200D01*
X163042600Y-81542600D02*
X163042600Y-86639400D01*
X169875200Y-86360000D02*
X169875200Y-91821000D01*
X168402000Y-87833200D02*
X169900600Y-86334600D01*
X161130000Y-119320000D02*
X162180000Y-120370000D01*
X175437800Y-89484200D02*
X175437800Y-92786200D01*
X162180000Y-125150000D02*
X161380000Y-125950000D01*
X159610000Y-79250000D02*
X160750000Y-79250000D01*
X175361600Y-89281000D02*
X175412400Y-89331800D01*
X162180000Y-120370000D02*
X162180000Y-125150000D01*
X160680000Y-119320000D02*
X161130000Y-119320000D01*
X175234600Y-89281000D02*
X175437800Y-89484200D01*
X177114200Y-89281000D02*
X178028600Y-88366600D01*
X170840400Y-92786200D02*
X175437800Y-92786200D01*
X169875200Y-91821000D02*
X170840400Y-92786200D01*
D32*
%TO.N,Net-(J12-Pin_2)*%
X191897000Y-94081600D02*
X191871600Y-94107000D01*
X190500000Y-82804000D02*
X190246000Y-82550000D01*
X185851800Y-89258200D02*
X190500000Y-84610000D01*
X186309000Y-94107000D02*
X185851800Y-93649800D01*
X190246000Y-82550000D02*
X187198000Y-82550000D01*
X185851800Y-93649800D02*
X185851800Y-89258200D01*
X190500000Y-84610000D02*
X190500000Y-82804000D01*
X187198000Y-82550000D02*
X185420000Y-80772000D01*
X185420000Y-78994000D02*
X183388000Y-76962000D01*
X191871600Y-94107000D02*
X186309000Y-94107000D01*
X185420000Y-80772000D02*
X185420000Y-78994000D01*
%TO.N,Net-(J13-Pin_2)*%
X183500000Y-118300000D02*
X183900000Y-118300000D01*
X186400000Y-114300000D02*
X191000000Y-114300000D01*
X183500000Y-117200000D02*
X186400000Y-114300000D01*
X186885000Y-121285000D02*
X191008000Y-121285000D01*
X183900000Y-118300000D02*
X186885000Y-121285000D01*
X191000000Y-114300000D02*
X191008000Y-114292000D01*
X191008000Y-114292000D02*
X191008000Y-109778800D01*
X183500000Y-118300000D02*
X183500000Y-117200000D01*
%TO.N,Net-(J14-Pin_2)*%
X174400000Y-135500000D02*
X174400000Y-139800000D01*
X185000000Y-137100000D02*
X181384000Y-140716000D01*
X186436000Y-134112000D02*
X185000000Y-135548000D01*
X181384000Y-140716000D02*
X178816000Y-140716000D01*
X175316000Y-140716000D02*
X178816000Y-140716000D01*
X178816000Y-140716000D02*
X177292000Y-142240000D01*
X177292000Y-142240000D02*
X177292000Y-143930000D01*
X174400000Y-139800000D02*
X175316000Y-140716000D01*
X187960000Y-134112000D02*
X186436000Y-134112000D01*
X185000000Y-135548000D02*
X185000000Y-137100000D01*
%TO.N,Net-(J15-Pin_2)*%
X193649600Y-64516000D02*
X190500000Y-64516000D01*
X190460000Y-64008000D02*
X190460000Y-58380000D01*
X190460000Y-64476000D02*
X190460000Y-64008000D01*
X190460000Y-58380000D02*
X188468000Y-56388000D01*
X190500000Y-64516000D02*
X190460000Y-64476000D01*
D31*
%TO.N,Net-(Q2-E)*%
X183007000Y-93091000D02*
X182854600Y-93243400D01*
X188468000Y-98602800D02*
X188518800Y-98552000D01*
X183007000Y-98983800D02*
X183388000Y-98602800D01*
X182854600Y-98831400D02*
X183007000Y-98983800D01*
X182854600Y-93243400D02*
X182854600Y-98831400D01*
X183388000Y-98602800D02*
X188468000Y-98602800D01*
%TO.N,Net-(Q3-G)*%
X191287400Y-90932000D02*
X191897000Y-91541600D01*
X188518800Y-90932000D02*
X191287400Y-90932000D01*
%TO.N,Net-(Q8-G)*%
X187690000Y-117250000D02*
X189513000Y-117250000D01*
X189513000Y-117250000D02*
X191008000Y-118745000D01*
%TO.N,Net-(Q10-E)*%
X180610000Y-127400000D02*
X180346000Y-127400000D01*
X180600000Y-122400000D02*
X180570000Y-122430000D01*
X180570000Y-122430000D02*
X180570000Y-127360000D01*
X180346000Y-127400000D02*
X176276000Y-131470000D01*
X180570000Y-127360000D02*
X180610000Y-127400000D01*
%TO.N,Net-(Q12-G)*%
X183998000Y-131572000D02*
X183896000Y-131470000D01*
X187960000Y-131572000D02*
X183998000Y-131572000D01*
%TO.N,Net-(Q13-B)*%
X172745400Y-77622400D02*
X172745400Y-81635600D01*
X174396400Y-76657200D02*
X173710600Y-76657200D01*
X173558200Y-82448400D02*
X173558200Y-87579200D01*
X172313600Y-88823800D02*
X172313600Y-89535000D01*
X173710600Y-76657200D02*
X172745400Y-77622400D01*
X173558200Y-87579200D02*
X172313600Y-88823800D01*
X172745400Y-81635600D02*
X173558200Y-82448400D01*
%TO.N,Net-(Q14-E)*%
X183591200Y-81483200D02*
X183591200Y-82956400D01*
X183642000Y-73660000D02*
X182372000Y-73660000D01*
X183591200Y-82956400D02*
X183565800Y-82981800D01*
X181102000Y-78994000D02*
X183591200Y-81483200D01*
X184150000Y-73152000D02*
X183642000Y-73660000D01*
X182372000Y-73660000D02*
X181102000Y-74930000D01*
X183565800Y-82981800D02*
X183565800Y-87528400D01*
X183565800Y-87528400D02*
X183108600Y-87985600D01*
X181102000Y-74930000D02*
X181102000Y-78994000D01*
%TO.N,Net-(Q16-G)*%
X194818000Y-61976000D02*
X196545200Y-63703200D01*
X196545200Y-71134800D02*
X194528000Y-73152000D01*
X194528000Y-73152000D02*
X194310000Y-73152000D01*
X196545200Y-63703200D02*
X196545200Y-71134800D01*
X193649600Y-61976000D02*
X194818000Y-61976000D01*
D33*
%TO.N,+24V*%
X163068000Y-138176000D02*
X164084000Y-139192000D01*
X161644000Y-133704000D02*
X163068000Y-135128000D01*
X170976000Y-143036000D02*
X171230000Y-143036000D01*
D31*
X170815000Y-69850000D02*
X186690000Y-69850000D01*
D33*
X110515400Y-91998800D02*
X106629200Y-91998800D01*
X112191800Y-81356200D02*
X112191800Y-78232000D01*
X182372000Y-143930000D02*
X189010000Y-143930000D01*
X112622000Y-133450000D02*
X161644000Y-133450000D01*
X167132000Y-139192000D02*
X170976000Y-143036000D01*
X197612000Y-107188000D02*
X197612000Y-78435200D01*
X110236000Y-83312000D02*
X112776000Y-85852000D01*
D31*
X171551600Y-73075800D02*
X171551600Y-79603600D01*
D33*
X190347600Y-77571600D02*
X190246000Y-77470000D01*
X171230000Y-143036000D02*
X171230000Y-143830000D01*
X197612000Y-78435200D02*
X196748400Y-77571600D01*
X106629200Y-91998800D02*
X103124000Y-95504000D01*
D31*
X169595800Y-71120000D02*
X171551600Y-73075800D01*
X190246000Y-75946000D02*
X190246000Y-77470000D01*
X169545000Y-71120000D02*
X169595800Y-71120000D01*
D33*
X103050000Y-111570000D02*
X103050000Y-123878000D01*
D32*
X115316000Y-78232000D02*
X112191800Y-78232000D01*
D33*
X196748400Y-77571600D02*
X190347600Y-77571600D01*
X195122800Y-104698800D02*
X191008000Y-104698800D01*
D31*
X186690000Y-69850000D02*
X189230000Y-72390000D01*
D33*
X197612000Y-107188000D02*
X195122800Y-104698800D01*
D31*
X169545000Y-71120000D02*
X170815000Y-69850000D01*
D33*
X189010000Y-143930000D02*
X192376400Y-140563600D01*
D31*
X189230000Y-72390000D02*
X189230000Y-74930000D01*
X171551600Y-79603600D02*
X169900600Y-81254600D01*
X189230000Y-74930000D02*
X190246000Y-75946000D01*
D33*
X197612000Y-135388000D02*
X197612000Y-107188000D01*
X163068000Y-135128000D02*
X163068000Y-138176000D01*
D34*
X103362000Y-101092000D02*
X103124000Y-101092000D01*
D33*
X110236000Y-83312000D02*
X112191800Y-81356200D01*
X161644000Y-133450000D02*
X161644000Y-133704000D01*
D32*
X112191800Y-78232000D02*
X107391200Y-73431400D01*
D33*
X112776000Y-85852000D02*
X112776000Y-89738200D01*
X164084000Y-139192000D02*
X167132000Y-139192000D01*
X192436400Y-140563600D02*
X197612000Y-135388000D01*
X192376400Y-140563600D02*
X192436400Y-140563600D01*
X103050000Y-123878000D02*
X112622000Y-133450000D01*
X103124000Y-95504000D02*
X103124000Y-101092000D01*
X112776000Y-89738200D02*
X110515400Y-91998800D01*
D31*
%TO.N,Net-(Q1-C)*%
X180390800Y-98907600D02*
X180390800Y-96062800D01*
X175768000Y-97028000D02*
X171094400Y-97028000D01*
X180467000Y-98983800D02*
X180390800Y-98907600D01*
X179832000Y-95504000D02*
X180238400Y-95097600D01*
X180390800Y-96062800D02*
X179832000Y-95504000D01*
X180238400Y-93319600D02*
X180467000Y-93091000D01*
X177292000Y-95504000D02*
X175768000Y-97028000D01*
X179832000Y-95504000D02*
X177292000Y-95504000D01*
X171094400Y-97028000D02*
X168960800Y-99161600D01*
X180238400Y-95097600D02*
X180238400Y-93319600D01*
%TO.N,Net-(Q10-B)*%
X178030000Y-125150000D02*
X178030000Y-127360000D01*
X178060000Y-122400000D02*
X178030000Y-122430000D01*
X178030000Y-127360000D02*
X178070000Y-127400000D01*
X178030000Y-122430000D02*
X178030000Y-125150000D01*
%TO.N,Net-(Q13-C)*%
X181051200Y-82956400D02*
X181051200Y-82473800D01*
X175234600Y-81661000D02*
X174396400Y-80822800D01*
X174396400Y-80822800D02*
X174396400Y-79197200D01*
X180162200Y-83845400D02*
X180162200Y-87579200D01*
X180162200Y-87579200D02*
X180568600Y-87985600D01*
X177774600Y-79197200D02*
X174396400Y-79197200D01*
X181051200Y-82473800D02*
X177774600Y-79197200D01*
X181051200Y-82956400D02*
X180162200Y-83845400D01*
%TO.N,Net-(Q17-B)*%
X166280000Y-75950000D02*
X166755000Y-75950000D01*
X166928800Y-84582000D02*
X165252400Y-86258400D01*
X167513000Y-84582000D02*
X167513000Y-80772000D01*
X167513000Y-84582000D02*
X166928800Y-84582000D01*
X166755000Y-75950000D02*
X169545000Y-78740000D01*
X167513000Y-80772000D02*
X169545000Y-78740000D01*
X169113200Y-84582000D02*
X167513000Y-84582000D01*
X169900600Y-83794600D02*
X169113200Y-84582000D01*
D34*
%TO.N,Net-(C13-Pad2)*%
X178388000Y-74596000D02*
X178816000Y-74168000D01*
X178388000Y-76962000D02*
X178388000Y-74596000D01*
%TO.N,Net-(C16-Pad2)*%
X185460000Y-64008000D02*
X185460000Y-64984000D01*
X185460000Y-64984000D02*
X183388000Y-67056000D01*
D32*
%TO.N,Net-(C15-Pad2)*%
X172800000Y-131700000D02*
X172800000Y-132100000D01*
X172800000Y-132100000D02*
X169400000Y-135500000D01*
%TO.N,Net-(C14-Pad2)*%
X183500000Y-113300000D02*
X183600000Y-113200000D01*
X183600000Y-113200000D02*
X183600000Y-110700000D01*
%TD*%
%TA.AperFunction,Conductor*%
%TO.N,+24V*%
G36*
X199442539Y-50520185D02*
G01*
X199488294Y-50572989D01*
X199499500Y-50624500D01*
X199499500Y-137160000D01*
X189634032Y-137160000D01*
X189684270Y-136977190D01*
X189714259Y-136717422D01*
X189704243Y-136456119D01*
X189654457Y-136199408D01*
X189611922Y-136080978D01*
X189566070Y-135953312D01*
X189566069Y-135953311D01*
X189566068Y-135953309D01*
X189566067Y-135953306D01*
X189441146Y-135723580D01*
X189282622Y-135515616D01*
X189245135Y-135479539D01*
X189210484Y-135418870D01*
X189214133Y-135349096D01*
X189240222Y-135305858D01*
X189332433Y-135206479D01*
X189480228Y-134989704D01*
X189594063Y-134753323D01*
X189608965Y-134705007D01*
X189614309Y-134690829D01*
X189614978Y-134689337D01*
X189624099Y-134656139D01*
X189625142Y-134652560D01*
X189671396Y-134502615D01*
X189676501Y-134468739D01*
X189679546Y-134454376D01*
X189684270Y-134437190D01*
X189693880Y-134353936D01*
X189694445Y-134349689D01*
X189703884Y-134287070D01*
X189710500Y-134243182D01*
X189710500Y-134217117D01*
X189711318Y-134202896D01*
X189714259Y-134177422D01*
X189710591Y-134081728D01*
X189710500Y-134076979D01*
X189710500Y-133980821D01*
X189710500Y-133980818D01*
X189706462Y-133954036D01*
X189705169Y-133940302D01*
X189704243Y-133916121D01*
X189704243Y-133916119D01*
X189689039Y-133837727D01*
X189688173Y-133832697D01*
X189671396Y-133721385D01*
X189660113Y-133684811D01*
X189656873Y-133671867D01*
X189654458Y-133659412D01*
X189654457Y-133659409D01*
X189639983Y-133619108D01*
X189638193Y-133613744D01*
X189594063Y-133470677D01*
X189538498Y-133355294D01*
X189480232Y-133234303D01*
X189480228Y-133234297D01*
X189480228Y-133234296D01*
X189469730Y-133218898D01*
X189448229Y-133152422D01*
X189466082Y-133084871D01*
X189484502Y-133061366D01*
X189487609Y-133058259D01*
X189552712Y-132993156D01*
X189644814Y-132843834D01*
X189699999Y-132677297D01*
X189710500Y-132574509D01*
X189710499Y-130569492D01*
X189699999Y-130466703D01*
X189644814Y-130300166D01*
X189552712Y-130150844D01*
X189428656Y-130026788D01*
X189279334Y-129934686D01*
X189112797Y-129879501D01*
X189112795Y-129879500D01*
X189010010Y-129869000D01*
X186909998Y-129869000D01*
X186909981Y-129869001D01*
X186807203Y-129879500D01*
X186807200Y-129879501D01*
X186640668Y-129934685D01*
X186640663Y-129934687D01*
X186491342Y-130026789D01*
X186367289Y-130150842D01*
X186275187Y-130300163D01*
X186275186Y-130300166D01*
X186220001Y-130466703D01*
X186220001Y-130466704D01*
X186220000Y-130466704D01*
X186213013Y-130535103D01*
X186186617Y-130599794D01*
X186129436Y-130639946D01*
X186089655Y-130646500D01*
X185544000Y-130646500D01*
X185476961Y-130626815D01*
X185431206Y-130574011D01*
X185420000Y-130522500D01*
X185420000Y-125834734D01*
X185439685Y-125767695D01*
X185492489Y-125721940D01*
X185561647Y-125711996D01*
X185585103Y-125718763D01*
X185585308Y-125718135D01*
X185591492Y-125720144D01*
X185605451Y-125724679D01*
X185623428Y-125732126D01*
X185636500Y-125738787D01*
X185636502Y-125738787D01*
X185636503Y-125738788D01*
X185703942Y-125756858D01*
X185710144Y-125758695D01*
X185776518Y-125780262D01*
X185786867Y-125781349D01*
X185791105Y-125781795D01*
X185810242Y-125785342D01*
X185824423Y-125789142D01*
X185894148Y-125792795D01*
X185900572Y-125793300D01*
X185921496Y-125795500D01*
X185942506Y-125795500D01*
X185948995Y-125795670D01*
X186018704Y-125799323D01*
X186033201Y-125797026D01*
X186052599Y-125795500D01*
X186384246Y-125795500D01*
X186451285Y-125815185D01*
X186478532Y-125838965D01*
X186537693Y-125908233D01*
X186590241Y-125969759D01*
X186775823Y-126128261D01*
X186775826Y-126128262D01*
X186983910Y-126255777D01*
X187209381Y-126349169D01*
X187209378Y-126349169D01*
X187209384Y-126349170D01*
X187209388Y-126349172D01*
X187446698Y-126406146D01*
X187690000Y-126425294D01*
X187933302Y-126406146D01*
X188170612Y-126349172D01*
X188396089Y-126255777D01*
X188604179Y-126128259D01*
X188789759Y-125969759D01*
X188948259Y-125784179D01*
X189075777Y-125576089D01*
X189169172Y-125350612D01*
X189226146Y-125113302D01*
X189245294Y-124870000D01*
X189232619Y-124708954D01*
X189246983Y-124640580D01*
X189296034Y-124590823D01*
X189364199Y-124575484D01*
X189429837Y-124599433D01*
X189465172Y-124639990D01*
X189526854Y-124753421D01*
X189685376Y-124961382D01*
X189685378Y-124961384D01*
X189873782Y-125142706D01*
X189873787Y-125142710D01*
X189873790Y-125142713D01*
X189873793Y-125142715D01*
X189873799Y-125142720D01*
X190087670Y-125293153D01*
X190087673Y-125293154D01*
X190087674Y-125293155D01*
X190322016Y-125409185D01*
X190571323Y-125488083D01*
X190829753Y-125528000D01*
X190829757Y-125528000D01*
X191120782Y-125528000D01*
X191120783Y-125528000D01*
X191316227Y-125512995D01*
X191570842Y-125453412D01*
X191813379Y-125355662D01*
X192038151Y-125222033D01*
X192239891Y-125055660D01*
X192413870Y-124860440D01*
X192413872Y-124860435D01*
X192413876Y-124860432D01*
X192556006Y-124640955D01*
X192556009Y-124640951D01*
X192662978Y-124402337D01*
X192732270Y-124150190D01*
X192762259Y-123890422D01*
X192752243Y-123629119D01*
X192702457Y-123372408D01*
X192657654Y-123247663D01*
X192614070Y-123126312D01*
X192614069Y-123126311D01*
X192614068Y-123126309D01*
X192614067Y-123126306D01*
X192489146Y-122896580D01*
X192330622Y-122688616D01*
X192293135Y-122652539D01*
X192258484Y-122591870D01*
X192262133Y-122522096D01*
X192288222Y-122478858D01*
X192380433Y-122379479D01*
X192528228Y-122162704D01*
X192642063Y-121926323D01*
X192656965Y-121878007D01*
X192662309Y-121863829D01*
X192662978Y-121862337D01*
X192672099Y-121829139D01*
X192673142Y-121825560D01*
X192719396Y-121675615D01*
X192724501Y-121641739D01*
X192727546Y-121627376D01*
X192732270Y-121610190D01*
X192741880Y-121526936D01*
X192742445Y-121522689D01*
X192758500Y-121416182D01*
X192758500Y-121390117D01*
X192759318Y-121375896D01*
X192762259Y-121350422D01*
X192758591Y-121254728D01*
X192758500Y-121249979D01*
X192758500Y-121153821D01*
X192758500Y-121153818D01*
X192754462Y-121127036D01*
X192753169Y-121113302D01*
X192752243Y-121089121D01*
X192752243Y-121089119D01*
X192737039Y-121010727D01*
X192736173Y-121005697D01*
X192719396Y-120894385D01*
X192708113Y-120857811D01*
X192704873Y-120844867D01*
X192702458Y-120832412D01*
X192702457Y-120832409D01*
X192687983Y-120792108D01*
X192686193Y-120786744D01*
X192642063Y-120643677D01*
X192630121Y-120618880D01*
X192528232Y-120407303D01*
X192528228Y-120407297D01*
X192528228Y-120407296D01*
X192517730Y-120391898D01*
X192496229Y-120325422D01*
X192514082Y-120257871D01*
X192532502Y-120234366D01*
X192600712Y-120166156D01*
X192692814Y-120016834D01*
X192747999Y-119850297D01*
X192758500Y-119747509D01*
X192758499Y-117742492D01*
X192757285Y-117730612D01*
X192747999Y-117639703D01*
X192747998Y-117639700D01*
X192699486Y-117493302D01*
X192692814Y-117473166D01*
X192600712Y-117323844D01*
X192476656Y-117199788D01*
X192327334Y-117107686D01*
X192160797Y-117052501D01*
X192160795Y-117052500D01*
X192058016Y-117042000D01*
X192058009Y-117042000D01*
X190665217Y-117042000D01*
X190598178Y-117022315D01*
X190577536Y-117005681D01*
X190225833Y-116653978D01*
X190213196Y-116639182D01*
X190204569Y-116627308D01*
X190152697Y-116580602D01*
X190147988Y-116576133D01*
X190133133Y-116561278D01*
X190133125Y-116561271D01*
X190116801Y-116548052D01*
X190111865Y-116543837D01*
X190059992Y-116497130D01*
X190047278Y-116489789D01*
X190031248Y-116478772D01*
X190019849Y-116469542D01*
X190019846Y-116469540D01*
X190019840Y-116469535D01*
X189957654Y-116437849D01*
X189951974Y-116434765D01*
X189891508Y-116399856D01*
X189891504Y-116399854D01*
X189891503Y-116399854D01*
X189877542Y-116395317D01*
X189859577Y-116387876D01*
X189846496Y-116381211D01*
X189811390Y-116371804D01*
X189779054Y-116363139D01*
X189772855Y-116361303D01*
X189706488Y-116339740D01*
X189706482Y-116339738D01*
X189706477Y-116339737D01*
X189706475Y-116339737D01*
X189691884Y-116338203D01*
X189672758Y-116334658D01*
X189658581Y-116330859D01*
X189658576Y-116330858D01*
X189588880Y-116327206D01*
X189582411Y-116326697D01*
X189561504Y-116324500D01*
X189540489Y-116324500D01*
X189533999Y-116324330D01*
X189464297Y-116320677D01*
X189464296Y-116320677D01*
X189464295Y-116320677D01*
X189453521Y-116322383D01*
X189449799Y-116322973D01*
X189430402Y-116324500D01*
X188995754Y-116324500D01*
X188928715Y-116304815D01*
X188901467Y-116281034D01*
X188879255Y-116255028D01*
X188850687Y-116191270D01*
X188861124Y-116122184D01*
X188907255Y-116069708D01*
X188973548Y-116050500D01*
X190964957Y-116050500D01*
X190969592Y-116050586D01*
X191020066Y-116052475D01*
X191065635Y-116054181D01*
X191065635Y-116054180D01*
X191065636Y-116054181D01*
X191161168Y-116043416D01*
X191165776Y-116042984D01*
X191261630Y-116035802D01*
X191286896Y-116030034D01*
X191300605Y-116027706D01*
X191322273Y-116025264D01*
X191326350Y-116024805D01*
X191419214Y-115999921D01*
X191423629Y-115998825D01*
X191517416Y-115977420D01*
X191541540Y-115967951D01*
X191554741Y-115963607D01*
X191579775Y-115956900D01*
X191667889Y-115918455D01*
X191672111Y-115916706D01*
X191761643Y-115881568D01*
X191784102Y-115868600D01*
X191796494Y-115862345D01*
X191820247Y-115851983D01*
X191870447Y-115820439D01*
X191882607Y-115813718D01*
X191885704Y-115812228D01*
X191903773Y-115799907D01*
X191911601Y-115794988D01*
X191988857Y-115750386D01*
X192009126Y-115734221D01*
X192020448Y-115726188D01*
X192042397Y-115712398D01*
X192076284Y-115683235D01*
X192087307Y-115674776D01*
X192102479Y-115664433D01*
X192134800Y-115634442D01*
X192141826Y-115628397D01*
X192162841Y-115611637D01*
X192193981Y-115586805D01*
X192239355Y-115537901D01*
X192245901Y-115531355D01*
X192294805Y-115485981D01*
X192336397Y-115433826D01*
X192342448Y-115426794D01*
X192367318Y-115399992D01*
X192372433Y-115394479D01*
X192382776Y-115379307D01*
X192391232Y-115368286D01*
X192420398Y-115334397D01*
X192434190Y-115312443D01*
X192442231Y-115301112D01*
X192458386Y-115280857D01*
X192502981Y-115203613D01*
X192507913Y-115195765D01*
X192520228Y-115177704D01*
X192521714Y-115174615D01*
X192528437Y-115162451D01*
X192559984Y-115112246D01*
X192570350Y-115088484D01*
X192576608Y-115076089D01*
X192589568Y-115053643D01*
X192600913Y-115024735D01*
X192624693Y-114964146D01*
X192626450Y-114959901D01*
X192664901Y-114871774D01*
X192671609Y-114846736D01*
X192675951Y-114833539D01*
X192685420Y-114809416D01*
X192706824Y-114715636D01*
X192707923Y-114711208D01*
X192708247Y-114710001D01*
X192732805Y-114618350D01*
X192733264Y-114614273D01*
X192735706Y-114592605D01*
X192738035Y-114578894D01*
X192743802Y-114553630D01*
X192750984Y-114457776D01*
X192751417Y-114453160D01*
X192762181Y-114357635D01*
X192758587Y-114261592D01*
X192758500Y-114256955D01*
X192758500Y-111242639D01*
X192778185Y-111175600D01*
X192789269Y-111160883D01*
X192797273Y-111151757D01*
X192961172Y-110906465D01*
X193091652Y-110641877D01*
X193186481Y-110362522D01*
X193244034Y-110073180D01*
X193263329Y-109778800D01*
X193263329Y-109778792D01*
X193244035Y-109484436D01*
X193244034Y-109484420D01*
X193186481Y-109195078D01*
X193091652Y-108915723D01*
X192961172Y-108651136D01*
X192797273Y-108405843D01*
X192754655Y-108357247D01*
X192602758Y-108184041D01*
X192380955Y-107989525D01*
X192135667Y-107825629D01*
X192135660Y-107825625D01*
X191871080Y-107695149D01*
X191591730Y-107600321D01*
X191591724Y-107600319D01*
X191591722Y-107600319D01*
X191302380Y-107542766D01*
X191302373Y-107542765D01*
X191302363Y-107542764D01*
X191008007Y-107523471D01*
X191007993Y-107523471D01*
X190713636Y-107542764D01*
X190713624Y-107542765D01*
X190713620Y-107542766D01*
X190713612Y-107542767D01*
X190713609Y-107542768D01*
X190424283Y-107600318D01*
X190424269Y-107600321D01*
X190144919Y-107695149D01*
X189880334Y-107825628D01*
X189635041Y-107989528D01*
X189413241Y-108184041D01*
X189218728Y-108405841D01*
X189054828Y-108651134D01*
X188924349Y-108915719D01*
X188829521Y-109195069D01*
X188829518Y-109195083D01*
X188771968Y-109484409D01*
X188771964Y-109484436D01*
X188752671Y-109778792D01*
X188752671Y-109778807D01*
X188771964Y-110073163D01*
X188771965Y-110073173D01*
X188771966Y-110073180D01*
X188827026Y-110349991D01*
X188829518Y-110362516D01*
X188829521Y-110362530D01*
X188924349Y-110641880D01*
X189054825Y-110906460D01*
X189054829Y-110906467D01*
X189218721Y-111151749D01*
X189218723Y-111151752D01*
X189218725Y-111151755D01*
X189218727Y-111151757D01*
X189226726Y-111160878D01*
X189256130Y-111224258D01*
X189257500Y-111242639D01*
X189257500Y-112425500D01*
X189237815Y-112492539D01*
X189185011Y-112538294D01*
X189133500Y-112549500D01*
X186435025Y-112549500D01*
X186430389Y-112549413D01*
X186427302Y-112549297D01*
X186334362Y-112545819D01*
X186334359Y-112545819D01*
X186238859Y-112556579D01*
X186234244Y-112557012D01*
X186138375Y-112564196D01*
X186138372Y-112564197D01*
X186113092Y-112569966D01*
X186099394Y-112572293D01*
X186073646Y-112575195D01*
X185980807Y-112600070D01*
X185976311Y-112601185D01*
X185882584Y-112622580D01*
X185882581Y-112622580D01*
X185858459Y-112632048D01*
X185845258Y-112636391D01*
X185833807Y-112639460D01*
X185820227Y-112643099D01*
X185820217Y-112643102D01*
X185732122Y-112681537D01*
X185727841Y-112683311D01*
X185638358Y-112718431D01*
X185615906Y-112731393D01*
X185603503Y-112737654D01*
X185593591Y-112741979D01*
X185524274Y-112750748D01*
X185461219Y-112720649D01*
X185424447Y-112661239D01*
X185420000Y-112628327D01*
X185420000Y-106246644D01*
X189008000Y-106246644D01*
X189014401Y-106306172D01*
X189014403Y-106306179D01*
X189064645Y-106440886D01*
X189064649Y-106440893D01*
X189150809Y-106555987D01*
X189150812Y-106555990D01*
X189265906Y-106642150D01*
X189265913Y-106642154D01*
X189400620Y-106692396D01*
X189400627Y-106692398D01*
X189460155Y-106698799D01*
X189460172Y-106698800D01*
X190758000Y-106698800D01*
X190758000Y-105420602D01*
X190919169Y-105458800D01*
X191052267Y-105458800D01*
X191184461Y-105443349D01*
X191258000Y-105416582D01*
X191258000Y-106698800D01*
X192555828Y-106698800D01*
X192555844Y-106698799D01*
X192615372Y-106692398D01*
X192615379Y-106692396D01*
X192750086Y-106642154D01*
X192750093Y-106642150D01*
X192865187Y-106555990D01*
X192865190Y-106555987D01*
X192951350Y-106440893D01*
X192951354Y-106440886D01*
X193001596Y-106306179D01*
X193001598Y-106306172D01*
X193007999Y-106246644D01*
X193008000Y-106246627D01*
X193008000Y-104948800D01*
X191726483Y-104948800D01*
X191761549Y-104831671D01*
X191771879Y-104654309D01*
X191741029Y-104479346D01*
X191727853Y-104448800D01*
X193008000Y-104448800D01*
X193008000Y-103150972D01*
X193007999Y-103150955D01*
X193001598Y-103091427D01*
X193001596Y-103091420D01*
X192951354Y-102956713D01*
X192951350Y-102956706D01*
X192865190Y-102841612D01*
X192865187Y-102841609D01*
X192750093Y-102755449D01*
X192750086Y-102755445D01*
X192615379Y-102705203D01*
X192615372Y-102705201D01*
X192555844Y-102698800D01*
X191258000Y-102698800D01*
X191258000Y-103976997D01*
X191096831Y-103938800D01*
X190963733Y-103938800D01*
X190831539Y-103954251D01*
X190758000Y-103981017D01*
X190758000Y-102698800D01*
X189460155Y-102698800D01*
X189400627Y-102705201D01*
X189400620Y-102705203D01*
X189265913Y-102755445D01*
X189265906Y-102755449D01*
X189150812Y-102841609D01*
X189150809Y-102841612D01*
X189064649Y-102956706D01*
X189064645Y-102956713D01*
X189014403Y-103091420D01*
X189014401Y-103091427D01*
X189008000Y-103150955D01*
X189008000Y-104448800D01*
X190289517Y-104448800D01*
X190254451Y-104565929D01*
X190244121Y-104743291D01*
X190274971Y-104918254D01*
X190288147Y-104948800D01*
X189008000Y-104948800D01*
X189008000Y-106246644D01*
X185420000Y-106246644D01*
X185420000Y-99652300D01*
X185439685Y-99585261D01*
X185492489Y-99539506D01*
X185544000Y-99528300D01*
X187256432Y-99528300D01*
X187323471Y-99547985D01*
X187350722Y-99571768D01*
X187419041Y-99651759D01*
X187476001Y-99700407D01*
X187604623Y-99810261D01*
X187604626Y-99810262D01*
X187812710Y-99937777D01*
X188038181Y-100031169D01*
X188038178Y-100031169D01*
X188038184Y-100031170D01*
X188038188Y-100031172D01*
X188275498Y-100088146D01*
X188518800Y-100107294D01*
X188762102Y-100088146D01*
X188999412Y-100031172D01*
X189224889Y-99937777D01*
X189432979Y-99810259D01*
X189618559Y-99651759D01*
X189777059Y-99466179D01*
X189904577Y-99258089D01*
X189997972Y-99032612D01*
X190054946Y-98795302D01*
X190074094Y-98552000D01*
X190054946Y-98308698D01*
X189997972Y-98071388D01*
X189992847Y-98059015D01*
X189904577Y-97845910D01*
X189777062Y-97637826D01*
X189777061Y-97637823D01*
X189704871Y-97553300D01*
X189618559Y-97452241D01*
X189464062Y-97320288D01*
X189432976Y-97293738D01*
X189432973Y-97293737D01*
X189224889Y-97166222D01*
X188999418Y-97072830D01*
X188999421Y-97072830D01*
X188893792Y-97047470D01*
X188762102Y-97015854D01*
X188762100Y-97015853D01*
X188762097Y-97015853D01*
X188518800Y-96996706D01*
X188275502Y-97015853D01*
X188038180Y-97072830D01*
X187812710Y-97166222D01*
X187604626Y-97293737D01*
X187604623Y-97293738D01*
X187419041Y-97452241D01*
X187263948Y-97633832D01*
X187205441Y-97672025D01*
X187169658Y-97677300D01*
X185544000Y-97677300D01*
X185476961Y-97657615D01*
X185431206Y-97604811D01*
X185420000Y-97553300D01*
X185420000Y-95820458D01*
X185439685Y-95753419D01*
X185492489Y-95707664D01*
X185561647Y-95697720D01*
X185589295Y-95705027D01*
X185636866Y-95723697D01*
X185641086Y-95725445D01*
X185729225Y-95763900D01*
X185729235Y-95763902D01*
X185729236Y-95763903D01*
X185754246Y-95770604D01*
X185767459Y-95774951D01*
X185791584Y-95784420D01*
X185791590Y-95784421D01*
X185791592Y-95784422D01*
X185847738Y-95797236D01*
X185885301Y-95805810D01*
X185889781Y-95806920D01*
X185982649Y-95831805D01*
X185991937Y-95832851D01*
X186008394Y-95834706D01*
X186022103Y-95837034D01*
X186047370Y-95842802D01*
X186047378Y-95842802D01*
X186047380Y-95842803D01*
X186047375Y-95842803D01*
X186102677Y-95846946D01*
X186143261Y-95849987D01*
X186147819Y-95850414D01*
X186243363Y-95861180D01*
X186339389Y-95857586D01*
X186344025Y-95857500D01*
X190134268Y-95857500D01*
X190201307Y-95877185D01*
X190247062Y-95929989D01*
X190257006Y-95999147D01*
X190247418Y-96032226D01*
X190242022Y-96044261D01*
X190242020Y-96044266D01*
X190172730Y-96296407D01*
X190142741Y-96556178D01*
X190152756Y-96817481D01*
X190202543Y-97074193D01*
X190202543Y-97074195D01*
X190290929Y-97320287D01*
X190290930Y-97320288D01*
X190290932Y-97320292D01*
X190290933Y-97320294D01*
X190362683Y-97452241D01*
X190415856Y-97550023D01*
X190574376Y-97757982D01*
X190574378Y-97757984D01*
X190762782Y-97939306D01*
X190762787Y-97939310D01*
X190762790Y-97939313D01*
X190762793Y-97939315D01*
X190762799Y-97939320D01*
X190976670Y-98089753D01*
X190976673Y-98089754D01*
X190976674Y-98089755D01*
X191211016Y-98205785D01*
X191460323Y-98284683D01*
X191718753Y-98324600D01*
X191718757Y-98324600D01*
X192009782Y-98324600D01*
X192009783Y-98324600D01*
X192205227Y-98309595D01*
X192459842Y-98250012D01*
X192702379Y-98152262D01*
X192927151Y-98018633D01*
X193128891Y-97852260D01*
X193302870Y-97657040D01*
X193302872Y-97657035D01*
X193302876Y-97657032D01*
X193445006Y-97437555D01*
X193445009Y-97437551D01*
X193551978Y-97198937D01*
X193621270Y-96946790D01*
X193651259Y-96687022D01*
X193641243Y-96425719D01*
X193591457Y-96169008D01*
X193546654Y-96044263D01*
X193503070Y-95922912D01*
X193503069Y-95922911D01*
X193503068Y-95922909D01*
X193503067Y-95922906D01*
X193378146Y-95693180D01*
X193219622Y-95485216D01*
X193182964Y-95449936D01*
X193148312Y-95389266D01*
X193151960Y-95319492D01*
X193179884Y-95275130D01*
X193179516Y-95274789D01*
X193181093Y-95273088D01*
X193181093Y-95273087D01*
X193181102Y-95273079D01*
X193224438Y-95222720D01*
X193227464Y-95219335D01*
X193244033Y-95201479D01*
X193245114Y-95199892D01*
X193253579Y-95188857D01*
X193309398Y-95123997D01*
X193448983Y-94901847D01*
X193553900Y-94661375D01*
X193621805Y-94407950D01*
X193649013Y-94166475D01*
X193651259Y-94147022D01*
X193647636Y-94052505D01*
X193641370Y-93885057D01*
X193592594Y-93627267D01*
X193505941Y-93379627D01*
X193398949Y-93177190D01*
X193385028Y-93108723D01*
X193410333Y-93043597D01*
X193420899Y-93031569D01*
X193489712Y-92962756D01*
X193581814Y-92813434D01*
X193636999Y-92646897D01*
X193647500Y-92544109D01*
X193647499Y-90539092D01*
X193636999Y-90436303D01*
X193581814Y-90269766D01*
X193489712Y-90120444D01*
X193365656Y-89996388D01*
X193216334Y-89904286D01*
X193049797Y-89849101D01*
X193049795Y-89849100D01*
X192947010Y-89838600D01*
X190846998Y-89838600D01*
X190846981Y-89838601D01*
X190744203Y-89849100D01*
X190744200Y-89849101D01*
X190577668Y-89904285D01*
X190577663Y-89904287D01*
X190500128Y-89952111D01*
X190441879Y-89988039D01*
X190376784Y-90006500D01*
X189824554Y-90006500D01*
X189757515Y-89986815D01*
X189730267Y-89963034D01*
X189618559Y-89832241D01*
X189618558Y-89832240D01*
X189432976Y-89673738D01*
X189432973Y-89673737D01*
X189224889Y-89546222D01*
X188999418Y-89452830D01*
X188999421Y-89452830D01*
X188864400Y-89420414D01*
X188762102Y-89395854D01*
X188762100Y-89395853D01*
X188762097Y-89395853D01*
X188586971Y-89382071D01*
X188518800Y-89376706D01*
X188518798Y-89376706D01*
X188518797Y-89376706D01*
X188518794Y-89376706D01*
X188517472Y-89376810D01*
X188516977Y-89376706D01*
X188513928Y-89376706D01*
X188513928Y-89376065D01*
X188449095Y-89362443D01*
X188399341Y-89313389D01*
X188384005Y-89245223D01*
X188407957Y-89179587D01*
X188420061Y-89165518D01*
X191713029Y-85872550D01*
X191716312Y-85869387D01*
X191786805Y-85803981D01*
X191846734Y-85728831D01*
X191849694Y-85725257D01*
X191912397Y-85652397D01*
X191926184Y-85630453D01*
X191934224Y-85619121D01*
X191950386Y-85598857D01*
X191998472Y-85515566D01*
X192000832Y-85511650D01*
X192051983Y-85430247D01*
X192062345Y-85406494D01*
X192068600Y-85394102D01*
X192081568Y-85371643D01*
X192116706Y-85282111D01*
X192118455Y-85277889D01*
X192156900Y-85189775D01*
X192163607Y-85164741D01*
X192167951Y-85151540D01*
X192177420Y-85127416D01*
X192198824Y-85033633D01*
X192199924Y-85029205D01*
X192224803Y-84936357D01*
X192224805Y-84936351D01*
X192227706Y-84910594D01*
X192230033Y-84896902D01*
X192235802Y-84871630D01*
X192242986Y-84775742D01*
X192243414Y-84771179D01*
X192254180Y-84675637D01*
X192250587Y-84579611D01*
X192250500Y-84574974D01*
X192250500Y-83602493D01*
X192263288Y-83547649D01*
X192306876Y-83459262D01*
X192329652Y-83413077D01*
X192424481Y-83133722D01*
X192482034Y-82844380D01*
X192501329Y-82550000D01*
X192501329Y-82549992D01*
X192482035Y-82255636D01*
X192482034Y-82255620D01*
X192424481Y-81966278D01*
X192329652Y-81686923D01*
X192199172Y-81422336D01*
X192035273Y-81177043D01*
X191992655Y-81128447D01*
X191840758Y-80955241D01*
X191618955Y-80760725D01*
X191373667Y-80596829D01*
X191373660Y-80596825D01*
X191109080Y-80466349D01*
X190829730Y-80371521D01*
X190829724Y-80371519D01*
X190829722Y-80371519D01*
X190540380Y-80313966D01*
X190540373Y-80313965D01*
X190540363Y-80313964D01*
X190246007Y-80294671D01*
X190245993Y-80294671D01*
X189951636Y-80313964D01*
X189951624Y-80313965D01*
X189951620Y-80313966D01*
X189951612Y-80313967D01*
X189951609Y-80313968D01*
X189662283Y-80371518D01*
X189662269Y-80371521D01*
X189382919Y-80466349D01*
X189118334Y-80596828D01*
X188873041Y-80760728D01*
X188863919Y-80768728D01*
X188800537Y-80798131D01*
X188782160Y-80799500D01*
X187974443Y-80799500D01*
X187907404Y-80779815D01*
X187886762Y-80763181D01*
X187206819Y-80083238D01*
X187173334Y-80021915D01*
X187170500Y-79995557D01*
X187170500Y-79029043D01*
X187170587Y-79024405D01*
X187170833Y-79017844D01*
X188246000Y-79017844D01*
X188252401Y-79077372D01*
X188252403Y-79077379D01*
X188302645Y-79212086D01*
X188302649Y-79212093D01*
X188388809Y-79327187D01*
X188388812Y-79327190D01*
X188503906Y-79413350D01*
X188503913Y-79413354D01*
X188638620Y-79463596D01*
X188638627Y-79463598D01*
X188698155Y-79469999D01*
X188698172Y-79470000D01*
X189996000Y-79470000D01*
X189996000Y-78191802D01*
X190157169Y-78230000D01*
X190290267Y-78230000D01*
X190422461Y-78214549D01*
X190496000Y-78187782D01*
X190496000Y-79470000D01*
X191793828Y-79470000D01*
X191793844Y-79469999D01*
X191853372Y-79463598D01*
X191853379Y-79463596D01*
X191988086Y-79413354D01*
X191988093Y-79413350D01*
X192103187Y-79327190D01*
X192103190Y-79327187D01*
X192189350Y-79212093D01*
X192189354Y-79212086D01*
X192239596Y-79077379D01*
X192239598Y-79077372D01*
X192245999Y-79017844D01*
X192246000Y-79017827D01*
X192246000Y-77720000D01*
X190964483Y-77720000D01*
X190999549Y-77602871D01*
X191009879Y-77425509D01*
X190979029Y-77250546D01*
X190965853Y-77220000D01*
X192246000Y-77220000D01*
X192246000Y-75922172D01*
X192245999Y-75922155D01*
X192239598Y-75862627D01*
X192239596Y-75862620D01*
X192189354Y-75727913D01*
X192189350Y-75727906D01*
X192103190Y-75612812D01*
X192103187Y-75612809D01*
X191988093Y-75526649D01*
X191988086Y-75526645D01*
X191853379Y-75476403D01*
X191853372Y-75476401D01*
X191793844Y-75470000D01*
X190496000Y-75470000D01*
X190496000Y-76748197D01*
X190334831Y-76710000D01*
X190201733Y-76710000D01*
X190069539Y-76725451D01*
X189996000Y-76752217D01*
X189996000Y-75470000D01*
X188698155Y-75470000D01*
X188638627Y-75476401D01*
X188638620Y-75476403D01*
X188503913Y-75526645D01*
X188503906Y-75526649D01*
X188388812Y-75612809D01*
X188388809Y-75612812D01*
X188302649Y-75727906D01*
X188302645Y-75727913D01*
X188252403Y-75862620D01*
X188252401Y-75862627D01*
X188246000Y-75922155D01*
X188246000Y-77220000D01*
X189527517Y-77220000D01*
X189492451Y-77337129D01*
X189482121Y-77514491D01*
X189512971Y-77689454D01*
X189526147Y-77720000D01*
X188246000Y-77720000D01*
X188246000Y-79017844D01*
X187170833Y-79017844D01*
X187174181Y-78928364D01*
X187163417Y-78832840D01*
X187162984Y-78828219D01*
X187155803Y-78732379D01*
X187155802Y-78732376D01*
X187155802Y-78732370D01*
X187150030Y-78707086D01*
X187147706Y-78693402D01*
X187144805Y-78667650D01*
X187144804Y-78667648D01*
X187144804Y-78667643D01*
X187119925Y-78574799D01*
X187118825Y-78570371D01*
X187097420Y-78476584D01*
X187087948Y-78452451D01*
X187083606Y-78439255D01*
X187076900Y-78414226D01*
X187055960Y-78366232D01*
X187038465Y-78326132D01*
X187036691Y-78321849D01*
X187001567Y-78232355D01*
X187001565Y-78232352D01*
X186988615Y-78209923D01*
X186982346Y-78197506D01*
X186978647Y-78189028D01*
X186971983Y-78173753D01*
X186920835Y-78092351D01*
X186918443Y-78088381D01*
X186870386Y-78005143D01*
X186854229Y-77984883D01*
X186846186Y-77973547D01*
X186832398Y-77951603D01*
X186769661Y-77878702D01*
X186766724Y-77875156D01*
X186706809Y-77800023D01*
X186706804Y-77800017D01*
X186636342Y-77734639D01*
X186633002Y-77731421D01*
X185456319Y-76554738D01*
X185422834Y-76493415D01*
X185420000Y-76467057D01*
X185420000Y-74081990D01*
X185438273Y-74017200D01*
X185488814Y-73934726D01*
X185535777Y-73858089D01*
X185629172Y-73632612D01*
X185686146Y-73395302D01*
X185705294Y-73152000D01*
X185686146Y-72908698D01*
X185629172Y-72671388D01*
X185612797Y-72631854D01*
X185535777Y-72445910D01*
X185408262Y-72237826D01*
X185408261Y-72237823D01*
X185372453Y-72195897D01*
X185249759Y-72052241D01*
X185127063Y-71947449D01*
X185064176Y-71893738D01*
X185064173Y-71893737D01*
X184856089Y-71766222D01*
X184630618Y-71672830D01*
X184630621Y-71672830D01*
X184500698Y-71641638D01*
X184393302Y-71615854D01*
X184393300Y-71615853D01*
X184393297Y-71615853D01*
X184150000Y-71596706D01*
X183906702Y-71615853D01*
X183906698Y-71615854D01*
X183808878Y-71639339D01*
X183669380Y-71672830D01*
X183443910Y-71766222D01*
X183235826Y-71893737D01*
X183235823Y-71893738D01*
X183050241Y-72052241D01*
X182891738Y-72237823D01*
X182891737Y-72237825D01*
X182834769Y-72330790D01*
X182782958Y-72377665D01*
X182729042Y-72390000D01*
X180464000Y-72390000D01*
X180396961Y-72370315D01*
X180351206Y-72317511D01*
X180340000Y-72266000D01*
X180340000Y-67056000D01*
X181832706Y-67056000D01*
X181851853Y-67299297D01*
X181908830Y-67536619D01*
X182002222Y-67762089D01*
X182129737Y-67970173D01*
X182129738Y-67970176D01*
X182183449Y-68033063D01*
X182288241Y-68155759D01*
X182431897Y-68278453D01*
X182473823Y-68314261D01*
X182473826Y-68314262D01*
X182681910Y-68441777D01*
X182863347Y-68516930D01*
X182880790Y-68524155D01*
X182907381Y-68535169D01*
X182907378Y-68535169D01*
X182907384Y-68535170D01*
X182907388Y-68535172D01*
X183144698Y-68592146D01*
X183388000Y-68611294D01*
X183631302Y-68592146D01*
X183868612Y-68535172D01*
X184094089Y-68441777D01*
X184302179Y-68314259D01*
X184487759Y-68155759D01*
X184646259Y-67970179D01*
X184718375Y-67852495D01*
X184736417Y-67829609D01*
X186449697Y-66116328D01*
X186461206Y-66106165D01*
X186479744Y-66091738D01*
X186541247Y-66024926D01*
X186544749Y-66021276D01*
X186564902Y-66001125D01*
X186583337Y-65979357D01*
X186586690Y-65975562D01*
X186595138Y-65966386D01*
X186648164Y-65908785D01*
X186661008Y-65889124D01*
X186670188Y-65876813D01*
X186685366Y-65858894D01*
X186731861Y-65780863D01*
X186734505Y-65776627D01*
X186784173Y-65700607D01*
X186793607Y-65679099D01*
X186800627Y-65665458D01*
X186812656Y-65645273D01*
X186845663Y-65560679D01*
X186847609Y-65555986D01*
X186876309Y-65490557D01*
X186884063Y-65472881D01*
X186889826Y-65450116D01*
X186894513Y-65435488D01*
X186903050Y-65413614D01*
X186921680Y-65324762D01*
X186922831Y-65319791D01*
X186943633Y-65237645D01*
X186945108Y-65231821D01*
X186947046Y-65208419D01*
X186949262Y-65193218D01*
X186954081Y-65170237D01*
X186957831Y-65079541D01*
X186958149Y-65074429D01*
X186960500Y-65046067D01*
X186960500Y-65017595D01*
X186960606Y-65012471D01*
X186964357Y-64921778D01*
X186961452Y-64898471D01*
X186960500Y-64883135D01*
X186960500Y-64414452D01*
X186963926Y-64385504D01*
X186964091Y-64384818D01*
X186996146Y-64251302D01*
X187015294Y-64008000D01*
X186996146Y-63764698D01*
X186939172Y-63527388D01*
X186939169Y-63527380D01*
X186845777Y-63301910D01*
X186718262Y-63093826D01*
X186718261Y-63093823D01*
X186629900Y-62990366D01*
X186559759Y-62908241D01*
X186437063Y-62803449D01*
X186374176Y-62749738D01*
X186374173Y-62749737D01*
X186166089Y-62622222D01*
X185940618Y-62528830D01*
X185940621Y-62528830D01*
X185834992Y-62503470D01*
X185703302Y-62471854D01*
X185703300Y-62471853D01*
X185703297Y-62471853D01*
X185460000Y-62452706D01*
X185216702Y-62471853D01*
X184979380Y-62528830D01*
X184753910Y-62622222D01*
X184545826Y-62749737D01*
X184545823Y-62749738D01*
X184360241Y-62908241D01*
X184201738Y-63093823D01*
X184201737Y-63093826D01*
X184074222Y-63301910D01*
X183980830Y-63527380D01*
X183923853Y-63764702D01*
X183904706Y-64008000D01*
X183923853Y-64251299D01*
X183923853Y-64251301D01*
X183936066Y-64302171D01*
X183932575Y-64371953D01*
X183903173Y-64418798D01*
X182614392Y-65707578D01*
X182591503Y-65725623D01*
X182473822Y-65797740D01*
X182473818Y-65797743D01*
X182288241Y-65956241D01*
X182129738Y-66141823D01*
X182129737Y-66141826D01*
X182002222Y-66349910D01*
X181908830Y-66575380D01*
X181851853Y-66812702D01*
X181832706Y-67056000D01*
X180340000Y-67056000D01*
X180340000Y-66856569D01*
X180343426Y-66827621D01*
X180349801Y-66801068D01*
X180352146Y-66791302D01*
X180371294Y-66548000D01*
X180352146Y-66304698D01*
X180343426Y-66268375D01*
X180340000Y-66239429D01*
X180340000Y-57935844D01*
X181388000Y-57935844D01*
X181394401Y-57995372D01*
X181394403Y-57995379D01*
X181444645Y-58130086D01*
X181444649Y-58130093D01*
X181530809Y-58245187D01*
X181530812Y-58245190D01*
X181645906Y-58331350D01*
X181645913Y-58331354D01*
X181780620Y-58381596D01*
X181780627Y-58381598D01*
X181840155Y-58387999D01*
X181840172Y-58388000D01*
X183138000Y-58388000D01*
X183138000Y-57109802D01*
X183299169Y-57148000D01*
X183432267Y-57148000D01*
X183564461Y-57132549D01*
X183638000Y-57105782D01*
X183638000Y-58388000D01*
X184935828Y-58388000D01*
X184935844Y-58387999D01*
X184995372Y-58381598D01*
X184995379Y-58381596D01*
X185130086Y-58331354D01*
X185130093Y-58331350D01*
X185245187Y-58245190D01*
X185245190Y-58245187D01*
X185331350Y-58130093D01*
X185331354Y-58130086D01*
X185381596Y-57995379D01*
X185381598Y-57995372D01*
X185387999Y-57935844D01*
X185388000Y-57935827D01*
X185388000Y-56638000D01*
X184106483Y-56638000D01*
X184141549Y-56520871D01*
X184149287Y-56388007D01*
X186212671Y-56388007D01*
X186231964Y-56682363D01*
X186231965Y-56682373D01*
X186231966Y-56682380D01*
X186258093Y-56813733D01*
X186289518Y-56971716D01*
X186289521Y-56971730D01*
X186384349Y-57251080D01*
X186514825Y-57515660D01*
X186514829Y-57515667D01*
X186678725Y-57760955D01*
X186873241Y-57982758D01*
X187095044Y-58177274D01*
X187325635Y-58331350D01*
X187340335Y-58341172D01*
X187604923Y-58471652D01*
X187884278Y-58566481D01*
X188173620Y-58624034D01*
X188185729Y-58624827D01*
X188251336Y-58648854D01*
X188265300Y-58660881D01*
X188673181Y-59068761D01*
X188706666Y-59130084D01*
X188709500Y-59156442D01*
X188709500Y-64440955D01*
X188709413Y-64445592D01*
X188705818Y-64541636D01*
X188705818Y-64541637D01*
X188716580Y-64637152D01*
X188717013Y-64641768D01*
X188724196Y-64737624D01*
X188724197Y-64737628D01*
X188729964Y-64762893D01*
X188732293Y-64776601D01*
X188735194Y-64802349D01*
X188760069Y-64895185D01*
X188761185Y-64899683D01*
X188782580Y-64993416D01*
X188782582Y-64993421D01*
X188792047Y-65017541D01*
X188796391Y-65030741D01*
X188803097Y-65055768D01*
X188803100Y-65055776D01*
X188841537Y-65143875D01*
X188843311Y-65148158D01*
X188878431Y-65237641D01*
X188878433Y-65237645D01*
X188891387Y-65260082D01*
X188897652Y-65272492D01*
X188905178Y-65289741D01*
X188908017Y-65296247D01*
X188959163Y-65377646D01*
X188961555Y-65381616D01*
X189009615Y-65464858D01*
X189025767Y-65485112D01*
X189033812Y-65496451D01*
X189047602Y-65518397D01*
X189110315Y-65591270D01*
X189113274Y-65594842D01*
X189169569Y-65665435D01*
X189173195Y-65669981D01*
X189206201Y-65700606D01*
X189238690Y-65730750D01*
X189245248Y-65737308D01*
X189302590Y-65799110D01*
X189306019Y-65802805D01*
X189381195Y-65862755D01*
X189384697Y-65865656D01*
X189457603Y-65928398D01*
X189457605Y-65928399D01*
X189457606Y-65928400D01*
X189479545Y-65942184D01*
X189490886Y-65950231D01*
X189511143Y-65966386D01*
X189594418Y-66014465D01*
X189598347Y-66016833D01*
X189659129Y-66055025D01*
X189705421Y-66107358D01*
X189716070Y-66176411D01*
X189698886Y-66224807D01*
X189622221Y-66349912D01*
X189528830Y-66575380D01*
X189471853Y-66812702D01*
X189452706Y-67056000D01*
X189471853Y-67299297D01*
X189528830Y-67536619D01*
X189622222Y-67762089D01*
X189749737Y-67970173D01*
X189749738Y-67970176D01*
X189803449Y-68033063D01*
X189908241Y-68155759D01*
X190051897Y-68278453D01*
X190093823Y-68314261D01*
X190093826Y-68314262D01*
X190301910Y-68441777D01*
X190483347Y-68516930D01*
X190500790Y-68524155D01*
X190527381Y-68535169D01*
X190527378Y-68535169D01*
X190527384Y-68535170D01*
X190527388Y-68535172D01*
X190764698Y-68592146D01*
X191008000Y-68611294D01*
X191251302Y-68592146D01*
X191488612Y-68535172D01*
X191714089Y-68441777D01*
X191922179Y-68314259D01*
X192107759Y-68155759D01*
X192109058Y-68154238D01*
X192109697Y-68153820D01*
X192111211Y-68152307D01*
X192111528Y-68152624D01*
X192167556Y-68116037D01*
X192237423Y-68115527D01*
X192296476Y-68152871D01*
X192301975Y-68159584D01*
X192326976Y-68192382D01*
X192326978Y-68192384D01*
X192515382Y-68373706D01*
X192515387Y-68373710D01*
X192515390Y-68373713D01*
X192515393Y-68373715D01*
X192515399Y-68373720D01*
X192729270Y-68524153D01*
X192729273Y-68524154D01*
X192729274Y-68524155D01*
X192963616Y-68640185D01*
X193212923Y-68719083D01*
X193471353Y-68759000D01*
X193471357Y-68759000D01*
X193762382Y-68759000D01*
X193762383Y-68759000D01*
X193957827Y-68743995D01*
X194212442Y-68684412D01*
X194454979Y-68586662D01*
X194679751Y-68453033D01*
X194881491Y-68286660D01*
X195055470Y-68091440D01*
X195055472Y-68091435D01*
X195055476Y-68091432D01*
X195197606Y-67871955D01*
X195197609Y-67871951D01*
X195304578Y-67633337D01*
X195373870Y-67381190D01*
X195373870Y-67381184D01*
X195373968Y-67380686D01*
X195374055Y-67380516D01*
X195375130Y-67376607D01*
X195375959Y-67376834D01*
X195406056Y-67318620D01*
X195466605Y-67283755D01*
X195536391Y-67287160D01*
X195593259Y-67327754D01*
X195619152Y-67392648D01*
X195619700Y-67404293D01*
X195619700Y-70700082D01*
X195600015Y-70767121D01*
X195583381Y-70787763D01*
X194765289Y-71605854D01*
X194703966Y-71639339D01*
X194648662Y-71638747D01*
X194553300Y-71615853D01*
X194310000Y-71596706D01*
X194066702Y-71615853D01*
X194066698Y-71615854D01*
X193968878Y-71639339D01*
X193829380Y-71672830D01*
X193603910Y-71766222D01*
X193395826Y-71893737D01*
X193395823Y-71893738D01*
X193210241Y-72052241D01*
X193051738Y-72237823D01*
X193051737Y-72237826D01*
X192924222Y-72445910D01*
X192830830Y-72671380D01*
X192773853Y-72908702D01*
X192754706Y-73152000D01*
X192773853Y-73395297D01*
X192773853Y-73395300D01*
X192773854Y-73395302D01*
X192817926Y-73578874D01*
X192830830Y-73632619D01*
X192924222Y-73858089D01*
X193051737Y-74066173D01*
X193051738Y-74066176D01*
X193051741Y-74066179D01*
X193210241Y-74251759D01*
X193300358Y-74328726D01*
X193395823Y-74410261D01*
X193395826Y-74410262D01*
X193603910Y-74537777D01*
X193829381Y-74631169D01*
X193829378Y-74631169D01*
X193829384Y-74631170D01*
X193829388Y-74631172D01*
X194066698Y-74688146D01*
X194310000Y-74707294D01*
X194553302Y-74688146D01*
X194790612Y-74631172D01*
X195016089Y-74537777D01*
X195224179Y-74410259D01*
X195409759Y-74251759D01*
X195568259Y-74066179D01*
X195695777Y-73858089D01*
X195789172Y-73632612D01*
X195846146Y-73395302D01*
X195864134Y-73166733D01*
X195889018Y-73101446D01*
X195900064Y-73088789D01*
X197141224Y-71847629D01*
X197156011Y-71835000D01*
X197167892Y-71826369D01*
X197214606Y-71774486D01*
X197219037Y-71769816D01*
X197233925Y-71754930D01*
X197247157Y-71738587D01*
X197251344Y-71733684D01*
X197298070Y-71681792D01*
X197305408Y-71669081D01*
X197316430Y-71653043D01*
X197325665Y-71641640D01*
X197357355Y-71579444D01*
X197360439Y-71573764D01*
X197395344Y-71513308D01*
X197399879Y-71499349D01*
X197407325Y-71481374D01*
X197408738Y-71478598D01*
X197413988Y-71468297D01*
X197432056Y-71400865D01*
X197433888Y-71394676D01*
X197455462Y-71328282D01*
X197456995Y-71313685D01*
X197460538Y-71294571D01*
X197464342Y-71280377D01*
X197467995Y-71210653D01*
X197468501Y-71204224D01*
X197470700Y-71183304D01*
X197470700Y-71162293D01*
X197470870Y-71155804D01*
X197474523Y-71086096D01*
X197472226Y-71071598D01*
X197470700Y-71052201D01*
X197470700Y-63785799D01*
X197472227Y-63766399D01*
X197472496Y-63764702D01*
X197474523Y-63751904D01*
X197470870Y-63682199D01*
X197470700Y-63675710D01*
X197470700Y-63654700D01*
X197470700Y-63654696D01*
X197468497Y-63633746D01*
X197467994Y-63627355D01*
X197464341Y-63557623D01*
X197460542Y-63543444D01*
X197456996Y-63524320D01*
X197455462Y-63509718D01*
X197433884Y-63443310D01*
X197432051Y-63437118D01*
X197413988Y-63369703D01*
X197407325Y-63356626D01*
X197399878Y-63338647D01*
X197395345Y-63324696D01*
X197395344Y-63324692D01*
X197360440Y-63264237D01*
X197357350Y-63258545D01*
X197325664Y-63196358D01*
X197316428Y-63184952D01*
X197305409Y-63168919D01*
X197302763Y-63164337D01*
X197298070Y-63156208D01*
X197271984Y-63127236D01*
X197251371Y-63104343D01*
X197247156Y-63099408D01*
X197233931Y-63083077D01*
X197233921Y-63083066D01*
X197219065Y-63068210D01*
X197214596Y-63063501D01*
X197167893Y-63011632D01*
X197167892Y-63011631D01*
X197156011Y-63002999D01*
X197141221Y-62990366D01*
X195530833Y-61379978D01*
X195518196Y-61365182D01*
X195509569Y-61353308D01*
X195457697Y-61306602D01*
X195452988Y-61302133D01*
X195436418Y-61285563D01*
X195402933Y-61224240D01*
X195400099Y-61197882D01*
X195400099Y-60973498D01*
X195400098Y-60973481D01*
X195389599Y-60870703D01*
X195389598Y-60870700D01*
X195334414Y-60704166D01*
X195242312Y-60554844D01*
X195118256Y-60430788D01*
X194968934Y-60338686D01*
X194802397Y-60283501D01*
X194802395Y-60283500D01*
X194699610Y-60273000D01*
X192599598Y-60273000D01*
X192599581Y-60273001D01*
X192496803Y-60283500D01*
X192496800Y-60283501D01*
X192373504Y-60324358D01*
X192303676Y-60326760D01*
X192243634Y-60291028D01*
X192212441Y-60228508D01*
X192210500Y-60206652D01*
X192210500Y-58415025D01*
X192210587Y-58410388D01*
X192214180Y-58314363D01*
X192203414Y-58218819D01*
X192202985Y-58214237D01*
X192195803Y-58118377D01*
X192195802Y-58118373D01*
X192195802Y-58118370D01*
X192190034Y-58093103D01*
X192187706Y-58079394D01*
X192184805Y-58053652D01*
X192184805Y-58053649D01*
X192159920Y-57960781D01*
X192158809Y-57956296D01*
X192137422Y-57862592D01*
X192137421Y-57862590D01*
X192137420Y-57862584D01*
X192127951Y-57838458D01*
X192123604Y-57825246D01*
X192116903Y-57800236D01*
X192116902Y-57800235D01*
X192116900Y-57800225D01*
X192078445Y-57712086D01*
X192076697Y-57707866D01*
X192041568Y-57618357D01*
X192028604Y-57595904D01*
X192022345Y-57583505D01*
X192012561Y-57561079D01*
X192011983Y-57559753D01*
X191960838Y-57478358D01*
X191958447Y-57474388D01*
X191932533Y-57429504D01*
X191910386Y-57391143D01*
X191894224Y-57370877D01*
X191886178Y-57359536D01*
X191872397Y-57337603D01*
X191809705Y-57264753D01*
X191806747Y-57261183D01*
X191746806Y-57186020D01*
X191676328Y-57120626D01*
X191672989Y-57117409D01*
X190740881Y-56185300D01*
X190707396Y-56123977D01*
X190704828Y-56105735D01*
X190704034Y-56093620D01*
X190646481Y-55804278D01*
X190551652Y-55524923D01*
X190421172Y-55260336D01*
X190300833Y-55080236D01*
X192395793Y-55080236D01*
X192425391Y-55399651D01*
X192425392Y-55399657D01*
X192494018Y-55713013D01*
X192526181Y-55804283D01*
X192600634Y-56015564D01*
X192743621Y-56302721D01*
X192920812Y-56570130D01*
X193129522Y-56813737D01*
X193366586Y-57029849D01*
X193366589Y-57029851D01*
X193628405Y-57215187D01*
X193628415Y-57215193D01*
X193911016Y-57366948D01*
X193911022Y-57366950D01*
X193911029Y-57366954D01*
X194072490Y-57429504D01*
X194210144Y-57482832D01*
X194210147Y-57482832D01*
X194210153Y-57482835D01*
X194521251Y-57561079D01*
X194640634Y-57575861D01*
X194839602Y-57600500D01*
X194839607Y-57600500D01*
X195080112Y-57600500D01*
X195080126Y-57600500D01*
X195320178Y-57585694D01*
X195635503Y-57526750D01*
X195941194Y-57429502D01*
X196232618Y-57295426D01*
X196505356Y-57126554D01*
X196755275Y-56925445D01*
X196978585Y-56695148D01*
X197171903Y-56439155D01*
X197332296Y-56161345D01*
X197457334Y-55865931D01*
X197545122Y-55557390D01*
X197594328Y-55240400D01*
X197604206Y-54919765D01*
X197574608Y-54600347D01*
X197574607Y-54600342D01*
X197505981Y-54286986D01*
X197458401Y-54151966D01*
X197399366Y-53984436D01*
X197256379Y-53697279D01*
X197079188Y-53429870D01*
X196870478Y-53186263D01*
X196701049Y-53031808D01*
X196633420Y-52970156D01*
X196633410Y-52970148D01*
X196371594Y-52784812D01*
X196371584Y-52784806D01*
X196088983Y-52633051D01*
X196088973Y-52633047D01*
X196088971Y-52633046D01*
X196020805Y-52606638D01*
X195789855Y-52517167D01*
X195789851Y-52517166D01*
X195478745Y-52438920D01*
X195160398Y-52399500D01*
X195160393Y-52399500D01*
X194919874Y-52399500D01*
X194867156Y-52402751D01*
X194679824Y-52414305D01*
X194364499Y-52473249D01*
X194364497Y-52473250D01*
X194058814Y-52570495D01*
X194058810Y-52570496D01*
X194058806Y-52570498D01*
X193884928Y-52650494D01*
X193767381Y-52704574D01*
X193494656Y-52873437D01*
X193494636Y-52873451D01*
X193244728Y-53074551D01*
X193021413Y-53304853D01*
X192828095Y-53560847D01*
X192667701Y-53838660D01*
X192542668Y-54134062D01*
X192542660Y-54134086D01*
X192454879Y-54442602D01*
X192454878Y-54442607D01*
X192405672Y-54759592D01*
X192405671Y-54759603D01*
X192395793Y-55080236D01*
X190300833Y-55080236D01*
X190257273Y-55015043D01*
X190173716Y-54919765D01*
X190062758Y-54793241D01*
X189840955Y-54598725D01*
X189595667Y-54434829D01*
X189595660Y-54434825D01*
X189331080Y-54304349D01*
X189051730Y-54209521D01*
X189051724Y-54209519D01*
X189051722Y-54209519D01*
X188762380Y-54151966D01*
X188762373Y-54151965D01*
X188762363Y-54151964D01*
X188468007Y-54132671D01*
X188467993Y-54132671D01*
X188173636Y-54151964D01*
X188173624Y-54151965D01*
X188173620Y-54151966D01*
X188173612Y-54151967D01*
X188173609Y-54151968D01*
X187884283Y-54209518D01*
X187884269Y-54209521D01*
X187604919Y-54304349D01*
X187340334Y-54434828D01*
X187095041Y-54598728D01*
X186873241Y-54793241D01*
X186678728Y-55015041D01*
X186514828Y-55260334D01*
X186384349Y-55524919D01*
X186289521Y-55804269D01*
X186289518Y-55804283D01*
X186231968Y-56093609D01*
X186231964Y-56093636D01*
X186212671Y-56387992D01*
X186212671Y-56388007D01*
X184149287Y-56388007D01*
X184151879Y-56343509D01*
X184121029Y-56168546D01*
X184107853Y-56138000D01*
X185388000Y-56138000D01*
X185388000Y-54840172D01*
X185387999Y-54840155D01*
X185381598Y-54780627D01*
X185381596Y-54780620D01*
X185331354Y-54645913D01*
X185331350Y-54645906D01*
X185245190Y-54530812D01*
X185245187Y-54530809D01*
X185130093Y-54444649D01*
X185130086Y-54444645D01*
X184995379Y-54394403D01*
X184995372Y-54394401D01*
X184935844Y-54388000D01*
X183638000Y-54388000D01*
X183638000Y-55666197D01*
X183476831Y-55628000D01*
X183343733Y-55628000D01*
X183211539Y-55643451D01*
X183138000Y-55670217D01*
X183138000Y-54388000D01*
X181840155Y-54388000D01*
X181780627Y-54394401D01*
X181780620Y-54394403D01*
X181645913Y-54444645D01*
X181645906Y-54444649D01*
X181530812Y-54530809D01*
X181530809Y-54530812D01*
X181444649Y-54645906D01*
X181444645Y-54645913D01*
X181394403Y-54780620D01*
X181394401Y-54780627D01*
X181388000Y-54840155D01*
X181388000Y-56138000D01*
X182669517Y-56138000D01*
X182634451Y-56255129D01*
X182624121Y-56432491D01*
X182654971Y-56607454D01*
X182668147Y-56638000D01*
X181388000Y-56638000D01*
X181388000Y-57935844D01*
X180340000Y-57935844D01*
X180340000Y-50624500D01*
X180359685Y-50557461D01*
X180412489Y-50511706D01*
X180464000Y-50500500D01*
X199375500Y-50500500D01*
X199442539Y-50520185D01*
G37*
%TD.AperFunction*%
%TD*%
%TA.AperFunction,Conductor*%
%TO.N,+24V*%
G36*
X106651034Y-101151353D02*
G01*
X106717306Y-101173473D01*
X106761101Y-101227913D01*
X106770500Y-101275269D01*
X106770500Y-107310402D01*
X106768973Y-107329801D01*
X106766677Y-107344295D01*
X106770330Y-107413999D01*
X106770500Y-107420489D01*
X106770500Y-107441504D01*
X106772697Y-107462411D01*
X106773206Y-107468880D01*
X106776858Y-107538576D01*
X106776859Y-107538581D01*
X106780658Y-107552758D01*
X106784203Y-107571884D01*
X106785463Y-107583870D01*
X106785738Y-107586482D01*
X106785740Y-107586488D01*
X106807303Y-107652855D01*
X106809139Y-107659054D01*
X106817804Y-107691390D01*
X106827211Y-107726496D01*
X106833876Y-107739577D01*
X106841317Y-107757542D01*
X106845854Y-107771503D01*
X106845856Y-107771508D01*
X106880759Y-107831962D01*
X106883849Y-107837654D01*
X106915535Y-107899840D01*
X106915540Y-107899846D01*
X106915542Y-107899849D01*
X106924772Y-107911248D01*
X106935789Y-107927278D01*
X106943130Y-107939992D01*
X106989837Y-107991865D01*
X106994052Y-107996801D01*
X107007271Y-108013125D01*
X107007278Y-108013133D01*
X107022133Y-108027988D01*
X107026602Y-108032697D01*
X107047375Y-108055768D01*
X107077605Y-108118760D01*
X107079224Y-108139319D01*
X107061582Y-111914706D01*
X107041584Y-111981653D01*
X106988567Y-112027161D01*
X106936310Y-112038120D01*
X100623227Y-111973317D01*
X100556393Y-111952946D01*
X100511183Y-111899675D01*
X100500500Y-111849324D01*
X100500500Y-105664007D01*
X101465571Y-105664007D01*
X101484864Y-105958363D01*
X101484865Y-105958373D01*
X101484866Y-105958380D01*
X101484868Y-105958390D01*
X101542418Y-106247716D01*
X101542421Y-106247730D01*
X101637249Y-106527080D01*
X101767725Y-106791660D01*
X101767729Y-106791667D01*
X101931625Y-107036955D01*
X102126141Y-107258758D01*
X102347944Y-107453274D01*
X102475608Y-107538576D01*
X102593235Y-107617172D01*
X102857823Y-107747652D01*
X103137178Y-107842481D01*
X103426520Y-107900034D01*
X103454788Y-107901886D01*
X103720893Y-107919329D01*
X103720900Y-107919329D01*
X103720907Y-107919329D01*
X103956575Y-107903881D01*
X104015280Y-107900034D01*
X104304622Y-107842481D01*
X104583977Y-107747652D01*
X104848565Y-107617172D01*
X105093857Y-107453273D01*
X105315658Y-107258758D01*
X105510173Y-107036957D01*
X105674072Y-106791665D01*
X105804552Y-106527077D01*
X105899381Y-106247722D01*
X105956934Y-105958380D01*
X105976229Y-105664000D01*
X105976229Y-105663992D01*
X105956935Y-105369636D01*
X105956934Y-105369620D01*
X105899381Y-105080278D01*
X105804552Y-104800923D01*
X105674072Y-104536336D01*
X105510173Y-104291043D01*
X105467555Y-104242447D01*
X105315658Y-104069241D01*
X105093855Y-103874725D01*
X104848567Y-103710829D01*
X104848560Y-103710825D01*
X104583980Y-103580349D01*
X104304630Y-103485521D01*
X104304624Y-103485519D01*
X104304622Y-103485519D01*
X104015280Y-103427966D01*
X104015273Y-103427965D01*
X104015263Y-103427964D01*
X103720907Y-103408671D01*
X103720893Y-103408671D01*
X103426536Y-103427964D01*
X103426524Y-103427965D01*
X103426520Y-103427966D01*
X103426512Y-103427967D01*
X103426509Y-103427968D01*
X103137183Y-103485518D01*
X103137169Y-103485521D01*
X102857819Y-103580349D01*
X102593234Y-103710828D01*
X102347941Y-103874728D01*
X102126141Y-104069241D01*
X101931628Y-104291041D01*
X101767728Y-104536334D01*
X101637249Y-104800919D01*
X101542421Y-105080269D01*
X101542418Y-105080283D01*
X101484868Y-105369609D01*
X101484864Y-105369636D01*
X101465571Y-105663992D01*
X101465571Y-105664007D01*
X100500500Y-105664007D01*
X100500500Y-101055087D01*
X100520185Y-100988048D01*
X100572989Y-100942293D01*
X100629028Y-100931170D01*
X106651034Y-101151353D01*
G37*
%TD.AperFunction*%
%TD*%
%TA.AperFunction,Conductor*%
%TO.N,+24V*%
G36*
X168863829Y-137166958D02*
G01*
X168875970Y-137171206D01*
X168945667Y-137195594D01*
X168945676Y-137195595D01*
X168945677Y-137195596D01*
X169124005Y-137229337D01*
X169203457Y-137244370D01*
X169465636Y-137254181D01*
X169726350Y-137224805D01*
X169952438Y-137164225D01*
X169984532Y-137160000D01*
X172525500Y-137160000D01*
X172592539Y-137179685D01*
X172638294Y-137232489D01*
X172649500Y-137284000D01*
X172649500Y-139764955D01*
X172649413Y-139769592D01*
X172645818Y-139865636D01*
X172645818Y-139865637D01*
X172656580Y-139961152D01*
X172657013Y-139965768D01*
X172664196Y-140061624D01*
X172664197Y-140061628D01*
X172669964Y-140086893D01*
X172672293Y-140100601D01*
X172675194Y-140126349D01*
X172700069Y-140219185D01*
X172701185Y-140223683D01*
X172722580Y-140317416D01*
X172722582Y-140317421D01*
X172732047Y-140341541D01*
X172736391Y-140354741D01*
X172743097Y-140379768D01*
X172743100Y-140379776D01*
X172781537Y-140467875D01*
X172783311Y-140472158D01*
X172818431Y-140561641D01*
X172818433Y-140561645D01*
X172831387Y-140584082D01*
X172837652Y-140596492D01*
X172848014Y-140620241D01*
X172848017Y-140620247D01*
X172899163Y-140701646D01*
X172901555Y-140705616D01*
X172949615Y-140788858D01*
X172965767Y-140809112D01*
X172973812Y-140820451D01*
X172987602Y-140842397D01*
X173050315Y-140915270D01*
X173053274Y-140918842D01*
X173113195Y-140993981D01*
X173113196Y-140993982D01*
X173183656Y-141059359D01*
X173186996Y-141062577D01*
X174053421Y-141929002D01*
X174056639Y-141932342D01*
X174122017Y-142002804D01*
X174122023Y-142002809D01*
X174197156Y-142062724D01*
X174200702Y-142065661D01*
X174273603Y-142128398D01*
X174273605Y-142128399D01*
X174273606Y-142128400D01*
X174295545Y-142142184D01*
X174306886Y-142150231D01*
X174327143Y-142166386D01*
X174410419Y-142214465D01*
X174414324Y-142216818D01*
X174495754Y-142267984D01*
X174519520Y-142278353D01*
X174531904Y-142284605D01*
X174554357Y-142297568D01*
X174643871Y-142332699D01*
X174648092Y-142334448D01*
X174736226Y-142372901D01*
X174736227Y-142372901D01*
X174736229Y-142372902D01*
X174748298Y-142376135D01*
X174761263Y-142379609D01*
X174774477Y-142383958D01*
X174798570Y-142393415D01*
X174798575Y-142393416D01*
X174798584Y-142393420D01*
X174892277Y-142414805D01*
X174896774Y-142415920D01*
X174989650Y-142440806D01*
X175015413Y-142443708D01*
X175029089Y-142446031D01*
X175054370Y-142451802D01*
X175054378Y-142451802D01*
X175054380Y-142451803D01*
X175096960Y-142454993D01*
X175150227Y-142458984D01*
X175154800Y-142459412D01*
X175250364Y-142470181D01*
X175326092Y-142467347D01*
X175393821Y-142484510D01*
X175441519Y-142535566D01*
X175454042Y-142604304D01*
X175433832Y-142660150D01*
X175338830Y-142802331D01*
X175208349Y-143066919D01*
X175113521Y-143346269D01*
X175113518Y-143346283D01*
X175055968Y-143635609D01*
X175055964Y-143635636D01*
X175036671Y-143929992D01*
X175036671Y-143930007D01*
X175055964Y-144224363D01*
X175055965Y-144224373D01*
X175055966Y-144224380D01*
X175055968Y-144224390D01*
X175113518Y-144513716D01*
X175113521Y-144513730D01*
X175208349Y-144793080D01*
X175338825Y-145057660D01*
X175338829Y-145057667D01*
X175502725Y-145302955D01*
X175697241Y-145524758D01*
X175919044Y-145719274D01*
X176138505Y-145865913D01*
X176164335Y-145883172D01*
X176428923Y-146013652D01*
X176708278Y-146108481D01*
X176997620Y-146166034D01*
X177025888Y-146167886D01*
X177291993Y-146185329D01*
X177292000Y-146185329D01*
X177292007Y-146185329D01*
X177527675Y-146169881D01*
X177586380Y-146166034D01*
X177875722Y-146108481D01*
X178155077Y-146013652D01*
X178419665Y-145883172D01*
X178664957Y-145719273D01*
X178886758Y-145524758D01*
X179081273Y-145302957D01*
X179245172Y-145057665D01*
X179375652Y-144793077D01*
X179470481Y-144513722D01*
X179528034Y-144224380D01*
X179534588Y-144124390D01*
X179547329Y-143930007D01*
X179547329Y-143929992D01*
X179528035Y-143635636D01*
X179528034Y-143635620D01*
X179470481Y-143346278D01*
X179375652Y-143066923D01*
X179271284Y-142855287D01*
X179259288Y-142786456D01*
X179286410Y-142722065D01*
X179294795Y-142712784D01*
X179504763Y-142502816D01*
X179566085Y-142469334D01*
X179592443Y-142466500D01*
X180248000Y-142466500D01*
X180315039Y-142486185D01*
X180360794Y-142538989D01*
X180372000Y-142590500D01*
X180372000Y-143680000D01*
X181653517Y-143680000D01*
X181618451Y-143797129D01*
X181608121Y-143974491D01*
X181638971Y-144149454D01*
X181652147Y-144180000D01*
X180372000Y-144180000D01*
X180372000Y-145477844D01*
X180378401Y-145537372D01*
X180378403Y-145537379D01*
X180428645Y-145672086D01*
X180428649Y-145672093D01*
X180514809Y-145787187D01*
X180514812Y-145787190D01*
X180629906Y-145873350D01*
X180629913Y-145873354D01*
X180764620Y-145923596D01*
X180764627Y-145923598D01*
X180824155Y-145929999D01*
X180824172Y-145930000D01*
X182122000Y-145930000D01*
X182122000Y-144651802D01*
X182283169Y-144690000D01*
X182416267Y-144690000D01*
X182548461Y-144674549D01*
X182622000Y-144647782D01*
X182622000Y-145930000D01*
X183919828Y-145930000D01*
X183919844Y-145929999D01*
X183979372Y-145923598D01*
X183979379Y-145923596D01*
X184114086Y-145873354D01*
X184114093Y-145873350D01*
X184229187Y-145787190D01*
X184229190Y-145787187D01*
X184315350Y-145672093D01*
X184315354Y-145672086D01*
X184365596Y-145537379D01*
X184365598Y-145537372D01*
X184371999Y-145477844D01*
X184372000Y-145477827D01*
X184372000Y-145080236D01*
X192395793Y-145080236D01*
X192425391Y-145399651D01*
X192425392Y-145399657D01*
X192494018Y-145713013D01*
X192568226Y-145923596D01*
X192600634Y-146015564D01*
X192743621Y-146302721D01*
X192920812Y-146570130D01*
X193129522Y-146813737D01*
X193366586Y-147029849D01*
X193366589Y-147029851D01*
X193628405Y-147215187D01*
X193628415Y-147215193D01*
X193911016Y-147366948D01*
X193911022Y-147366950D01*
X193911029Y-147366954D01*
X194072490Y-147429504D01*
X194210144Y-147482832D01*
X194210147Y-147482832D01*
X194210153Y-147482835D01*
X194521251Y-147561079D01*
X194640634Y-147575861D01*
X194839602Y-147600500D01*
X194839607Y-147600500D01*
X195080112Y-147600500D01*
X195080126Y-147600500D01*
X195320178Y-147585694D01*
X195635503Y-147526750D01*
X195941194Y-147429502D01*
X196232618Y-147295426D01*
X196505356Y-147126554D01*
X196755275Y-146925445D01*
X196978585Y-146695148D01*
X197171903Y-146439155D01*
X197332296Y-146161345D01*
X197457334Y-145865931D01*
X197545122Y-145557390D01*
X197594328Y-145240400D01*
X197604206Y-144919765D01*
X197574608Y-144600347D01*
X197556170Y-144516157D01*
X197505981Y-144286986D01*
X197457516Y-144149454D01*
X197399366Y-143984436D01*
X197256379Y-143697279D01*
X197079188Y-143429870D01*
X196870478Y-143186263D01*
X196701049Y-143031808D01*
X196633420Y-142970156D01*
X196633410Y-142970148D01*
X196371594Y-142784812D01*
X196371584Y-142784806D01*
X196088983Y-142633051D01*
X196088973Y-142633047D01*
X196088971Y-142633046D01*
X195979147Y-142590500D01*
X195789855Y-142517167D01*
X195789851Y-142517166D01*
X195478745Y-142438920D01*
X195160398Y-142399500D01*
X195160393Y-142399500D01*
X194919874Y-142399500D01*
X194867156Y-142402751D01*
X194679824Y-142414305D01*
X194364499Y-142473249D01*
X194364497Y-142473250D01*
X194058814Y-142570495D01*
X194058810Y-142570496D01*
X194058806Y-142570498D01*
X193884928Y-142650494D01*
X193767381Y-142704574D01*
X193494656Y-142873437D01*
X193494636Y-142873451D01*
X193244728Y-143074551D01*
X193021413Y-143304853D01*
X192828095Y-143560847D01*
X192667701Y-143838660D01*
X192542668Y-144134062D01*
X192542660Y-144134086D01*
X192454879Y-144442602D01*
X192454878Y-144442607D01*
X192405672Y-144759592D01*
X192405671Y-144759603D01*
X192395793Y-145080236D01*
X184372000Y-145080236D01*
X184372000Y-144180000D01*
X183090483Y-144180000D01*
X183125549Y-144062871D01*
X183135879Y-143885509D01*
X183105029Y-143710546D01*
X183091853Y-143680000D01*
X184372000Y-143680000D01*
X184372000Y-142382172D01*
X184371999Y-142382155D01*
X184365598Y-142322627D01*
X184365596Y-142322620D01*
X184315354Y-142187913D01*
X184315350Y-142187906D01*
X184229190Y-142072812D01*
X184229187Y-142072809D01*
X184114093Y-141986649D01*
X184114086Y-141986645D01*
X183979379Y-141936403D01*
X183979372Y-141936401D01*
X183919844Y-141930000D01*
X182944942Y-141930000D01*
X182877903Y-141910315D01*
X182832148Y-141857511D01*
X182822204Y-141788353D01*
X182851229Y-141724797D01*
X182857261Y-141718319D01*
X184513956Y-140061624D01*
X186213029Y-138362550D01*
X186216312Y-138359387D01*
X186286805Y-138293981D01*
X186346739Y-138218825D01*
X186349700Y-138215251D01*
X186412398Y-138142397D01*
X186426188Y-138120448D01*
X186434221Y-138109126D01*
X186450386Y-138088857D01*
X186498468Y-138005573D01*
X186500814Y-138001680D01*
X186551983Y-137920247D01*
X186551983Y-137920246D01*
X186554453Y-137916316D01*
X186556356Y-137917512D01*
X186598570Y-137873996D01*
X186666609Y-137858108D01*
X186732437Y-137881526D01*
X186745631Y-137892568D01*
X186825782Y-137969706D01*
X186825787Y-137969710D01*
X186825790Y-137969713D01*
X186825793Y-137969715D01*
X186825799Y-137969720D01*
X187039670Y-138120153D01*
X187039673Y-138120154D01*
X187039674Y-138120155D01*
X187274016Y-138236185D01*
X187523323Y-138315083D01*
X187781753Y-138355000D01*
X187781757Y-138355000D01*
X188072782Y-138355000D01*
X188072783Y-138355000D01*
X188268227Y-138339995D01*
X188522842Y-138280412D01*
X188765379Y-138182662D01*
X188990151Y-138049033D01*
X189191891Y-137882660D01*
X189365870Y-137687440D01*
X189365872Y-137687435D01*
X189365876Y-137687432D01*
X189508006Y-137467955D01*
X189508009Y-137467951D01*
X189614978Y-137229337D01*
X189634032Y-137160000D01*
X199499500Y-137160000D01*
X199499500Y-149375500D01*
X199479815Y-149442539D01*
X199427011Y-149488294D01*
X199375500Y-149499500D01*
X162684000Y-149499500D01*
X162616961Y-149479815D01*
X162571206Y-149427011D01*
X162560000Y-149375500D01*
X162560000Y-143830007D01*
X163894671Y-143830007D01*
X163913964Y-144124363D01*
X163913965Y-144124373D01*
X163913966Y-144124380D01*
X163913968Y-144124390D01*
X163971518Y-144413716D01*
X163971521Y-144413730D01*
X164066349Y-144693080D01*
X164196825Y-144957660D01*
X164196829Y-144957667D01*
X164360725Y-145202955D01*
X164555241Y-145424758D01*
X164777044Y-145619274D01*
X164878683Y-145687187D01*
X165022335Y-145783172D01*
X165286923Y-145913652D01*
X165566278Y-146008481D01*
X165855620Y-146066034D01*
X165883888Y-146067886D01*
X166149993Y-146085329D01*
X166150000Y-146085329D01*
X166150007Y-146085329D01*
X166385675Y-146069881D01*
X166444380Y-146066034D01*
X166733722Y-146008481D01*
X167013077Y-145913652D01*
X167277665Y-145783172D01*
X167522957Y-145619273D01*
X167744758Y-145424758D01*
X167785901Y-145377844D01*
X169230000Y-145377844D01*
X169236401Y-145437372D01*
X169236403Y-145437379D01*
X169286645Y-145572086D01*
X169286649Y-145572093D01*
X169372809Y-145687187D01*
X169372812Y-145687190D01*
X169487906Y-145773350D01*
X169487913Y-145773354D01*
X169622620Y-145823596D01*
X169622627Y-145823598D01*
X169682155Y-145829999D01*
X169682172Y-145830000D01*
X170980000Y-145830000D01*
X170980000Y-144551802D01*
X171141169Y-144590000D01*
X171274267Y-144590000D01*
X171406461Y-144574549D01*
X171480000Y-144547782D01*
X171480000Y-145830000D01*
X172777828Y-145830000D01*
X172777844Y-145829999D01*
X172837372Y-145823598D01*
X172837379Y-145823596D01*
X172972086Y-145773354D01*
X172972093Y-145773350D01*
X173087187Y-145687190D01*
X173087190Y-145687187D01*
X173173350Y-145572093D01*
X173173354Y-145572086D01*
X173223596Y-145437379D01*
X173223598Y-145437372D01*
X173229999Y-145377844D01*
X173230000Y-145377827D01*
X173230000Y-144080000D01*
X171948483Y-144080000D01*
X171983549Y-143962871D01*
X171993879Y-143785509D01*
X171963029Y-143610546D01*
X171949853Y-143580000D01*
X173230000Y-143580000D01*
X173230000Y-142282172D01*
X173229999Y-142282155D01*
X173223598Y-142222627D01*
X173223596Y-142222620D01*
X173173354Y-142087913D01*
X173173350Y-142087906D01*
X173087190Y-141972812D01*
X173087187Y-141972809D01*
X172972093Y-141886649D01*
X172972086Y-141886645D01*
X172837379Y-141836403D01*
X172837372Y-141836401D01*
X172777844Y-141830000D01*
X171480000Y-141830000D01*
X171480000Y-143108197D01*
X171318831Y-143070000D01*
X171185733Y-143070000D01*
X171053539Y-143085451D01*
X170980000Y-143112217D01*
X170980000Y-141830000D01*
X169682155Y-141830000D01*
X169622627Y-141836401D01*
X169622620Y-141836403D01*
X169487913Y-141886645D01*
X169487906Y-141886649D01*
X169372812Y-141972809D01*
X169372809Y-141972812D01*
X169286649Y-142087906D01*
X169286645Y-142087913D01*
X169236403Y-142222620D01*
X169236401Y-142222627D01*
X169230000Y-142282155D01*
X169230000Y-143580000D01*
X170511517Y-143580000D01*
X170476451Y-143697129D01*
X170466121Y-143874491D01*
X170496971Y-144049454D01*
X170510147Y-144080000D01*
X169230000Y-144080000D01*
X169230000Y-145377844D01*
X167785901Y-145377844D01*
X167939273Y-145202957D01*
X168103172Y-144957665D01*
X168233652Y-144693077D01*
X168328481Y-144413722D01*
X168386034Y-144124380D01*
X168395207Y-143984433D01*
X168405329Y-143830007D01*
X168405329Y-143829992D01*
X168386035Y-143535636D01*
X168386034Y-143535620D01*
X168328481Y-143246278D01*
X168233652Y-142966923D01*
X168103172Y-142702336D01*
X167939273Y-142457043D01*
X167873598Y-142382155D01*
X167744758Y-142235241D01*
X167522955Y-142040725D01*
X167277667Y-141876829D01*
X167277660Y-141876825D01*
X167013080Y-141746349D01*
X166733730Y-141651521D01*
X166733724Y-141651519D01*
X166733722Y-141651519D01*
X166444380Y-141593966D01*
X166444373Y-141593965D01*
X166444363Y-141593964D01*
X166150007Y-141574671D01*
X166149993Y-141574671D01*
X165855636Y-141593964D01*
X165855624Y-141593965D01*
X165855620Y-141593966D01*
X165855612Y-141593967D01*
X165855609Y-141593968D01*
X165566283Y-141651518D01*
X165566269Y-141651521D01*
X165286919Y-141746349D01*
X165022334Y-141876828D01*
X164777041Y-142040728D01*
X164555241Y-142235241D01*
X164360728Y-142457041D01*
X164196828Y-142702334D01*
X164066349Y-142966919D01*
X163971521Y-143246269D01*
X163971518Y-143246283D01*
X163913968Y-143535609D01*
X163913964Y-143535636D01*
X163894671Y-143829992D01*
X163894671Y-143830007D01*
X162560000Y-143830007D01*
X162560000Y-137284000D01*
X162579685Y-137216961D01*
X162632489Y-137171206D01*
X162684000Y-137160000D01*
X168822875Y-137160000D01*
X168863829Y-137166958D01*
G37*
%TD.AperFunction*%
%TD*%
M02*
