M48
; DRILL file {KiCad 7.0.11+dfsg-1build4} date Mon 25 Aug 2025 09:02:53 PM CDT
; FORMAT={-:-/ absolute / inch / decimal}
; #@! TF.CreationDate,2025-08-25T21:02:53-05:00
; #@! TF.GenerationSoftware,Kicad,Pcbnew,7.0.11+dfsg-1build4
; #@! TF.FileFunction,Plated,1,2,PTH
FMAT,2
INCH
; #@! TA.AperFunction,Plated,PTH,ViaDrill
T1C0.0118
; #@! TA.AperFunction,Plated,PTH,ComponentDrill
T2C0.0315
; #@! TA.AperFunction,Plated,PTH,ComponentDrill
T3C0.0394
; #@! TA.AperFunction,Plated,PTH,ComponentDrill
T4C0.0433
; #@! TA.AperFunction,Plated,PTH,ComponentDrill
T5C0.0472
; #@! TA.AperFunction,Plated,PTH,ComponentDrill
T6C0.0598
; #@! TA.AperFunction,Plated,PTH,ComponentDrill
T7C0.0984
%
G90
G05
T1
X4.67Y-4.27
X5.2Y-3.82
T2
X4.1296Y-2.891
X4.228Y-2.891
X4.32Y-3.74
X4.32Y-3.84
X4.32Y-3.94
X4.4676Y-2.724
X4.538Y-2.21
X4.538Y-2.51
X4.566Y-2.724
X4.62Y-5.08
X4.62Y-5.38
X4.72Y-2.32
X4.72Y-2.62
X4.76Y-5.08
X4.76Y-5.38
X4.86Y-2.32
X4.86Y-2.62
X4.95Y-5.08
X4.95Y-5.38
X5.017Y-2.9581
X5.017Y-3.155
X5.08Y-5.08
X5.08Y-5.38
X5.145Y-2.9591
X5.145Y-3.156
X5.273Y-2.9591
X5.273Y-3.156
X5.403Y-2.9621
X5.403Y-3.159
X5.537Y-2.9611
X5.537Y-3.158
X5.54Y-5.1
X5.54Y-5.4
X5.56Y-2.32
X5.56Y-2.62
X5.669Y-2.9611
X5.669Y-3.158
X5.68Y-5.1
X5.68Y-5.4
X5.7Y-2.32
X5.7Y-2.62
X5.799Y-2.9611
X5.799Y-3.158
X5.84Y-2.32
X5.84Y-2.62
X5.84Y-5.1
X5.84Y-5.4
X5.9358Y-2.8035
X5.98Y-5.1
X5.98Y-5.4
X6.0343Y-2.8035
X6.12Y-5.1
X6.12Y-5.4
X6.1713Y-3.0217
X6.1713Y-3.1201
X6.26Y-5.1
X6.26Y-5.4
X6.3213Y-4.8268
X6.3228Y-4.5701
X6.3232Y-4.9587
X6.326Y-4.6976
X6.34Y-3.28
X6.34Y-3.58
X6.34Y-3.68
X6.34Y-3.98
X6.484Y-3.525
X6.5016Y-4.0807
X6.502Y-4.2051
X6.506Y-3.096
X6.506Y-3.396
X6.5465Y-2.7933
X6.5465Y-2.9902
X6.58Y-2.3
X6.58Y-2.6
X6.607Y-3.653
X6.6213Y-4.8268
X6.6228Y-4.5701
X6.6232Y-4.9587
X6.626Y-4.6976
X6.652Y-3.904
X6.675Y-2.8
X6.675Y-3.1
X6.689Y-3.199
X6.689Y-3.299
X6.689Y-3.399
X6.72Y-2.3
X6.72Y-2.6
X6.752Y-4.8449
X6.752Y-4.9449
X6.752Y-5.0449
X6.752Y-3.904
X6.7531Y-4.5535
X6.7531Y-4.6535
X6.7531Y-4.7535
X6.784Y-3.525
X6.8016Y-4.0807
X6.802Y-4.2051
X6.8094Y-5.176
X6.85Y-2.3
X6.85Y-2.6
X6.852Y-3.904
X6.866Y-2.918
X6.866Y-3.018
X6.866Y-3.118
X6.899Y-3.215
X6.899Y-3.515
X6.9035Y-4.3957
X6.9063Y-4.5921
X6.907Y-3.653
X6.9091Y-4.7898
X6.9106Y-4.9906
X7.0035Y-4.3957
X7.005Y-3.665
X7.005Y-3.897
X7.0063Y-4.5921
X7.009Y-3.464
X7.0091Y-4.7898
X7.0106Y-4.9906
X7.022Y-2.978
X7.028Y-3.266
X7.1035Y-4.3957
X7.105Y-3.665
X7.105Y-3.897
X7.1063Y-4.5921
X7.109Y-3.464
X7.1091Y-4.7898
X7.1094Y-5.176
X7.1106Y-4.9906
X7.128Y-3.266
X7.205Y-3.665
X7.205Y-3.897
X7.209Y-3.464
X7.2185Y-4.0791
X7.2185Y-4.276
X7.2205Y-5.1067
X7.2205Y-5.3035
X7.228Y-3.266
X7.2906Y-2.4646
X7.322Y-2.978
X7.3835Y-3.2331
X7.3835Y-3.4299
X7.3894Y-4.6161
X7.3894Y-4.9161
X7.422Y-3.58
X7.422Y-3.88
X7.4874Y-2.4646
T3
X4.39Y-2.32
X4.39Y-2.42
X4.6Y-3.3
X4.6Y-3.9
X4.7Y-3.3
X4.7Y-3.9
X4.71Y-2.13
X4.8Y-3.3
X4.8Y-3.9
X4.81Y-2.13
X4.9Y-3.3
X4.9Y-3.9
X5.0Y-3.3
X5.0Y-3.9
X5.1Y-3.3
X5.1Y-3.9
X5.2Y-3.3
X5.2Y-3.9
X5.23Y-2.62
X5.3Y-3.3
X5.3Y-3.9
X5.33Y-2.62
X5.4Y-3.3
X5.4Y-3.9
X5.5Y-3.3
X5.5Y-3.9
X5.6Y-3.3
X5.6Y-3.9
X5.7Y-3.3
X5.7Y-3.9
X5.72Y-2.14
X5.8Y-3.3
X5.8Y-3.9
X5.82Y-2.14
X5.9Y-3.3
X5.9Y-3.9
X6.0Y-3.3
X6.0Y-3.9
X6.24Y-2.58
X6.34Y-2.58
X6.73Y-2.14
X6.83Y-2.14
T4
X4.3441Y-5.6028
X4.3441Y-5.78
X4.54Y-3.08
X4.6Y-5.6028
X4.6Y-5.78
X4.64Y-3.08
X4.74Y-3.08
X4.7641Y-5.6028
X4.7641Y-5.78
X5.02Y-5.6028
X5.02Y-5.78
X5.1841Y-5.6028
X5.1841Y-5.78
X5.44Y-5.6028
X5.44Y-5.78
X5.6041Y-5.6028
X5.6041Y-5.78
X5.86Y-5.6028
X5.86Y-5.78
X6.0241Y-5.6028
X6.0241Y-5.78
X6.28Y-5.6028
X6.28Y-5.78
X7.52Y-4.675
X7.52Y-4.775
X7.52Y-4.875
X7.531Y-5.201
X7.531Y-5.301
X7.531Y-5.401
X7.555Y-3.604
X7.555Y-3.704
X7.555Y-3.804
X7.624Y-2.44
X7.624Y-2.54
X7.624Y-2.64
T5
X4.3Y-4.16
X4.4Y-4.16
X4.5Y-4.16
X4.6Y-4.16
X4.7Y-4.16
X4.8Y-4.16
X4.9Y-4.16
X5.0Y-4.16
X5.1Y-4.16
X5.2Y-4.16
X5.3Y-4.16
X5.4Y-4.16
X5.5Y-4.16
X5.6Y-4.16
X5.7Y-4.16
X5.8Y-4.16
T6
X5.08Y-2.22
X5.28Y-2.22
X6.12Y-2.22
X6.32Y-2.22
X6.5413Y-5.6626
X6.7413Y-5.6626
X7.0315Y-5.6665
X7.152Y-2.748
X7.17Y-2.24
X7.2315Y-5.6665
X7.352Y-2.748
X7.37Y-2.24
X7.52Y-4.122
X7.52Y-4.322
X7.606Y-3.054
X7.606Y-3.254
T7
X4.0835Y-4.16
X4.0835Y-5.3805
X7.0362Y-5.3805
X7.0362Y-4.16
T3
G00X4.1038Y-3.2406
M15
G01X4.1038Y-3.3194
M16
G05
G00X4.1825Y-3.465
M15
G01X4.2613Y-3.465
M16
G05
G00X4.34Y-3.2406
M15
G01X4.34Y-3.3194
M16
G05
M30
