%TF.GenerationSoftware,KiCad,Pcbnew,7.0.11+dfsg-1build4*%
%TF.CreationDate,2025-08-25T21:02:58-05:00*%
%TF.ProjectId,SilentTempController,53696c65-6e74-4546-956d-70436f6e7472,rev?*%
%TF.SameCoordinates,Original*%
%TF.FileFunction,Soldermask,Top*%
%TF.FilePolarity,Negative*%
%FSLAX46Y46*%
G04 Gerber Fmt 4.6, Leading zero omitted, Abs format (unit mm)*
G04 Created by KiCad (PCBNEW 7.0.11+dfsg-1build4) date 2025-08-25 21:02:58*
%MOMM*%
%LPD*%
G01*
G04 APERTURE LIST*
G04 Aperture macros list*
%AMRoundRect*
0 Rectangle with rounded corners*
0 $1 Rounding radius*
0 $2 $3 $4 $5 $6 $7 $8 $9 X,Y pos of 4 corners*
0 Add a 4 corners polygon primitive as box body*
4,1,4,$2,$3,$4,$5,$6,$7,$8,$9,$2,$3,0*
0 Add four circle primitives for the rounded corners*
1,1,$1+$1,$2,$3*
1,1,$1+$1,$4,$5*
1,1,$1+$1,$6,$7*
1,1,$1+$1,$8,$9*
0 Add four rect primitives between the rounded corners*
20,1,$1+$1,$2,$3,$4,$5,0*
20,1,$1+$1,$4,$5,$6,$7,0*
20,1,$1+$1,$6,$7,$8,$9,0*
20,1,$1+$1,$8,$9,$2,$3,0*%
G04 Aperture macros list end*
%ADD10C,1.600000*%
%ADD11O,1.600000X1.600000*%
%ADD12R,1.500000X1.500000*%
%ADD13C,1.500000*%
%ADD14R,2.000000X1.905000*%
%ADD15O,2.000000X1.905000*%
%ADD16R,1.700000X1.700000*%
%ADD17O,1.700000X1.700000*%
%ADD18C,2.000000*%
%ADD19R,3.000000X3.000000*%
%ADD20C,3.000000*%
%ADD21R,3.500000X3.500000*%
%ADD22RoundRect,0.750000X-0.750000X-1.000000X0.750000X-1.000000X0.750000X1.000000X-0.750000X1.000000X0*%
%ADD23RoundRect,0.875000X-0.875000X-0.875000X0.875000X-0.875000X0.875000X0.875000X-0.875000X0.875000X0*%
%ADD24R,1.600000X1.600000*%
%ADD25C,1.440000*%
%ADD26R,1.905000X2.000000*%
%ADD27O,1.905000X2.000000*%
%ADD28R,1.800000X2.600000*%
%ADD29O,1.800000X2.600000*%
%ADD30C,3.200000*%
G04 APERTURE END LIST*
D10*
%TO.C,R14*%
X167132000Y-66040000D03*
D11*
X167132000Y-58420000D03*
%TD*%
D12*
%TO.C,Q6*%
X180500000Y-116640000D03*
D13*
X177960000Y-116640000D03*
X175420000Y-116640000D03*
%TD*%
D10*
%TO.C,C6*%
X137236200Y-80238600D03*
X137236200Y-75238600D03*
%TD*%
D14*
%TO.C,Q8*%
X191008000Y-118745000D03*
D15*
X191008000Y-121285000D03*
X191008000Y-123825000D03*
%TD*%
D16*
%TO.C,J5*%
X147828000Y-54356000D03*
D17*
X145288000Y-54356000D03*
%TD*%
D10*
%TO.C,C15*%
X183400000Y-134710000D03*
X183400000Y-129710000D03*
%TD*%
%TO.C,R13*%
X170688000Y-66040000D03*
D11*
X170688000Y-58420000D03*
%TD*%
D10*
%TO.C,R29*%
X160610000Y-125950000D03*
D11*
X168230000Y-125950000D03*
%TD*%
D12*
%TO.C,Q5*%
X171530000Y-115660000D03*
D13*
X171530000Y-118200000D03*
X171530000Y-120740000D03*
%TD*%
D18*
%TO.C,SW1*%
X127508000Y-146812000D03*
X121008000Y-146812000D03*
X127508000Y-142312000D03*
X121008000Y-142312000D03*
%TD*%
D10*
%TO.C,R12*%
X161036000Y-83312000D03*
D11*
X161036000Y-90932000D03*
%TD*%
D10*
%TO.C,C13*%
X187540000Y-87120000D03*
X187540000Y-82120000D03*
%TD*%
%TO.C,R27*%
X187690000Y-124870000D03*
D11*
X187690000Y-117250000D03*
%TD*%
D19*
%TO.C,J2*%
X171230000Y-143830000D03*
D20*
X166150000Y-143830000D03*
%TD*%
D10*
%TO.C,C3*%
X147294600Y-80213200D03*
X147294600Y-75213200D03*
%TD*%
%TO.C,R5*%
X140716000Y-137160000D03*
D11*
X140716000Y-129540000D03*
%TD*%
D10*
%TO.C,R36*%
X165252400Y-86258400D03*
D11*
X165252400Y-78638400D03*
%TD*%
D21*
%TO.C,J1*%
X110236000Y-83312000D03*
D22*
X104236000Y-83312000D03*
D23*
X107236000Y-88012000D03*
%TD*%
D24*
%TO.C,C2*%
X107391200Y-73431400D03*
D10*
X104891200Y-73431400D03*
%TD*%
D19*
%TO.C,J4*%
X182118000Y-56896000D03*
D20*
X187198000Y-56896000D03*
%TD*%
D12*
%TO.C,Q11*%
X180570000Y-121660000D03*
D13*
X178030000Y-121660000D03*
X175490000Y-121660000D03*
%TD*%
D10*
%TO.C,C9*%
X133934200Y-80162400D03*
X133934200Y-75162400D03*
%TD*%
%TO.C,R16*%
X144780000Y-66548000D03*
D11*
X144780000Y-58928000D03*
%TD*%
D10*
%TO.C,R33*%
X178358800Y-75641200D03*
D11*
X185978800Y-75641200D03*
%TD*%
D19*
%TO.C,J14*%
X183680000Y-143930000D03*
D20*
X178600000Y-143930000D03*
%TD*%
D25*
%TO.C,RV1*%
X109728000Y-100076000D03*
X109728000Y-97536000D03*
X109728000Y-94996000D03*
%TD*%
D10*
%TO.C,R17*%
X141224000Y-66548000D03*
D11*
X141224000Y-58928000D03*
%TD*%
D12*
%TO.C,Q13*%
X174396400Y-74117200D03*
D13*
X174396400Y-76657200D03*
X174396400Y-79197200D03*
%TD*%
D10*
%TO.C,R22*%
X172760000Y-103650000D03*
D11*
X165140000Y-103650000D03*
%TD*%
D12*
%TO.C,Q7*%
X180430000Y-111650000D03*
D13*
X177890000Y-111650000D03*
X175350000Y-111650000D03*
%TD*%
D18*
%TO.C,SW3*%
X148844000Y-146812000D03*
X142344000Y-146812000D03*
X148844000Y-142312000D03*
X142344000Y-142312000D03*
%TD*%
D24*
%TO.C,C11*%
X156750000Y-79250000D03*
D10*
X156750000Y-76750000D03*
%TD*%
%TO.C,R18*%
X148336000Y-66548000D03*
D11*
X148336000Y-58928000D03*
%TD*%
D14*
%TO.C,Q3*%
X191897000Y-91541600D03*
D15*
X191897000Y-94081600D03*
X191897000Y-96621600D03*
%TD*%
D10*
%TO.C,R24*%
X168220000Y-116080000D03*
D11*
X160600000Y-116080000D03*
%TD*%
D19*
%TO.C,J15*%
X181660800Y-69799200D03*
D20*
X186740800Y-69799200D03*
%TD*%
D10*
%TO.C,R25*%
X165150000Y-106810000D03*
D11*
X172770000Y-106810000D03*
%TD*%
D19*
%TO.C,J12*%
X193192400Y-77571600D03*
D20*
X193192400Y-82651600D03*
%TD*%
D10*
%TO.C,R26*%
X160680000Y-119320000D03*
D11*
X168300000Y-119320000D03*
%TD*%
D10*
%TO.C,R30*%
X172960000Y-131470000D03*
D11*
X180580000Y-131470000D03*
%TD*%
D19*
%TO.C,J13*%
X191008000Y-104698800D03*
D20*
X191008000Y-109778800D03*
%TD*%
D19*
%TO.C,J8*%
X129032000Y-56388000D03*
D20*
X134112000Y-56388000D03*
%TD*%
D10*
%TO.C,R3*%
X129032000Y-136652000D03*
D11*
X129032000Y-129032000D03*
%TD*%
D10*
%TO.C,R28*%
X168180000Y-122600000D03*
D11*
X160560000Y-122600000D03*
%TD*%
D10*
%TO.C,R20*%
X115265200Y-63754000D03*
D11*
X115265200Y-56134000D03*
%TD*%
D10*
%TO.C,R7*%
X148336000Y-137160000D03*
D11*
X148336000Y-129540000D03*
%TD*%
D24*
%TO.C,C1*%
X115976400Y-69189600D03*
D10*
X113476400Y-69189600D03*
%TD*%
D12*
%TO.C,Q9*%
X171500000Y-123060000D03*
D13*
X171500000Y-125600000D03*
X171500000Y-128140000D03*
%TD*%
D10*
%TO.C,R19*%
X119888000Y-66548000D03*
D11*
X119888000Y-58928000D03*
%TD*%
D10*
%TO.C,C16*%
X190180000Y-62600000D03*
X185180000Y-62600000D03*
%TD*%
D12*
%TO.C,Q1*%
X174040800Y-99161600D03*
D13*
X171500800Y-99161600D03*
X168960800Y-99161600D03*
%TD*%
D16*
%TO.C,J10*%
X135382000Y-66548000D03*
D17*
X132842000Y-66548000D03*
%TD*%
D18*
%TO.C,SW4*%
X159512000Y-146812000D03*
X153012000Y-146812000D03*
X159512000Y-142312000D03*
X153012000Y-142312000D03*
%TD*%
D14*
%TO.C,Q12*%
X191287400Y-132105400D03*
D15*
X191287400Y-134645400D03*
X191287400Y-137185400D03*
%TD*%
D12*
%TO.C,Q14*%
X183108600Y-87985600D03*
D13*
X180568600Y-87985600D03*
X178028600Y-87985600D03*
%TD*%
D14*
%TO.C,Q16*%
X193649600Y-61976000D03*
D15*
X193649600Y-64516000D03*
X193649600Y-67056000D03*
%TD*%
D10*
%TO.C,C5*%
X143992600Y-80213200D03*
X143992600Y-75213200D03*
%TD*%
%TO.C,R35*%
X167817800Y-92786200D03*
D11*
X175437800Y-92786200D03*
%TD*%
D10*
%TO.C,C8*%
X140639800Y-80213200D03*
X140639800Y-75213200D03*
%TD*%
%TO.C,C7*%
X130683000Y-80162400D03*
X130683000Y-75162400D03*
%TD*%
D18*
%TO.C,SW2*%
X138176000Y-146812000D03*
X131676000Y-146812000D03*
X138176000Y-142312000D03*
X131676000Y-142312000D03*
%TD*%
D10*
%TO.C,R6*%
X151892000Y-129540000D03*
D11*
X151892000Y-137160000D03*
%TD*%
D12*
%TO.C,Q10*%
X180610000Y-126760000D03*
D13*
X178070000Y-126760000D03*
X175530000Y-126760000D03*
%TD*%
D26*
%TO.C,U1*%
X115316000Y-78232000D03*
D27*
X117856000Y-78232000D03*
X120396000Y-78232000D03*
%TD*%
D10*
%TO.C,R2*%
X125730000Y-129032000D03*
D11*
X125730000Y-136652000D03*
%TD*%
D10*
%TO.C,R9*%
X159004000Y-137160000D03*
D11*
X159004000Y-129540000D03*
%TD*%
D16*
%TO.C,J9*%
X161036000Y-65532000D03*
D17*
X158496000Y-65532000D03*
%TD*%
D12*
%TO.C,Q4*%
X183007000Y-98983800D03*
D13*
X180467000Y-98983800D03*
X177927000Y-98983800D03*
%TD*%
D24*
%TO.C,A1*%
X116840000Y-99060000D03*
D11*
X119380000Y-99060000D03*
X121920000Y-99060000D03*
X124460000Y-99060000D03*
X127000000Y-99060000D03*
X129540000Y-99060000D03*
X132080000Y-99060000D03*
X134620000Y-99060000D03*
X137160000Y-99060000D03*
X139700000Y-99060000D03*
X142240000Y-99060000D03*
X144780000Y-99060000D03*
X147320000Y-99060000D03*
X149860000Y-99060000D03*
X152400000Y-99060000D03*
X152400000Y-83820000D03*
X149860000Y-83820000D03*
X147320000Y-83820000D03*
X144780000Y-83820000D03*
X142240000Y-83820000D03*
X139700000Y-83820000D03*
X137160000Y-83820000D03*
X134620000Y-83820000D03*
X132080000Y-83820000D03*
X129540000Y-83820000D03*
X127000000Y-83820000D03*
X124460000Y-83820000D03*
X121920000Y-83820000D03*
X119380000Y-83820000D03*
X116840000Y-83820000D03*
%TD*%
D20*
%TO.C,DS1*%
X103720900Y-105664000D03*
X103720900Y-136664700D03*
X178719480Y-136664700D03*
X178720000Y-105664000D03*
D28*
X109220000Y-105664000D03*
D29*
X111760000Y-105664000D03*
X114300000Y-105664000D03*
X116840000Y-105664000D03*
X119380000Y-105664000D03*
X121920000Y-105664000D03*
X124460000Y-105664000D03*
X127000000Y-105664000D03*
X129540000Y-105664000D03*
X132080000Y-105664000D03*
X134620000Y-105664000D03*
X137160000Y-105664000D03*
X139700000Y-105664000D03*
X142240000Y-105664000D03*
X144780000Y-105664000D03*
X147320000Y-105664000D03*
%TD*%
D30*
%TO.C,H1*%
X195000000Y-55000000D03*
%TD*%
D10*
%TO.C,R8*%
X155448000Y-129540000D03*
D11*
X155448000Y-137160000D03*
%TD*%
D10*
%TO.C,C10*%
X127431800Y-80137000D03*
X127431800Y-75137000D03*
%TD*%
D24*
%TO.C,C4*%
X150770000Y-71210000D03*
D10*
X153270000Y-71210000D03*
%TD*%
%TO.C,R10*%
X117348000Y-129032000D03*
D11*
X117348000Y-136652000D03*
%TD*%
D12*
%TO.C,Q15*%
X183591200Y-82956400D03*
D13*
X181051200Y-82956400D03*
X178511200Y-82956400D03*
%TD*%
D30*
%TO.C,H3*%
X195000000Y-145000000D03*
%TD*%
D10*
%TO.C,R23*%
X188518800Y-98552000D03*
D11*
X188518800Y-90932000D03*
%TD*%
D16*
%TO.C,J7*%
X122174000Y-54102000D03*
D17*
X119634000Y-54102000D03*
%TD*%
D10*
%TO.C,C12*%
X166280000Y-75950000D03*
X166280000Y-70950000D03*
%TD*%
D30*
%TO.C,H2*%
X105000000Y-55000000D03*
%TD*%
D10*
%TO.C,R15*%
X173990000Y-66040000D03*
D11*
X173990000Y-58420000D03*
%TD*%
D19*
%TO.C,J6*%
X155448000Y-56388000D03*
D20*
X160528000Y-56388000D03*
%TD*%
D10*
%TO.C,R31*%
X172313600Y-89535000D03*
D11*
X164693600Y-89535000D03*
%TD*%
D18*
%TO.C,SW5*%
X116840000Y-146812000D03*
X110340000Y-146812000D03*
X116840000Y-142312000D03*
X110340000Y-142312000D03*
%TD*%
D10*
%TO.C,R11*%
X120904000Y-136652000D03*
D11*
X120904000Y-129032000D03*
%TD*%
D16*
%TO.C,J11*%
X111506000Y-61468000D03*
D17*
X111506000Y-58928000D03*
%TD*%
D10*
%TO.C,C14*%
X183350000Y-108610000D03*
X183350000Y-103610000D03*
%TD*%
%TO.C,R32*%
X175234600Y-89281000D03*
D11*
X175234600Y-81661000D03*
%TD*%
D10*
%TO.C,R1*%
X161036000Y-101092000D03*
D11*
X161036000Y-93472000D03*
%TD*%
D12*
%TO.C,Q17*%
X169900600Y-86334600D03*
D13*
X169900600Y-83794600D03*
X169900600Y-81254600D03*
%TD*%
D10*
%TO.C,R21*%
X123444000Y-66548000D03*
D11*
X123444000Y-58928000D03*
%TD*%
D12*
%TO.C,Q2*%
X183007000Y-93091000D03*
D13*
X180467000Y-93091000D03*
X177927000Y-93091000D03*
%TD*%
D30*
%TO.C,H4*%
X105000000Y-145000000D03*
%TD*%
D10*
%TO.C,R34*%
X169545000Y-71120000D03*
D11*
X169545000Y-78740000D03*
%TD*%
D16*
%TO.C,J3*%
X173482000Y-54356000D03*
D17*
X170942000Y-54356000D03*
%TD*%
D10*
%TO.C,R4*%
X144272000Y-129540000D03*
D11*
X144272000Y-137160000D03*
%TD*%
M02*
